M48
;Layer_Color=9474304
;FILE_FORMAT=4:4
METRIC,LZ
;TYPE=PLATED
T1F00S00C0.3000
T2F00S00C0.4064
T3F00S00C0.5000
T4F00S00C0.7112
T5F00S00C0.8000
T6F00S00C0.8500
T7F00S00C1.0000
T8F00S00C1.0414
T9F00S00C1.2000
T10F00S00C1.3000
T11F00S00C1.4000
T12F00S00C1.5000
T13F00S00C1.9000
T14F00S00C3.2000
%
T01
X00138756Y0063052
Y0064777
Y0066442
X00155856
Y0064777
Y0063052
X00173156
Y0064777
Y0066412
T02
X0001905Y00024638
X00012192Y00057912
X0001905Y00075438
X000254Y00100838
Y00126238
X00072898Y00118618
X0008509
X00134874Y00092456
X00131318Y00065024
X0011811Y00065532
X001143Y00018288
X000889
X00069342Y0001397
X001397Y00018288
X0015875
X0018415
X0020955
X0023495
X0026035
X0028575
X0031115
X0033655
X0032116Y00072303
X0027432Y00076708
Y00047498
X00220472Y0008001
X00216408Y00094488
X00169926Y00117602
X00346075Y00126365
X00788162Y0013335
Y0010795
Y0008255
X00910056Y00084403
Y00109803
Y00135203
X00955056Y00130361
Y00104961
Y00079561
X010033Y00070866
Y00096266
Y00121666
X01047242Y00117602
Y00092202
Y00066802
X01091946Y00087122
X01112266
X01132586
X01152906
X01173226
X01193546
X01213866
X01234186
X01244346Y00107442
X01224026
X01234186Y00127762
X01295146
X01274826Y00087122
X01264666Y00066802
X01244346
X01234186Y00046482
X01193546
X01173226
X01152906
X01132586
X01142746Y00066802
X01163066
X01183386
X01203706
X01122426
Y00107442
X01102106
X01378294Y00098954
Y00073554
Y00124354
X01402059Y00126782
Y00101382
Y00152182
X01358842Y0024687
X01358392Y00264668
X01358803Y00300434
X01358353Y00318232
X0140335Y00518668
X0146431
X0147447Y00498348
X01295146Y00534162
X01274826
X01193546
X01173226
X01140968Y0047879
Y0045339
X01131324Y00418671
X01155044Y00418428
X01224026Y00432562
X01234186Y00412242
X01254506
X01264666Y00391922
X01244346
X01254506Y00371602
X01274826
X01295146
Y00330962
X01274826
X01254506
X01234186
X01244346Y00351282
X01264666
Y00310642
X01284986
X01305306
X01295146Y00290322
X01274826
X01254506
X01234186
X01244346Y00310642
X01224026
X01203706
X01183386
X01193546Y00330962
X01203706Y00351282
X01224026
X01234186Y00371602
X01213866
X01193546
X01183386Y00351282
X01193546Y00290322
X01203706Y00270002
X01224026
X01244346
X01264666
X01254506Y00249682
X01234186
X01244346Y00229362
X01264666
X01254506Y00209042
X01264666Y00188722
X01274826Y00168402
X01295146
X01305306Y00148082
X01284986
X01264666
X01254506Y00168402
X01234186
X01224026Y00188722
Y00229362
X01203706
X01183386
X01193546Y00249682
X01183386Y00270002
X01113436Y00264198
X01073404Y00356362
Y00381762
Y00407162
X0105156Y00471678
X0102616
X0100076
X00978408Y00516382
X00983488Y00418338
X00958088
X00988695Y00348105
X00965454Y00265176
X0095758Y00156464
X01186703Y00158071
X01200927
X01224026Y00148082
X0093472Y00290322
X00926946Y00319564
Y00338715
X00932688Y00418338
X00876554Y00505714
X00790194Y00474762
Y00441849
Y00411098
X00785348Y00325354
X00766249Y00306255
X0075692Y00281432
X00833374Y00284988
Y00310388
Y00335788
X00665946Y00330967
Y00313489
Y00296541
X00621946Y00317793
Y00343193
X00677926Y00393192
Y00418592
Y00443992
X00698246Y00456438
X00723646
X00780288Y0053594
X00568452Y00453136
X00553974Y00452882
X00440944Y00419862
X00425704
X00410464
X00395224
X00404622Y0035687
X00361188Y0031369
X00345186Y0023495
X00331978Y00235458
X00330708Y00185928
X00313712Y00144036
X00377952Y00145796
X0046736Y00151638
X0048768
X00508
X0051816Y00171958
X0049784
X0047752
X004572
X00295148Y002159
X0028194Y00216408
X00231924Y00145267
X00194056Y00155956
X00194564Y00169164
X00186944Y00324866
X00173736Y00325374
X00160528
X0014732Y00325882
X00162306Y00426212
X0020447Y00459232
X00204978Y0047752
X00143256Y0052451
X00275844Y00535432
X0009525Y0043688
X00083312
X00094742Y0039624
X0010795Y00395732
X00110299Y00254825
X00122491
X000254Y00253238
Y00227838
Y00202438
Y00177038
Y00151638
X00116474Y00157694
X00007874Y00326898
X00015748Y00539496
X00028956Y0053975
X00042164
X00055372Y00539242
X0008001Y00763016
X00097536Y008001
X00098044Y00881126
X00013208Y00894842
X0001016Y0092075
X00168148Y00904494
X00181356Y00903986
X00207264Y00927608
X00277368
X00252984Y00853948
X0023622Y00807212
X00249936Y00787146
X00239014Y00766826
X00232156Y00705104
X00232918Y00684022
X0023241Y00670814
X00230378Y0065024
X00208026Y0065532
X00216154Y00684375
X00199898Y00716427
X00187452Y00706628
X00164846Y00715264
X00145034Y00726186
X0014859Y00766826
X00161798Y00766318
X0021336Y00597916
X00269494Y00588518
X00407416Y0059436
X00420624Y00593852
X0045466Y0065278
X00467868Y00652272
X00517398Y00644906
X00530606Y00644398
X00524002Y00596138
X00418084Y00784352
X00404876Y0078486
X0042164Y00811022
X00442976Y00830326
X00445866Y00852536
X00388208Y008693
X00375079
X0036195
X00486506Y00894954
X0050708Y00894556
X00579628Y00916178
X00572516Y00932434
X00591058Y00869442
X00604012Y00869696
X00615696Y00870204
X00675894Y00866648
X0067564Y00853694
X00716282Y00841599
X0071628Y00784352
X00681228Y00775208
X00659384
X0063877Y00759557
X00623306Y00783992
X00616204Y00800608
X00653288Y00821944
X00773938Y00824738
X0082296Y0083693
X00844668Y00839126
X00809498Y0086614
X00762508Y00913384
X00877824Y00906272
X00927354Y0086741
X00924052Y00844296
X00854124Y00779237
X00824588Y00758421
X00784352Y00739648
X0076454Y00698246
X00764286Y0068707
X00779018Y00613918
X00780542Y00589788
X00791464Y00590296
X00778185Y0055737
X00767819Y00557587
X00690372Y00593344
X00691388Y00645922
X0067818Y0064643
X0061595Y00621792
X00614426Y007112
X00615442Y00724154
X00551434Y00786638
X00872199Y00705304
X00854456Y00643382
X00841248Y0064389
X00850138Y0059944
X00849884Y00589534
X00924306Y00561594
X00940278Y00561871
X00944118Y00613664
X00939546Y00676402
X00959866
X00980186
X01000506
X01020826
X01041146
X01061466
X01028954Y00689864
X01031962Y0071159
X01074928Y00739648
X0110867Y0075223
X01119378Y00736346
X01112266Y00696722
X01217425Y00703716
X0124714Y00634238
X01284986Y00635762
X01274826Y00574802
X01163066Y00554482
X01166368Y00627982
X01189442Y0078017
X0132386Y00788968
X013208Y00761238
X01307338Y00892302
X0130683Y0090805
X0128905Y00924306
X01019556Y0088519
X01013714Y00789432
X01045988Y00797068
X0096012Y00797052
X0096393Y00811276
X00948131Y00780586
X00980186Y00760984
X00992632Y00745998
X00952754Y00709168
X0095123Y00696468
X00949452Y0085217
X01376426Y0090551
X01404239Y00918415
X01462278Y00912876
X01484122Y00908558
Y00933958
X0147066Y00890778
X014224Y00659638
X01397
X01346974Y00670096
X013335Y00685038
X01333512Y0072242
X0139319Y00579628
X0141351
X0143383
X0144399Y00559308
X0142367
X0140335
X0141351Y00538988
X0143383
X0145415
X0147447
X0146431Y00559308
X0147447Y00579628
X01484122Y00959358
X01481328Y0098806
X01391412Y00991616
X01366012
X01340612
X01349756Y00972058
X01404239Y00969215
Y00943815
X01324356Y00972058
X01298956
X01289812Y00991616
X01315212
X01264412
X01239012
X01213612
X01188212
X01162812
X01137412
X01112012
X01086612
X01061212
X01035812
X01010412
X00985012
X00959612
X00934212
X00908812
X00883412
X00858012
X00832612
X00807212
X00781812
X00756412
X00731012
X00705612
X00680212
X00654812
X00630793Y00991019
X00630682Y00973582
X0064389
X00602869Y00990805
X00578612Y00991616
X00553212
X00666654Y00936378
X0071247Y00939292
X00527812Y00991616
X00502412
X00477012
X00451612
X004572Y00973582
X00443992
X00426212Y00991616
X00400812
X00375412
X00350012
X00324612
X00299212
X00272161Y00992681
X00248412Y00991616
X00223012
X00197612
X00172212
X00146812
X002794Y00970026
X00292608Y00969518
X00325374Y00936752
X00379984Y00967994
X004572Y00939038
X00121412Y00991616
X00096012
X00070612
X00014224Y00980694
X00009144Y00949706
T03
X0024Y00044238
X002525
T04
X00121666Y00048514
X00140716Y00047752
X0034163Y00065786
X00354584Y00076708
X01036828Y00517652
X00927354Y0049276
X00643128Y00526542
X00689864Y00196088
X00711454Y00195834
X00570738Y00185674
X0057023Y0016637
X0054991
X00550418Y00185928
X00490728Y00310134
X00489458Y00329692
X00472694Y003302
X004699Y00310388
X00487649Y00346871
X00484378Y00479044
X004826Y00500634
X0046228Y00499618
X00461264Y00478536
X00468576Y00524739
X00488188Y00525526
X0037973Y00454406
X00363982
Y00437134
X0037973
X00341122Y004572
X00324104Y00457962
X00300228Y00480314
X00298958Y00495808
X00292354Y00517906
X0030861Y00518922
X00308864Y00536448
X00294386Y0053467
X00355854Y00166624
X00354827Y00150379
X0007874Y00161798
X000762Y00288798
X0009271Y00289814
X00320294Y00573532
X00319024Y00587502
X0037719Y00590804
X00377698Y00572516
X00467868Y00542544
X00487426Y0054229
X00643636Y00542798
X00944626Y00626618
X01010412Y00633476
X01125982Y00627634
X01118616Y00583946
X01138682
X01140206Y00561594
X01118616Y00561848
X01271721Y00669233
X01272286Y00685546
X01290066Y00686562
Y0066929
X01279906Y00781558
X01260562Y0078144
Y0080176
X01279612
X01280882Y0082208
X01301202
Y0080176
X01302472Y0078271
X01260562Y0082208
X01121918Y00857758
X01094486Y00856742
X01357376Y00549148
T05
X00572516Y00034182
Y00084182
X006731Y00074904
Y00039904
X00941432Y00223266
X01070356Y0024558
Y0019558
X01292894Y00490058
X00802548Y0050546
X00727548
X00759098Y00262382
X00809098
X00837092Y00178562
X00762092
X00891432Y00223266
X00667258Y00276352
X00632258
X00566166Y00371348
X00516166
X01292894Y00565058
X01263904Y00903706
X0041878Y00963412
X0039878
T06
X00041148Y00799084
Y00819084
Y00839084
T07
X00444754Y00021336
Y00046736
Y00072136
Y00097536
Y00122936
X01097046Y0005207
X0125939Y00126076
X01326446Y00126076
X01365446Y00201076
X0129839Y00201076
X01299972Y00262708
X01299972Y00457708
X01207678Y00503486
X01118892Y00320603
X00968891
X00444754Y00148336
X00031496Y00321818
Y00346818
Y00371818
Y00396818
Y00449764
Y00474764
Y00499764
Y00524764
X00346964Y0076073
X00372364
X00397764
X00423164
X01132678Y00542486
X01263904Y00868706
X00568614Y00951568
X00543614
X00518614
X00493614
X00254254Y00958378
X00228854
X00203454
X00178054
X00152654
X00127254
T08
X00302006Y00293624
Y00318624
Y00394354
Y00419354
X0070271Y00956111
X0072771
X00349358
X00324358
T09
X01374882Y0005207
X01122056Y00373888
Y00473888
X00972056
X00972058Y00373888
T10
X0137534Y00592874
Y00643274
Y00693674
X0145034
Y00643274
Y00592874
Y00846274
X0137534
T11
X01194054Y00184404
Y00404404
T12
X01439672Y00156972
Y00207772
Y00258572
X0144Y00399238
Y00450038
Y00500838
X0116967Y00937514
X0111887
T13
X00741368Y0003683
X00785368
X00911368Y0003783
X00956368
X01000368
X01046368
X00926946Y00364482
X00880946
X00836946
X00791946
X00665946Y00363482
X00621946
T14
X0004873Y00052286
X0144873
Y00952286
X0004873
M30
