G04*
G04 #@! TF.GenerationSoftware,Altium Limited,Altium Designer,22.5.1 (42)*
G04*
G04 Layer_Color=16711935*
%FSLAX44Y44*%
%MOMM*%
G71*
G04*
G04 #@! TF.SameCoordinates,325B58FB-DF44-4075-A057-A786A272C4E4*
G04*
G04*
G04 #@! TF.FilePolarity,Positive*
G04*
G01*
G75*
%ADD12C,0.2540*%
G54D12*
X738378Y637032D02*
X741207Y638203D01*
X742378Y641032D01*
X727378D02*
X728549Y638203D01*
X731378Y637032D01*
X742378Y793032D02*
X741207Y795860D01*
X738378Y797032D01*
X731378D02*
X728549Y795860D01*
X727378Y793032D01*
X824465Y104221D02*
X821636Y103050D01*
X820465Y100221D01*
X876345D02*
X875173Y103050D01*
X872345Y104221D01*
X820465Y11701D02*
X821636Y8873D01*
X824465Y7701D01*
X872345D02*
X875173Y8873D01*
X876345Y11701D01*
X575818Y634362D02*
X578646Y635534D01*
X579818Y638362D01*
X564818D02*
X565990Y635534D01*
X568818Y634362D01*
X579818Y860362D02*
X578646Y863190D01*
X575818Y864362D01*
X568818D02*
X565990Y863190D01*
X564818Y860362D01*
X56198Y569468D02*
X59027Y570639D01*
X60198Y573468D01*
X1987D02*
X3159Y570639D01*
X5987Y569468D01*
X60198Y745726D02*
X59027Y748555D01*
X56198Y749726D01*
X5987D02*
X3159Y748555D01*
X1987Y745726D01*
X575818Y634362D02*
X578646Y635534D01*
X579818Y638362D01*
X564818D02*
X565990Y635534D01*
X568818Y634362D01*
X579818Y860362D02*
X578646Y863190D01*
X575818Y864362D01*
X568818D02*
X565990Y863190D01*
X564818Y860362D01*
X902272Y631278D02*
X905100Y632450D01*
X906272Y635278D01*
X891272D02*
X892444Y632450D01*
X895272Y631278D01*
X906272Y827278D02*
X905100Y830106D01*
X902272Y831278D01*
X895272D02*
X892444Y830106D01*
X891272Y827278D01*
X738378Y637032D02*
X741207Y638203D01*
X742378Y641032D01*
X727378D02*
X728549Y638203D01*
X731378Y637032D01*
X742378Y793032D02*
X741207Y795860D01*
X738378Y797032D01*
X731378D02*
X728549Y795860D01*
X727378Y793032D01*
X902272Y631278D02*
X905100Y632450D01*
X906272Y635278D01*
X891272D02*
X892444Y632450D01*
X895272Y631278D01*
X906272Y827278D02*
X905100Y830106D01*
X902272Y831278D01*
X895272D02*
X892444Y830106D01*
X891272Y827278D01*
X702246Y433134D02*
X699418Y431962D01*
X698246Y429134D01*
X754126D02*
X752954Y431962D01*
X750126Y433134D01*
X698246Y340614D02*
X699418Y337786D01*
X702246Y336614D01*
X750126D02*
X752954Y337786D01*
X754126Y340614D01*
X56198Y569468D02*
X59027Y570639D01*
X60198Y573468D01*
X1987D02*
X3159Y570639D01*
X5987Y569468D01*
X60198Y745726D02*
X59027Y748555D01*
X56198Y749726D01*
X5987D02*
X3159Y748555D01*
X1987Y745726D01*
X1354328Y731030D02*
X1355500Y728202D01*
X1358328Y727030D01*
Y752030D02*
X1355500Y750858D01*
X1354328Y748030D01*
X1470328Y727030D02*
X1473156Y728202D01*
X1474328Y731030D01*
Y748030D02*
X1473156Y750858D01*
X1470328Y752030D01*
X727378Y641032D02*
Y793032D01*
X742378Y641032D02*
Y793032D01*
X731378Y637032D02*
X738378D01*
X731378Y797032D02*
X738378D01*
X876345Y11701D02*
Y100221D01*
X820465Y11701D02*
Y100221D01*
X824465Y104221D02*
X872345D01*
X824465Y7701D02*
X872345D01*
X0Y0D02*
X1500000D01*
X0Y1000000D02*
X1500000D01*
Y0D02*
Y1000000D01*
X0Y0D02*
Y1000000D01*
X564818Y638362D02*
Y860362D01*
X579818Y638362D02*
Y860362D01*
X568818Y634362D02*
X575818D01*
X568818Y864362D02*
X575818D01*
X1987Y573468D02*
Y745726D01*
X60198Y573468D02*
Y745726D01*
X5987Y569468D02*
X56198D01*
X5987Y749726D02*
X56198D01*
X564818Y638362D02*
Y860362D01*
X579818Y638362D02*
Y860362D01*
X568818Y634362D02*
X575818D01*
X568818Y864362D02*
X575818D01*
X891272Y635278D02*
Y827278D01*
X906272Y635278D02*
Y827278D01*
X895272Y631278D02*
X902272D01*
X895272Y831278D02*
X902272D01*
X727378Y641032D02*
Y793032D01*
X742378Y641032D02*
Y793032D01*
X731378Y637032D02*
X738378D01*
X731378Y797032D02*
X738378D01*
X891272Y635278D02*
Y827278D01*
X906272Y635278D02*
Y827278D01*
X895272Y631278D02*
X902272D01*
X895272Y831278D02*
X902272D01*
X754126Y340614D02*
Y429134D01*
X698246Y340614D02*
Y429134D01*
X702246Y433134D02*
X750126D01*
X702246Y336614D02*
X750126D01*
X1987Y573468D02*
Y745726D01*
X60198Y573468D02*
Y745726D01*
X5987Y569468D02*
X56198D01*
X5987Y749726D02*
X56198D01*
X1358328Y752030D02*
X1470328D01*
X1358328Y727030D02*
X1470328D01*
X1354328Y731030D02*
Y748030D01*
X1474328Y731030D02*
Y748030D01*
M02*
