G04*
G04 #@! TF.GenerationSoftware,Altium Limited,Altium Designer,22.5.1 (42)*
G04*
G04 Layer_Color=8421504*
%FSLAX44Y44*%
%MOMM*%
G71*
G04*
G04 #@! TF.SameCoordinates,325B58FB-DF44-4075-A057-A786A272C4E4*
G04*
G04*
G04 #@! TF.FilePolarity,Positive*
G04*
G01*
G75*
G04:AMPARAMS|DCode=22|XSize=1.3mm|YSize=0.8mm|CornerRadius=0.1mm|HoleSize=0mm|Usage=FLASHONLY|Rotation=90.000|XOffset=0mm|YOffset=0mm|HoleType=Round|Shape=RoundedRectangle|*
%AMROUNDEDRECTD22*
21,1,1.3000,0.6000,0,0,90.0*
21,1,1.1000,0.8000,0,0,90.0*
1,1,0.2000,0.3000,0.5500*
1,1,0.2000,0.3000,-0.5500*
1,1,0.2000,-0.3000,-0.5500*
1,1,0.2000,-0.3000,0.5500*
%
%ADD22ROUNDEDRECTD22*%
%ADD23R,0.9000X2.4000*%
%ADD24R,0.8000X1.4000*%
%ADD25R,1.4000X0.8000*%
%ADD26R,2.4000X3.4000*%
%ADD27R,1.4478X4.1910*%
%ADD28C,1.0000*%
%ADD29R,2.7000X3.6000*%
%ADD30R,3.0000X1.8000*%
%ADD31R,2.0200X2.9500*%
%ADD32R,1.5000X3.0000*%
%ADD33R,1.5600X2.2200*%
%ADD34R,2.0000X3.2000*%
%ADD35R,1.9812X0.5588*%
%ADD36O,1.4000X0.6000*%
%ADD37R,1.0500X0.4000*%
%ADD38R,1.2000X0.6000*%
%ADD39R,2.4000X0.9000*%
%ADD40R,5.0000X5.0000*%
%ADD41R,1.0000X2.7000*%
%ADD42R,3.3000X2.7000*%
G04:AMPARAMS|DCode=43|XSize=1.4mm|YSize=1.8mm|CornerRadius=0.14mm|HoleSize=0mm|Usage=FLASHONLY|Rotation=90.000|XOffset=0mm|YOffset=0mm|HoleType=Round|Shape=RoundedRectangle|*
%AMROUNDEDRECTD43*
21,1,1.4000,1.5200,0,0,90.0*
21,1,1.1200,1.8000,0,0,90.0*
1,1,0.2800,0.7600,0.5600*
1,1,0.2800,0.7600,-0.5600*
1,1,0.2800,-0.7600,-0.5600*
1,1,0.2800,-0.7600,0.5600*
%
%ADD43ROUNDEDRECTD43*%
G04:AMPARAMS|DCode=44|XSize=1.4mm|YSize=1.8mm|CornerRadius=0.14mm|HoleSize=0mm|Usage=FLASHONLY|Rotation=90.000|XOffset=0mm|YOffset=0mm|HoleType=Round|Shape=RoundedRectangle|*
%AMROUNDEDRECTD44*
21,1,1.4000,1.5200,0,0,90.0*
21,1,1.1200,1.8000,0,0,90.0*
1,1,0.2800,0.7600,0.5600*
1,1,0.2800,0.7600,-0.5600*
1,1,0.2800,-0.7600,-0.5600*
1,1,0.2800,-0.7600,0.5600*
%
%ADD44ROUNDEDRECTD44*%
%ADD45R,1.7780X1.7780*%
%ADD46R,1.7780X1.7780*%
%ADD47R,1.1684X0.5334*%
%ADD48R,1.0160X1.0160*%
%ADD49R,1.0160X1.2700*%
%ADD50R,1.0000X0.9144*%
%ADD51R,1.2700X0.9144*%
%ADD52R,1.5000X1.1000*%
%ADD53R,1.5240X1.1000*%
%ADD54R,3.1500X2.3000*%
G54D22*
X545940Y885444D02*
D03*
X525940D02*
D03*
X563974Y909828D02*
D03*
X543974D02*
D03*
G54D23*
X181356Y572770D02*
D03*
X168656D02*
D03*
X206756D02*
D03*
X232156Y742770D02*
D03*
X143256D02*
D03*
X168656D02*
D03*
X79756Y572770D02*
D03*
X92456D02*
D03*
X105156D02*
D03*
X117856D02*
D03*
X130556D02*
D03*
X143256D02*
D03*
X194056D02*
D03*
X219456D02*
D03*
X232156D02*
D03*
X244856D02*
D03*
Y742770D02*
D03*
X219456D02*
D03*
X206756D02*
D03*
X194056D02*
D03*
X181356D02*
D03*
X155956D02*
D03*
X130556D02*
D03*
X117856D02*
D03*
X105156D02*
D03*
X92456D02*
D03*
X79756D02*
D03*
X155956Y572770D02*
D03*
G54D24*
X394114Y156210D02*
D03*
X619600Y758698D02*
D03*
X599600D02*
D03*
X84488Y522732D02*
D03*
X104488D02*
D03*
X783430Y758952D02*
D03*
X763430D02*
D03*
X690786Y577850D02*
D03*
X710786D02*
D03*
X78900Y822452D02*
D03*
X98900D02*
D03*
X763364Y855228D02*
D03*
X743364D02*
D03*
X402846Y877682D02*
D03*
X422846D02*
D03*
X1327564Y922274D02*
D03*
X1347564D02*
D03*
X488343Y855772D02*
D03*
X508343D02*
D03*
X414114Y133604D02*
D03*
X394114D02*
D03*
X414114Y156210D02*
D03*
X284480Y141478D02*
D03*
X304480D02*
D03*
X134620Y117348D02*
D03*
X154620D02*
D03*
X385126Y336962D02*
D03*
X405126D02*
D03*
X287180Y71628D02*
D03*
X307180D02*
D03*
X385126Y314452D02*
D03*
X405126D02*
D03*
X307020Y49238D02*
D03*
X287020D02*
D03*
X693674Y854710D02*
D03*
X713674D02*
D03*
X488343Y879206D02*
D03*
X508343D02*
D03*
X233840Y80518D02*
D03*
X253840D02*
D03*
X123604Y511556D02*
D03*
X143604D02*
D03*
X181930Y140208D02*
D03*
X201930D02*
D03*
X181930Y117348D02*
D03*
X201930D02*
D03*
X103726Y500634D02*
D03*
X83726D02*
D03*
Y457200D02*
D03*
X103726D02*
D03*
Y479044D02*
D03*
X83726D02*
D03*
X127160Y269748D02*
D03*
X147160D02*
D03*
X528988Y578104D02*
D03*
X548988D02*
D03*
X417670Y519938D02*
D03*
X397670D02*
D03*
X417924Y497332D02*
D03*
X397924D02*
D03*
X417924Y474472D02*
D03*
X397924D02*
D03*
X948530Y758952D02*
D03*
X928530D02*
D03*
X856394Y577342D02*
D03*
X876394D02*
D03*
G54D25*
X462026Y810420D02*
D03*
Y830420D02*
D03*
X644652Y577944D02*
D03*
Y557944D02*
D03*
X657860Y809338D02*
D03*
Y789338D02*
D03*
X1327150Y878238D02*
D03*
Y898238D02*
D03*
X457410Y922424D02*
D03*
Y902424D02*
D03*
X632968Y857664D02*
D03*
Y877664D02*
D03*
X507492Y830420D02*
D03*
Y810420D02*
D03*
X346202Y713646D02*
D03*
Y733646D02*
D03*
X370586Y733552D02*
D03*
Y713552D02*
D03*
X396494Y714060D02*
D03*
Y734060D02*
D03*
X423164Y733552D02*
D03*
Y713552D02*
D03*
X279654Y179164D02*
D03*
Y159164D02*
D03*
X255524Y179238D02*
D03*
Y159238D02*
D03*
X211074Y179238D02*
D03*
Y159238D02*
D03*
X233276D02*
D03*
Y179238D02*
D03*
X205994Y890938D02*
D03*
Y910938D02*
D03*
X230124D02*
D03*
Y890938D02*
D03*
X254254D02*
D03*
Y910938D02*
D03*
X278384D02*
D03*
Y890938D02*
D03*
X372110Y112108D02*
D03*
Y92108D02*
D03*
X99060Y161638D02*
D03*
Y141638D02*
D03*
X810514Y901540D02*
D03*
Y881540D02*
D03*
X680974Y809338D02*
D03*
Y789338D02*
D03*
X434550Y922424D02*
D03*
Y902424D02*
D03*
X484632Y830420D02*
D03*
Y810420D02*
D03*
X285750Y100998D02*
D03*
Y120998D02*
D03*
X308610Y100998D02*
D03*
Y120998D02*
D03*
X161290Y460342D02*
D03*
Y440342D02*
D03*
X185420D02*
D03*
Y460342D02*
D03*
X490220Y581500D02*
D03*
Y561500D02*
D03*
X402590Y434246D02*
D03*
Y454246D02*
D03*
X427990Y434246D02*
D03*
Y454246D02*
D03*
X536702Y472346D02*
D03*
Y492346D02*
D03*
X450850Y433992D02*
D03*
Y453992D02*
D03*
X511556Y472346D02*
D03*
Y492346D02*
D03*
X322834Y475902D02*
D03*
Y495902D02*
D03*
X348234Y475902D02*
D03*
Y495902D02*
D03*
X81534Y778924D02*
D03*
Y798924D02*
D03*
X819912Y578452D02*
D03*
Y558452D02*
D03*
G54D26*
X630638Y166878D02*
D03*
X688638D02*
D03*
X568750Y265430D02*
D03*
X510750D02*
D03*
G54D27*
X668274Y537718D02*
D03*
X702818D02*
D03*
X548132Y540004D02*
D03*
X513588D02*
D03*
X841756Y539496D02*
D03*
X876300D02*
D03*
G54D28*
X435610Y811022D02*
D03*
X636016Y809498D02*
D03*
X477012Y910844D02*
D03*
X287020Y497586D02*
D03*
G54D29*
X497996Y265430D02*
D03*
X580996D02*
D03*
X615246Y166116D02*
D03*
X698246D02*
D03*
G54D30*
X84836Y201968D02*
D03*
Y251968D02*
D03*
G54D31*
X1145432Y128778D02*
D03*
X1195432D02*
D03*
G54D32*
X927692Y618744D02*
D03*
X851492D02*
D03*
X876892D02*
D03*
X927692Y720344D02*
D03*
X851492D02*
D03*
X763778Y618744D02*
D03*
X687578D02*
D03*
X712978D02*
D03*
X763778Y720344D02*
D03*
X687578D02*
D03*
X523748D02*
D03*
X599948D02*
D03*
X549148Y618744D02*
D03*
X523748D02*
D03*
X599948D02*
D03*
G54D33*
X1152002Y129540D02*
D03*
X1191402D02*
D03*
G54D34*
X966978Y924814D02*
D03*
X1031978D02*
D03*
X967244Y966216D02*
D03*
X1032244D02*
D03*
X1094728Y634238D02*
D03*
X1029728D02*
D03*
X1029474Y588772D02*
D03*
X1094474D02*
D03*
G54D35*
X694690Y873252D02*
D03*
Y885952D02*
D03*
Y898652D02*
D03*
Y911352D02*
D03*
X741934D02*
D03*
Y898652D02*
D03*
Y885952D02*
D03*
Y873252D02*
D03*
G54D36*
X702870Y810006D02*
D03*
Y784606D02*
D03*
X772870Y810006D02*
D03*
Y784606D02*
D03*
X538532Y856234D02*
D03*
Y830834D02*
D03*
X608532Y856234D02*
D03*
Y830834D02*
D03*
X609040Y785622D02*
D03*
Y811022D02*
D03*
X539040Y785622D02*
D03*
Y811022D02*
D03*
G54D37*
X468788Y878594D02*
D03*
Y865594D02*
D03*
X444788D02*
D03*
Y872094D02*
D03*
Y878594D02*
D03*
G54D38*
X260650Y124308D02*
D03*
Y114808D02*
D03*
Y105308D02*
D03*
X234650D02*
D03*
Y114808D02*
D03*
Y124308D02*
D03*
X160320Y159868D02*
D03*
Y150368D02*
D03*
Y140868D02*
D03*
X134320D02*
D03*
Y150368D02*
D03*
Y159868D02*
D03*
G54D39*
X254856Y600620D02*
D03*
Y613320D02*
D03*
Y626020D02*
D03*
Y638720D02*
D03*
Y651420D02*
D03*
Y664120D02*
D03*
Y676820D02*
D03*
Y689520D02*
D03*
Y702220D02*
D03*
Y714920D02*
D03*
G54D40*
X155856Y647770D02*
D03*
G54D41*
X326249Y522947D02*
D03*
X349249D02*
D03*
X372249D02*
D03*
G54D42*
X349249Y581947D02*
D03*
G54D43*
X786130Y869936D02*
D03*
G54D44*
Y899936D02*
D03*
G54D45*
X784098Y927608D02*
D03*
X818388D02*
D03*
X851916Y965962D02*
D03*
X817626D02*
D03*
X138430Y189484D02*
D03*
X172720D02*
D03*
X128524Y484886D02*
D03*
X162814D02*
D03*
X510032Y447548D02*
D03*
X475742D02*
D03*
G54D46*
X962152Y563880D02*
D03*
Y529590D02*
D03*
X992124Y563880D02*
D03*
Y529590D02*
D03*
G54D47*
X1368552Y888492D02*
D03*
X1348232Y878992D02*
D03*
Y897992D02*
D03*
G54D48*
X393954Y113792D02*
D03*
X413766D02*
D03*
G54D49*
X403860Y92964D02*
D03*
G54D50*
X349250Y112649D02*
D03*
Y93599D02*
D03*
G54D51*
X328930Y103251D02*
D03*
G54D52*
X934085Y923364D02*
D03*
X877085D02*
D03*
G54D53*
X934085Y964364D02*
D03*
X877085D02*
D03*
G54D54*
X85090Y192068D02*
D03*
Y261068D02*
D03*
M02*
