G04*
G04 #@! TF.GenerationSoftware,Altium Limited,Altium Designer,22.5.1 (42)*
G04*
G04 Layer_Physical_Order=2*
G04 Layer_Color=36540*
%FSLAX44Y44*%
%MOMM*%
G71*
G04*
G04 #@! TF.SameCoordinates,325B58FB-DF44-4075-A057-A786A272C4E4*
G04*
G04*
G04 #@! TF.FilePolarity,Positive*
G04*
G01*
G75*
%ADD97C,2.0000*%
%ADD122C,0.5000*%
%ADD125C,2.0000*%
%ADD128R,2.6416X8.3058*%
%ADD133C,1.5080*%
G04:AMPARAMS|DCode=136|XSize=2.6mm|YSize=3.5mm|CornerRadius=0.65mm|HoleSize=0mm|Usage=FLASHONLY|Rotation=0.000|XOffset=0mm|YOffset=0mm|HoleType=Round|Shape=RoundedRectangle|*
%AMROUNDEDRECTD136*
21,1,2.6000,2.2000,0,0,0.0*
21,1,1.3000,3.5000,0,0,0.0*
1,1,1.3000,0.6500,-1.1000*
1,1,1.3000,-0.6500,-1.1000*
1,1,1.3000,-0.6500,1.1000*
1,1,1.3000,0.6500,1.1000*
%
%ADD136ROUNDEDRECTD136*%
%ADD137C,1.6000*%
%ADD138O,1.6000X1.4000*%
%ADD139R,1.6000X1.6000*%
%ADD140C,3.0000*%
%ADD141R,1.6000X1.6000*%
%ADD142R,2.8000X2.8000*%
%ADD143C,2.8000*%
%ADD144R,2.0000X2.0000*%
%ADD146C,2.2000*%
%ADD147O,2.0000X1.8000*%
%ADD148R,2.0000X1.8000*%
%ADD149C,5.0000*%
%ADD151O,1.8000X2.0000*%
%ADD153O,4.5720X3.3020*%
%ADD156C,0.9000*%
%ADD158O,2.0000X1.2000*%
%ADD160C,0.8128*%
%ADD161C,1.2700*%
%ADD162C,0.6000*%
%ADD163R,2.9972X10.8204*%
%ADD164R,10.2362X2.5908*%
%ADD165C,1.5240*%
G36*
X1370584Y964184D02*
Y920242D01*
X1382268Y908558D01*
Y888238D01*
X1383284Y887222D01*
X1377188Y881126D01*
X1308045D01*
X1306534Y882366D01*
X1303693Y883885D01*
X1302413Y884273D01*
X1293114Y893572D01*
X1241806D01*
X1230376Y882142D01*
X1030564D01*
X1029791Y883150D01*
X1029970Y883819D01*
Y886561D01*
X1029260Y889210D01*
X1027889Y891584D01*
X1025950Y893523D01*
X1023576Y894894D01*
X1020927Y895604D01*
X1018185D01*
X1015536Y894894D01*
X1013162Y893523D01*
X1011223Y891584D01*
X1009852Y889210D01*
X1009142Y886561D01*
Y883819D01*
X1009321Y883150D01*
X1008548Y882142D01*
X937768D01*
X932240Y876614D01*
X931374Y877114D01*
X928725Y877824D01*
X925983D01*
X923334Y877114D01*
X920960Y875743D01*
X919021Y873804D01*
X917650Y871430D01*
X916940Y868781D01*
Y866039D01*
X917650Y863390D01*
X918150Y862524D01*
X910590Y854964D01*
X887476D01*
X876808Y844296D01*
Y593090D01*
X866902Y583184D01*
X832358D01*
X816102Y599440D01*
Y750384D01*
X817372Y750910D01*
X818194Y750088D01*
X820569Y748716D01*
X823217Y748007D01*
X825959D01*
X828608Y748716D01*
X830983Y750088D01*
X832922Y752026D01*
X834293Y754401D01*
X835002Y757050D01*
Y759792D01*
X834293Y762440D01*
X832922Y764815D01*
X830983Y766754D01*
X828608Y768125D01*
X825959Y768835D01*
X823217D01*
X820569Y768125D01*
X818194Y766754D01*
X817372Y765932D01*
X816102Y766458D01*
Y847090D01*
X860044Y891032D01*
X896620D01*
X908304Y902716D01*
Y945388D01*
X906526Y947166D01*
X720107D01*
X719571Y947969D01*
X719120Y948420D01*
X718903Y948744D01*
X719807Y950925D01*
X720490Y954360D01*
Y957862D01*
X719807Y961297D01*
X718466Y964533D01*
X716521Y967445D01*
X714044Y969922D01*
X711132Y971867D01*
X707896Y973208D01*
X704461Y973891D01*
X700959D01*
X697524Y973208D01*
X694288Y971867D01*
X692636Y970764D01*
X691520D01*
X690895Y970639D01*
X690257D01*
X689668Y970522D01*
X689668Y970522D01*
X689668D01*
X689079Y970278D01*
X689042Y970271D01*
X689012Y970250D01*
X687990Y969827D01*
X687954Y969820D01*
X687923Y969799D01*
X687334Y969555D01*
X686834Y969221D01*
X686384Y968771D01*
X685853Y968416D01*
X685485Y968048D01*
X685131Y967518D01*
X684680Y967067D01*
X684346Y966568D01*
X684102Y965978D01*
X684082Y965948D01*
X684075Y965912D01*
X683651Y964890D01*
X683631Y964859D01*
X683624Y964823D01*
X683380Y964234D01*
Y964234D01*
X683380Y964234D01*
X683262Y963645D01*
Y963007D01*
X683138Y962382D01*
Y951843D01*
Y941461D01*
X683262Y940836D01*
X683262Y940198D01*
X683380Y939609D01*
X683380Y939609D01*
Y939609D01*
X683624Y939020D01*
X683631Y938984D01*
X683651Y938953D01*
X684075Y937931D01*
X684082Y937895D01*
X684102Y937864D01*
X684346Y937275D01*
X684346Y937275D01*
X684346Y937275D01*
X684680Y936776D01*
X685131Y936325D01*
X685485Y935795D01*
X692340Y928939D01*
X692870Y928585D01*
X693322Y928134D01*
X693821Y927801D01*
X694410Y927556D01*
X694441Y927536D01*
X694477Y927529D01*
X695499Y927105D01*
X695529Y927085D01*
X695566Y927078D01*
X696155Y926834D01*
X696155D01*
X696155Y926834D01*
X696744Y926717D01*
X697382D01*
X698007Y926592D01*
X702818D01*
Y591566D01*
X694944Y583692D01*
X664464D01*
X655066Y593090D01*
Y811639D01*
X657308Y812240D01*
X659682Y813611D01*
X661621Y815550D01*
X662992Y817924D01*
X663702Y820573D01*
Y823315D01*
X662992Y825964D01*
X661621Y828338D01*
X659682Y830277D01*
X657308Y831648D01*
X655066Y832249D01*
Y878332D01*
X644549Y888849D01*
X563475D01*
X554736Y880110D01*
Y797578D01*
X553728Y796805D01*
X552805Y797052D01*
X550063D01*
X547414Y796342D01*
X545040Y794971D01*
X543101Y793032D01*
X541730Y790658D01*
X541020Y788009D01*
Y785267D01*
X541730Y782618D01*
X543101Y780244D01*
X545040Y778305D01*
X547414Y776934D01*
X550063Y776224D01*
X552805D01*
X553728Y776471D01*
X554736Y775698D01*
Y541020D01*
X586740Y509016D01*
X607314Y488442D01*
X671068D01*
X698754Y516128D01*
X731012D01*
X739648Y507492D01*
Y490220D01*
X732536Y483108D01*
X705358D01*
X687324Y465074D01*
Y352044D01*
X678180Y342900D01*
X656082D01*
X652526Y346456D01*
Y391160D01*
X633476Y410210D01*
X595884D01*
X589534Y403860D01*
Y371602D01*
X576326Y358394D01*
X558546D01*
X550164Y366776D01*
Y374904D01*
X546354Y378714D01*
X534326D01*
Y389508D01*
X534032D01*
Y393954D01*
X533540Y396432D01*
X532136Y398532D01*
X531120Y399548D01*
X529020Y400952D01*
X526542Y401444D01*
X510032D01*
X507554Y400952D01*
X505454Y399548D01*
X502660Y396754D01*
X501256Y394654D01*
X500764Y392176D01*
Y389508D01*
X498006D01*
Y378714D01*
X490982D01*
X479422Y367154D01*
X466344D01*
X463866Y366662D01*
X461766Y365258D01*
X456178Y359670D01*
X454774Y357570D01*
X454282Y355092D01*
Y342014D01*
X402082Y289814D01*
Y14478D01*
X400304Y12700D01*
X392684D01*
X390144Y15240D01*
Y43942D01*
X383540Y50546D01*
X349656D01*
X349504Y50800D01*
X336550D01*
X315976Y30226D01*
X254660D01*
Y58898D01*
X225340D01*
Y30226D01*
X149606D01*
X145267Y34565D01*
X145479Y35802D01*
X145677Y35951D01*
X148514Y37589D01*
X150878Y39954D01*
X152550Y42850D01*
X153416Y46080D01*
Y49424D01*
X152550Y52654D01*
X150878Y55550D01*
X148514Y57915D01*
X145618Y59587D01*
X142388Y60452D01*
X142077D01*
X141215Y61722D01*
X141732Y63653D01*
Y66395D01*
X141022Y69044D01*
X139651Y71418D01*
X137712Y73357D01*
X135338Y74728D01*
X132689Y75438D01*
X129947D01*
X128770Y75122D01*
X127762Y75896D01*
Y100076D01*
X114046Y113792D01*
X65786D01*
X54610Y124968D01*
Y299212D01*
X44266Y309556D01*
X45244Y310535D01*
X47182Y313434D01*
X48516Y316655D01*
X49196Y320075D01*
Y323561D01*
X48516Y326981D01*
X47182Y330202D01*
X45244Y333101D01*
X44028Y334318D01*
X45244Y335535D01*
X47182Y338434D01*
X48516Y341655D01*
X49196Y345075D01*
Y348561D01*
X48516Y351981D01*
X47182Y355202D01*
X45244Y358101D01*
X44028Y359318D01*
X45244Y360535D01*
X47182Y363434D01*
X48516Y366655D01*
X49196Y370075D01*
Y373561D01*
X48516Y376981D01*
X47182Y380202D01*
X45244Y383101D01*
X42779Y385566D01*
X39880Y387504D01*
X36659Y388838D01*
X33239Y389518D01*
X29753D01*
X26333Y388838D01*
X23112Y387504D01*
X20213Y385566D01*
X17747Y383101D01*
X15811Y380202D01*
X14476Y376981D01*
X13796Y373561D01*
Y370075D01*
X14476Y366655D01*
X15811Y363434D01*
X17747Y360535D01*
X18964Y359318D01*
X17747Y358101D01*
X15811Y355202D01*
X14476Y351981D01*
X13796Y348561D01*
Y345075D01*
X14476Y341655D01*
X15811Y338434D01*
X17747Y335535D01*
X18964Y334318D01*
X17747Y333101D01*
X15811Y330202D01*
X14476Y326981D01*
X13796Y323561D01*
Y320075D01*
X14476Y316655D01*
X15811Y313434D01*
X17336Y311150D01*
X16658Y309880D01*
X12192D01*
X7686Y314386D01*
Y547436D01*
X13970Y553720D01*
X65532D01*
X74676Y562864D01*
Y748538D01*
X62992Y760222D01*
X23622D01*
X8890Y774954D01*
Y859790D01*
X11938Y862838D01*
X55626D01*
X64770Y871982D01*
Y885444D01*
X70358Y891032D01*
X104394D01*
X115824Y902462D01*
Y942028D01*
X141156D01*
X141958Y941370D01*
X145286Y939591D01*
X148898Y938495D01*
X152654Y938125D01*
X156410Y938495D01*
X160022Y939591D01*
X163350Y941370D01*
X165354Y943015D01*
X167358Y941370D01*
X170686Y939591D01*
X174298Y938495D01*
X178054Y938125D01*
X181810Y938495D01*
X185422Y939591D01*
X188750Y941370D01*
X191668Y943764D01*
X194062Y946682D01*
X195841Y950010D01*
X196937Y953622D01*
X197307Y957378D01*
Y959378D01*
X196937Y963134D01*
X195841Y966746D01*
X194062Y970074D01*
X191668Y972992D01*
X188750Y975386D01*
X187374Y976122D01*
X187692Y977392D01*
X219216D01*
X219534Y976122D01*
X218158Y975386D01*
X215240Y972992D01*
X212846Y970074D01*
X211067Y966746D01*
X209971Y963134D01*
X209601Y959378D01*
Y957378D01*
X209971Y953622D01*
X211067Y950010D01*
X212846Y946682D01*
X215240Y943764D01*
X218158Y941370D01*
X221486Y939591D01*
X225098Y938495D01*
X228854Y938125D01*
X232610Y938495D01*
X236222Y939591D01*
X239550Y941370D01*
X241554Y943015D01*
X243558Y941370D01*
X246886Y939591D01*
X250498Y938495D01*
X254254Y938125D01*
X258010Y938495D01*
X261622Y939591D01*
X264950Y941370D01*
X267868Y943764D01*
X270262Y946682D01*
X272041Y950010D01*
X273137Y953622D01*
X273507Y957378D01*
Y959378D01*
X273137Y963134D01*
X272041Y966746D01*
X270262Y970074D01*
X267868Y972992D01*
X264950Y975386D01*
X263573Y976122D01*
X263892Y977392D01*
X385455D01*
X385890Y976302D01*
X385890D01*
Y950522D01*
X408053D01*
X408134Y950440D01*
X410870Y948613D01*
X413909Y947354D01*
X417135Y946712D01*
X420425D01*
X423651Y947354D01*
X426690Y948613D01*
X429426Y950440D01*
X431752Y952766D01*
X433579Y955502D01*
X434838Y958541D01*
X435480Y961767D01*
Y965057D01*
X434838Y968283D01*
X433579Y971322D01*
X431752Y974058D01*
X429687Y976122D01*
X430058Y977392D01*
X1357376D01*
X1370584Y964184D01*
D02*
G37*
G36*
X709930Y959463D02*
Y957862D01*
Y954360D01*
Y946404D01*
X711962Y944372D01*
X714187D01*
X714724Y943569D01*
X715175Y943118D01*
X715529Y942588D01*
X716059Y942234D01*
X716510Y941783D01*
X717042Y941562D01*
Y938276D01*
X711833Y933067D01*
X698007D01*
X697418Y933184D01*
X696918Y933518D01*
X690063Y940373D01*
X689730Y940872D01*
X689612Y941461D01*
Y951843D01*
Y962382D01*
X689730Y962971D01*
X690063Y963470D01*
X690432Y963838D01*
X690931Y964172D01*
X691520Y964289D01*
X705104D01*
X709930Y959463D01*
D02*
G37*
G36*
X1488948Y979170D02*
Y905510D01*
X1468628Y885190D01*
X1428242D01*
X1423162Y890270D01*
X1423162Y910336D01*
X1417828Y915670D01*
X1391158D01*
X1386078Y920750D01*
Y982980D01*
X1383320Y985738D01*
X112486D01*
X104648Y977900D01*
Y910590D01*
X102108Y908050D01*
X56388D01*
X48768Y900430D01*
Y877570D01*
X44958Y873760D01*
X8128Y873760D01*
X3048Y878840D01*
Y984250D01*
X15748Y996950D01*
X1471168D01*
X1488948Y979170D01*
D02*
G37*
G36*
X622337Y873953D02*
Y868746D01*
X619543Y865952D01*
X587031D01*
Y877128D01*
X587666Y877763D01*
X618527D01*
X622337Y873953D01*
D02*
G37*
G36*
X1049528Y840486D02*
Y734568D01*
X1068070Y716026D01*
X1167130D01*
X1172464Y721360D01*
Y766318D01*
X1190244Y784098D01*
X1203960D01*
X1210818Y777240D01*
Y764794D01*
X1224280Y751332D01*
X1234948D01*
X1235202Y751586D01*
X1252728Y734060D01*
Y727202D01*
X1262634D01*
X1272794Y717042D01*
X1299210D01*
X1301750Y714502D01*
Y635254D01*
X1333500Y603504D01*
Y120142D01*
X1310640Y97282D01*
X1250950Y37592D01*
X1095756Y37592D01*
X1085850Y47498D01*
X1086104Y101092D01*
X1122934Y137922D01*
X1163693D01*
X1164179Y136749D01*
X1163574Y136144D01*
Y109220D01*
X1176273D01*
X1177003Y108660D01*
X1178857Y107892D01*
X1180846Y107630D01*
X1207262D01*
X1209251Y107892D01*
X1211105Y108660D01*
X1212697Y109881D01*
X1213918Y111473D01*
X1214686Y113327D01*
X1214948Y115316D01*
Y155439D01*
X1215151Y156199D01*
Y159944D01*
X1214948Y160704D01*
Y162784D01*
X1215674D01*
Y206024D01*
X1207534D01*
X1207262Y206060D01*
X1180846D01*
X1180574Y206024D01*
X1172688D01*
X1172619Y380290D01*
X1173517Y381188D01*
X1201420D01*
X1201420Y381188D01*
X1201420Y381188D01*
X1203706D01*
X1203706Y381188D01*
X1204701Y381319D01*
X1205695Y381450D01*
X1207549Y382218D01*
X1209141Y383439D01*
X1216253Y390551D01*
X1217474Y392143D01*
X1218242Y393997D01*
X1218504Y395986D01*
Y413766D01*
X1218242Y415755D01*
X1217474Y417609D01*
X1216253Y419201D01*
X1215928Y419450D01*
X1215530Y420410D01*
X1214309Y422001D01*
X1214309Y422001D01*
X1206442Y429869D01*
X1204850Y431090D01*
X1202996Y431858D01*
X1201149Y432101D01*
X1201123Y432112D01*
X1199134Y432374D01*
X1172598D01*
X1172570Y503068D01*
X1154938Y520700D01*
X1115314D01*
X1084834Y551180D01*
Y646684D01*
X1066038Y665480D01*
X976630D01*
X960628Y649478D01*
Y605028D01*
X957072Y601472D01*
X918210D01*
X912876Y606806D01*
Y627923D01*
X913531Y628777D01*
X914830Y631913D01*
X915273Y635278D01*
X915239D01*
Y827278D01*
X915273D01*
X915083Y828723D01*
X921794Y835434D01*
X922848Y835152D01*
X925256D01*
X927581Y835775D01*
X929667Y836979D01*
X931369Y838681D01*
X932573Y840767D01*
X933196Y843092D01*
Y845500D01*
X932914Y846554D01*
X938276Y851916D01*
X1038098D01*
X1049528Y840486D01*
D02*
G37*
G36*
X771398Y704850D02*
X771398Y678204D01*
X769796Y675894D01*
X757936Y675894D01*
X756412Y677418D01*
Y704088D01*
X757936Y705612D01*
X770636D01*
X771398Y704850D01*
D02*
G37*
G36*
X883666Y923544D02*
Y904494D01*
X880618Y901446D01*
X852424Y901446D01*
X801370Y850392D01*
X801370Y615696D01*
X789686Y604012D01*
X764286D01*
X754380Y613918D01*
Y673991D01*
X755650Y674518D01*
X756105Y674063D01*
X756945Y673501D01*
X757936Y673304D01*
X769796Y673304D01*
X770025Y673350D01*
X770257Y673346D01*
X770515Y673447D01*
X770787Y673501D01*
X770981Y673631D01*
X771198Y673716D01*
X771397Y673909D01*
X771627Y674063D01*
X771757Y674257D01*
X771924Y674418D01*
X773526Y676729D01*
X773637Y676983D01*
X773791Y677213D01*
X773836Y677442D01*
X773929Y677655D01*
X773934Y677932D01*
X773988Y678204D01*
X773988Y704850D01*
X773791Y705841D01*
X773229Y706681D01*
X772467Y707443D01*
X771627Y708005D01*
X770636Y708202D01*
X757936D01*
X756945Y708005D01*
X756105Y707443D01*
X755650Y706989D01*
X754380Y707515D01*
Y800354D01*
X740664Y814070D01*
X722376D01*
X711454Y824992D01*
Y909711D01*
X726440Y923544D01*
X739394Y936498D01*
X870712D01*
X883666Y923544D01*
D02*
G37*
G36*
X1322324Y812800D02*
X1322324Y812292D01*
X1344422Y790194D01*
X1344422Y697992D01*
X1368298Y674116D01*
X1474978D01*
X1484630Y664464D01*
Y639572D01*
X1477264Y632206D01*
X1356614D01*
X1318768Y670052D01*
Y740410D01*
X1308100Y751078D01*
X1255776D01*
X1251458Y755396D01*
Y823976D01*
X1257300Y829818D01*
X1305306D01*
X1322324Y812800D01*
D02*
G37*
G36*
X798882Y592958D02*
X798882Y581098D01*
X797358Y579574D01*
X770688D01*
X769164Y581098D01*
Y593798D01*
X769926Y594560D01*
X796572Y594560D01*
X798882Y592958D01*
D02*
G37*
G36*
X787793Y567397D02*
X787793Y555537D01*
X786269Y554013D01*
X759599D01*
X758075Y555537D01*
Y568237D01*
X758837Y568999D01*
X785483Y568999D01*
X787793Y567397D01*
D02*
G37*
G36*
X644144Y853694D02*
Y574294D01*
X651764Y566674D01*
X755485D01*
Y555537D01*
X755683Y554546D01*
X756244Y553706D01*
X757768Y552182D01*
X758608Y551620D01*
X759599Y551423D01*
X761051D01*
X762204Y550270D01*
X764289Y549066D01*
X766615Y548443D01*
X769022D01*
X771348Y549066D01*
X772814Y549912D01*
X774655Y548849D01*
X776981Y548226D01*
X779389D01*
X781714Y548849D01*
X783799Y550053D01*
X785170Y551423D01*
X786269D01*
X786466Y551462D01*
X787260Y551620D01*
X788100Y552182D01*
X789624Y553706D01*
Y553706D01*
X789624D01*
X789811Y553984D01*
X790186Y554546D01*
X790383Y555537D01*
Y555537D01*
D01*
X790383Y566674D01*
X887476D01*
X894080Y573278D01*
X943864D01*
X950468Y566674D01*
Y537464D01*
X906018Y493014D01*
X878840D01*
X852678Y519176D01*
X787908D01*
X777494Y529590D01*
X688340D01*
X663194Y504444D01*
X618744D01*
X595884Y525272D01*
Y853694D01*
X599665Y858266D01*
X639572D01*
X644144Y853694D01*
D02*
G37*
G36*
X1484122Y588518D02*
Y499364D01*
X1467104Y482346D01*
X1411224D01*
X1397762Y495808D01*
Y541274D01*
X1361440Y577596D01*
Y598932D01*
X1370838Y608330D01*
X1464310D01*
X1484122Y588518D01*
D02*
G37*
G36*
X1148334Y486918D02*
Y453390D01*
X1143762Y448818D01*
X1135888D01*
X1131570Y453136D01*
Y459994D01*
X1130046Y461518D01*
X1115822D01*
X1109472Y467868D01*
Y483023D01*
X1109545Y484451D01*
X1115314Y490220D01*
X1145032D01*
X1148334Y486918D01*
D02*
G37*
G36*
X1128776Y424688D02*
X1199134D01*
X1199388Y424434D01*
X1201007D01*
X1208874Y416567D01*
Y414948D01*
X1210056Y413766D01*
X1210818D01*
Y395986D01*
X1203706Y388874D01*
X1170686D01*
X1164844Y394716D01*
Y400050D01*
X1123442D01*
X1068578Y454914D01*
X969264D01*
X959104Y465074D01*
X959866Y482600D01*
X963168Y485902D01*
X1067562D01*
X1128776Y424688D01*
D02*
G37*
G36*
X1482090Y461010D02*
Y381762D01*
X1476248Y375920D01*
X1415288D01*
X1403350Y387858D01*
Y456438D01*
X1413256Y466344D01*
X1476756D01*
X1482090Y461010D01*
D02*
G37*
G36*
X1112012Y383794D02*
X1126744D01*
X1132586Y377952D01*
Y312420D01*
X1125220Y305054D01*
X1110488D01*
X1103376Y312166D01*
Y341376D01*
X1078992D01*
Y348996D01*
X1025652Y402336D01*
X897636D01*
X894334Y399034D01*
Y353639D01*
X888394Y346570D01*
X867410Y348003D01*
Y415290D01*
X885190Y433070D01*
X1062736D01*
X1112012Y383794D01*
D02*
G37*
G36*
X527558Y393954D02*
Y326898D01*
X504190Y303530D01*
X503936Y303784D01*
X465328D01*
X460756Y308356D01*
Y355092D01*
X466344Y360680D01*
X502158D01*
X507238Y365760D01*
Y392176D01*
X510032Y394970D01*
X526542D01*
X527558Y393954D01*
D02*
G37*
G36*
X631444Y385957D02*
Y322203D01*
X646176Y307471D01*
Y274197D01*
X644144Y272165D01*
X610399D01*
X606044Y277745D01*
Y385195D01*
X610870Y390021D01*
X627380D01*
X631444Y385957D01*
D02*
G37*
G36*
X813816Y507746D02*
Y493014D01*
X804672Y483870D01*
Y328422D01*
X772414Y296164D01*
Y259588D01*
X765810Y252984D01*
X753364D01*
X749300Y257048D01*
Y305816D01*
X777240Y333756D01*
Y498348D01*
X790702Y511048D01*
X794512Y514858D01*
X806704D01*
X813816Y507746D01*
D02*
G37*
G36*
X851662Y378968D02*
Y276860D01*
X825754Y250952D01*
X801370D01*
X797052Y255270D01*
Y268986D01*
X801878Y273812D01*
X817626D01*
X823214Y280162D01*
Y334010D01*
X824230Y381762D01*
X826770Y384302D01*
X846328D01*
X851662Y378968D01*
D02*
G37*
G36*
X997966Y376682D02*
Y352298D01*
X1010412Y339852D01*
X1045972D01*
X1080516Y305308D01*
Y278130D01*
X1088644Y270002D01*
X1117346D01*
X1124712Y262636D01*
Y245110D01*
X1114806Y235204D01*
X1053846D01*
X956564Y312420D01*
Y373380D01*
X969518Y386334D01*
X988314D01*
X997966Y376682D01*
D02*
G37*
G36*
X905764Y233426D02*
Y160528D01*
X925322Y140970D01*
Y21590D01*
X920750Y17018D01*
X898906D01*
X895350Y20574D01*
Y130810D01*
X877316Y148844D01*
X834390D01*
X827278Y155956D01*
Y191770D01*
X834898Y199390D01*
X858520D01*
X859028Y198882D01*
X872998Y212852D01*
Y231394D01*
X883920Y242316D01*
X896874D01*
X905764Y233426D01*
D02*
G37*
G36*
X1477698Y276910D02*
Y197662D01*
X1471856Y191820D01*
X1410896D01*
X1398958Y203758D01*
Y272338D01*
X1408864Y282244D01*
X1472364D01*
X1477698Y276910D01*
D02*
G37*
G36*
X582676Y191770D02*
Y78994D01*
X577088Y73406D01*
X558292D01*
X540258Y91440D01*
X437134D01*
X433832Y94742D01*
X434086Y157226D01*
X474472Y197612D01*
X576834D01*
X582676Y191770D01*
D02*
G37*
G36*
X683260Y83312D02*
Y67564D01*
X681736Y66040D01*
X645160D01*
X625094Y45974D01*
Y28956D01*
X624840D01*
X608076Y12192D01*
X432562D01*
X429260Y15494D01*
X430022Y76454D01*
X433832Y80264D01*
X451104D01*
X462026Y69342D01*
X462534Y69850D01*
X488442D01*
X514604Y43688D01*
X589280D01*
X648970Y103378D01*
X663194D01*
X683260Y83312D01*
D02*
G37*
G36*
X1482090Y166370D02*
Y118364D01*
X1475232Y111506D01*
X1428496D01*
X1389888Y72898D01*
Y42926D01*
X1376680Y29718D01*
X1350518D01*
Y89408D01*
X1364996Y103886D01*
Y152908D01*
X1385062Y172974D01*
X1475486D01*
X1482090Y166370D01*
D02*
G37*
G36*
X798322Y166116D02*
Y21844D01*
X795274Y18796D01*
X776986D01*
X772414Y23368D01*
X772922Y23876D01*
Y140716D01*
X758444Y155956D01*
X749300Y165100D01*
X749554Y165354D01*
Y189484D01*
X750570Y190754D01*
X753618Y193802D01*
X770636D01*
X798322Y166116D01*
D02*
G37*
G36*
X939546Y381254D02*
Y305308D01*
X1036828Y208026D01*
X1110742D01*
X1117346Y201422D01*
Y177800D01*
X1108964Y169418D01*
X1075182D01*
X1059688Y153924D01*
Y22352D01*
X1055624Y18288D01*
X1035304D01*
X1033526Y20066D01*
Y172974D01*
X911352Y295148D01*
Y371348D01*
X911860Y377952D01*
X916940Y383032D01*
X937768D01*
X939546Y381254D01*
D02*
G37*
G36*
X725932Y203200D02*
Y125984D01*
X753364Y98552D01*
Y22098D01*
X749046Y17780D01*
X670052D01*
X663702Y24130D01*
Y24638D01*
X663194Y44196D01*
X667766Y48768D01*
X695452D01*
X703834Y57150D01*
Y100838D01*
X680720Y123952D01*
Y206756D01*
X683260Y209296D01*
X719836D01*
X725932Y203200D01*
D02*
G37*
G36*
X970280Y213360D02*
Y20320D01*
X966724Y16764D01*
X948182D01*
X944118Y20828D01*
Y154432D01*
X930656Y167894D01*
Y219964D01*
X930402Y232156D01*
X934212Y235966D01*
X947674D01*
X970280Y213360D01*
D02*
G37*
G36*
X1011682Y121412D02*
Y18796D01*
X1008888Y16002D01*
X989584D01*
X986282Y19304D01*
Y91948D01*
X986028Y124714D01*
X989584Y128270D01*
X1004824D01*
X1011682Y121412D01*
D02*
G37*
G36*
X34290Y290068D02*
Y100838D01*
X38100Y97028D01*
X100330D01*
X102870Y94488D01*
Y27178D01*
X107950Y22098D01*
X344678Y22098D01*
X354838Y32258D01*
X376428D01*
Y9398D01*
X15240Y9398D01*
X6350Y18288D01*
Y290068D01*
X8890Y292608D01*
X31750D01*
X34290Y290068D01*
D02*
G37*
%LPC*%
G36*
X570357Y969268D02*
X566871D01*
X563451Y968588D01*
X560230Y967253D01*
X557331Y965316D01*
X556114Y964100D01*
X554897Y965316D01*
X551998Y967253D01*
X548777Y968588D01*
X545357Y969268D01*
X541871D01*
X538451Y968588D01*
X535230Y967253D01*
X532331Y965316D01*
X531114Y964100D01*
X529897Y965316D01*
X526998Y967253D01*
X523777Y968588D01*
X520357Y969268D01*
X516871D01*
X513451Y968588D01*
X510230Y967253D01*
X507331Y965316D01*
X504865Y962851D01*
X502929Y959952D01*
X501594Y956731D01*
X500914Y953311D01*
Y949825D01*
X501594Y946405D01*
X502929Y943184D01*
X504865Y940285D01*
X507331Y937820D01*
X510230Y935882D01*
X513451Y934548D01*
X516871Y933868D01*
X520357D01*
X523777Y934548D01*
X526998Y935882D01*
X529897Y937820D01*
X531114Y939036D01*
X532331Y937820D01*
X535230Y935882D01*
X538451Y934548D01*
X541871Y933868D01*
X545357D01*
X548777Y934548D01*
X551998Y935882D01*
X554897Y937820D01*
X556114Y939036D01*
X557331Y937820D01*
X560230Y935882D01*
X562416Y934977D01*
X562102Y933805D01*
Y931063D01*
X562812Y928414D01*
X564183Y926040D01*
X566122Y924101D01*
X568496Y922730D01*
X569991Y922329D01*
X570477Y921156D01*
X569924Y920198D01*
X569214Y917549D01*
Y914807D01*
X569924Y912158D01*
X571295Y909784D01*
X573234Y907845D01*
X575608Y906474D01*
X578257Y905764D01*
X580999D01*
X583648Y906474D01*
X586022Y907845D01*
X587961Y909784D01*
X589332Y912158D01*
X590042Y914807D01*
Y917549D01*
X589332Y920198D01*
X587961Y922572D01*
X586022Y924511D01*
X583648Y925882D01*
X582153Y926283D01*
X581667Y927456D01*
X582220Y928414D01*
X582930Y931063D01*
Y933805D01*
X582220Y936454D01*
X580870Y938792D01*
X582363Y940285D01*
X584300Y943184D01*
X585634Y946405D01*
X586314Y949825D01*
Y953311D01*
X585634Y956731D01*
X584300Y959952D01*
X582363Y962851D01*
X579897Y965316D01*
X576998Y967253D01*
X573777Y968588D01*
X570357Y969268D01*
D02*
G37*
G36*
X1169670Y970617D02*
X1165485Y970287D01*
X1161403Y969307D01*
X1157525Y967701D01*
X1153945Y965507D01*
X1150753Y962781D01*
X1148027Y959589D01*
X1145833Y956009D01*
X1144905Y953768D01*
X1143635D01*
X1142707Y956009D01*
X1140513Y959589D01*
X1137787Y962781D01*
X1134595Y965507D01*
X1131015Y967701D01*
X1127137Y969307D01*
X1123055Y970287D01*
X1118870Y970617D01*
X1114685Y970287D01*
X1110603Y969307D01*
X1106725Y967701D01*
X1103145Y965507D01*
X1099953Y962781D01*
X1097227Y959589D01*
X1095033Y956009D01*
X1093427Y952131D01*
X1092447Y948049D01*
X1092117Y943864D01*
Y931164D01*
X1092447Y926979D01*
X1093427Y922897D01*
X1095033Y919019D01*
X1097227Y915439D01*
X1099953Y912247D01*
X1103145Y909521D01*
X1106725Y907327D01*
X1110603Y905721D01*
X1114685Y904741D01*
X1118870Y904411D01*
X1123055Y904741D01*
X1127137Y905721D01*
X1131015Y907327D01*
X1134595Y909521D01*
X1137787Y912247D01*
X1140513Y915439D01*
X1142707Y919019D01*
X1143635Y921260D01*
X1144905D01*
X1145833Y919019D01*
X1148027Y915439D01*
X1150753Y912247D01*
X1153945Y909521D01*
X1157525Y907327D01*
X1161403Y905721D01*
X1165485Y904741D01*
X1169670Y904411D01*
X1173855Y904741D01*
X1177937Y905721D01*
X1181815Y907327D01*
X1185395Y909521D01*
X1188587Y912247D01*
X1191313Y915439D01*
X1193507Y919019D01*
X1195113Y922897D01*
X1196093Y926979D01*
X1196423Y931164D01*
Y943864D01*
X1196093Y948049D01*
X1195113Y952131D01*
X1193507Y956009D01*
X1191313Y959589D01*
X1188587Y962781D01*
X1185395Y965507D01*
X1181815Y967701D01*
X1177937Y969307D01*
X1173855Y970287D01*
X1169670Y970617D01*
D02*
G37*
G36*
X326197Y970081D02*
X322519D01*
X318966Y969129D01*
X315780Y967290D01*
X313179Y964689D01*
X311340Y961503D01*
X310388Y957950D01*
Y954272D01*
X311340Y950719D01*
X313179Y947533D01*
X315780Y944932D01*
X316759Y944367D01*
X316864Y942840D01*
X315670Y940772D01*
X314960Y938123D01*
Y935381D01*
X315670Y932732D01*
X317041Y930358D01*
X318980Y928419D01*
X321354Y927048D01*
X324003Y926338D01*
X326745D01*
X329394Y927048D01*
X331768Y928419D01*
X333707Y930358D01*
X335078Y932732D01*
X335788Y935381D01*
Y938123D01*
X335078Y940772D01*
X333707Y943146D01*
X332818Y944036D01*
X332936Y944932D01*
X335537Y947533D01*
X337376Y950719D01*
X338328Y954272D01*
Y957950D01*
X337376Y961503D01*
X335537Y964689D01*
X332936Y967290D01*
X329750Y969129D01*
X326197Y970081D01*
D02*
G37*
G36*
X668025Y946792D02*
X665283D01*
X662634Y946082D01*
X660259Y944711D01*
X658320Y942772D01*
X656949Y940398D01*
X656240Y937749D01*
Y935007D01*
X656949Y932358D01*
X658320Y929984D01*
X660259Y928045D01*
X662634Y926674D01*
X665283Y925964D01*
X668025D01*
X670673Y926674D01*
X673048Y928045D01*
X674987Y929984D01*
X676358Y932358D01*
X677068Y935007D01*
Y937749D01*
X676358Y940398D01*
X674987Y942772D01*
X673048Y944711D01*
X670673Y946082D01*
X668025Y946792D01*
D02*
G37*
G36*
X278739Y938022D02*
X275997D01*
X273348Y937312D01*
X270974Y935941D01*
X269035Y934002D01*
X267664Y931628D01*
X266954Y928979D01*
Y926237D01*
X267664Y923588D01*
X269035Y921214D01*
X270974Y919275D01*
X273348Y917904D01*
X275997Y917194D01*
X278739D01*
X281388Y917904D01*
X283762Y919275D01*
X285701Y921214D01*
X287072Y923588D01*
X287782Y926237D01*
Y928979D01*
X287072Y931628D01*
X285701Y934002D01*
X283762Y935941D01*
X281388Y937312D01*
X278739Y938022D01*
D02*
G37*
G36*
X208635D02*
X205893D01*
X203244Y937312D01*
X200870Y935941D01*
X198931Y934002D01*
X197560Y931628D01*
X196850Y928979D01*
Y926237D01*
X197560Y923588D01*
X198931Y921214D01*
X200870Y919275D01*
X203244Y917904D01*
X205893Y917194D01*
X208635D01*
X211284Y917904D01*
X213658Y919275D01*
X215597Y921214D01*
X216968Y923588D01*
X217678Y926237D01*
Y928979D01*
X216968Y931628D01*
X215597Y934002D01*
X213658Y935941D01*
X211284Y937312D01*
X208635Y938022D01*
D02*
G37*
G36*
X1290421Y934720D02*
X1287679D01*
X1285030Y934010D01*
X1282656Y932639D01*
X1280717Y930700D01*
X1279346Y928326D01*
X1278636Y925677D01*
Y922935D01*
X1279346Y920286D01*
X1280717Y917912D01*
X1282656Y915973D01*
X1285030Y914602D01*
X1287679Y913892D01*
X1290421D01*
X1293070Y914602D01*
X1295444Y915973D01*
X1297383Y917912D01*
X1298754Y920286D01*
X1299464Y922935D01*
Y925677D01*
X1298754Y928326D01*
X1297383Y930700D01*
X1295444Y932639D01*
X1293070Y934010D01*
X1290421Y934720D01*
D02*
G37*
G36*
X487877Y905368D02*
X485135D01*
X482486Y904658D01*
X480112Y903287D01*
X478173Y901348D01*
X476802Y898974D01*
X476092Y896325D01*
Y893583D01*
X476802Y890934D01*
X478173Y888560D01*
X480112Y886621D01*
X482486Y885250D01*
X485135Y884540D01*
X487877D01*
X490526Y885250D01*
X492900Y886621D01*
X494839Y888560D01*
X496210Y890934D01*
X496920Y893583D01*
Y896325D01*
X496210Y898974D01*
X494839Y901348D01*
X492900Y903287D01*
X490526Y904658D01*
X487877Y905368D01*
D02*
G37*
G36*
X254355Y864362D02*
X251613D01*
X248964Y863652D01*
X246590Y862281D01*
X244651Y860342D01*
X243280Y857968D01*
X242570Y855319D01*
Y852577D01*
X243280Y849928D01*
X244651Y847554D01*
X246590Y845615D01*
X248964Y844244D01*
X251613Y843534D01*
X254355D01*
X257004Y844244D01*
X259378Y845615D01*
X261317Y847554D01*
X262688Y849928D01*
X263398Y852577D01*
Y855319D01*
X262688Y857968D01*
X261317Y860342D01*
X259378Y862281D01*
X257004Y863652D01*
X254355Y864362D01*
D02*
G37*
G36*
X681990Y876604D02*
X669290D01*
X668299Y876407D01*
X667459Y875845D01*
X665935Y874321D01*
X665373Y873481D01*
X665176Y872490D01*
Y845820D01*
X665373Y844829D01*
X665935Y843989D01*
X667459Y842465D01*
X668299Y841903D01*
X669290Y841706D01*
X681150Y841706D01*
X681379Y841752D01*
X681611Y841748D01*
X681869Y841849D01*
X682141Y841903D01*
X682335Y842033D01*
X682552Y842118D01*
X682751Y842311D01*
X682981Y842465D01*
X683111Y842658D01*
X683278Y842820D01*
X684880Y845130D01*
X684991Y845385D01*
X685145Y845615D01*
X685190Y845844D01*
X685283Y846057D01*
X685288Y846334D01*
X685342Y846606D01*
X685342Y873252D01*
X685145Y874243D01*
X684583Y875083D01*
X683821Y875845D01*
X682981Y876407D01*
X682319Y876538D01*
X681990Y876604D01*
D02*
G37*
G36*
X846039Y849540D02*
X843297D01*
X840648Y848830D01*
X838274Y847459D01*
X836335Y845520D01*
X834964Y843146D01*
X834254Y840497D01*
Y837755D01*
X834964Y835106D01*
X836335Y832731D01*
X838274Y830792D01*
X840648Y829421D01*
X843297Y828712D01*
X846039D01*
X848688Y829421D01*
X851062Y830792D01*
X853001Y832731D01*
X854372Y835106D01*
X855082Y837755D01*
Y840497D01*
X854372Y843146D01*
X853001Y845520D01*
X851062Y847459D01*
X848688Y848830D01*
X846039Y849540D01*
D02*
G37*
G36*
X423011Y821436D02*
X420269D01*
X417620Y820726D01*
X415246Y819355D01*
X413307Y817416D01*
X411936Y815042D01*
X411226Y812393D01*
Y809651D01*
X411936Y807002D01*
X413307Y804628D01*
X415246Y802689D01*
X417620Y801318D01*
X420269Y800608D01*
X423011D01*
X425660Y801318D01*
X428034Y802689D01*
X429973Y804628D01*
X431344Y807002D01*
X432054Y809651D01*
Y812393D01*
X431344Y815042D01*
X429973Y817416D01*
X428034Y819355D01*
X425660Y820726D01*
X423011Y821436D01*
D02*
G37*
G36*
X237591Y817626D02*
X234849D01*
X232200Y816916D01*
X229826Y815545D01*
X227887Y813606D01*
X226516Y811232D01*
X225806Y808583D01*
Y805841D01*
X226516Y803192D01*
X227887Y800818D01*
X229826Y798879D01*
X232200Y797508D01*
X234849Y796798D01*
X237591D01*
X240240Y797508D01*
X242614Y798879D01*
X244553Y800818D01*
X245924Y803192D01*
X246634Y805841D01*
Y808583D01*
X245924Y811232D01*
X244553Y813606D01*
X242614Y815545D01*
X240240Y816916D01*
X237591Y817626D01*
D02*
G37*
G36*
X98907Y810514D02*
X96165D01*
X93516Y809804D01*
X91142Y808433D01*
X89203Y806494D01*
X87832Y804120D01*
X87122Y801471D01*
Y798729D01*
X87832Y796080D01*
X89203Y793706D01*
X91142Y791767D01*
X93516Y790396D01*
X96165Y789686D01*
X98907D01*
X101556Y790396D01*
X103930Y791767D01*
X105869Y793706D01*
X107240Y796080D01*
X107950Y798729D01*
Y801471D01*
X107240Y804120D01*
X105869Y806494D01*
X103930Y808433D01*
X101556Y809804D01*
X98907Y810514D01*
D02*
G37*
G36*
X45148Y835322D02*
X37148D01*
X33980Y835010D01*
X30934Y834086D01*
X28126Y832586D01*
X25666Y830566D01*
X23646Y828105D01*
X22146Y825298D01*
X21222Y822252D01*
X20910Y819084D01*
X21222Y815916D01*
X22146Y812870D01*
X23646Y810062D01*
X24798Y808659D01*
Y786734D01*
X57498D01*
Y808659D01*
X58650Y810062D01*
X60150Y812870D01*
X61074Y815916D01*
X61386Y819084D01*
X61074Y822252D01*
X60150Y825298D01*
X58650Y828105D01*
X56630Y830566D01*
X54170Y832586D01*
X51362Y834086D01*
X48316Y835010D01*
X45148Y835322D01*
D02*
G37*
G36*
X251307Y797560D02*
X248565D01*
X245916Y796850D01*
X243542Y795479D01*
X241603Y793540D01*
X240232Y791166D01*
X239522Y788517D01*
Y785775D01*
X240232Y783126D01*
X241603Y780752D01*
X243542Y778813D01*
X245916Y777442D01*
X248565Y776732D01*
X251307D01*
X253956Y777442D01*
X256330Y778813D01*
X258269Y780752D01*
X259640Y783126D01*
X260350Y785775D01*
Y788517D01*
X259640Y791166D01*
X258269Y793540D01*
X256330Y795479D01*
X253956Y796850D01*
X251307Y797560D01*
D02*
G37*
G36*
X397764Y780983D02*
X394008Y780613D01*
X390396Y779517D01*
X387068Y777738D01*
X385064Y776094D01*
X383060Y777738D01*
X379732Y779517D01*
X376120Y780613D01*
X372364Y780983D01*
X368608Y780613D01*
X364996Y779517D01*
X361668Y777738D01*
X359664Y776094D01*
X357660Y777738D01*
X354332Y779517D01*
X350720Y780613D01*
X346964Y780983D01*
X343208Y780613D01*
X339596Y779517D01*
X336268Y777738D01*
X333350Y775344D01*
X330956Y772426D01*
X329177Y769098D01*
X328081Y765486D01*
X327711Y761730D01*
Y759730D01*
X328081Y755974D01*
X329177Y752362D01*
X330956Y749034D01*
X333350Y746116D01*
X336268Y743722D01*
X339596Y741943D01*
X343208Y740847D01*
X346964Y740477D01*
X350720Y740847D01*
X354332Y741943D01*
X357660Y743722D01*
X359664Y745366D01*
X361668Y743722D01*
X364996Y741943D01*
X368608Y740847D01*
X372364Y740477D01*
X376120Y740847D01*
X379732Y741943D01*
X383060Y743722D01*
X385064Y745366D01*
X387068Y743722D01*
X390396Y741943D01*
X394008Y740847D01*
X397764Y740477D01*
X401520Y740847D01*
X403018Y741301D01*
X404004Y740570D01*
Y740570D01*
X442324D01*
Y780890D01*
X404004D01*
Y780890D01*
X403018Y780158D01*
X401520Y780613D01*
X397764Y780983D01*
D02*
G37*
G36*
X240385Y777240D02*
X237643D01*
X234994Y776530D01*
X232620Y775159D01*
X230681Y773220D01*
X229310Y770846D01*
X228600Y768197D01*
Y765455D01*
X229310Y762806D01*
X230681Y760432D01*
X232620Y758493D01*
X234994Y757122D01*
X237643Y756412D01*
X240385D01*
X243034Y757122D01*
X245408Y758493D01*
X247347Y760432D01*
X248718Y762806D01*
X249428Y765455D01*
Y768197D01*
X248718Y770846D01*
X247347Y773220D01*
X245408Y775159D01*
X243034Y776530D01*
X240385Y777240D01*
D02*
G37*
G36*
X146405Y736600D02*
X143663D01*
X141014Y735890D01*
X138640Y734519D01*
X136701Y732580D01*
X135330Y730206D01*
X134620Y727557D01*
Y724815D01*
X135330Y722166D01*
X136701Y719792D01*
X138640Y717853D01*
X141014Y716482D01*
X143663Y715772D01*
X146405D01*
X149054Y716482D01*
X151428Y717853D01*
X153367Y719792D01*
X154738Y722166D01*
X155448Y724815D01*
Y727557D01*
X154738Y730206D01*
X153367Y732580D01*
X151428Y734519D01*
X149054Y735890D01*
X146405Y736600D01*
D02*
G37*
G36*
X166217Y725678D02*
X163475D01*
X160826Y724968D01*
X158452Y723597D01*
X156513Y721658D01*
X155142Y719284D01*
X154432Y716635D01*
Y713893D01*
X155142Y711244D01*
X156513Y708870D01*
X158452Y706931D01*
X160826Y705560D01*
X163475Y704850D01*
X166217D01*
X168866Y705560D01*
X171240Y706931D01*
X173179Y708870D01*
X174550Y711244D01*
X175260Y713893D01*
Y716635D01*
X174550Y719284D01*
X173179Y721658D01*
X171240Y723597D01*
X168866Y724968D01*
X166217Y725678D01*
D02*
G37*
G36*
X201269Y726841D02*
X198527D01*
X195878Y726131D01*
X193504Y724760D01*
X191565Y722821D01*
X190194Y720446D01*
X189580Y718154D01*
X188823Y717042D01*
X186081D01*
X183432Y716332D01*
X181058Y714961D01*
X179119Y713022D01*
X177748Y710648D01*
X177038Y707999D01*
Y705257D01*
X177748Y702608D01*
X179119Y700234D01*
X181058Y698295D01*
X183432Y696924D01*
X186081Y696214D01*
X188823D01*
X191472Y696924D01*
X193846Y698295D01*
X195785Y700234D01*
X197156Y702608D01*
X197771Y704900D01*
X198527Y706013D01*
X201269D01*
X203918Y706722D01*
X206292Y708093D01*
X208231Y710032D01*
X209602Y712407D01*
X210312Y715055D01*
Y717798D01*
X209602Y720446D01*
X208231Y722821D01*
X206292Y724760D01*
X203918Y726131D01*
X201269Y726841D01*
D02*
G37*
G36*
X233527Y715518D02*
X230785D01*
X228136Y714808D01*
X225762Y713437D01*
X223823Y711498D01*
X222452Y709124D01*
X221742Y706475D01*
Y703733D01*
X222452Y701084D01*
X223823Y698710D01*
X225762Y696771D01*
X228136Y695400D01*
X230785Y694690D01*
X233527D01*
X236176Y695400D01*
X238550Y696771D01*
X240489Y698710D01*
X241860Y701084D01*
X242570Y703733D01*
Y706475D01*
X241860Y709124D01*
X240489Y711498D01*
X238550Y713437D01*
X236176Y714808D01*
X233527Y715518D01*
D02*
G37*
G36*
X217525Y694789D02*
X214783D01*
X212134Y694079D01*
X209760Y692708D01*
X207821Y690769D01*
X206450Y688394D01*
X205740Y685746D01*
Y683004D01*
X206450Y680355D01*
X207821Y677980D01*
X209760Y676041D01*
X212134Y674670D01*
X214783Y673961D01*
X217525D01*
X220174Y674670D01*
X222548Y676041D01*
X224487Y677980D01*
X225858Y680355D01*
X226568Y683004D01*
Y685746D01*
X225858Y688394D01*
X224487Y690769D01*
X222548Y692708D01*
X220174Y694079D01*
X217525Y694789D01*
D02*
G37*
G36*
X209397Y665734D02*
X206655D01*
X204006Y665024D01*
X201632Y663653D01*
X199693Y661714D01*
X198322Y659340D01*
X197612Y656691D01*
Y653949D01*
X198322Y651300D01*
X199693Y648926D01*
X201632Y646987D01*
X204006Y645616D01*
X206655Y644906D01*
X209397D01*
X212046Y645616D01*
X214420Y646987D01*
X216359Y648926D01*
X217730Y651300D01*
X218440Y653949D01*
Y656691D01*
X217730Y659340D01*
X216359Y661714D01*
X214420Y663653D01*
X212046Y665024D01*
X209397Y665734D01*
D02*
G37*
G36*
X231749Y660654D02*
X229007D01*
X226358Y659944D01*
X223984Y658573D01*
X222045Y656634D01*
X220674Y654260D01*
X219964Y651611D01*
Y648869D01*
X220674Y646220D01*
X222045Y643846D01*
X223984Y641907D01*
X226358Y640536D01*
X229007Y639826D01*
X231749D01*
X234398Y640536D01*
X236772Y641907D01*
X238711Y643846D01*
X240082Y646220D01*
X240792Y648869D01*
Y651611D01*
X240082Y654260D01*
X238711Y656634D01*
X236772Y658573D01*
X234398Y659944D01*
X231749Y660654D01*
D02*
G37*
G36*
X324866Y609724D02*
X317307Y609724D01*
X316736Y609611D01*
X316154Y609621D01*
X315509Y609367D01*
X314829Y609231D01*
X314345Y608908D01*
X313803Y608694D01*
X313305Y608213D01*
X312729Y607828D01*
X312405Y607344D01*
X311987Y606939D01*
X308624Y602089D01*
X308347Y601454D01*
X307962Y600877D01*
X307849Y600306D01*
X307617Y599772D01*
X307605Y599079D01*
X307470Y598400D01*
Y592889D01*
X307190Y592404D01*
X306324Y589174D01*
Y585830D01*
X307190Y582600D01*
X307470Y582115D01*
Y571754D01*
X307962Y569276D01*
X308874Y567912D01*
X310131Y565734D01*
X312496Y563369D01*
X315392Y561698D01*
X315440Y561685D01*
X315784Y561454D01*
X317782Y561057D01*
X318622Y560832D01*
X321966D01*
X322450Y560962D01*
X323850D01*
X326328Y561454D01*
X328428Y562858D01*
X333508Y567938D01*
X334912Y570038D01*
X335404Y572516D01*
Y599186D01*
X334912Y601664D01*
X333508Y603764D01*
X329444Y607828D01*
X327344Y609232D01*
X324866Y609724D01*
D02*
G37*
G36*
X380746Y606803D02*
X373187Y606803D01*
X372616Y606690D01*
X372034Y606700D01*
X371389Y606446D01*
X370709Y606311D01*
X370225Y605987D01*
X369683Y605773D01*
X369185Y605292D01*
X368609Y604907D01*
X368285Y604423D01*
X367867Y604018D01*
X364504Y599168D01*
X364227Y598532D01*
X363842Y597957D01*
X363729Y597385D01*
X363497Y596851D01*
X363485Y596158D01*
X363350Y595479D01*
X363350Y568833D01*
X363842Y566355D01*
X365246Y564255D01*
X369564Y559937D01*
X371664Y558533D01*
X374142Y558041D01*
X379730D01*
X382208Y558533D01*
X384308Y559937D01*
X389388Y565017D01*
X390792Y567117D01*
X391284Y569595D01*
Y596265D01*
X390792Y598743D01*
X389388Y600843D01*
X385324Y604907D01*
X383224Y606311D01*
X380746Y606803D01*
D02*
G37*
G36*
X214731Y608330D02*
X211989D01*
X209340Y607620D01*
X206966Y606249D01*
X205027Y604310D01*
X203656Y601936D01*
X202946Y599287D01*
Y596545D01*
X203656Y593896D01*
X205027Y591522D01*
X206966Y589583D01*
X209340Y588212D01*
X211989Y587502D01*
X214731D01*
X217380Y588212D01*
X219754Y589583D01*
X221693Y591522D01*
X223064Y593896D01*
X223774Y596545D01*
Y599287D01*
X223064Y601936D01*
X221693Y604310D01*
X219754Y606249D01*
X217380Y607620D01*
X214731Y608330D01*
D02*
G37*
G36*
X277215Y545846D02*
X274473D01*
X271824Y545136D01*
X269450Y543765D01*
X267511Y541826D01*
X266140Y539452D01*
X265430Y536803D01*
Y534061D01*
X266140Y531412D01*
X267511Y529038D01*
X269450Y527099D01*
X271824Y525728D01*
X274473Y525018D01*
X277215D01*
X279864Y525728D01*
X282238Y527099D01*
X284177Y529038D01*
X285548Y531412D01*
X286258Y534061D01*
Y536803D01*
X285548Y539452D01*
X284177Y541826D01*
X282238Y543765D01*
X279864Y545136D01*
X277215Y545846D01*
D02*
G37*
G36*
X491236Y556130D02*
X464820D01*
X462342Y555638D01*
X460242Y554234D01*
X455670Y549662D01*
X454990Y548644D01*
X454296Y547633D01*
X454288Y547594D01*
X454266Y547562D01*
X454027Y546360D01*
X453774Y545161D01*
X453520Y523825D01*
X453527Y523787D01*
X453520Y523748D01*
X453759Y522546D01*
X453983Y521342D01*
X454005Y521309D01*
X454012Y521270D01*
X454693Y520251D01*
X455362Y519225D01*
X455394Y519202D01*
X455416Y519170D01*
X461512Y513074D01*
X463612Y511670D01*
X466090Y511178D01*
X491490D01*
X493968Y511670D01*
X496068Y513074D01*
X500640Y517646D01*
X502044Y519746D01*
X502536Y522224D01*
Y544830D01*
X502044Y547308D01*
X500640Y549408D01*
X495814Y554234D01*
X493714Y555638D01*
X491236Y556130D01*
D02*
G37*
G36*
X305562Y509394D02*
X296096D01*
X295525Y509281D01*
X294943Y509291D01*
X294298Y509037D01*
X293619Y508901D01*
X293134Y508578D01*
X292593Y508364D01*
X292094Y507883D01*
X291518Y507498D01*
X291195Y507014D01*
X290776Y506609D01*
X288557Y503410D01*
X288281Y502775D01*
X287896Y502198D01*
X287851Y501970D01*
X287124Y500710D01*
X286258Y497480D01*
Y494136D01*
X287124Y490906D01*
X287404Y490421D01*
X287404Y473075D01*
X287896Y470597D01*
X289300Y468497D01*
X293618Y464179D01*
X295718Y462775D01*
X298196Y462283D01*
X303784D01*
X306262Y462775D01*
X308362Y464179D01*
X313442Y469259D01*
X314846Y471359D01*
X315338Y473837D01*
Y499618D01*
X314846Y502096D01*
X313442Y504196D01*
X310140Y507498D01*
X308040Y508902D01*
X306384Y509231D01*
X305562Y509394D01*
D02*
G37*
G36*
X569823Y463550D02*
X567081D01*
X564432Y462840D01*
X562058Y461469D01*
X561086Y460498D01*
X560368Y461215D01*
X557994Y462586D01*
X555345Y463296D01*
X552603D01*
X549954Y462586D01*
X547580Y461215D01*
X545641Y459276D01*
X544270Y456902D01*
X543560Y454253D01*
Y451511D01*
X544270Y448862D01*
X545641Y446488D01*
X547580Y444549D01*
X549954Y443178D01*
X552603Y442468D01*
X555345D01*
X557994Y443178D01*
X560368Y444549D01*
X561340Y445520D01*
X562058Y444803D01*
X564432Y443432D01*
X567081Y442722D01*
X569823D01*
X572472Y443432D01*
X574846Y444803D01*
X576785Y446742D01*
X578156Y449116D01*
X578866Y451765D01*
Y454507D01*
X578156Y457156D01*
X576785Y459530D01*
X574846Y461469D01*
X572472Y462840D01*
X569823Y463550D01*
D02*
G37*
G36*
X208788Y492376D02*
X203200D01*
X200722Y491884D01*
X198622Y490480D01*
X193542Y485400D01*
X192138Y483300D01*
X191646Y480822D01*
Y454152D01*
X192138Y451674D01*
X193542Y449574D01*
X197606Y445510D01*
X199706Y444106D01*
X202184Y443614D01*
X209743Y443614D01*
X210314Y443727D01*
X210896Y443717D01*
X211541Y443971D01*
X212221Y444106D01*
X212705Y444430D01*
X213247Y444644D01*
X213745Y445125D01*
X214321Y445510D01*
X214645Y445994D01*
X215063Y446399D01*
X218426Y451249D01*
X218703Y451884D01*
X219088Y452461D01*
X219201Y453032D01*
X219433Y453566D01*
X219445Y454259D01*
X219580Y454938D01*
X219580Y481584D01*
X219088Y484062D01*
X217684Y486162D01*
X213366Y490480D01*
X211266Y491884D01*
X208788Y492376D01*
D02*
G37*
G36*
X33239Y517464D02*
X29753D01*
X26333Y516784D01*
X23112Y515449D01*
X20213Y513512D01*
X17747Y511047D01*
X15811Y508148D01*
X14476Y504927D01*
X13796Y501507D01*
Y498021D01*
X14476Y494601D01*
X15811Y491380D01*
X17747Y488481D01*
X18964Y487264D01*
X17747Y486047D01*
X15811Y483148D01*
X14476Y479927D01*
X13796Y476507D01*
Y473021D01*
X14476Y469601D01*
X15811Y466380D01*
X17747Y463481D01*
X18964Y462264D01*
X17747Y461047D01*
X15811Y458148D01*
X14476Y454927D01*
X13796Y451507D01*
Y448021D01*
X14476Y444601D01*
X15811Y441380D01*
X17747Y438481D01*
X20213Y436016D01*
X23112Y434078D01*
X26333Y432744D01*
X29753Y432064D01*
X33239D01*
X36659Y432744D01*
X39880Y434078D01*
X42779Y436016D01*
X45244Y438481D01*
X47182Y441380D01*
X48516Y444601D01*
X49196Y448021D01*
Y451507D01*
X48516Y454927D01*
X47182Y458148D01*
X45244Y461047D01*
X44028Y462264D01*
X45244Y463481D01*
X47182Y466380D01*
X48516Y469601D01*
X49196Y473021D01*
Y476507D01*
X48516Y479927D01*
X47182Y483148D01*
X45244Y486047D01*
X44028Y487264D01*
X45244Y488481D01*
X47182Y491380D01*
X48516Y494601D01*
X49196Y498021D01*
Y501507D01*
X48516Y504927D01*
X47182Y508148D01*
X45244Y511047D01*
X42779Y513512D01*
X39880Y515449D01*
X36659Y516784D01*
X33239Y517464D01*
D02*
G37*
G36*
X385953Y468627D02*
X359283D01*
X356805Y468135D01*
X354705Y466731D01*
X350641Y462667D01*
X349237Y460567D01*
X348745Y458089D01*
X348745Y450530D01*
X348858Y449959D01*
X348848Y449377D01*
X349102Y448732D01*
X349238Y448052D01*
X349561Y447568D01*
X349775Y447026D01*
X350256Y446528D01*
X350641Y445952D01*
X351125Y445628D01*
X351530Y445210D01*
X353279Y443996D01*
X352147Y442036D01*
X351282Y438806D01*
Y435462D01*
X352147Y432232D01*
X353820Y429336D01*
X356184Y426972D01*
X359080Y425299D01*
X362310Y424434D01*
X365654D01*
X368884Y425299D01*
X371780Y426972D01*
X371856Y427048D01*
X371932Y426972D01*
X374828Y425299D01*
X378058Y424434D01*
X381402D01*
X384632Y425299D01*
X387528Y426972D01*
X389893Y429336D01*
X391564Y432232D01*
X392430Y435462D01*
Y438806D01*
X391564Y442036D01*
X391259Y442566D01*
X391293Y442589D01*
X395611Y446907D01*
X397015Y449007D01*
X397507Y451485D01*
Y457073D01*
X397015Y459551D01*
X395611Y461651D01*
X390531Y466731D01*
X388431Y468135D01*
X385953Y468627D01*
D02*
G37*
G36*
X303757Y437134D02*
X300255D01*
X296820Y436451D01*
X293584Y435110D01*
X290672Y433165D01*
X288195Y430688D01*
X286250Y427776D01*
X284909Y424540D01*
X284226Y421105D01*
Y417603D01*
X284909Y414168D01*
X286250Y410932D01*
X288195Y408020D01*
X289361Y406854D01*
X288195Y405688D01*
X286250Y402776D01*
X284909Y399540D01*
X284226Y396105D01*
Y392603D01*
X284909Y389168D01*
X286250Y385932D01*
X288195Y383020D01*
X290672Y380543D01*
X293584Y378598D01*
X296820Y377257D01*
X300255Y376574D01*
X303757D01*
X307192Y377257D01*
X310428Y378598D01*
X313340Y380543D01*
X315817Y383020D01*
X317762Y385932D01*
X319103Y389168D01*
X319786Y392603D01*
Y396105D01*
X319103Y399540D01*
X317762Y402776D01*
X315817Y405688D01*
X314651Y406854D01*
X315817Y408020D01*
X317762Y410932D01*
X319103Y414168D01*
X319786Y417603D01*
Y421105D01*
X319103Y424540D01*
X317762Y427776D01*
X315817Y430688D01*
X313340Y433165D01*
X310428Y435110D01*
X307192Y436451D01*
X303757Y437134D01*
D02*
G37*
G36*
X362559Y324104D02*
X359817D01*
X357168Y323394D01*
X354794Y322023D01*
X352855Y320084D01*
X351484Y317710D01*
X350774Y315061D01*
Y312319D01*
X351484Y309670D01*
X352855Y307296D01*
X354794Y305357D01*
X357168Y303986D01*
X359817Y303276D01*
X362559D01*
X365208Y303986D01*
X367582Y305357D01*
X369521Y307296D01*
X370892Y309670D01*
X371602Y312319D01*
Y315061D01*
X370892Y317710D01*
X369521Y320084D01*
X367582Y322023D01*
X365208Y323394D01*
X362559Y324104D01*
D02*
G37*
G36*
X94382Y302514D02*
X91038D01*
X87808Y301649D01*
X84912Y299977D01*
X83933Y298998D01*
X81102Y300632D01*
X77872Y301498D01*
X74528D01*
X71298Y300632D01*
X68402Y298960D01*
X66038Y296596D01*
X64366Y293700D01*
X63500Y290470D01*
Y287126D01*
X64366Y283896D01*
X66038Y281000D01*
X68402Y278636D01*
X71298Y276964D01*
X74528Y276098D01*
X77872D01*
X81102Y276964D01*
X83998Y278636D01*
X84977Y279614D01*
X87808Y277980D01*
X91038Y277114D01*
X94382D01*
X97612Y277980D01*
X100508Y279652D01*
X102872Y282016D01*
X104544Y284912D01*
X105410Y288142D01*
Y291486D01*
X104544Y294716D01*
X102872Y297612D01*
X100508Y299977D01*
X97612Y301649D01*
X94382Y302514D01*
D02*
G37*
G36*
X303757Y336404D02*
X300255D01*
X296820Y335721D01*
X293584Y334380D01*
X290672Y332435D01*
X288195Y329958D01*
X286250Y327046D01*
X284909Y323810D01*
X284226Y320375D01*
Y316873D01*
X284909Y313438D01*
X286250Y310202D01*
X288195Y307290D01*
X289361Y306124D01*
X288195Y304958D01*
X286250Y302046D01*
X284909Y298810D01*
X284226Y295375D01*
Y291873D01*
X284909Y288438D01*
X286250Y285202D01*
X288195Y282290D01*
X290672Y279813D01*
X293584Y277868D01*
X296820Y276527D01*
X300255Y275844D01*
X303757D01*
X307192Y276527D01*
X310428Y277868D01*
X313340Y279813D01*
X315817Y282290D01*
X317762Y285202D01*
X319103Y288438D01*
X319786Y291873D01*
Y295375D01*
X319103Y298810D01*
X317762Y302046D01*
X315817Y304958D01*
X314651Y306124D01*
X315817Y307290D01*
X317762Y310202D01*
X319103Y313438D01*
X319786Y316873D01*
Y320375D01*
X319103Y323810D01*
X317762Y327046D01*
X315817Y329958D01*
X313340Y332435D01*
X310428Y334380D01*
X307192Y335721D01*
X303757Y336404D01*
D02*
G37*
G36*
X123862Y265239D02*
X121120D01*
X118471Y264529D01*
X116395Y263330D01*
X114319Y264529D01*
X111670Y265239D01*
X108928D01*
X106279Y264529D01*
X103904Y263158D01*
X101966Y261219D01*
X100595Y258845D01*
X99885Y256196D01*
Y253454D01*
X100595Y250805D01*
X101966Y248431D01*
X103904Y246492D01*
X106279Y245121D01*
X108928Y244411D01*
X111670D01*
X114319Y245121D01*
X116395Y246319D01*
X118471Y245121D01*
X121120Y244411D01*
X123862D01*
X126510Y245121D01*
X128885Y246492D01*
X130824Y248431D01*
X132195Y250805D01*
X132905Y253454D01*
Y256196D01*
X132195Y258845D01*
X130824Y261219D01*
X128885Y263158D01*
X126510Y264529D01*
X123862Y265239D01*
D02*
G37*
G36*
X332079Y196342D02*
X329337D01*
X326688Y195632D01*
X324314Y194261D01*
X322375Y192322D01*
X321004Y189948D01*
X320294Y187299D01*
Y184557D01*
X321004Y181908D01*
X322375Y179534D01*
X324314Y177595D01*
X326688Y176224D01*
X329337Y175514D01*
X332079D01*
X334728Y176224D01*
X337102Y177595D01*
X339041Y179534D01*
X340412Y181908D01*
X341122Y184557D01*
Y187299D01*
X340412Y189948D01*
X339041Y192322D01*
X337102Y194261D01*
X334728Y195632D01*
X332079Y196342D01*
D02*
G37*
G36*
X80412Y174498D02*
X77068D01*
X73838Y173633D01*
X70942Y171961D01*
X68577Y169596D01*
X66905Y166700D01*
X66040Y163470D01*
Y160126D01*
X66905Y156896D01*
X68577Y154000D01*
X70942Y151636D01*
X73838Y149964D01*
X77068Y149098D01*
X80412D01*
X83642Y149964D01*
X86538Y151636D01*
X88903Y154000D01*
X90575Y156896D01*
X91440Y160126D01*
Y163470D01*
X90575Y166700D01*
X88903Y169596D01*
X86538Y171961D01*
X83642Y173633D01*
X80412Y174498D01*
D02*
G37*
G36*
X357526Y179324D02*
X354182D01*
X350952Y178458D01*
X348056Y176786D01*
X345691Y174422D01*
X344020Y171526D01*
X343154Y168296D01*
Y164952D01*
X344020Y161722D01*
X345553Y159065D01*
X344665Y158177D01*
X342993Y155281D01*
X342127Y152051D01*
Y148707D01*
X342993Y145477D01*
X344665Y142581D01*
X347029Y140216D01*
X349925Y138544D01*
X353155Y137679D01*
X356499D01*
X359729Y138544D01*
X362625Y140216D01*
X364990Y142581D01*
X366662Y145477D01*
X367527Y148707D01*
Y152051D01*
X366662Y155281D01*
X365128Y157937D01*
X366017Y158826D01*
X367688Y161722D01*
X368554Y164952D01*
Y168296D01*
X367688Y171526D01*
X366017Y174422D01*
X363652Y176786D01*
X360756Y178458D01*
X357526Y179324D01*
D02*
G37*
G36*
X233295Y155681D02*
X230552D01*
X227904Y154971D01*
X225529Y153600D01*
X223590Y151661D01*
X222219Y149286D01*
X221509Y146638D01*
Y143896D01*
X222219Y141247D01*
X223590Y138872D01*
X225529Y136933D01*
X227904Y135562D01*
X230552Y134853D01*
X233295D01*
X235943Y135562D01*
X238318Y136933D01*
X240257Y138872D01*
X241628Y141247D01*
X242337Y143896D01*
Y146638D01*
X241628Y149286D01*
X240257Y151661D01*
X238318Y153600D01*
X235943Y154971D01*
X233295Y155681D01*
D02*
G37*
G36*
X171297Y128016D02*
X168555D01*
X165906Y127306D01*
X163532Y125935D01*
X161593Y123996D01*
X160222Y121622D01*
X159512Y118973D01*
Y116231D01*
X160222Y113582D01*
X161593Y111208D01*
X163532Y109269D01*
X165906Y107898D01*
X168555Y107188D01*
X171297D01*
X173946Y107898D01*
X176320Y109269D01*
X178259Y111208D01*
X179630Y113582D01*
X180340Y116231D01*
Y118973D01*
X179630Y121622D01*
X178259Y123996D01*
X176320Y125935D01*
X173946Y127306D01*
X171297Y128016D01*
D02*
G37*
G36*
X217779Y104902D02*
X215037D01*
X212388Y104192D01*
X210014Y102821D01*
X208075Y100882D01*
X206704Y98508D01*
X205994Y95859D01*
Y93117D01*
X206704Y90468D01*
X208075Y88094D01*
X210014Y86155D01*
X211499Y85297D01*
X210768Y84030D01*
X210058Y81381D01*
Y78639D01*
X210768Y75990D01*
X212139Y73616D01*
X214078Y71677D01*
X216452Y70306D01*
X219101Y69596D01*
X221843D01*
X224492Y70306D01*
X226866Y71677D01*
X228805Y73616D01*
X230176Y75990D01*
X230886Y78639D01*
Y81381D01*
X230176Y84030D01*
X228805Y86404D01*
X226866Y88343D01*
X225381Y89201D01*
X226112Y90468D01*
X226822Y93117D01*
Y95859D01*
X226112Y98508D01*
X224741Y100882D01*
X222802Y102821D01*
X220428Y104192D01*
X217779Y104902D01*
D02*
G37*
G36*
X322531Y82717D02*
X319789D01*
X317141Y82007D01*
X314766Y80636D01*
X312827Y78697D01*
X311456Y76323D01*
X310746Y73674D01*
Y70932D01*
X311456Y68283D01*
X312827Y65909D01*
X314766Y63970D01*
X317141Y62599D01*
X319789Y61889D01*
X322531D01*
X325180Y62599D01*
X327555Y63970D01*
X329493Y65909D01*
X330864Y68283D01*
X331574Y70932D01*
Y73674D01*
X330864Y76323D01*
X329493Y78697D01*
X327555Y80636D01*
X325180Y82007D01*
X322531Y82717D01*
D02*
G37*
G36*
X275691Y57912D02*
X272949D01*
X270300Y57202D01*
X267926Y55831D01*
X265987Y53892D01*
X264616Y51518D01*
X263906Y48869D01*
Y46127D01*
X264616Y43478D01*
X265987Y41104D01*
X267926Y39165D01*
X270300Y37794D01*
X272949Y37084D01*
X275691D01*
X278340Y37794D01*
X280714Y39165D01*
X282653Y41104D01*
X284024Y43478D01*
X284734Y46127D01*
Y48869D01*
X284024Y51518D01*
X282653Y53892D01*
X280714Y55831D01*
X278340Y57202D01*
X275691Y57912D01*
D02*
G37*
%LPD*%
G36*
X682752Y873252D02*
X682752Y846606D01*
X681150Y844296D01*
X669290Y844296D01*
X667766Y845820D01*
Y872490D01*
X669290Y874014D01*
X681990D01*
X682752Y873252D01*
D02*
G37*
G36*
X328930Y599186D02*
Y572516D01*
X323850Y567436D01*
X318262D01*
X313944Y571754D01*
X313944Y598400D01*
X317307Y603250D01*
X324866Y603250D01*
X328930Y599186D01*
D02*
G37*
G36*
X384810Y596265D02*
Y569595D01*
X379730Y564515D01*
X374142D01*
X369824Y568833D01*
X369824Y595479D01*
X373187Y600329D01*
X380746Y600329D01*
X384810Y596265D01*
D02*
G37*
G36*
X496062Y544830D02*
Y522224D01*
X491490Y517652D01*
X466090D01*
X459994Y523748D01*
X460248Y545084D01*
X464820Y549656D01*
X491236D01*
X496062Y544830D01*
D02*
G37*
G36*
X308864Y499618D02*
Y473837D01*
X303784Y468757D01*
X298196D01*
X293878Y473075D01*
X293878Y499721D01*
X296096Y502920D01*
X305562D01*
X308864Y499618D01*
D02*
G37*
G36*
X213106Y481584D02*
X213106Y454938D01*
X209743Y450088D01*
X202184Y450088D01*
X198120Y454152D01*
Y480822D01*
X203200Y485902D01*
X208788D01*
X213106Y481584D01*
D02*
G37*
G36*
X391033Y457073D02*
Y451485D01*
X386715Y447167D01*
X360069Y447167D01*
X355219Y450530D01*
X355219Y458089D01*
X359283Y462153D01*
X385953D01*
X391033Y457073D01*
D02*
G37*
%LPC*%
G36*
X965803Y825500D02*
X962057D01*
X958440Y824531D01*
X955196Y822658D01*
X952548Y820010D01*
X950675Y816766D01*
X949706Y813149D01*
Y809403D01*
X950266Y807314D01*
X948738Y805786D01*
X946865Y802542D01*
X945896Y798925D01*
Y795179D01*
X946865Y791562D01*
X948738Y788318D01*
X951386Y785670D01*
X954630Y783797D01*
X958247Y782828D01*
X961993D01*
X965610Y783797D01*
X968854Y785670D01*
X971502Y788318D01*
X973375Y791562D01*
X974344Y795179D01*
Y798925D01*
X973784Y801014D01*
X975312Y802542D01*
X977185Y805786D01*
X978154Y809403D01*
Y813149D01*
X977185Y816766D01*
X975312Y820010D01*
X972664Y822658D01*
X969420Y824531D01*
X965803Y825500D01*
D02*
G37*
G36*
X1014918Y798576D02*
X1012510D01*
X1010184Y797953D01*
X1008100Y796749D01*
X1006397Y795046D01*
X1005193Y792962D01*
X1004570Y790636D01*
Y788228D01*
X1005193Y785902D01*
X1006397Y783818D01*
X1008100Y782115D01*
X1010184Y780911D01*
X1012510Y780288D01*
X1014918D01*
X1017243Y780911D01*
X1019329Y782115D01*
X1021031Y783818D01*
X1022235Y785902D01*
X1022858Y788228D01*
Y790636D01*
X1022235Y792962D01*
X1021031Y795046D01*
X1019329Y796749D01*
X1017243Y797953D01*
X1014918Y798576D01*
D02*
G37*
G36*
X981390Y770128D02*
X978982D01*
X976656Y769505D01*
X974572Y768301D01*
X972869Y766599D01*
X971665Y764513D01*
X971042Y762188D01*
Y759780D01*
X971665Y757455D01*
X972869Y755369D01*
X974572Y753667D01*
X976656Y752463D01*
X978266Y752032D01*
X979002Y751672D01*
X979131Y750570D01*
X978408Y747871D01*
Y744125D01*
X979377Y740508D01*
X981250Y737264D01*
X983898Y734616D01*
X987142Y732743D01*
X990759Y731774D01*
X994505D01*
X998122Y732743D01*
X1001366Y734616D01*
X1004014Y737264D01*
X1005887Y740508D01*
X1006856Y744125D01*
Y747871D01*
X1005887Y751488D01*
X1004014Y754732D01*
X1001366Y757380D01*
X998122Y759253D01*
X994505Y760222D01*
X990759D01*
X990338Y760109D01*
X989330Y760882D01*
Y762188D01*
X988707Y764513D01*
X987503Y766599D01*
X985800Y768301D01*
X983716Y769505D01*
X981390Y770128D01*
D02*
G37*
G36*
X1033166Y720734D02*
X1030758D01*
X1028432Y720111D01*
X1026348Y718907D01*
X1024645Y717205D01*
X1023441Y715119D01*
X1022818Y712794D01*
Y710386D01*
X1023441Y708061D01*
X1024645Y705975D01*
X1026348Y704273D01*
X1028432Y703069D01*
X1030758Y702446D01*
X1033166D01*
X1035491Y703069D01*
X1037577Y704273D01*
X1039279Y705975D01*
X1040483Y708061D01*
X1041106Y710386D01*
Y712794D01*
X1040483Y715119D01*
X1039279Y717205D01*
X1037577Y718907D01*
X1035491Y720111D01*
X1033166Y720734D01*
D02*
G37*
G36*
X1127608Y644144D02*
X1124356D01*
X1121166Y643510D01*
X1118162Y642265D01*
X1115458Y640458D01*
X1113158Y638158D01*
X1111351Y635454D01*
X1110107Y632450D01*
X1109472Y629260D01*
Y626008D01*
X1110107Y622818D01*
X1111351Y619814D01*
X1113158Y617109D01*
X1115458Y614810D01*
X1118162Y613003D01*
X1121166Y611758D01*
X1124356Y611124D01*
X1127608D01*
X1130798Y611758D01*
X1133802Y613003D01*
X1136507Y614810D01*
X1138806Y617109D01*
X1140613Y619814D01*
X1141858Y622818D01*
X1142492Y626008D01*
Y629260D01*
X1141858Y632450D01*
X1140613Y635454D01*
X1138806Y638158D01*
X1136507Y640458D01*
X1133802Y642265D01*
X1130798Y643510D01*
X1127608Y644144D01*
D02*
G37*
G36*
X1209414Y521106D02*
X1205943D01*
X1202539Y520429D01*
X1199332Y519101D01*
X1196446Y517172D01*
X1193992Y514718D01*
X1192063Y511832D01*
X1190735Y508625D01*
X1190058Y505221D01*
Y501750D01*
X1190735Y498346D01*
X1192063Y495140D01*
X1193992Y492254D01*
X1196446Y489800D01*
X1199332Y487871D01*
X1202539Y486543D01*
X1205943Y485866D01*
X1209414D01*
X1212818Y486543D01*
X1216024Y487871D01*
X1218910Y489800D01*
X1221364Y492254D01*
X1223293Y495140D01*
X1224621Y498346D01*
X1225298Y501750D01*
Y505221D01*
X1224621Y508625D01*
X1223293Y511832D01*
X1221364Y514718D01*
X1218910Y517172D01*
X1216024Y519101D01*
X1212818Y520429D01*
X1209414Y521106D01*
D02*
G37*
G36*
X1294433Y505678D02*
X1291356D01*
X1288338Y505078D01*
X1285495Y503900D01*
X1282937Y502191D01*
X1280762Y500015D01*
X1279052Y497457D01*
X1277875Y494614D01*
X1277274Y491596D01*
Y488520D01*
X1277875Y485502D01*
X1279052Y482659D01*
X1280762Y480101D01*
X1282937Y477925D01*
X1285495Y476216D01*
X1288338Y475038D01*
X1291127Y474483D01*
X1291372Y473914D01*
X1291394Y473168D01*
X1288740Y471394D01*
X1286286Y468940D01*
X1284357Y466054D01*
X1283029Y462848D01*
X1282352Y459443D01*
Y455973D01*
X1283029Y452568D01*
X1284357Y449362D01*
X1286286Y446476D01*
X1288740Y444022D01*
X1291626Y442093D01*
X1294832Y440765D01*
X1298237Y440088D01*
X1301707D01*
X1305112Y440765D01*
X1308318Y442093D01*
X1311204Y444022D01*
X1313658Y446476D01*
X1315587Y449362D01*
X1316915Y452568D01*
X1317592Y455973D01*
Y459443D01*
X1316915Y462848D01*
X1315587Y466054D01*
X1313658Y468940D01*
X1311204Y471394D01*
X1308318Y473323D01*
X1305112Y474651D01*
X1301707Y475328D01*
X1301251D01*
X1300865Y476598D01*
X1302852Y477925D01*
X1305027Y480101D01*
X1306737Y482659D01*
X1307914Y485502D01*
X1308514Y488520D01*
Y491596D01*
X1307914Y494614D01*
X1306737Y497457D01*
X1305027Y500015D01*
X1302852Y502191D01*
X1300293Y503900D01*
X1297451Y505078D01*
X1294433Y505678D01*
D02*
G37*
G36*
X1313180Y282006D02*
X1290828D01*
X1288839Y281744D01*
X1286985Y280976D01*
X1285393Y279755D01*
X1279551Y273913D01*
X1278330Y272321D01*
X1277562Y270467D01*
X1277300Y268478D01*
Y257337D01*
X1276793Y202509D01*
X1276797Y202474D01*
X1276792Y202438D01*
Y196342D01*
X1277054Y194353D01*
X1277822Y192499D01*
X1279043Y190907D01*
X1286663Y183287D01*
X1288255Y182066D01*
X1290109Y181298D01*
X1292098Y181036D01*
X1311656D01*
X1313645Y181298D01*
X1315499Y182066D01*
X1317091Y183287D01*
X1322425Y188621D01*
X1323646Y190213D01*
X1324414Y192067D01*
X1324676Y194056D01*
Y270510D01*
X1324414Y272499D01*
X1323646Y274353D01*
X1322425Y275945D01*
X1318615Y279755D01*
X1317023Y280976D01*
X1315169Y281744D01*
X1313180Y282006D01*
D02*
G37*
%LPD*%
G36*
X1316990Y270510D02*
Y194056D01*
X1311656Y188722D01*
X1292098D01*
X1284478Y196342D01*
Y202438D01*
X1284986Y257302D01*
Y268478D01*
X1290828Y274320D01*
X1313180D01*
X1316990Y270510D01*
D02*
G37*
%LPC*%
G36*
X624176Y790596D02*
X622437D01*
X620757Y790146D01*
X619251Y789276D01*
X618022Y788047D01*
X617152Y786541D01*
X616702Y784861D01*
Y783122D01*
X617152Y781443D01*
X618022Y779937D01*
X619251Y778707D01*
X620757Y777838D01*
X622437Y777388D01*
X624176D01*
X625855Y777838D01*
X627361Y778707D01*
X628591Y779937D01*
X629460Y781443D01*
X629910Y783122D01*
Y784861D01*
X629460Y786541D01*
X628591Y788047D01*
X627361Y789276D01*
X625855Y790146D01*
X624176Y790596D01*
D02*
G37*
G36*
X621538Y734110D02*
X608838D01*
X607847Y733913D01*
X607007Y733351D01*
X605483Y731827D01*
X604921Y730987D01*
X604724Y729996D01*
Y703326D01*
X604763Y703129D01*
X604921Y702335D01*
X605483Y701495D01*
X607007Y699971D01*
X607007D01*
Y699971D01*
X607285Y699784D01*
X607847Y699409D01*
X608838Y699212D01*
X608838D01*
D01*
X620698Y699212D01*
X620927Y699258D01*
X621160Y699254D01*
X621417Y699355D01*
X621689Y699409D01*
X621883Y699539D01*
X622100Y699624D01*
X622299Y699817D01*
X622529Y699971D01*
X622659Y700164D01*
X622826Y700326D01*
X624428Y702636D01*
X624539Y702891D01*
X624693Y703121D01*
X624738Y703350D01*
X624831Y703563D01*
X624836Y703840D01*
X624890Y704112D01*
X624890Y730758D01*
D01*
Y730758D01*
X624841Y731004D01*
X624693Y731749D01*
X624693Y731749D01*
Y731749D01*
X624410Y732172D01*
X624131Y732589D01*
X624131D01*
Y732589D01*
X623369Y733351D01*
X622529Y733913D01*
X621867Y734044D01*
X621538Y734110D01*
D02*
G37*
G36*
X649478Y556753D02*
X636778D01*
X634300Y556260D01*
X632200Y554857D01*
X630676Y553333D01*
X629272Y551233D01*
X628780Y548755D01*
Y522085D01*
X629092Y520516D01*
X629272Y519607D01*
X629272Y519607D01*
X629272Y519607D01*
X630041Y518457D01*
X630676Y517507D01*
X631553Y516630D01*
X631553Y516630D01*
X631553Y516630D01*
X632597Y515932D01*
X633653Y515227D01*
X633653Y515227D01*
X633653Y515226D01*
X634981Y514962D01*
X636131Y514734D01*
X636131Y514734D01*
X636131Y514734D01*
X638181D01*
X638226Y514707D01*
X641456Y513842D01*
X644800D01*
X648030Y514707D01*
X648075Y514734D01*
X649087D01*
X649658Y514847D01*
X650240Y514837D01*
X650885Y515091D01*
X651564Y515226D01*
X652049Y515550D01*
X652590Y515764D01*
X653089Y516245D01*
X653665Y516630D01*
X653988Y517114D01*
X654407Y517519D01*
X655561Y519182D01*
X655837Y519817D01*
X656222Y520393D01*
X656335Y520965D01*
X656567Y521499D01*
X656579Y522192D01*
X656714Y522871D01*
X656714Y549517D01*
Y549517D01*
Y549517D01*
X656518Y550503D01*
X656222Y551995D01*
X656221Y551995D01*
Y551995D01*
X655656Y552842D01*
X654818Y554095D01*
X654818Y554095D01*
X654818Y554095D01*
X654056Y554857D01*
X653272Y555381D01*
X651956Y556260D01*
X651955Y556260D01*
D01*
X651449Y556361D01*
X649478Y556753D01*
D02*
G37*
%LPD*%
G36*
X622300Y730758D02*
X622300Y704112D01*
X620698Y701802D01*
X608838Y701802D01*
X607314Y703326D01*
Y729996D01*
X608838Y731520D01*
X621538D01*
X622300Y730758D01*
D02*
G37*
G36*
X650240Y549517D02*
X650240Y522871D01*
X649087Y521208D01*
X636131Y521208D01*
X635254Y522085D01*
Y548755D01*
X636778Y550279D01*
X649478D01*
X650240Y549517D01*
D02*
G37*
G54D97*
X1132678Y542486D02*
D03*
X1298390Y201076D02*
D03*
X1259390Y126076D02*
D03*
X1299972Y262708D02*
D03*
X1374882Y52070D02*
D03*
X972056Y473888D02*
D03*
X1122056D02*
D03*
X972058Y373888D02*
D03*
X1122056D02*
D03*
X1263904Y903706D02*
D03*
X1365446Y201076D02*
D03*
X1326446Y126076D02*
D03*
G54D122*
X762508Y913384D02*
X774446Y925322D01*
X732028D02*
X750570D01*
X762508Y913384D01*
X774446Y925322D02*
X863092D01*
X716282Y909576D02*
X732028Y925322D01*
X863092D02*
X877225Y911189D01*
Y906870D02*
Y911189D01*
Y906870D02*
X877824Y906272D01*
X716282Y841599D02*
Y909576D01*
X876554Y505714D02*
Y536448D01*
X736431Y535940D02*
X876554D01*
X690880Y538480D02*
X733891D01*
X736431Y535940D01*
X615950Y516771D02*
Y621792D01*
X666242Y513842D02*
X690880Y538480D01*
X660940Y511850D02*
X662932Y513842D01*
X620871Y511850D02*
X660940D01*
X615950Y516771D02*
X620871Y511850D01*
X662932Y513842D02*
X666242D01*
X615950Y621792D02*
X638770Y644612D01*
X616802Y801207D02*
X631100D01*
X616204Y800608D02*
X616802Y801207D01*
X782066Y742780D02*
X784352Y740494D01*
X774800Y823876D02*
X782066Y816610D01*
X784352Y739648D02*
Y740494D01*
X782066Y742780D02*
Y816610D01*
X773938Y843936D02*
Y856234D01*
Y824738D02*
Y843936D01*
X773938Y843936D02*
X773938Y843936D01*
X716282Y841599D02*
X717129D01*
X719466Y843936D01*
X773938D01*
X783844Y866140D02*
X809498D01*
X773938Y856234D02*
X783844Y866140D01*
X631100Y801207D02*
X638770Y793536D01*
Y644612D02*
Y759557D01*
Y793536D01*
X901700Y561594D02*
X924306D01*
X876554Y536448D02*
X901700Y561594D01*
X779018Y613918D02*
Y733468D01*
X784352Y738802D01*
X774800Y823876D02*
Y824723D01*
X552958Y164846D02*
X570400D01*
X572432Y166878D02*
X573278D01*
X570400Y164846D02*
X572432Y166878D01*
G54D125*
X593406Y480451D02*
X591683Y482313D01*
X589883Y484101D01*
X588009Y485811D01*
X586065Y487440D01*
X584053Y488985D01*
X581978Y490444D01*
X579842Y491814D01*
X577651Y493092D01*
X575408Y494277D01*
X573117Y495365D01*
X570781Y496356D01*
X568406Y497247D01*
X565995Y498037D01*
X563553Y498724D01*
X561084Y499307D01*
X558593Y499785D01*
X556084Y500157D01*
X553561Y500423D01*
X551029Y500582D01*
X548493Y500634D01*
X598424Y467202D02*
X598279Y469610D01*
X597844Y471982D01*
X597127Y474286D01*
X596139Y476486D01*
X594892Y478551D01*
X593406Y480451D01*
X665094Y402499D02*
Y420136D01*
X443644Y516976D02*
X459318Y501302D01*
X443644Y516976D02*
Y525366D01*
X460596Y501302D02*
X462280Y499618D01*
X332740Y537718D02*
X431292D01*
X443644Y525366D01*
X1430127Y399238D02*
X1440000D01*
X1420920Y392728D02*
X1423617D01*
X1430127Y399238D01*
X1358353Y330161D02*
X1420920Y392728D01*
X1358353Y318232D02*
Y330161D01*
X597521Y442355D02*
X598424Y443977D01*
X596877Y441198D02*
X597521Y442355D01*
X970805Y365223D02*
X972058Y366476D01*
X968891Y320603D02*
X970805Y322517D01*
X972058Y366476D02*
Y373888D01*
X970805Y322517D02*
Y365223D01*
X1070356Y245580D02*
X1101720D01*
X1113436Y257296D02*
Y264198D01*
X1101720Y245580D02*
X1113436Y257296D01*
X1070473Y245697D02*
Y262265D01*
X1012135Y320603D02*
X1070473Y262265D01*
X968891Y320603D02*
X1012135D01*
X1070356Y245580D02*
X1070473Y245697D01*
X598424Y443977D02*
Y467202D01*
X482600Y500634D02*
X548493D01*
X655320Y426974D02*
X665094Y436748D01*
Y427899D02*
Y436748D01*
X597521Y442355D02*
X622808Y417068D01*
Y417068D02*
X654263D01*
X571039Y394796D02*
X596877Y441198D01*
X566166Y371348D02*
Y397510D01*
X1358842Y300434D02*
Y317304D01*
Y196250D02*
Y300434D01*
X1358392Y317754D02*
X1358842Y317304D01*
X1369060Y797052D02*
X1401118D01*
X1297406Y868706D02*
X1369060Y797052D01*
X1263904Y868706D02*
X1297406D01*
X1401118Y797052D02*
X1450340Y846274D01*
G54D128*
X1194054Y156845D02*
D03*
G54D133*
X31496Y396818D02*
D03*
Y524764D02*
D03*
X493614Y951568D02*
D03*
G54D136*
X741368Y36830D02*
D03*
X911368Y37830D02*
D03*
X956368D02*
D03*
X1000368D02*
D03*
X1046368D02*
D03*
X785368Y36830D02*
D03*
X926946Y364482D02*
D03*
X880946D02*
D03*
X836946D02*
D03*
X791946D02*
D03*
X665946Y363482D02*
D03*
X621946D02*
D03*
G54D137*
X1070356Y245580D02*
D03*
Y195580D02*
D03*
X572516Y34182D02*
D03*
X759098Y262382D02*
D03*
X762092Y178562D02*
D03*
X837092D02*
D03*
X667258Y276352D02*
D03*
X673100Y74904D02*
D03*
X891432Y223266D02*
D03*
X727548Y505460D02*
D03*
X802548D02*
D03*
X566166Y371348D02*
D03*
X1292894Y565058D02*
D03*
G54D138*
X1097046Y52070D02*
D03*
G54D139*
X572516Y84182D02*
D03*
X673100Y39904D02*
D03*
G54D140*
X1118892Y320603D02*
D03*
X968891D02*
D03*
G54D141*
X809098Y262382D02*
D03*
X632258Y276352D02*
D03*
X941432Y223266D02*
D03*
X516166Y371348D02*
D03*
G54D142*
X1194054Y184404D02*
D03*
G54D143*
Y404404D02*
D03*
G54D144*
X1263904Y868706D02*
D03*
G54D146*
X1450340Y846274D02*
D03*
X1375340Y643274D02*
D03*
X1450340D02*
D03*
X1375340Y592874D02*
D03*
X1450340D02*
D03*
G54D147*
X444754Y21336D02*
D03*
Y46736D02*
D03*
Y72136D02*
D03*
Y97536D02*
D03*
Y122936D02*
D03*
G54D148*
Y148336D02*
D03*
G54D149*
X1448730Y952286D02*
D03*
X48730D02*
D03*
Y52286D02*
D03*
G54D151*
X203454Y958378D02*
D03*
G54D153*
X1440000Y450038D02*
D03*
Y399238D02*
D03*
Y500838D02*
D03*
X1439672Y207772D02*
D03*
Y156972D02*
D03*
Y258572D02*
D03*
G54D156*
X252500Y44238D02*
D03*
G54D158*
X41148Y839084D02*
D03*
G54D160*
X712470Y939292D02*
D03*
X1376426Y905510D02*
D03*
X194564Y169164D02*
D03*
X194056Y155956D02*
D03*
X232918Y684022D02*
D03*
X232410Y670814D02*
D03*
X85090Y118618D02*
D03*
X72898D02*
D03*
X643890Y973582D02*
D03*
X630682D02*
D03*
X161798Y766318D02*
D03*
X148590Y766826D02*
D03*
X407416Y594360D02*
D03*
X420624Y593852D02*
D03*
X404876Y784860D02*
D03*
X418084Y784352D02*
D03*
X454660Y652780D02*
D03*
X467868Y652272D02*
D03*
X331978Y235458D02*
D03*
X345186Y234950D02*
D03*
X181356Y903986D02*
D03*
X168148Y904494D02*
D03*
X457200Y973582D02*
D03*
X443992D02*
D03*
X292608Y969518D02*
D03*
X279400Y970026D02*
D03*
X854456Y643382D02*
D03*
X841248Y643890D02*
D03*
X691388Y645922D02*
D03*
X678180Y646430D02*
D03*
X530606Y644398D02*
D03*
X517398Y644906D02*
D03*
X107950Y395732D02*
D03*
X94742Y396240D02*
D03*
X295148Y215900D02*
D03*
X281940Y216408D02*
D03*
X160528Y325374D02*
D03*
X147320Y325882D02*
D03*
X173736Y325374D02*
D03*
X186944Y324866D02*
D03*
X591058Y869442D02*
D03*
X604012Y869696D02*
D03*
X15748Y539496D02*
D03*
X55372Y539242D02*
D03*
X95250Y436880D02*
D03*
X143256Y524510D02*
D03*
X204978Y477520D02*
D03*
X204470Y459232D02*
D03*
X162306Y426212D02*
D03*
X457200Y939038D02*
D03*
X7874Y326898D02*
D03*
X83312Y436880D02*
D03*
X615696Y870204D02*
D03*
X949452Y852170D02*
D03*
X762508Y913384D02*
D03*
X379984Y967994D02*
D03*
X375079Y869300D02*
D03*
X361950D02*
D03*
X269494Y588518D02*
D03*
X1358392Y264668D02*
D03*
X1358842Y246870D02*
D03*
X1295146Y534162D02*
D03*
Y371602D02*
D03*
Y330962D02*
D03*
X1305306Y310642D02*
D03*
X1295146Y290322D02*
D03*
Y168402D02*
D03*
X1305306Y148082D02*
D03*
X1295146Y127762D02*
D03*
X1284986Y635762D02*
D03*
X1274826Y574802D02*
D03*
Y534162D02*
D03*
Y371602D02*
D03*
Y330962D02*
D03*
X1284986Y310642D02*
D03*
X1274826Y290322D02*
D03*
Y168402D02*
D03*
X1284986Y148082D02*
D03*
X1274826Y87122D02*
D03*
X1254506Y412242D02*
D03*
X1264666Y391922D02*
D03*
X1254506Y371602D02*
D03*
X1264666Y351282D02*
D03*
X1254506Y330962D02*
D03*
X1264666Y310642D02*
D03*
X1254506Y290322D02*
D03*
X1264666Y270002D02*
D03*
X1254506Y249682D02*
D03*
X1264666Y229362D02*
D03*
X1254506Y209042D02*
D03*
X1264666Y188722D02*
D03*
X1254506Y168402D02*
D03*
X1264666Y148082D02*
D03*
Y66802D02*
D03*
X1234186Y412242D02*
D03*
X1244346Y391922D02*
D03*
X1234186Y371602D02*
D03*
X1244346Y351282D02*
D03*
X1234186Y330962D02*
D03*
X1244346Y310642D02*
D03*
X1234186Y290322D02*
D03*
X1244346Y270002D02*
D03*
X1234186Y249682D02*
D03*
X1244346Y229362D02*
D03*
X1234186Y168402D02*
D03*
Y127762D02*
D03*
X1244346Y107442D02*
D03*
X1234186Y87122D02*
D03*
X1244346Y66802D02*
D03*
X1234186Y46482D02*
D03*
X1224026Y432562D02*
D03*
X1213866Y371602D02*
D03*
X1224026Y351282D02*
D03*
Y310642D02*
D03*
Y270002D02*
D03*
Y229362D02*
D03*
Y188722D02*
D03*
Y148082D02*
D03*
Y107442D02*
D03*
X1213866Y87122D02*
D03*
X1193546Y534162D02*
D03*
Y371602D02*
D03*
X1203706Y351282D02*
D03*
X1193546Y330962D02*
D03*
X1203706Y310642D02*
D03*
X1193546Y290322D02*
D03*
X1203706Y270002D02*
D03*
X1193546Y249682D02*
D03*
X1203706Y229362D02*
D03*
X1193546Y87122D02*
D03*
X1203706Y66802D02*
D03*
X1193546Y46482D02*
D03*
X1173226Y534162D02*
D03*
X1183386Y351282D02*
D03*
Y310642D02*
D03*
Y270002D02*
D03*
Y229362D02*
D03*
X1173226Y87122D02*
D03*
X1183386Y66802D02*
D03*
X1173226Y46482D02*
D03*
X1163066Y554482D02*
D03*
X1152906Y87122D02*
D03*
X1163066Y66802D02*
D03*
X1152906Y46482D02*
D03*
X1132586Y87122D02*
D03*
X1142746Y66802D02*
D03*
X1132586Y46482D02*
D03*
X1112266Y696722D02*
D03*
X1122426Y107442D02*
D03*
X1112266Y87122D02*
D03*
X1122426Y66802D02*
D03*
X1102106Y107442D02*
D03*
X1091946Y87122D02*
D03*
X1061466Y676402D02*
D03*
X1041146D02*
D03*
X1020826D02*
D03*
X1000506D02*
D03*
X980186D02*
D03*
X959866D02*
D03*
X939546D02*
D03*
X442976Y830326D02*
D03*
X780288Y535940D02*
D03*
X791464Y590296D02*
D03*
X780542Y589788D02*
D03*
X965454Y265176D02*
D03*
X621946Y317793D02*
D03*
Y343193D02*
D03*
X677926Y443992D02*
D03*
Y418592D02*
D03*
Y393192D02*
D03*
X1003300Y70866D02*
D03*
Y96266D02*
D03*
Y121666D02*
D03*
X1186703Y158071D02*
D03*
X1200927D02*
D03*
X1131324Y418671D02*
D03*
X1140968Y453390D02*
D03*
Y478790D02*
D03*
X1051560Y471678D02*
D03*
X1026160D02*
D03*
X1000760D02*
D03*
X1073404Y356362D02*
D03*
Y381762D02*
D03*
Y407162D02*
D03*
X932688Y418338D02*
D03*
X958088D02*
D03*
X983488D02*
D03*
X988695Y348105D02*
D03*
X788162Y82550D02*
D03*
Y107950D02*
D03*
Y133350D02*
D03*
X665946Y296541D02*
D03*
Y313489D02*
D03*
Y330967D02*
D03*
X934720Y290322D02*
D03*
X926946Y319564D02*
D03*
Y338715D02*
D03*
X1113436Y264198D02*
D03*
X1047242Y66802D02*
D03*
X790194Y411098D02*
D03*
Y474762D02*
D03*
Y441849D02*
D03*
X785348Y325354D02*
D03*
X766249Y306255D02*
D03*
X756920Y281432D02*
D03*
X313712Y144036D02*
D03*
X1155044Y418428D02*
D03*
X1402059Y101382D02*
D03*
Y126782D02*
D03*
Y152182D02*
D03*
X1378294Y73554D02*
D03*
Y98954D02*
D03*
Y124354D02*
D03*
X1349756Y972058D02*
D03*
X1324356D02*
D03*
X1298956D02*
D03*
X507080Y894556D02*
D03*
X116474Y157694D02*
D03*
X388208Y869300D02*
D03*
X833374Y284988D02*
D03*
Y310388D02*
D03*
Y335788D02*
D03*
X910056Y135203D02*
D03*
Y109803D02*
D03*
Y84403D02*
D03*
X957580Y156464D02*
D03*
X955056Y130361D02*
D03*
Y104961D02*
D03*
Y79561D02*
D03*
X1047242Y117602D02*
D03*
Y92202D02*
D03*
X518160Y171958D02*
D03*
X497840D02*
D03*
X508000Y151638D02*
D03*
X477520Y171958D02*
D03*
X487680Y151638D02*
D03*
X457200Y171958D02*
D03*
X467360Y151638D02*
D03*
X1358803Y300434D02*
D03*
X1358353Y318232D02*
D03*
X767819Y557587D02*
D03*
X850138Y599440D02*
D03*
X615950Y621792D02*
D03*
X1166368Y627982D02*
D03*
X1028954Y689864D02*
D03*
X951230Y696468D02*
D03*
X952754Y709168D02*
D03*
X616204Y800608D02*
D03*
X377952Y145796D02*
D03*
X822960Y836930D02*
D03*
X854124Y779237D02*
D03*
X872199Y705304D02*
D03*
X1306830Y908050D02*
D03*
X1307338Y892302D02*
D03*
X681228Y775208D02*
D03*
X659384D02*
D03*
X80010Y763016D02*
D03*
X134874Y92456D02*
D03*
X877824Y906272D02*
D03*
X602869Y990805D02*
D03*
X630793Y991019D02*
D03*
X675894Y866648D02*
D03*
X675640Y853694D02*
D03*
X445866Y852536D02*
D03*
X346075Y126365D02*
D03*
X940278Y561871D02*
D03*
X924306Y561594D02*
D03*
X876554Y505714D02*
D03*
X778185Y557370D02*
D03*
X615442Y724154D02*
D03*
X638770Y759557D02*
D03*
X614426Y711200D02*
D03*
X764286Y687070D02*
D03*
X764540Y698246D02*
D03*
X784352Y739648D02*
D03*
X773938Y824738D02*
D03*
X716282Y841599D02*
D03*
X809498Y866140D02*
D03*
X944118Y613664D02*
D03*
X404622Y356870D02*
D03*
X98044Y881126D02*
D03*
X849884Y589534D02*
D03*
X524002Y596138D02*
D03*
X690372Y593344D02*
D03*
X779018Y613918D02*
D03*
X948131Y780586D02*
D03*
X1045988Y797068D02*
D03*
X69342Y13970D02*
D03*
X12192Y57912D02*
D03*
X1462278Y912876D02*
D03*
X1247140Y634238D02*
D03*
X395224Y419862D02*
D03*
X731012Y991616D02*
D03*
X756412D02*
D03*
X781812D02*
D03*
X807212D02*
D03*
X1189442Y780170D02*
D03*
X1217425Y703716D02*
D03*
X9144Y949706D02*
D03*
X14224Y980694D02*
D03*
X10160Y920750D02*
D03*
X13208Y894842D02*
D03*
X42164Y539750D02*
D03*
X28956D02*
D03*
X440944Y419862D02*
D03*
X425704D02*
D03*
X410464D02*
D03*
X25400Y202438D02*
D03*
Y227838D02*
D03*
Y253238D02*
D03*
Y100838D02*
D03*
Y126238D02*
D03*
Y151638D02*
D03*
Y177038D02*
D03*
X158750Y18288D02*
D03*
X184150D02*
D03*
X209550D02*
D03*
X234950D02*
D03*
X260350D02*
D03*
X285750D02*
D03*
X336550D02*
D03*
X88900D02*
D03*
X114300D02*
D03*
X139700D02*
D03*
X19050Y24638D02*
D03*
Y75438D02*
D03*
X146812Y991616D02*
D03*
X121412D02*
D03*
X96012D02*
D03*
X70612D02*
D03*
X248412D02*
D03*
X223012D02*
D03*
X197612D02*
D03*
X172212D02*
D03*
X324612D02*
D03*
X299212D02*
D03*
X272161Y992681D02*
D03*
X426212Y991616D02*
D03*
X400812D02*
D03*
X375412D02*
D03*
X350012D02*
D03*
X527812D02*
D03*
X502412D02*
D03*
X477012D02*
D03*
X451612D02*
D03*
X578612D02*
D03*
X553212D02*
D03*
X705612D02*
D03*
X680212D02*
D03*
X654812D02*
D03*
X908812D02*
D03*
X883412D02*
D03*
X858012D02*
D03*
X832612D02*
D03*
X1010412D02*
D03*
X985012D02*
D03*
X959612D02*
D03*
X934212D02*
D03*
X1112012D02*
D03*
X1086612D02*
D03*
X1061212D02*
D03*
X1035812D02*
D03*
X1213612D02*
D03*
X1188212D02*
D03*
X1162812D02*
D03*
X1137412D02*
D03*
X1315212D02*
D03*
X1289812D02*
D03*
X1264412D02*
D03*
X1239012D02*
D03*
X1340612D02*
D03*
X1366012D02*
D03*
X1391412D02*
D03*
X1481328Y988060D02*
D03*
X1484122Y959358D02*
D03*
Y933958D02*
D03*
Y908558D02*
D03*
X1404239Y969215D02*
D03*
Y943815D02*
D03*
Y918415D02*
D03*
X1470660Y890778D02*
D03*
X274320Y76708D02*
D03*
X311150Y18288D02*
D03*
X1474470Y498348D02*
D03*
X1403350Y518668D02*
D03*
X1464310D02*
D03*
X1454150Y538988D02*
D03*
X1443990Y559308D02*
D03*
X1423670D02*
D03*
X1413510Y538988D02*
D03*
X1464310Y559308D02*
D03*
X1433830Y538988D02*
D03*
X1474470Y579628D02*
D03*
X1393190D02*
D03*
X1413510D02*
D03*
X1474470Y538988D02*
D03*
X1403350Y559308D02*
D03*
X1433830Y579628D02*
D03*
X1346974Y670096D02*
D03*
X1333500Y685038D02*
D03*
X1320800Y761238D02*
D03*
X1422400Y659638D02*
D03*
X1397000D02*
D03*
X1333512Y722420D02*
D03*
X1323860Y788968D02*
D03*
G54D161*
X294386Y534670D02*
D03*
X489458Y329692D02*
D03*
X292354Y517906D02*
D03*
X300228Y480314D02*
D03*
X308864Y536448D02*
D03*
X308610Y518922D02*
D03*
X487649Y346871D02*
D03*
X472694Y330200D02*
D03*
X643636Y542798D02*
D03*
X469900Y310388D02*
D03*
X490728Y310134D02*
D03*
X341122Y457200D02*
D03*
X1301202Y822080D02*
D03*
X377698Y572516D02*
D03*
X689864Y196088D02*
D03*
X711454Y195834D02*
D03*
X643128Y526542D02*
D03*
X1280882Y822080D02*
D03*
X379730Y454406D02*
D03*
X488188Y525526D02*
D03*
X487426Y542290D02*
D03*
X467868Y542544D02*
D03*
X468576Y524739D02*
D03*
X482600Y500634D02*
D03*
X462280Y499618D02*
D03*
X484378Y479044D02*
D03*
X570738Y185674D02*
D03*
X549910Y166370D02*
D03*
X550418Y185928D02*
D03*
X570230Y166370D02*
D03*
X1138682Y583946D02*
D03*
X944626Y626618D02*
D03*
X354584Y76708D02*
D03*
X341630Y65786D02*
D03*
X363982Y454406D02*
D03*
X324104Y457962D02*
D03*
X1272286Y685546D02*
D03*
X1140206Y561594D02*
D03*
X1118616Y561848D02*
D03*
Y583946D02*
D03*
X1271721Y669233D02*
D03*
X1290066Y669290D02*
D03*
Y686562D02*
D03*
X1260562Y801760D02*
D03*
Y781440D02*
D03*
Y822080D02*
D03*
X1279612Y801760D02*
D03*
X1301202D02*
D03*
X1279906Y781558D02*
D03*
X1302472Y782710D02*
D03*
X377190Y590804D02*
D03*
X461264Y478536D02*
D03*
X319024Y587502D02*
D03*
X320294Y573532D02*
D03*
X298958Y495808D02*
D03*
G54D162*
X138756Y630520D02*
D03*
Y664420D02*
D03*
X173156Y664120D02*
D03*
Y630520D02*
D03*
X138756Y647770D02*
D03*
X155856D02*
D03*
Y664420D02*
D03*
Y630520D02*
D03*
X173156Y647770D02*
D03*
G54D163*
X671322Y324104D02*
D03*
G54D164*
X1010793Y470662D02*
D03*
G54D165*
X727710Y956111D02*
D03*
X702710D02*
D03*
X349358D02*
D03*
M02*
