G04*
G04 #@! TF.GenerationSoftware,Altium Limited,Altium Designer,22.5.1 (42)*
G04*
G04 Layer_Physical_Order=3*
G04 Layer_Color=16440176*
%FSLAX44Y44*%
%MOMM*%
G71*
G04*
G04 #@! TF.SameCoordinates,325B58FB-DF44-4075-A057-A786A272C4E4*
G04*
G04*
G04 #@! TF.FilePolarity,Positive*
G04*
G01*
G75*
%ADD97C,2.0000*%
%ADD122C,0.5000*%
%ADD125C,2.0000*%
%ADD128R,2.6416X8.3058*%
%ADD133C,1.5080*%
G04:AMPARAMS|DCode=136|XSize=2.6mm|YSize=3.5mm|CornerRadius=0.65mm|HoleSize=0mm|Usage=FLASHONLY|Rotation=0.000|XOffset=0mm|YOffset=0mm|HoleType=Round|Shape=RoundedRectangle|*
%AMROUNDEDRECTD136*
21,1,2.6000,2.2000,0,0,0.0*
21,1,1.3000,3.5000,0,0,0.0*
1,1,1.3000,0.6500,-1.1000*
1,1,1.3000,-0.6500,-1.1000*
1,1,1.3000,-0.6500,1.1000*
1,1,1.3000,0.6500,1.1000*
%
%ADD136ROUNDEDRECTD136*%
%ADD137C,1.6000*%
%ADD138O,1.6000X1.4000*%
%ADD139R,1.6000X1.6000*%
%ADD140C,3.0000*%
%ADD141R,1.6000X1.6000*%
%ADD142R,2.8000X2.8000*%
%ADD143C,2.8000*%
%ADD144R,2.0000X2.0000*%
%ADD146C,2.2000*%
%ADD147O,2.0000X1.8000*%
%ADD148R,2.0000X1.8000*%
%ADD149C,5.0000*%
%ADD150R,1.8000X2.0000*%
%ADD153O,4.5720X3.3020*%
%ADD154R,1.3080X1.3080*%
%ADD157R,0.9000X0.9000*%
%ADD159R,2.0000X1.2000*%
%ADD160C,0.8128*%
%ADD161C,1.2700*%
%ADD162C,0.6000*%
%ADD165C,1.5240*%
G36*
X874014Y955294D02*
Y916032D01*
X873804Y915976D01*
X871430Y914605D01*
X869491Y912666D01*
X868120Y910292D01*
X867410Y907643D01*
Y904901D01*
X868120Y902252D01*
X869491Y899878D01*
X871430Y897939D01*
X873804Y896568D01*
X874014Y896512D01*
Y716058D01*
X873570Y715718D01*
X870828D01*
X868180Y715008D01*
X865805Y713637D01*
X863866Y711698D01*
X862495Y709323D01*
X861786Y706675D01*
Y703933D01*
X862495Y701284D01*
X863866Y698909D01*
X865805Y696970D01*
X868180Y695599D01*
X870828Y694890D01*
X873570D01*
X874014Y694549D01*
Y592328D01*
X853186Y571500D01*
X670560D01*
X661670Y562610D01*
Y522986D01*
X654304Y515620D01*
X644576D01*
X638302Y521894D01*
Y604012D01*
X654812Y620522D01*
X765810D01*
X801370Y656082D01*
Y857881D01*
X802543Y858367D01*
X803104Y857807D01*
X805478Y856436D01*
X808127Y855726D01*
X810869D01*
X813518Y856436D01*
X815892Y857807D01*
X817831Y859746D01*
X819202Y862120D01*
X819912Y864769D01*
Y867511D01*
X819202Y870160D01*
X817831Y872534D01*
X815892Y874473D01*
X813518Y875844D01*
X810869Y876554D01*
X808127D01*
X805478Y875844D01*
X803104Y874473D01*
X802543Y873913D01*
X801370Y874399D01*
Y881888D01*
X790448Y892810D01*
X676148D01*
X667512Y884174D01*
Y872958D01*
X666190Y870668D01*
X665480Y868019D01*
Y865277D01*
X666190Y862628D01*
X667512Y860338D01*
Y860294D01*
X667307Y860088D01*
X665936Y857714D01*
X665226Y855065D01*
Y852323D01*
X665936Y849674D01*
X667307Y847300D01*
X667512Y847094D01*
Y837184D01*
X700278Y804418D01*
X715518D01*
X721174Y798762D01*
X720057Y796065D01*
X719657Y793032D01*
X719692D01*
Y777350D01*
X712470Y770128D01*
X691598D01*
X690988Y771398D01*
X691642Y773837D01*
Y776579D01*
X690932Y779228D01*
X689561Y781602D01*
X687622Y783541D01*
X685248Y784912D01*
X682599Y785622D01*
X679857D01*
X677208Y784912D01*
X674834Y783541D01*
X672895Y781602D01*
X671524Y779228D01*
X670963Y777137D01*
X669649D01*
X669088Y779228D01*
X667717Y781602D01*
X665778Y783541D01*
X663404Y784912D01*
X660755Y785622D01*
X659638D01*
X648462Y796798D01*
Y811379D01*
X649732Y812115D01*
X651917Y811530D01*
X654659D01*
X657308Y812240D01*
X659682Y813611D01*
X661621Y815550D01*
X662992Y817924D01*
X663702Y820573D01*
Y823315D01*
X662992Y825964D01*
X661621Y828338D01*
X659682Y830277D01*
X657308Y831648D01*
X654659Y832358D01*
X651917D01*
X650200Y831898D01*
X649410Y833001D01*
X650380Y834452D01*
X650872Y836930D01*
Y868248D01*
X650380Y870726D01*
X648976Y872826D01*
X648462Y873340D01*
Y877316D01*
X644486D01*
X642485Y879318D01*
X640384Y880721D01*
X637907Y881214D01*
X585978D01*
X583500Y880721D01*
X581400Y879318D01*
X580062Y877316D01*
X566166D01*
X560324Y871474D01*
Y868976D01*
X560107Y868652D01*
X559408Y867608D01*
X559408Y867605D01*
X559406Y867602D01*
X559294Y867037D01*
X558668Y866222D01*
X557497Y863395D01*
X557098Y860362D01*
X557132D01*
Y638362D01*
X557098D01*
X557497Y635329D01*
X558668Y632502D01*
X560324Y630344D01*
Y541274D01*
X532384Y513334D01*
X390906D01*
X346393Y468821D01*
X346024Y469035D01*
X342794Y469900D01*
X339450D01*
X336220Y469035D01*
X333324Y467363D01*
X332994Y467033D01*
X331902Y468125D01*
X329006Y469796D01*
X325776Y470662D01*
X322432D01*
X319202Y469796D01*
X316306Y468125D01*
X313941Y465760D01*
X312269Y462864D01*
X311404Y459634D01*
Y456290D01*
X312269Y453060D01*
X313941Y450164D01*
X316306Y447799D01*
X319202Y446128D01*
X321333Y445557D01*
X321712Y444140D01*
X309012Y431440D01*
X307398Y432372D01*
X303845Y433324D01*
X300167D01*
X296614Y432372D01*
X293428Y430533D01*
X290827Y427932D01*
X288988Y424746D01*
X288036Y421193D01*
Y417515D01*
X288988Y413962D01*
X289920Y412348D01*
X204340Y326768D01*
X197216D01*
X196648Y328886D01*
X195277Y331260D01*
X193338Y333199D01*
X190964Y334570D01*
X188315Y335280D01*
X185573D01*
X182924Y334570D01*
X180606Y333232D01*
X180130Y333707D01*
X177756Y335078D01*
X175107Y335788D01*
X172365D01*
X169716Y335078D01*
X167342Y333707D01*
X167132Y333498D01*
X166922Y333707D01*
X164548Y335078D01*
X161899Y335788D01*
X159157D01*
X156508Y335078D01*
X154190Y333740D01*
X153714Y334215D01*
X151340Y335586D01*
X148691Y336296D01*
X145949D01*
X143300Y335586D01*
X140926Y334215D01*
X138987Y332276D01*
X137616Y329902D01*
X136906Y327253D01*
Y326768D01*
X96774D01*
X94296Y326276D01*
X92196Y324872D01*
X69590Y302266D01*
X68600Y301474D01*
X68366Y301197D01*
X68066Y300996D01*
X67560Y300238D01*
X66973Y299541D01*
X66863Y299196D01*
X66662Y298896D01*
X66485Y298002D01*
X66209Y297133D01*
X66238Y296797D01*
X66038Y296596D01*
X64366Y293700D01*
X63500Y290470D01*
Y287126D01*
X64366Y283896D01*
X66038Y281000D01*
X66170Y280868D01*
Y163954D01*
X66040Y163470D01*
Y160126D01*
X66170Y159642D01*
Y157988D01*
X66662Y155510D01*
X68066Y153410D01*
X72638Y148838D01*
X74738Y147434D01*
X77216Y146942D01*
X105524D01*
X105943Y147025D01*
X106369Y146997D01*
X107171Y147269D01*
X108002Y147434D01*
X108357Y147672D01*
X108761Y147809D01*
X109398Y148367D01*
X110102Y148838D01*
X110339Y149193D01*
X110351Y149204D01*
X112454Y147989D01*
X115103Y147280D01*
X117845D01*
X120494Y147989D01*
X122597Y149204D01*
X122609Y149193D01*
X122846Y148838D01*
X123550Y148367D01*
X124187Y147809D01*
X124591Y147672D01*
X124946Y147434D01*
X125777Y147269D01*
X126579Y146997D01*
X127005Y147025D01*
X127424Y146942D01*
X134620D01*
X137098Y147434D01*
X139198Y148838D01*
X143776Y153416D01*
X152654D01*
X164084Y164846D01*
Y218948D01*
X171958Y226822D01*
X254762D01*
X264668Y216916D01*
Y169418D01*
X237744Y142494D01*
X194310D01*
X177036Y125220D01*
X176320Y125935D01*
X173946Y127306D01*
X171297Y128016D01*
X168555D01*
X165906Y127306D01*
X163532Y125935D01*
X161593Y123996D01*
X160222Y121622D01*
X159512Y118973D01*
Y116231D01*
X159395Y116078D01*
X96234D01*
X95461Y117086D01*
X95504Y117247D01*
Y119989D01*
X94794Y122638D01*
X93423Y125012D01*
X91484Y126951D01*
X89110Y128322D01*
X86461Y129032D01*
X83719D01*
X81070Y128322D01*
X78994Y127123D01*
X76918Y128322D01*
X74269Y129032D01*
X71527D01*
X68878Y128322D01*
X66504Y126951D01*
X64565Y125012D01*
X63194Y122638D01*
X62520Y120124D01*
X61687Y119659D01*
X61335Y119513D01*
X47752Y133096D01*
Y301752D01*
X41402Y308102D01*
X38059D01*
X37719Y309372D01*
X40025Y310703D01*
X42611Y313289D01*
X44439Y316457D01*
X45386Y319989D01*
Y323647D01*
X44439Y327179D01*
X42611Y330347D01*
X40025Y332933D01*
X38725Y333683D01*
Y334953D01*
X40025Y335703D01*
X42611Y338289D01*
X44439Y341457D01*
X45386Y344989D01*
Y348647D01*
X44439Y352179D01*
X42611Y355347D01*
X40025Y357933D01*
X38725Y358683D01*
Y359953D01*
X40025Y360703D01*
X42611Y363289D01*
X44439Y366457D01*
X45386Y369989D01*
Y373647D01*
X44439Y377179D01*
X42611Y380347D01*
X40025Y382933D01*
X38725Y383683D01*
Y384953D01*
X40025Y385703D01*
X42611Y388289D01*
X44439Y391457D01*
X45386Y394989D01*
Y398647D01*
X44439Y402179D01*
X42611Y405347D01*
X40025Y407933D01*
X36857Y409761D01*
X33325Y410708D01*
X29667D01*
X26135Y409761D01*
X22967Y407933D01*
X20381Y405347D01*
X18553Y402179D01*
X17606Y398647D01*
Y394989D01*
X18553Y391457D01*
X20381Y388289D01*
X22967Y385703D01*
X24267Y384953D01*
Y383683D01*
X22967Y382933D01*
X20381Y380347D01*
X18553Y377179D01*
X17606Y373647D01*
Y369989D01*
X18553Y366457D01*
X20381Y363289D01*
X22967Y360703D01*
X24267Y359953D01*
Y358683D01*
X22967Y357933D01*
X20381Y355347D01*
X18553Y352179D01*
X17606Y348647D01*
Y344989D01*
X18553Y341457D01*
X20381Y338289D01*
X22967Y335703D01*
X24267Y334953D01*
Y333683D01*
X22967Y332933D01*
X20381Y330347D01*
X19469Y328767D01*
X18106Y328947D01*
X17578Y330918D01*
X16207Y333292D01*
X14268Y335231D01*
X11894Y336602D01*
X9245Y337312D01*
X7686D01*
Y513629D01*
X8859Y514115D01*
X10854Y512120D01*
X12954Y510716D01*
X15432Y510224D01*
X20653D01*
X21139Y509050D01*
X20381Y508293D01*
X18553Y505125D01*
X17606Y501593D01*
Y497935D01*
X18553Y494403D01*
X20381Y491235D01*
X22967Y488649D01*
X24267Y487899D01*
Y486629D01*
X22967Y485879D01*
X20381Y483293D01*
X18553Y480125D01*
X17606Y476593D01*
Y472935D01*
X18553Y469403D01*
X20381Y466235D01*
X22967Y463649D01*
X24267Y462899D01*
Y461629D01*
X22967Y460879D01*
X20381Y458293D01*
X18553Y455125D01*
X17606Y451593D01*
Y447935D01*
X18553Y444403D01*
X20381Y441235D01*
X22967Y438649D01*
X26135Y436821D01*
X29667Y435874D01*
X33325D01*
X36857Y436821D01*
X40025Y438649D01*
X42611Y441235D01*
X44439Y444403D01*
X45386Y447935D01*
Y451593D01*
X44439Y455125D01*
X42611Y458293D01*
X40025Y460879D01*
X38725Y461629D01*
Y462899D01*
X40025Y463649D01*
X42611Y466235D01*
X44439Y469403D01*
X45386Y472935D01*
Y476593D01*
X44439Y480125D01*
X42611Y483293D01*
X40025Y485879D01*
X38725Y486629D01*
Y487899D01*
X40025Y488649D01*
X42611Y491235D01*
X44439Y494403D01*
X45386Y497935D01*
Y501593D01*
X44439Y505125D01*
X42611Y508293D01*
X41853Y509050D01*
X42339Y510224D01*
X59498D01*
X61976Y510716D01*
X64076Y512120D01*
X72904Y520948D01*
X74308Y523048D01*
X74800Y525526D01*
Y551434D01*
X74308Y553912D01*
X72904Y556012D01*
X71507Y557409D01*
X75946Y561848D01*
Y747268D01*
X61722Y761492D01*
X24638D01*
X9398Y776732D01*
Y851662D01*
X18542Y860806D01*
X52832D01*
X65278Y873252D01*
Y884428D01*
X72390Y891540D01*
X92714D01*
X93054Y890270D01*
X91650Y889459D01*
X89711Y887520D01*
X88340Y885146D01*
X87630Y882497D01*
Y879755D01*
X88340Y877106D01*
X89711Y874732D01*
X91650Y872793D01*
X94024Y871422D01*
X96673Y870712D01*
X99415D01*
X102064Y871422D01*
X104438Y872793D01*
X106377Y874732D01*
X107748Y877106D01*
X108458Y879755D01*
Y882497D01*
X107748Y885146D01*
X106377Y887520D01*
X104438Y889459D01*
X103034Y890270D01*
X103374Y891540D01*
X105410D01*
X116586Y902716D01*
Y964692D01*
X116332Y964946D01*
X130649Y979263D01*
X272122D01*
X272640Y977993D01*
X271067Y976420D01*
X269696Y974046D01*
X268986Y971397D01*
Y968655D01*
X269696Y966006D01*
X271067Y963632D01*
X273006Y961693D01*
X275380Y960322D01*
X278029Y959612D01*
X280771D01*
X283420Y960322D01*
X285738Y961660D01*
X286214Y961185D01*
X288588Y959814D01*
X291237Y959104D01*
X293979D01*
X296628Y959814D01*
X299002Y961185D01*
X300941Y963124D01*
X302312Y965498D01*
X303022Y968147D01*
Y970889D01*
X302312Y973538D01*
X300941Y975912D01*
X299002Y977851D01*
X298757Y977993D01*
X299097Y979263D01*
X376898D01*
X377065Y977993D01*
X375964Y977698D01*
X373590Y976327D01*
X371651Y974388D01*
X370280Y972014D01*
X369570Y969365D01*
Y966623D01*
X370280Y963974D01*
X371651Y961600D01*
X373590Y959661D01*
X375964Y958290D01*
X378613Y957580D01*
X381355D01*
X384004Y958290D01*
X386378Y959661D01*
X388317Y961600D01*
X389688Y963974D01*
X390398Y966623D01*
Y969365D01*
X389688Y972014D01*
X388317Y974388D01*
X386378Y976327D01*
X384004Y977698D01*
X382903Y977993D01*
X383070Y979263D01*
X433977D01*
X434612Y978163D01*
X434288Y977602D01*
X433578Y974953D01*
Y972211D01*
X434288Y969562D01*
X435659Y967188D01*
X437598Y965249D01*
X439972Y963878D01*
X442621Y963168D01*
X445363D01*
X448012Y963878D01*
X450386Y965249D01*
X450596Y965458D01*
X450806Y965249D01*
X453180Y963878D01*
X455829Y963168D01*
X458571D01*
X461220Y963878D01*
X463594Y965249D01*
X465533Y967188D01*
X466904Y969562D01*
X467614Y972211D01*
Y974953D01*
X466904Y977602D01*
X466580Y978163D01*
X467215Y979263D01*
X620667D01*
X621302Y978163D01*
X620978Y977602D01*
X620268Y974953D01*
Y972211D01*
X620978Y969562D01*
X622349Y967188D01*
X624288Y965249D01*
X626662Y963878D01*
X629311Y963168D01*
X632053D01*
X634702Y963878D01*
X637076Y965249D01*
X637286Y965458D01*
X637496Y965249D01*
X639870Y963878D01*
X642519Y963168D01*
X645261D01*
X647910Y963878D01*
X650284Y965249D01*
X652223Y967188D01*
X653594Y969562D01*
X654304Y972211D01*
Y974953D01*
X653594Y977602D01*
X653270Y978163D01*
X653905Y979263D01*
X850045D01*
X874014Y955294D01*
D02*
G37*
G36*
X1486408Y981710D02*
Y902970D01*
X1468628Y885190D01*
X1429004D01*
X1423416Y890778D01*
X1423416Y910082D01*
X1417828Y915670D01*
X1391158D01*
X1386078Y920750D01*
Y982980D01*
X1383320Y985738D01*
X112486D01*
X104648Y977900D01*
Y910590D01*
X102108Y908050D01*
X56388D01*
X48768Y900430D01*
Y877570D01*
X44958Y873760D01*
X8128Y873760D01*
X3048Y878840D01*
Y984250D01*
X15748Y996950D01*
X1471168D01*
X1486408Y981710D01*
D02*
G37*
G36*
X1056386Y835914D02*
Y798310D01*
X1055132Y798272D01*
X1054509Y800597D01*
X1053305Y802682D01*
X1051602Y804385D01*
X1049517Y805589D01*
X1047192Y806212D01*
X1044784D01*
X1042458Y805589D01*
X1040373Y804385D01*
X1038671Y802682D01*
X1037467Y800597D01*
X1036844Y798272D01*
Y795864D01*
X1037467Y793538D01*
X1038671Y791453D01*
X1040373Y789751D01*
X1042458Y788547D01*
X1044784Y787924D01*
X1047192D01*
X1049517Y788547D01*
X1051602Y789751D01*
X1053305Y791453D01*
X1054509Y793538D01*
X1055132Y795864D01*
X1056386Y795826D01*
Y700278D01*
X1052322Y696214D01*
X1035536D01*
X1034568Y697181D01*
X1032484Y698385D01*
X1030158Y699008D01*
X1027750D01*
X1025424Y698385D01*
X1023339Y697181D01*
X1022373Y696214D01*
X960374D01*
Y697672D01*
X959751Y699997D01*
X958566Y702049D01*
X960071Y703553D01*
X961275Y705639D01*
X961898Y707964D01*
Y710372D01*
X961275Y712698D01*
X960071Y714782D01*
X958369Y716485D01*
X956283Y717689D01*
X953958Y718312D01*
X951550D01*
X949224Y717689D01*
X947140Y716485D01*
X945437Y714782D01*
X944233Y712698D01*
X943610Y710372D01*
Y707964D01*
X944233Y705639D01*
X945418Y703587D01*
X943913Y702083D01*
X942709Y699997D01*
X942086Y697672D01*
Y696214D01*
X932180D01*
X916940Y711454D01*
Y858774D01*
X919970Y861804D01*
X920037Y861795D01*
X921740Y860093D01*
X923824Y858889D01*
X926150Y858266D01*
X928558D01*
X930883Y858889D01*
X932969Y860093D01*
X934671Y861796D01*
X935875Y863880D01*
X936498Y866206D01*
Y868614D01*
X935875Y870939D01*
X934671Y873025D01*
X932969Y874727D01*
X932960Y874794D01*
X934466Y876300D01*
X1016000D01*
X1056386Y835914D01*
D02*
G37*
G36*
X1220470Y757682D02*
Y731266D01*
X1236726Y715010D01*
X1291590D01*
X1300988Y705612D01*
Y691896D01*
X1301496Y691388D01*
Y668274D01*
X1300988Y667766D01*
Y641096D01*
X1285240Y625348D01*
X1161542D01*
X1131316Y655574D01*
X1095756D01*
X1049274Y609092D01*
X933958D01*
X926084Y616966D01*
Y669798D01*
X932383Y677672D01*
X1079246D01*
X1090422Y688848D01*
Y750062D01*
X1093273Y752913D01*
X1094446Y752427D01*
Y750357D01*
X1095415Y746740D01*
X1097288Y743496D01*
X1099936Y740848D01*
X1103180Y738975D01*
X1105211Y738431D01*
X1105154Y738219D01*
Y734473D01*
X1106123Y730856D01*
X1107996Y727612D01*
X1110644Y724964D01*
X1113888Y723091D01*
X1117505Y722122D01*
X1121251D01*
X1124868Y723091D01*
X1128112Y724964D01*
X1130760Y727612D01*
X1132633Y730856D01*
X1133602Y734473D01*
Y738219D01*
X1132633Y741836D01*
X1130760Y745080D01*
X1128112Y747728D01*
X1124868Y749601D01*
X1122837Y750145D01*
X1122894Y750357D01*
Y754103D01*
X1121925Y757720D01*
X1120052Y760964D01*
X1118254Y762762D01*
X1118780Y764032D01*
X1214120D01*
X1220470Y757682D01*
D02*
G37*
G36*
X786384Y870712D02*
Y749427D01*
X785556Y748792D01*
X783148D01*
X780823Y748169D01*
X778737Y746965D01*
X777035Y745263D01*
X775831Y743177D01*
X775208Y740852D01*
Y738444D01*
X775831Y736118D01*
X777035Y734034D01*
X778737Y732331D01*
X780823Y731127D01*
X783148Y730504D01*
X785556D01*
X786384Y729868D01*
Y679704D01*
X778256Y671576D01*
X759460D01*
X752856Y678180D01*
Y800354D01*
X742696Y810514D01*
X717420D01*
X715518Y810892D01*
X707266D01*
X673986Y844172D01*
Y847094D01*
X673494Y849572D01*
X672981Y850340D01*
X672914Y850537D01*
X672084Y851974D01*
Y855414D01*
X672914Y856851D01*
X672981Y857048D01*
X673494Y857816D01*
X673592Y858309D01*
X673766Y858662D01*
X673817Y859441D01*
X673986Y860294D01*
Y860338D01*
X673903Y860757D01*
X673931Y861183D01*
X673659Y861985D01*
X673494Y862816D01*
X673256Y863171D01*
X673119Y863575D01*
X672223Y865127D01*
X672084Y865646D01*
Y867650D01*
X672223Y868169D01*
X673119Y869721D01*
X673256Y870125D01*
X673494Y870480D01*
X673659Y871311D01*
X673931Y872113D01*
X673903Y872539D01*
X673986Y872958D01*
Y875503D01*
X680709Y882610D01*
X774486D01*
X786384Y870712D01*
D02*
G37*
G36*
X1322324Y812800D02*
X1322324Y812292D01*
X1344422Y790194D01*
X1344422Y697992D01*
X1368298Y674116D01*
X1474978D01*
X1484630Y664464D01*
Y639572D01*
X1477264Y632206D01*
X1356614D01*
X1318768Y670052D01*
Y740410D01*
X1308100Y751078D01*
X1255776D01*
X1251458Y755396D01*
Y823976D01*
X1257300Y829818D01*
X1305306D01*
X1322324Y812800D01*
D02*
G37*
G36*
X943610Y564388D02*
Y560070D01*
X940816Y557276D01*
X924052Y557022D01*
X921766Y559308D01*
Y565404D01*
X923544Y567182D01*
X940816D01*
X943610Y564388D01*
D02*
G37*
G36*
X635000Y733806D02*
Y609866D01*
X633724Y608590D01*
X632320Y606490D01*
X631828Y604012D01*
Y547745D01*
X631801Y547700D01*
X630936Y544470D01*
Y541126D01*
X631801Y537896D01*
X631828Y537851D01*
Y532369D01*
X631293Y531444D01*
X630428Y528214D01*
Y524870D01*
X631293Y521640D01*
X632185Y520095D01*
X632320Y519416D01*
X633724Y517316D01*
X639998Y511042D01*
X641030Y510352D01*
X641604Y509778D01*
X641889D01*
X642098Y509638D01*
X644576Y509146D01*
X654304D01*
X656782Y509638D01*
X656991Y509778D01*
X657606D01*
X658845Y511017D01*
X658882Y511042D01*
X666248Y518408D01*
X666273Y518445D01*
X669798Y521970D01*
Y546354D01*
X687324Y563880D01*
X790956D01*
X799338Y555498D01*
Y545338D01*
X790605Y536605D01*
X790008Y536853D01*
X789414Y537210D01*
X788809Y539469D01*
X787605Y541554D01*
X785902Y543257D01*
X783818Y544461D01*
X781492Y545084D01*
X779084D01*
X776758Y544461D01*
X774673Y543257D01*
X772971Y541554D01*
X771767Y539469D01*
X771144Y537144D01*
Y534736D01*
X771767Y532411D01*
X772971Y530326D01*
X774673Y528623D01*
X774758Y528574D01*
X774418Y527304D01*
X702310D01*
X683768Y508762D01*
Y498856D01*
X671576Y486664D01*
X633984D01*
X614038Y506610D01*
Y612104D01*
X614746Y612648D01*
X617154D01*
X619479Y613271D01*
X621564Y614475D01*
X623267Y616177D01*
X624471Y618262D01*
X625094Y620588D01*
Y622996D01*
X624471Y625322D01*
X623267Y627407D01*
X621564Y629109D01*
X619479Y630313D01*
X617154Y630936D01*
X615308D01*
X614038Y631912D01*
Y728846D01*
X622808Y737616D01*
X631190D01*
X635000Y733806D01*
D02*
G37*
G36*
X1160780Y566928D02*
X1260602D01*
X1275080Y581406D01*
X1291844D01*
X1303020Y570230D01*
Y533400D01*
X1300480Y530860D01*
X1107440D01*
X1098804Y539496D01*
X1099058Y578104D01*
X1109218Y588264D01*
X1139444D01*
X1160780Y566928D01*
D02*
G37*
G36*
X68326Y551434D02*
Y525526D01*
X59498Y516698D01*
X36866D01*
X36659Y516784D01*
X33239Y517464D01*
X29753D01*
X26333Y516784D01*
X26126Y516698D01*
X15432D01*
X7686Y524444D01*
Y546166D01*
X14986Y553466D01*
X66294D01*
X68326Y551434D01*
D02*
G37*
G36*
X1484122Y588518D02*
Y499364D01*
X1467104Y482346D01*
X1411224D01*
X1397762Y495808D01*
Y541274D01*
X1361440Y577596D01*
Y598932D01*
X1370838Y608330D01*
X1464310D01*
X1484122Y588518D01*
D02*
G37*
G36*
X488950Y502412D02*
Y477266D01*
X485140Y473456D01*
X459486D01*
X455168Y477774D01*
Y502262D01*
X459024Y506118D01*
X462026D01*
X485140Y506222D01*
X488950Y502412D01*
D02*
G37*
G36*
X644398Y868248D02*
Y836930D01*
X614440Y806972D01*
X613655Y806762D01*
X612149Y805892D01*
X610919Y804663D01*
X610050Y803157D01*
X609840Y802372D01*
X603758Y796290D01*
Y498348D01*
X567690Y462280D01*
X567248D01*
X564922Y461657D01*
X562837Y460453D01*
X561135Y458751D01*
X561048Y458739D01*
X559589Y460199D01*
X557504Y461403D01*
X555178Y462026D01*
X552770D01*
X550444Y461403D01*
X548359Y460199D01*
X546657Y458497D01*
X545453Y456412D01*
X544830Y454086D01*
Y451678D01*
X545453Y449352D01*
X546657Y447267D01*
X548359Y445565D01*
X549114Y445129D01*
X549280Y443870D01*
X350012Y244602D01*
X349296D01*
X349206Y244654D01*
X346557Y245364D01*
X343815D01*
X341166Y244654D01*
X341076Y244602D01*
X336968D01*
X335998Y245162D01*
X333349Y245872D01*
X330607D01*
X327958Y245162D01*
X326988Y244602D01*
X160782D01*
X147320Y231140D01*
Y166116D01*
X134620Y153416D01*
X127424D01*
X126449Y154686D01*
X126888Y156323D01*
Y159065D01*
X126178Y161713D01*
X124807Y164088D01*
X122868Y166027D01*
X120494Y167398D01*
X117845Y168108D01*
X115103D01*
X112454Y167398D01*
X110080Y166027D01*
X108141Y164088D01*
X106770Y161713D01*
X106060Y159065D01*
Y156323D01*
X106498Y154686D01*
X105524Y153416D01*
X77216D01*
X72644Y157988D01*
Y296418D01*
X73914Y297434D01*
X96774Y320294D01*
X138521D01*
X138987Y319488D01*
X140926Y317549D01*
X143300Y316178D01*
X145949Y315468D01*
X148691D01*
X151340Y316178D01*
X153658Y317516D01*
X154134Y317041D01*
X156508Y315670D01*
X159157Y314960D01*
X161899D01*
X164548Y315670D01*
X166922Y317041D01*
X167132Y317250D01*
X167342Y317041D01*
X169716Y315670D01*
X172365Y314960D01*
X175107D01*
X177756Y315670D01*
X180074Y317008D01*
X180550Y316533D01*
X182924Y315162D01*
X185573Y314452D01*
X188315D01*
X190964Y315162D01*
X193338Y316533D01*
X195277Y318472D01*
X196329Y320294D01*
X212852D01*
X288036Y395478D01*
X289306Y394952D01*
Y392682D01*
X290172Y389452D01*
X291843Y386556D01*
X294208Y384192D01*
X297104Y382519D01*
X300334Y381654D01*
X303678D01*
X306908Y382519D01*
X309804Y384192D01*
X312169Y386556D01*
X313841Y389452D01*
X314706Y392682D01*
Y396026D01*
X313841Y399256D01*
X312169Y402152D01*
X309804Y404516D01*
X306908Y406189D01*
X306794Y406219D01*
Y407489D01*
X306908Y407519D01*
X309804Y409192D01*
X312169Y411556D01*
X313841Y414452D01*
X314706Y417682D01*
Y421026D01*
X314469Y421911D01*
X327406Y434848D01*
X337564Y445005D01*
X339450Y444500D01*
X342794D01*
X346024Y445365D01*
X348920Y447038D01*
X351284Y449402D01*
X352957Y452298D01*
X353822Y455528D01*
Y458872D01*
X353316Y460759D01*
X385318Y492760D01*
X448694D01*
Y480692D01*
X448564Y480208D01*
Y476864D01*
X449430Y473634D01*
X451101Y470738D01*
X453466Y468373D01*
X456362Y466702D01*
X459592Y465836D01*
X462936D01*
X466166Y466702D01*
X466651Y466982D01*
X480326D01*
X482706Y466344D01*
X486050D01*
X489280Y467210D01*
X492176Y468881D01*
X494540Y471246D01*
X496213Y474142D01*
X497078Y477372D01*
Y480716D01*
X496213Y483946D01*
X495424Y485311D01*
Y492760D01*
X540512D01*
X585978Y538226D01*
Y874740D01*
X637907D01*
X644398Y868248D01*
D02*
G37*
G36*
X1118108Y435356D02*
X1188466D01*
X1210056Y413766D01*
X1210818D01*
Y395986D01*
X1203706Y388874D01*
X1186434D01*
X1175258Y400050D01*
X1123442D01*
X1068578Y454914D01*
X969264D01*
X959104Y465074D01*
X959866Y482600D01*
X963168Y485902D01*
X1067562D01*
X1118108Y435356D01*
D02*
G37*
G36*
X992886Y376301D02*
Y320675D01*
X976630Y304419D01*
X964946D01*
X956310Y313055D01*
X954278Y319151D01*
X954278Y328803D01*
X962406Y336931D01*
X962406Y353187D01*
Y380365D01*
X968756Y386715D01*
X982472D01*
X992886Y376301D01*
D02*
G37*
G36*
X1322578Y324866D02*
Y277587D01*
X1321308Y277061D01*
X1318615Y279755D01*
X1317023Y280976D01*
X1315169Y281744D01*
X1313180Y282006D01*
X1290828D01*
X1288839Y281744D01*
X1286985Y280976D01*
X1285393Y279755D01*
X1279551Y273913D01*
X1278330Y272321D01*
X1277562Y270467D01*
X1277300Y268478D01*
Y257337D01*
X1276793Y202509D01*
X1276797Y202474D01*
X1276792Y202438D01*
Y196342D01*
X1277054Y194353D01*
X1277822Y192499D01*
X1279043Y190907D01*
X1286663Y183287D01*
X1288255Y182066D01*
X1290109Y181298D01*
X1292098Y181036D01*
X1311656D01*
X1313645Y181298D01*
X1315499Y182066D01*
X1317091Y183287D01*
X1321308Y187505D01*
X1322578Y186979D01*
Y148082D01*
X1324864D01*
X1336548Y136398D01*
Y121412D01*
X1322578Y107442D01*
X1317244D01*
X1248156Y38354D01*
X1095502D01*
Y40894D01*
X1086866Y49530D01*
X1086358Y102108D01*
X1091692Y107442D01*
X1210818D01*
X1224788Y121412D01*
Y205232D01*
X1185164Y229362D01*
X1185164Y354076D01*
X1203960Y372872D01*
X1274572Y372872D01*
X1322578Y324866D01*
D02*
G37*
G36*
X739394Y511810D02*
Y448310D01*
X731520Y440436D01*
X697230D01*
X686308Y429514D01*
Y277368D01*
X675894Y266954D01*
X663702D01*
X655066Y275590D01*
Y451104D01*
X673100Y469138D01*
X700278D01*
X716788Y485648D01*
Y496570D01*
X717042Y513080D01*
X737616D01*
X737870Y513334D01*
X739394Y511810D01*
D02*
G37*
G36*
X636778Y373380D02*
Y288036D01*
X640334Y284480D01*
Y268224D01*
X639572Y267462D01*
X624078D01*
X623570Y266954D01*
X608838Y281686D01*
Y321310D01*
X608584Y376936D01*
X612394Y380746D01*
X629412D01*
X636778Y373380D01*
D02*
G37*
G36*
X939800Y378862D02*
Y299868D01*
X955040Y284628D01*
X956310D01*
Y275484D01*
X947420Y266594D01*
X937260D01*
X911606Y292248D01*
Y374798D01*
X912876Y376576D01*
X916940Y380640D01*
X938022D01*
X939800Y378862D01*
D02*
G37*
G36*
X813816Y507746D02*
Y493014D01*
X804672Y483870D01*
Y328422D01*
X772414Y296164D01*
Y259588D01*
X765810Y252984D01*
X753364D01*
X749300Y257048D01*
Y305816D01*
X777240Y333756D01*
Y498348D01*
X790702Y511048D01*
X794512Y514858D01*
X806704D01*
X813816Y507746D01*
D02*
G37*
G36*
X851662Y378968D02*
Y276860D01*
X825754Y250952D01*
X801370D01*
X797052Y255270D01*
Y268986D01*
X801878Y273812D01*
X817626D01*
X823214Y280162D01*
Y334010D01*
X824230Y381762D01*
X826770Y384302D01*
X846328D01*
X851662Y378968D01*
D02*
G37*
G36*
X1122934Y266827D02*
Y248285D01*
X1108202Y233553D01*
X1057910D01*
Y252159D01*
X1058164Y252349D01*
X1076198Y270383D01*
X1119378Y270383D01*
X1122934Y266827D01*
D02*
G37*
G36*
X905764Y233426D02*
Y160528D01*
X925322Y140970D01*
Y21590D01*
X920750Y17018D01*
X898906D01*
X895350Y20574D01*
Y130810D01*
X877316Y148844D01*
X834390D01*
X827278Y155956D01*
Y191770D01*
X834898Y199390D01*
X858520D01*
X859028Y198882D01*
X872998Y212852D01*
Y231394D01*
X883920Y242316D01*
X896874D01*
X905764Y233426D01*
D02*
G37*
G36*
X1477698Y276910D02*
Y197662D01*
X1471856Y191820D01*
X1410896D01*
X1398958Y203758D01*
Y272338D01*
X1408864Y282244D01*
X1472364D01*
X1477698Y276910D01*
D02*
G37*
G36*
X1356868Y466344D02*
X1476756D01*
X1482090Y461010D01*
Y381762D01*
X1476248Y375920D01*
X1427734D01*
X1372362Y320548D01*
Y196342D01*
X1364996Y188976D01*
X1348740D01*
X1339596Y198120D01*
Y348488D01*
X1240282Y447802D01*
X1134872Y449834D01*
X1115060Y461010D01*
Y497332D01*
X1127506Y509778D01*
X1309878Y513334D01*
X1356868Y466344D01*
D02*
G37*
G36*
X1316990Y270510D02*
Y194056D01*
X1311656Y188722D01*
X1292098D01*
X1284478Y196342D01*
Y202438D01*
X1284986Y257302D01*
Y268478D01*
X1290828Y274320D01*
X1313180D01*
X1316990Y270510D01*
D02*
G37*
G36*
X722376Y202184D02*
Y188976D01*
X716788Y183388D01*
X684276D01*
X680466Y187198D01*
Y204978D01*
X684530Y208026D01*
X716534D01*
X722376Y202184D01*
D02*
G37*
G36*
X590042Y379984D02*
Y270764D01*
X544322Y225044D01*
X443992D01*
X380492Y161544D01*
Y156940D01*
X379484Y156167D01*
X379323Y156210D01*
X376581D01*
X373932Y155500D01*
X371558Y154129D01*
X369619Y152190D01*
X368248Y149816D01*
X367538Y147167D01*
Y144425D01*
X368248Y141776D01*
X369619Y139402D01*
X371558Y137463D01*
X373932Y136092D01*
X376581Y135382D01*
X379323D01*
X379484Y135425D01*
X380492Y134652D01*
Y114046D01*
X363220Y96774D01*
X223947D01*
X223745Y97527D01*
X222709Y99323D01*
X221243Y100789D01*
X219447Y101825D01*
X217445Y102362D01*
X215371D01*
X213369Y101825D01*
X211573Y100789D01*
X210107Y99323D01*
X209071Y97527D01*
X208534Y95525D01*
Y93451D01*
X208691Y92867D01*
X195072Y79248D01*
Y52324D01*
X170688Y27940D01*
X122428D01*
X112452Y37916D01*
Y89084D01*
X125222Y101854D01*
X127984D01*
X128274Y100584D01*
X126541Y98850D01*
X125170Y96476D01*
X124460Y93827D01*
Y91085D01*
X125170Y88436D01*
X126541Y86062D01*
X128480Y84123D01*
X130854Y82752D01*
X133503Y82042D01*
X136245D01*
X138894Y82752D01*
X141268Y84123D01*
X143207Y86062D01*
X144578Y88436D01*
X145288Y91085D01*
Y93827D01*
X144578Y96476D01*
X143207Y98850D01*
X141474Y100584D01*
X141764Y101854D01*
X168402D01*
X200660Y134112D01*
X241046D01*
X275336Y168402D01*
X320040D01*
X329692Y178054D01*
X331745D01*
X333747Y178591D01*
X335543Y179627D01*
X337009Y181093D01*
X338045Y182889D01*
X338582Y184891D01*
Y186944D01*
X345694Y194056D01*
Y218948D01*
X515620Y388874D01*
X522859Y398526D01*
X571500D01*
X590042Y379984D01*
D02*
G37*
G36*
X582676Y191008D02*
Y77470D01*
X578358Y73152D01*
X530606D01*
X527304Y76454D01*
Y83566D01*
X519430Y91440D01*
X438658D01*
X432308Y97790D01*
Y105156D01*
X434086Y156972D01*
X473964Y196850D01*
X576834D01*
X582676Y191008D01*
D02*
G37*
G36*
X297688Y80010D02*
Y33528D01*
X294640Y30480D01*
X260530D01*
X260190Y31750D01*
X261501Y32507D01*
X264231Y35237D01*
X266161Y38580D01*
X267160Y42308D01*
Y46168D01*
X266161Y49897D01*
X264231Y53240D01*
X261501Y55969D01*
X258158Y57899D01*
X254430Y58898D01*
X250570D01*
X246841Y57899D01*
X243498Y55969D01*
X240769Y53240D01*
X238839Y49897D01*
X237840Y46168D01*
Y42308D01*
X238839Y38580D01*
X240769Y35237D01*
X243498Y32507D01*
X244810Y31750D01*
X244470Y30480D01*
X207264D01*
X203708Y34036D01*
X204470Y76708D01*
X214376Y86614D01*
X268110D01*
X268450Y85344D01*
X267926Y85041D01*
X265987Y83102D01*
X264616Y80728D01*
X263906Y78079D01*
Y75337D01*
X264616Y72688D01*
X265987Y70314D01*
X267926Y68375D01*
X270300Y67004D01*
X272949Y66294D01*
X275691D01*
X278340Y67004D01*
X280714Y68375D01*
X282653Y70314D01*
X284024Y72688D01*
X284734Y75337D01*
Y78079D01*
X284024Y80728D01*
X282653Y83102D01*
X280714Y85041D01*
X280190Y85344D01*
X280530Y86614D01*
X291084D01*
X297688Y80010D01*
D02*
G37*
G36*
X362204Y77470D02*
Y72898D01*
X344424Y55118D01*
X338074D01*
X331724Y61468D01*
Y69342D01*
X347980Y85598D01*
X354076D01*
X362204Y77470D01*
D02*
G37*
G36*
X799592Y163576D02*
Y18796D01*
X795528Y14732D01*
X777240D01*
X771652Y20320D01*
Y58928D01*
X764540Y66040D01*
X645160D01*
X625094Y45974D01*
Y28956D01*
X624840D01*
X608076Y12192D01*
X432562D01*
X429260Y15494D01*
X430022Y76454D01*
X433832Y80264D01*
X451104D01*
X462026Y69342D01*
X462534Y69850D01*
X488442D01*
X514604Y43688D01*
X589280D01*
X648970Y103378D01*
X699262D01*
X750824Y154940D01*
Y189738D01*
X753618Y192532D01*
X770636D01*
X799592Y163576D01*
D02*
G37*
G36*
X1482090Y166370D02*
Y118364D01*
X1475232Y111506D01*
X1428496D01*
X1389888Y72898D01*
Y42926D01*
X1376680Y29718D01*
X1350518D01*
Y89408D01*
X1364996Y103886D01*
Y152908D01*
X1385062Y172974D01*
X1475486D01*
X1482090Y166370D01*
D02*
G37*
G36*
X1093470Y218186D02*
X1111758D01*
X1117854Y212090D01*
Y183896D01*
X1103630Y169672D01*
X1075436D01*
X1059942Y154178D01*
Y23876D01*
X1053338Y17272D01*
Y17018D01*
X1036320D01*
X1034034Y19304D01*
Y196596D01*
X1055878Y218440D01*
X1082040D01*
X1093470Y218186D01*
D02*
G37*
G36*
X1105154Y386080D02*
X1125982D01*
X1135380Y376682D01*
Y313182D01*
X1126236Y304038D01*
X1086104D01*
X1012190Y230124D01*
X1012698Y229616D01*
Y21082D01*
X1008634Y17018D01*
X990092D01*
X986536Y20574D01*
Y276098D01*
X1043178Y332740D01*
Y369824D01*
X1014222Y398780D01*
X900430D01*
X894588Y392938D01*
Y350774D01*
X889762Y345948D01*
X871728D01*
X867156Y350520D01*
Y350774D01*
Y414528D01*
X885698Y433070D01*
X1058164D01*
X1105154Y386080D01*
D02*
G37*
G36*
X970280Y213360D02*
Y20320D01*
X966724Y16764D01*
X948182D01*
X944118Y20828D01*
Y154432D01*
X930656Y167894D01*
Y219964D01*
X930402Y232156D01*
X934212Y235966D01*
X947674D01*
X970280Y213360D01*
D02*
G37*
G36*
X34290Y290068D02*
Y100838D01*
X38100Y97028D01*
X100330D01*
X102870Y94488D01*
Y27178D01*
X107950Y22098D01*
X344678Y22098D01*
X354838Y32258D01*
X376428D01*
Y9398D01*
X15240Y9398D01*
X6350Y18288D01*
Y290068D01*
X8890Y292608D01*
X31750D01*
X34290Y290068D01*
D02*
G37*
%LPC*%
G36*
X254254Y974802D02*
X251245Y974506D01*
X248351Y973628D01*
X245685Y972203D01*
X243347Y970285D01*
X242189Y968873D01*
X240919D01*
X239761Y970285D01*
X237423Y972203D01*
X234757Y973628D01*
X231863Y974506D01*
X228854Y974802D01*
X225845Y974506D01*
X222951Y973628D01*
X220285Y972203D01*
X217947Y970285D01*
X216789Y968873D01*
X215519D01*
X214361Y970285D01*
X212023Y972203D01*
X209357Y973628D01*
X206463Y974506D01*
X203454Y974802D01*
X200445Y974506D01*
X197551Y973628D01*
X194885Y972203D01*
X192547Y970285D01*
X191389Y968873D01*
X190119D01*
X188961Y970285D01*
X186623Y972203D01*
X183957Y973628D01*
X181063Y974506D01*
X178054Y974802D01*
X175045Y974506D01*
X172151Y973628D01*
X169485Y972203D01*
X167147Y970285D01*
X165989Y968873D01*
X164719D01*
X163561Y970285D01*
X161223Y972203D01*
X158557Y973628D01*
X155663Y974506D01*
X152654Y974802D01*
X149645Y974506D01*
X146751Y973628D01*
X144085Y972203D01*
X141747Y970285D01*
X139829Y967947D01*
X138404Y965281D01*
X137526Y962387D01*
X137230Y959378D01*
Y957378D01*
X137526Y954369D01*
X138404Y951475D01*
X139829Y948809D01*
X141747Y946471D01*
X144085Y944553D01*
X146751Y943128D01*
X149645Y942250D01*
X152654Y941954D01*
X155663Y942250D01*
X158557Y943128D01*
X161223Y944553D01*
X163561Y946471D01*
X164719Y947883D01*
X165989D01*
X167147Y946471D01*
X169485Y944553D01*
X172151Y943128D01*
X175045Y942250D01*
X178054Y941954D01*
X181063Y942250D01*
X183957Y943128D01*
X186623Y944553D01*
X188961Y946471D01*
X190119Y947883D01*
X191389D01*
X192547Y946471D01*
X194885Y944553D01*
X197551Y943128D01*
X200445Y942250D01*
X203454Y941954D01*
X206463Y942250D01*
X209357Y943128D01*
X212023Y944553D01*
X214361Y946471D01*
X215519Y947883D01*
X216789D01*
X217947Y946471D01*
X220285Y944553D01*
X222951Y943128D01*
X225845Y942250D01*
X228854Y941954D01*
X231863Y942250D01*
X234757Y943128D01*
X237423Y944553D01*
X239761Y946471D01*
X240919Y947883D01*
X242189D01*
X243347Y946471D01*
X245685Y944553D01*
X248351Y943128D01*
X251245Y942250D01*
X254254Y941954D01*
X257263Y942250D01*
X260157Y943128D01*
X262823Y944553D01*
X265161Y946471D01*
X267079Y948809D01*
X268504Y951475D01*
X269382Y954369D01*
X269678Y957378D01*
Y959378D01*
X269382Y962387D01*
X268504Y965281D01*
X267079Y967947D01*
X265161Y970285D01*
X262823Y972203D01*
X260157Y973628D01*
X257263Y974506D01*
X254254Y974802D01*
D02*
G37*
G36*
X729549Y970081D02*
X725871D01*
X722318Y969129D01*
X719132Y967290D01*
X716531Y964689D01*
X715845Y963500D01*
X714575D01*
X713889Y964689D01*
X711288Y967290D01*
X708102Y969129D01*
X704549Y970081D01*
X700871D01*
X697318Y969129D01*
X694132Y967290D01*
X691531Y964689D01*
X689692Y961503D01*
X688740Y957950D01*
Y954272D01*
X689692Y950719D01*
X691531Y947533D01*
X694132Y944932D01*
X697318Y943093D01*
X700871Y942141D01*
X701409D01*
X702182Y941133D01*
X702056Y940663D01*
Y937921D01*
X702766Y935272D01*
X704137Y932898D01*
X706076Y930959D01*
X708450Y929588D01*
X711099Y928878D01*
X713841D01*
X716490Y929588D01*
X718864Y930959D01*
X720803Y932898D01*
X722174Y935272D01*
X722884Y937921D01*
Y940663D01*
X722606Y941701D01*
X723643Y942738D01*
X725871Y942141D01*
X729549D01*
X733102Y943093D01*
X736288Y944932D01*
X738889Y947533D01*
X740728Y950719D01*
X741680Y954272D01*
Y957950D01*
X740728Y961503D01*
X738889Y964689D01*
X736288Y967290D01*
X733102Y969129D01*
X729549Y970081D01*
D02*
G37*
G36*
X570443Y965458D02*
X566785D01*
X563253Y964511D01*
X560085Y962683D01*
X557499Y960097D01*
X556749Y958797D01*
X555479D01*
X554729Y960097D01*
X552143Y962683D01*
X548975Y964511D01*
X545443Y965458D01*
X541785D01*
X538253Y964511D01*
X535085Y962683D01*
X532499Y960097D01*
X531749Y958797D01*
X530479D01*
X529729Y960097D01*
X527143Y962683D01*
X523975Y964511D01*
X520443Y965458D01*
X516785D01*
X513253Y964511D01*
X510085Y962683D01*
X507499Y960097D01*
X506749Y958797D01*
X505479D01*
X504729Y960097D01*
X502143Y962683D01*
X498975Y964511D01*
X495443Y965458D01*
X491785D01*
X488253Y964511D01*
X485085Y962683D01*
X482499Y960097D01*
X480671Y956929D01*
X479724Y953397D01*
Y949739D01*
X480671Y946207D01*
X482499Y943039D01*
X485085Y940453D01*
X488253Y938625D01*
X491785Y937678D01*
X495443D01*
X498975Y938625D01*
X502143Y940453D01*
X504729Y943039D01*
X505479Y944339D01*
X506749D01*
X507499Y943039D01*
X510085Y940453D01*
X513253Y938625D01*
X516785Y937678D01*
X520443D01*
X523975Y938625D01*
X527143Y940453D01*
X529729Y943039D01*
X530479Y944339D01*
X531749D01*
X532499Y943039D01*
X535085Y940453D01*
X538253Y938625D01*
X541785Y937678D01*
X545443D01*
X548975Y938625D01*
X552143Y940453D01*
X554729Y943039D01*
X555479Y944339D01*
X556749D01*
X557499Y943039D01*
X560085Y940453D01*
X563253Y938625D01*
X563592Y937805D01*
X562812Y936454D01*
X562102Y933805D01*
Y931063D01*
X562812Y928414D01*
X564183Y926040D01*
X566122Y924101D01*
X568496Y922730D01*
X569991Y922329D01*
X570477Y921156D01*
X569924Y920198D01*
X569214Y917549D01*
Y914807D01*
X569924Y912158D01*
X571295Y909784D01*
X573234Y907845D01*
X575608Y906474D01*
X578257Y905764D01*
X580999D01*
X583648Y906474D01*
X586022Y907845D01*
X587961Y909784D01*
X589332Y912158D01*
X590042Y914807D01*
Y917549D01*
X589332Y920198D01*
X587961Y922572D01*
X586022Y924511D01*
X583648Y925882D01*
X582153Y926283D01*
X581667Y927456D01*
X582220Y928414D01*
X582930Y931063D01*
Y933805D01*
X582220Y936454D01*
X580849Y938828D01*
X578910Y940767D01*
X578892Y940778D01*
X578726Y942037D01*
X579729Y943039D01*
X581557Y946207D01*
X582504Y949739D01*
Y953397D01*
X581557Y956929D01*
X579729Y960097D01*
X577143Y962683D01*
X573975Y964511D01*
X570443Y965458D01*
D02*
G37*
G36*
X420477Y976302D02*
X417083D01*
X413805Y975424D01*
X410865Y973727D01*
X408465Y971327D01*
X406768Y968387D01*
X405890Y965109D01*
Y961715D01*
X406768Y958437D01*
X408465Y955497D01*
X410865Y953098D01*
X413805Y951401D01*
X417083Y950522D01*
X420477D01*
X423755Y951401D01*
X426695Y953098D01*
X429095Y955497D01*
X430792Y958437D01*
X431670Y961715D01*
Y965109D01*
X430792Y968387D01*
X429095Y971327D01*
X426695Y973727D01*
X423755Y975424D01*
X420477Y976302D01*
D02*
G37*
G36*
X351197Y970081D02*
X347519D01*
X343966Y969129D01*
X340780Y967290D01*
X338179Y964689D01*
X336340Y961503D01*
X335388Y957950D01*
Y954272D01*
X336340Y950719D01*
X338179Y947533D01*
X340780Y944932D01*
X343966Y943093D01*
X347519Y942141D01*
X351197D01*
X354750Y943093D01*
X357936Y944932D01*
X360537Y947533D01*
X362376Y950719D01*
X363328Y954272D01*
Y957950D01*
X362376Y961503D01*
X360537Y964689D01*
X357936Y967290D01*
X354750Y969129D01*
X351197Y970081D01*
D02*
G37*
G36*
X458571Y949452D02*
X455829D01*
X453180Y948742D01*
X450806Y947371D01*
X448867Y945432D01*
X447496Y943058D01*
X446786Y940409D01*
Y937667D01*
X447496Y935018D01*
X448867Y932644D01*
X450806Y930705D01*
X453180Y929334D01*
X455829Y928624D01*
X458571D01*
X461220Y929334D01*
X463594Y930705D01*
X465533Y932644D01*
X466904Y935018D01*
X467614Y937667D01*
Y940409D01*
X466904Y943058D01*
X465533Y945432D01*
X463594Y947371D01*
X461220Y948742D01*
X458571Y949452D01*
D02*
G37*
G36*
X668025Y946792D02*
X665283D01*
X662634Y946082D01*
X660259Y944711D01*
X658320Y942772D01*
X656949Y940398D01*
X656240Y937749D01*
Y935007D01*
X656949Y932358D01*
X658320Y929984D01*
X660259Y928045D01*
X662634Y926674D01*
X665283Y925964D01*
X668025D01*
X670673Y926674D01*
X673048Y928045D01*
X674987Y929984D01*
X676358Y932358D01*
X677068Y935007D01*
Y937749D01*
X676358Y940398D01*
X674987Y942772D01*
X673048Y944711D01*
X670673Y946082D01*
X668025Y946792D01*
D02*
G37*
G36*
X763879Y923798D02*
X761137D01*
X758488Y923088D01*
X756114Y921717D01*
X754175Y919778D01*
X752804Y917404D01*
X752094Y914755D01*
Y912013D01*
X752804Y909364D01*
X754175Y906990D01*
X756114Y905051D01*
X758488Y903680D01*
X761137Y902970D01*
X763879D01*
X766528Y903680D01*
X768902Y905051D01*
X770841Y906990D01*
X772212Y909364D01*
X772922Y912013D01*
Y914755D01*
X772212Y917404D01*
X770841Y919778D01*
X768902Y921717D01*
X766528Y923088D01*
X763879Y923798D01*
D02*
G37*
G36*
X169519Y914908D02*
X166777D01*
X164128Y914198D01*
X161754Y912827D01*
X159815Y910888D01*
X158444Y908514D01*
X157734Y905865D01*
Y903123D01*
X158444Y900474D01*
X159815Y898100D01*
X161754Y896161D01*
X164128Y894790D01*
X166777Y894080D01*
X169519D01*
X172168Y894790D01*
X174486Y896128D01*
X174962Y895653D01*
X177336Y894282D01*
X179985Y893572D01*
X182727D01*
X185376Y894282D01*
X187750Y895653D01*
X189689Y897592D01*
X191060Y899966D01*
X191770Y902615D01*
Y905357D01*
X191060Y908006D01*
X189689Y910380D01*
X187750Y912319D01*
X185376Y913690D01*
X182727Y914400D01*
X179985D01*
X177336Y913690D01*
X175018Y912352D01*
X174542Y912827D01*
X172168Y914198D01*
X169519Y914908D01*
D02*
G37*
G36*
X508451Y904970D02*
X505709D01*
X503060Y904260D01*
X500686Y902889D01*
X498747Y900950D01*
X497376Y898575D01*
X496666Y895927D01*
Y893185D01*
X497376Y890536D01*
X498747Y888161D01*
X500686Y886222D01*
X503060Y884851D01*
X505709Y884142D01*
X508451D01*
X511100Y884851D01*
X513474Y886222D01*
X515413Y888161D01*
X516784Y890536D01*
X517494Y893185D01*
Y895927D01*
X516784Y898575D01*
X515413Y900950D01*
X513474Y902889D01*
X511100Y904260D01*
X508451Y904970D01*
D02*
G37*
G36*
X389579Y879714D02*
X386837D01*
X384188Y879004D01*
X381814Y877633D01*
X381643Y877463D01*
X381473Y877633D01*
X379099Y879004D01*
X376450Y879714D01*
X373708D01*
X371059Y879004D01*
X368685Y877633D01*
X368515Y877463D01*
X368344Y877633D01*
X365970Y879004D01*
X363321Y879714D01*
X360579D01*
X357930Y879004D01*
X355556Y877633D01*
X353617Y875694D01*
X352246Y873320D01*
X351536Y870671D01*
Y867929D01*
X352246Y865280D01*
X353617Y862906D01*
X355556Y860967D01*
X357930Y859596D01*
X360579Y858886D01*
X363321D01*
X365970Y859596D01*
X368344Y860967D01*
X368515Y861137D01*
X368685Y860967D01*
X371059Y859596D01*
X373708Y858886D01*
X376450D01*
X379099Y859596D01*
X381473Y860967D01*
X381643Y861137D01*
X381814Y860967D01*
X384188Y859596D01*
X386837Y858886D01*
X389579D01*
X392228Y859596D01*
X394602Y860967D01*
X396541Y862906D01*
X397912Y865280D01*
X398622Y867929D01*
Y870671D01*
X397912Y873320D01*
X396541Y875694D01*
X394602Y877633D01*
X392228Y879004D01*
X389579Y879714D01*
D02*
G37*
G36*
X254355Y864362D02*
X251613D01*
X248964Y863652D01*
X246590Y862281D01*
X244651Y860342D01*
X243280Y857968D01*
X242570Y855319D01*
Y852577D01*
X243280Y849928D01*
X244651Y847554D01*
X246590Y845615D01*
X248964Y844244D01*
X251613Y843534D01*
X254355D01*
X257004Y844244D01*
X259378Y845615D01*
X261317Y847554D01*
X262688Y849928D01*
X263398Y852577D01*
Y855319D01*
X262688Y857968D01*
X261317Y860342D01*
X259378Y862281D01*
X257004Y863652D01*
X254355Y864362D01*
D02*
G37*
G36*
X447237Y862950D02*
X444495D01*
X441846Y862240D01*
X439472Y860869D01*
X437533Y858930D01*
X436162Y856556D01*
X435452Y853907D01*
Y851165D01*
X436162Y848516D01*
X437533Y846142D01*
X439472Y844203D01*
X441846Y842832D01*
X444495Y842122D01*
X447237D01*
X449886Y842832D01*
X452260Y844203D01*
X454199Y846142D01*
X455570Y848516D01*
X456280Y851165D01*
Y853907D01*
X455570Y856556D01*
X454199Y858930D01*
X452260Y860869D01*
X449886Y862240D01*
X447237Y862950D01*
D02*
G37*
G36*
X824331Y847344D02*
X821589D01*
X818940Y846634D01*
X816566Y845263D01*
X814627Y843324D01*
X813256Y840950D01*
X812546Y838301D01*
Y835559D01*
X813256Y832910D01*
X814627Y830536D01*
X816566Y828597D01*
X818940Y827226D01*
X821589Y826516D01*
X824331D01*
X826980Y827226D01*
X829354Y828597D01*
X831293Y830536D01*
X832664Y832910D01*
X833374Y835559D01*
Y838301D01*
X832664Y840950D01*
X831293Y843324D01*
X829354Y845263D01*
X826980Y846634D01*
X824331Y847344D01*
D02*
G37*
G36*
X444347Y840740D02*
X441605D01*
X438956Y840030D01*
X436582Y838659D01*
X434643Y836720D01*
X433272Y834346D01*
X432562Y831697D01*
Y828955D01*
X433272Y826306D01*
X434643Y823932D01*
X436582Y821993D01*
X438956Y820622D01*
X441605Y819912D01*
X444347D01*
X446996Y820622D01*
X449370Y821993D01*
X451309Y823932D01*
X452680Y826306D01*
X453390Y828955D01*
Y831697D01*
X452680Y834346D01*
X451309Y836720D01*
X449370Y838659D01*
X446996Y840030D01*
X444347Y840740D01*
D02*
G37*
G36*
X45148Y851541D02*
X37148D01*
X33924Y851116D01*
X30920Y849872D01*
X28340Y847892D01*
X26360Y845312D01*
X25116Y842308D01*
X24691Y839084D01*
X25116Y835860D01*
X26360Y832856D01*
X28340Y830276D01*
X29066Y829719D01*
Y828449D01*
X28340Y827892D01*
X26360Y825312D01*
X25116Y822308D01*
X24691Y819084D01*
X25116Y815860D01*
X26360Y812856D01*
X28340Y810276D01*
X30920Y808296D01*
X33924Y807052D01*
X37148Y806627D01*
X45148D01*
X48372Y807052D01*
X51376Y808296D01*
X53956Y810276D01*
X55936Y812856D01*
X57180Y815860D01*
X57605Y819084D01*
X57180Y822308D01*
X55936Y825312D01*
X53956Y827892D01*
X53230Y828449D01*
Y829719D01*
X53956Y830276D01*
X55936Y832856D01*
X57180Y835860D01*
X57605Y839084D01*
X57180Y842308D01*
X55936Y845312D01*
X53956Y847892D01*
X51376Y849872D01*
X48372Y851116D01*
X45148Y851541D01*
D02*
G37*
G36*
X423011Y821436D02*
X420269D01*
X417620Y820726D01*
X415246Y819355D01*
X413307Y817416D01*
X411936Y815042D01*
X411226Y812393D01*
Y809651D01*
X411936Y807002D01*
X413307Y804628D01*
X415246Y802689D01*
X417620Y801318D01*
X420269Y800608D01*
X423011D01*
X425660Y801318D01*
X428034Y802689D01*
X429973Y804628D01*
X431344Y807002D01*
X432054Y809651D01*
Y812393D01*
X431344Y815042D01*
X429973Y817416D01*
X428034Y819355D01*
X425660Y820726D01*
X423011Y821436D01*
D02*
G37*
G36*
X237591Y817626D02*
X234849D01*
X232200Y816916D01*
X229826Y815545D01*
X227887Y813606D01*
X226516Y811232D01*
X225806Y808583D01*
Y805841D01*
X226516Y803192D01*
X227887Y800818D01*
X229826Y798879D01*
X232200Y797508D01*
X234849Y796798D01*
X237591D01*
X240240Y797508D01*
X242614Y798879D01*
X244553Y800818D01*
X245924Y803192D01*
X246634Y805841D01*
Y808583D01*
X245924Y811232D01*
X244553Y813606D01*
X242614Y815545D01*
X240240Y816916D01*
X237591Y817626D01*
D02*
G37*
G36*
X251307Y797560D02*
X248565D01*
X245916Y796850D01*
X243542Y795479D01*
X241603Y793540D01*
X240232Y791166D01*
X239522Y788517D01*
Y785775D01*
X240232Y783126D01*
X241603Y780752D01*
X243542Y778813D01*
X245916Y777442D01*
X248565Y776732D01*
X251307D01*
X253956Y777442D01*
X256330Y778813D01*
X258269Y780752D01*
X259640Y783126D01*
X260350Y785775D01*
Y788517D01*
X259640Y791166D01*
X258269Y793540D01*
X256330Y795479D01*
X253956Y796850D01*
X251307Y797560D01*
D02*
G37*
G36*
X406247Y795274D02*
X403505D01*
X400856Y794564D01*
X398482Y793193D01*
X396543Y791254D01*
X395172Y788880D01*
X394462Y786231D01*
Y783489D01*
X395172Y780840D01*
X396543Y778466D01*
X396684Y778324D01*
X396211Y777001D01*
X394755Y776858D01*
X391861Y775980D01*
X389195Y774555D01*
X386857Y772637D01*
X385699Y771225D01*
X384429D01*
X383271Y772637D01*
X380933Y774555D01*
X378267Y775980D01*
X375373Y776858D01*
X372364Y777154D01*
X369355Y776858D01*
X366461Y775980D01*
X363795Y774555D01*
X361457Y772637D01*
X360299Y771225D01*
X359029D01*
X357871Y772637D01*
X355533Y774555D01*
X352867Y775980D01*
X349973Y776858D01*
X346964Y777154D01*
X343955Y776858D01*
X341061Y775980D01*
X338395Y774555D01*
X336057Y772637D01*
X334139Y770299D01*
X332714Y767633D01*
X331836Y764739D01*
X331540Y761730D01*
Y759730D01*
X331836Y756721D01*
X332714Y753827D01*
X334139Y751161D01*
X336057Y748823D01*
X338395Y746905D01*
X341061Y745480D01*
X343955Y744602D01*
X346964Y744306D01*
X349973Y744602D01*
X352867Y745480D01*
X355533Y746905D01*
X357871Y748823D01*
X359029Y750235D01*
X360299D01*
X361457Y748823D01*
X363795Y746905D01*
X366461Y745480D01*
X369355Y744602D01*
X372364Y744306D01*
X375373Y744602D01*
X378267Y745480D01*
X380933Y746905D01*
X383271Y748823D01*
X384429Y750235D01*
X385699D01*
X386857Y748823D01*
X389195Y746905D01*
X391861Y745480D01*
X394755Y744602D01*
X397764Y744306D01*
X400773Y744602D01*
X403667Y745480D01*
X406333Y746905D01*
X406666Y747178D01*
X407814Y746635D01*
Y744380D01*
X438514D01*
Y777080D01*
X427201D01*
X426644Y778350D01*
X427788Y780332D01*
X428498Y782981D01*
Y785723D01*
X427788Y788372D01*
X426417Y790746D01*
X424478Y792685D01*
X422104Y794056D01*
X419455Y794766D01*
X416713D01*
X414064Y794056D01*
X411746Y792718D01*
X411270Y793193D01*
X408896Y794564D01*
X406247Y795274D01*
D02*
G37*
G36*
X855495Y789651D02*
X852753D01*
X850105Y788941D01*
X847730Y787570D01*
X845791Y785631D01*
X844420Y783257D01*
X843710Y780608D01*
Y777866D01*
X844420Y775217D01*
X845791Y772843D01*
X847730Y770904D01*
X850105Y769533D01*
X852753Y768823D01*
X855495D01*
X858144Y769533D01*
X860519Y770904D01*
X862458Y772843D01*
X863829Y775217D01*
X864538Y777866D01*
Y780608D01*
X863829Y783257D01*
X862458Y785631D01*
X860519Y787570D01*
X858144Y788941D01*
X855495Y789651D01*
D02*
G37*
G36*
X240385Y777240D02*
X237643D01*
X234994Y776530D01*
X232620Y775159D01*
X230681Y773220D01*
X229310Y770846D01*
X228600Y768197D01*
Y765455D01*
X229310Y762806D01*
X230681Y760432D01*
X232620Y758493D01*
X234994Y757122D01*
X237643Y756412D01*
X240385D01*
X243034Y757122D01*
X245408Y758493D01*
X247347Y760432D01*
X248718Y762806D01*
X249428Y765455D01*
Y768197D01*
X248718Y770846D01*
X247347Y773220D01*
X245408Y775159D01*
X243034Y776530D01*
X240385Y777240D01*
D02*
G37*
G36*
X149961D02*
X147219D01*
X144570Y776530D01*
X142196Y775159D01*
X140257Y773220D01*
X138886Y770846D01*
X138176Y768197D01*
Y765455D01*
X138886Y762806D01*
X140257Y760432D01*
X142196Y758493D01*
X144570Y757122D01*
X147219Y756412D01*
X149961D01*
X152610Y757122D01*
X154928Y758460D01*
X155404Y757985D01*
X157778Y756614D01*
X160427Y755904D01*
X163169D01*
X165818Y756614D01*
X168192Y757985D01*
X170131Y759924D01*
X171502Y762298D01*
X172212Y764947D01*
Y767689D01*
X171502Y770338D01*
X170131Y772712D01*
X168192Y774651D01*
X165818Y776022D01*
X163169Y776732D01*
X160427D01*
X157778Y776022D01*
X155460Y774684D01*
X154984Y775159D01*
X152610Y776530D01*
X149961Y777240D01*
D02*
G37*
G36*
X81381Y773430D02*
X78639D01*
X75990Y772720D01*
X73616Y771349D01*
X71677Y769410D01*
X70306Y767036D01*
X69596Y764387D01*
Y761645D01*
X70306Y758996D01*
X71677Y756622D01*
X73616Y754683D01*
X75990Y753312D01*
X78639Y752602D01*
X81381D01*
X84030Y753312D01*
X86404Y754683D01*
X88343Y756622D01*
X89714Y758996D01*
X90424Y761645D01*
Y764387D01*
X89714Y767036D01*
X88343Y769410D01*
X86404Y771349D01*
X84030Y772720D01*
X81381Y773430D01*
D02*
G37*
G36*
X146405Y736600D02*
X143663D01*
X141014Y735890D01*
X138640Y734519D01*
X136701Y732580D01*
X135330Y730206D01*
X134620Y727557D01*
Y724815D01*
X135330Y722166D01*
X136701Y719792D01*
X138640Y717853D01*
X141014Y716482D01*
X143663Y715772D01*
X146405D01*
X149054Y716482D01*
X151428Y717853D01*
X153367Y719792D01*
X154738Y722166D01*
X155448Y724815D01*
Y727557D01*
X154738Y730206D01*
X153367Y732580D01*
X151428Y734519D01*
X149054Y735890D01*
X146405Y736600D01*
D02*
G37*
G36*
X166217Y725678D02*
X163475D01*
X160826Y724968D01*
X158452Y723597D01*
X156513Y721658D01*
X155142Y719284D01*
X154432Y716635D01*
Y713893D01*
X155142Y711244D01*
X156513Y708870D01*
X158452Y706931D01*
X160826Y705560D01*
X163475Y704850D01*
X166217D01*
X168866Y705560D01*
X171240Y706931D01*
X173179Y708870D01*
X174550Y711244D01*
X175260Y713893D01*
Y716635D01*
X174550Y719284D01*
X173179Y721658D01*
X171240Y723597D01*
X168866Y724968D01*
X166217Y725678D01*
D02*
G37*
G36*
X201269Y726841D02*
X198527D01*
X195878Y726131D01*
X193504Y724760D01*
X191565Y722821D01*
X190194Y720446D01*
X189580Y718154D01*
X188823Y717042D01*
X186081D01*
X183432Y716332D01*
X181058Y714961D01*
X179119Y713022D01*
X177748Y710648D01*
X177038Y707999D01*
Y705257D01*
X177748Y702608D01*
X179119Y700234D01*
X181058Y698295D01*
X183432Y696924D01*
X186081Y696214D01*
X188823D01*
X191472Y696924D01*
X193846Y698295D01*
X195785Y700234D01*
X197156Y702608D01*
X197771Y704900D01*
X198527Y706013D01*
X201269D01*
X203918Y706722D01*
X206292Y708093D01*
X208231Y710032D01*
X209602Y712407D01*
X210312Y715055D01*
Y717798D01*
X209602Y720446D01*
X208231Y722821D01*
X206292Y724760D01*
X203918Y726131D01*
X201269Y726841D01*
D02*
G37*
G36*
X233527Y715518D02*
X230785D01*
X228136Y714808D01*
X225762Y713437D01*
X223823Y711498D01*
X222452Y709124D01*
X221742Y706475D01*
Y703733D01*
X222452Y701084D01*
X223823Y698710D01*
X225762Y696771D01*
X228136Y695400D01*
X229186Y695118D01*
Y693803D01*
X228898Y693726D01*
X226524Y692355D01*
X224885Y690717D01*
X224487Y690769D01*
X222548Y692708D01*
X220174Y694079D01*
X217525Y694789D01*
X214783D01*
X212134Y694079D01*
X209760Y692708D01*
X207821Y690769D01*
X206450Y688394D01*
X205740Y685746D01*
Y683004D01*
X206450Y680355D01*
X207821Y677980D01*
X209760Y676041D01*
X212134Y674670D01*
X214783Y673961D01*
X217525D01*
X220174Y674670D01*
X221631Y675512D01*
X222263Y675113D01*
X222652Y674635D01*
X221996Y672185D01*
Y669443D01*
X222706Y666794D01*
X224077Y664420D01*
X226016Y662481D01*
X227570Y661584D01*
X227390Y660221D01*
X226358Y659944D01*
X223984Y658573D01*
X222045Y656634D01*
X220674Y654260D01*
X219964Y651611D01*
Y648869D01*
X220674Y646220D01*
X222045Y643846D01*
X223984Y641907D01*
X226358Y640536D01*
X229007Y639826D01*
X231749D01*
X234398Y640536D01*
X236772Y641907D01*
X238711Y643846D01*
X240082Y646220D01*
X240792Y648869D01*
Y651611D01*
X240082Y654260D01*
X238711Y656634D01*
X236772Y658573D01*
X235219Y659470D01*
X235398Y660833D01*
X236430Y661110D01*
X238804Y662481D01*
X240743Y664420D01*
X242114Y666794D01*
X242824Y669443D01*
Y672185D01*
X242114Y674834D01*
X240776Y677152D01*
X241251Y677628D01*
X242622Y680002D01*
X243332Y682651D01*
Y685393D01*
X242622Y688042D01*
X241251Y690416D01*
X239312Y692355D01*
X236938Y693726D01*
X235888Y694008D01*
Y695322D01*
X236176Y695400D01*
X238550Y696771D01*
X240489Y698710D01*
X241860Y701084D01*
X242570Y703733D01*
Y706475D01*
X241860Y709124D01*
X240489Y711498D01*
X238550Y713437D01*
X236176Y714808D01*
X233527Y715518D01*
D02*
G37*
G36*
X209397Y665734D02*
X206655D01*
X204006Y665024D01*
X201632Y663653D01*
X199693Y661714D01*
X198322Y659340D01*
X197612Y656691D01*
Y653949D01*
X198322Y651300D01*
X199693Y648926D01*
X201632Y646987D01*
X204006Y645616D01*
X206655Y644906D01*
X209397D01*
X212046Y645616D01*
X214420Y646987D01*
X216359Y648926D01*
X217730Y651300D01*
X218440Y653949D01*
Y656691D01*
X217730Y659340D01*
X216359Y661714D01*
X214420Y663653D01*
X212046Y665024D01*
X209397Y665734D01*
D02*
G37*
G36*
X456031Y663194D02*
X453289D01*
X450640Y662484D01*
X448266Y661113D01*
X446327Y659174D01*
X444956Y656800D01*
X444246Y654151D01*
Y651409D01*
X444956Y648760D01*
X446327Y646386D01*
X448266Y644447D01*
X450640Y643076D01*
X453289Y642366D01*
X456031D01*
X458680Y643076D01*
X460998Y644414D01*
X461474Y643939D01*
X463848Y642568D01*
X466497Y641858D01*
X469239D01*
X471888Y642568D01*
X474262Y643939D01*
X476201Y645878D01*
X477572Y648252D01*
X478282Y650901D01*
Y653643D01*
X477572Y656292D01*
X476201Y658666D01*
X474262Y660605D01*
X471888Y661976D01*
X469239Y662686D01*
X466497D01*
X463848Y661976D01*
X461530Y660638D01*
X461054Y661113D01*
X458680Y662484D01*
X456031Y663194D01*
D02*
G37*
G36*
X518769Y655320D02*
X516027D01*
X513378Y654610D01*
X511004Y653239D01*
X509065Y651300D01*
X507694Y648926D01*
X506984Y646277D01*
Y643535D01*
X507694Y640886D01*
X509065Y638512D01*
X511004Y636573D01*
X513378Y635202D01*
X516027Y634492D01*
X518769D01*
X521418Y635202D01*
X523736Y636540D01*
X524212Y636065D01*
X526586Y634694D01*
X529235Y633984D01*
X531977D01*
X534626Y634694D01*
X537000Y636065D01*
X538939Y638004D01*
X540310Y640378D01*
X541020Y643027D01*
Y645769D01*
X540310Y648418D01*
X538939Y650792D01*
X537000Y652731D01*
X534626Y654102D01*
X531977Y654812D01*
X529235D01*
X526586Y654102D01*
X524268Y652764D01*
X523792Y653239D01*
X521418Y654610D01*
X518769Y655320D01*
D02*
G37*
G36*
X842619Y654304D02*
X839877D01*
X837228Y653594D01*
X834854Y652223D01*
X832915Y650284D01*
X831544Y647910D01*
X830834Y645261D01*
Y642519D01*
X831544Y639870D01*
X832915Y637496D01*
X834854Y635557D01*
X837228Y634186D01*
X839877Y633476D01*
X842619D01*
X845268Y634186D01*
X847586Y635524D01*
X848062Y635049D01*
X850436Y633678D01*
X853085Y632968D01*
X855827D01*
X858476Y633678D01*
X860850Y635049D01*
X862789Y636988D01*
X864160Y639362D01*
X864870Y642011D01*
Y644753D01*
X864160Y647402D01*
X862789Y649776D01*
X860850Y651715D01*
X858476Y653086D01*
X855827Y653796D01*
X853085D01*
X850436Y653086D01*
X848118Y651748D01*
X847642Y652223D01*
X845268Y653594D01*
X842619Y654304D01*
D02*
G37*
G36*
X175768Y675510D02*
X134228D01*
X131750Y675018D01*
X129650Y673614D01*
X126098Y670062D01*
X124695Y667962D01*
X124202Y665484D01*
Y631584D01*
X124695Y629106D01*
X126098Y627006D01*
X131826Y621278D01*
X133926Y619874D01*
X136404Y619382D01*
X175514Y619382D01*
X177992Y619874D01*
X180092Y621278D01*
X183140Y624326D01*
X184544Y626426D01*
X185036Y628904D01*
Y666242D01*
X184544Y668720D01*
X183140Y670820D01*
X180346Y673614D01*
X178246Y675018D01*
X175768Y675510D01*
D02*
G37*
G36*
X780389Y624332D02*
X777647D01*
X774998Y623622D01*
X772624Y622251D01*
X770685Y620312D01*
X769314Y617938D01*
X768604Y615289D01*
Y612547D01*
X769314Y609898D01*
X770685Y607524D01*
X772624Y605585D01*
X774998Y604214D01*
X777647Y603504D01*
X780389D01*
X783038Y604214D01*
X785412Y605585D01*
X787351Y607524D01*
X788722Y609898D01*
X789432Y612547D01*
Y615289D01*
X788722Y617938D01*
X787351Y620312D01*
X785412Y622251D01*
X783038Y623622D01*
X780389Y624332D01*
D02*
G37*
G36*
X214731Y608330D02*
X211989D01*
X209340Y607620D01*
X206966Y606249D01*
X205027Y604310D01*
X203656Y601936D01*
X202946Y599287D01*
Y596545D01*
X203656Y593896D01*
X205027Y591522D01*
X206966Y589583D01*
X209340Y588212D01*
X211989Y587502D01*
X214731D01*
X217380Y588212D01*
X219754Y589583D01*
X221693Y591522D01*
X223064Y593896D01*
X223774Y596545D01*
Y599287D01*
X223064Y601936D01*
X221693Y604310D01*
X219754Y606249D01*
X217380Y607620D01*
X214731Y608330D01*
D02*
G37*
G36*
X525373Y606552D02*
X522631D01*
X519982Y605842D01*
X517608Y604471D01*
X515669Y602532D01*
X514298Y600158D01*
X513588Y597509D01*
Y594767D01*
X514298Y592118D01*
X515669Y589744D01*
X517608Y587805D01*
X519982Y586434D01*
X522631Y585724D01*
X525373D01*
X528022Y586434D01*
X530396Y587805D01*
X532335Y589744D01*
X533706Y592118D01*
X534416Y594767D01*
Y597509D01*
X533706Y600158D01*
X532335Y602532D01*
X530396Y604471D01*
X528022Y605842D01*
X525373Y606552D01*
D02*
G37*
G36*
X408787Y604774D02*
X406045D01*
X403396Y604064D01*
X401022Y602693D01*
X399083Y600754D01*
X397712Y598380D01*
X397002Y595731D01*
Y592989D01*
X397712Y590340D01*
X399083Y587966D01*
X401022Y586027D01*
X403396Y584656D01*
X406045Y583946D01*
X408787D01*
X411436Y584656D01*
X413754Y585994D01*
X414230Y585519D01*
X416604Y584148D01*
X419253Y583438D01*
X421995D01*
X424644Y584148D01*
X427018Y585519D01*
X428957Y587458D01*
X430328Y589832D01*
X431038Y592481D01*
Y595223D01*
X430328Y597872D01*
X428957Y600246D01*
X427018Y602185D01*
X424644Y603556D01*
X421995Y604266D01*
X419253D01*
X416604Y603556D01*
X414286Y602218D01*
X413810Y602693D01*
X411436Y604064D01*
X408787Y604774D01*
D02*
G37*
G36*
X691743Y603758D02*
X689001D01*
X686352Y603048D01*
X683978Y601677D01*
X682039Y599738D01*
X680668Y597364D01*
X679958Y594715D01*
Y591973D01*
X680668Y589324D01*
X682039Y586950D01*
X683978Y585011D01*
X686352Y583640D01*
X689001Y582930D01*
X691743D01*
X694392Y583640D01*
X696766Y585011D01*
X698705Y586950D01*
X700076Y589324D01*
X700786Y591973D01*
Y594715D01*
X700076Y597364D01*
X698705Y599738D01*
X696766Y601677D01*
X694392Y603048D01*
X691743Y603758D01*
D02*
G37*
G36*
X851509Y609854D02*
X848767D01*
X846118Y609144D01*
X843744Y607773D01*
X841805Y605834D01*
X840434Y603460D01*
X839724Y600811D01*
Y598069D01*
X840434Y595420D01*
X840846Y594707D01*
X840180Y593554D01*
X839470Y590905D01*
Y588163D01*
X840180Y585514D01*
X841551Y583140D01*
X843490Y581201D01*
X845864Y579830D01*
X848513Y579120D01*
X851255D01*
X853904Y579830D01*
X856278Y581201D01*
X858217Y583140D01*
X859588Y585514D01*
X860298Y588163D01*
Y590905D01*
X859588Y593554D01*
X859176Y594267D01*
X859842Y595420D01*
X860552Y598069D01*
Y600811D01*
X859842Y603460D01*
X858471Y605834D01*
X856532Y607773D01*
X854158Y609144D01*
X851509Y609854D01*
D02*
G37*
G36*
X270865Y598932D02*
X268123D01*
X265474Y598222D01*
X263100Y596851D01*
X261161Y594912D01*
X259790Y592538D01*
X259080Y589889D01*
Y587147D01*
X259790Y584498D01*
X261161Y582124D01*
X263100Y580185D01*
X265474Y578814D01*
X268123Y578104D01*
X270865D01*
X273514Y578814D01*
X275888Y580185D01*
X277827Y582124D01*
X279198Y584498D01*
X279908Y587147D01*
Y589889D01*
X279198Y592538D01*
X277827Y594912D01*
X275888Y596851D01*
X273514Y598222D01*
X270865Y598932D01*
D02*
G37*
G36*
X313690Y550034D02*
X287274D01*
X284796Y549542D01*
X282696Y548138D01*
X281292Y546038D01*
X281197Y545558D01*
X280163Y545090D01*
X279820Y545148D01*
X277215Y545846D01*
X274473D01*
X271824Y545136D01*
X269450Y543765D01*
X267511Y541826D01*
X266140Y539452D01*
X265430Y536803D01*
Y534061D01*
X266140Y531412D01*
X267511Y529038D01*
X269450Y527099D01*
X271824Y525728D01*
X274473Y525018D01*
X277215D01*
X279530Y525638D01*
X280800Y524967D01*
Y523293D01*
X280520Y522808D01*
X279654Y519578D01*
Y516234D01*
X280520Y513004D01*
X280800Y512519D01*
Y511810D01*
X281292Y509332D01*
X282696Y507232D01*
X284728Y505200D01*
X286828Y503796D01*
X289306Y503304D01*
X312928D01*
X315406Y503796D01*
X317506Y505200D01*
X321570Y509264D01*
X322974Y511364D01*
X323466Y513842D01*
Y540258D01*
X322974Y542736D01*
X321570Y544836D01*
X318268Y548138D01*
X316168Y549542D01*
X313690Y550034D01*
D02*
G37*
G36*
X144627Y534924D02*
X141885D01*
X139236Y534214D01*
X136862Y532843D01*
X134923Y530904D01*
X133552Y528530D01*
X132842Y525881D01*
Y523139D01*
X133552Y520490D01*
X134923Y518116D01*
X136862Y516177D01*
X139236Y514806D01*
X141885Y514096D01*
X144627D01*
X147276Y514806D01*
X149650Y516177D01*
X151589Y518116D01*
X152960Y520490D01*
X153670Y523139D01*
Y525881D01*
X152960Y528530D01*
X151589Y530904D01*
X149650Y532843D01*
X147276Y534214D01*
X144627Y534924D01*
D02*
G37*
G36*
X97409Y447324D02*
X80137D01*
X77660Y446831D01*
X75559Y445427D01*
X73781Y443649D01*
X72378Y441549D01*
X71885Y439071D01*
Y432975D01*
X72378Y430498D01*
X73781Y428397D01*
X76067Y426111D01*
X76109Y426083D01*
X76137Y426042D01*
X77158Y425382D01*
X78168Y424708D01*
X78217Y424698D01*
X78258Y424671D01*
X79454Y424452D01*
X80645Y424215D01*
X80694Y424225D01*
X80743Y424216D01*
X97507Y424470D01*
X98696Y424725D01*
X99887Y424962D01*
X99928Y424989D01*
X99977Y425000D01*
X100977Y425690D01*
X101987Y426365D01*
X104781Y429159D01*
X106185Y431260D01*
X106678Y433737D01*
Y438055D01*
X106185Y440533D01*
X104781Y442633D01*
X101987Y445427D01*
X99887Y446831D01*
X97409Y447324D01*
D02*
G37*
G36*
X163677Y436626D02*
X160935D01*
X158286Y435916D01*
X155912Y434545D01*
X153973Y432606D01*
X152602Y430232D01*
X151892Y427583D01*
Y424841D01*
X152602Y422192D01*
X153973Y419818D01*
X155912Y417879D01*
X158286Y416508D01*
X160935Y415798D01*
X163677D01*
X166326Y416508D01*
X168700Y417879D01*
X170639Y419818D01*
X172010Y422192D01*
X172720Y424841D01*
Y427583D01*
X172010Y430232D01*
X170639Y432606D01*
X168700Y434545D01*
X166326Y435916D01*
X163677Y436626D01*
D02*
G37*
G36*
X96113Y406654D02*
X93371D01*
X90722Y405944D01*
X88348Y404573D01*
X86409Y402634D01*
X85038Y400260D01*
X84328Y397611D01*
Y394869D01*
X85038Y392220D01*
X86409Y389846D01*
X88348Y387907D01*
X90722Y386536D01*
X93371Y385826D01*
X96113D01*
X98762Y386536D01*
X101080Y387874D01*
X101556Y387399D01*
X103930Y386028D01*
X106579Y385318D01*
X109321D01*
X111970Y386028D01*
X114344Y387399D01*
X116283Y389338D01*
X117654Y391712D01*
X118364Y394361D01*
Y397103D01*
X117654Y399752D01*
X116283Y402126D01*
X114344Y404065D01*
X111970Y405436D01*
X109321Y406146D01*
X106579D01*
X103930Y405436D01*
X101612Y404098D01*
X101136Y404573D01*
X98762Y405944D01*
X96113Y406654D01*
D02*
G37*
G36*
X195935Y179578D02*
X193193D01*
X190544Y178868D01*
X188170Y177497D01*
X186231Y175558D01*
X184860Y173184D01*
X184150Y170535D01*
Y167793D01*
X184860Y165144D01*
X186198Y162826D01*
X185723Y162350D01*
X184352Y159976D01*
X183642Y157327D01*
Y154585D01*
X184352Y151936D01*
X185723Y149562D01*
X187662Y147623D01*
X190036Y146252D01*
X192685Y145542D01*
X195427D01*
X198076Y146252D01*
X200450Y147623D01*
X202389Y149562D01*
X203760Y151936D01*
X204470Y154585D01*
Y157327D01*
X203760Y159976D01*
X202422Y162294D01*
X202897Y162770D01*
X204268Y165144D01*
X204978Y167793D01*
Y170535D01*
X204268Y173184D01*
X202897Y175558D01*
X200958Y177497D01*
X198584Y178868D01*
X195935Y179578D01*
D02*
G37*
%LPD*%
G36*
X178562Y666242D02*
Y628904D01*
X175514Y625856D01*
X136404Y625856D01*
X130676Y631584D01*
Y665484D01*
X134228Y669036D01*
X175768D01*
X178562Y666242D01*
D02*
G37*
G36*
X316992Y540258D02*
Y513842D01*
X312928Y509778D01*
X289306D01*
X287274Y511810D01*
Y516890D01*
Y543560D01*
X313690D01*
X316992Y540258D01*
D02*
G37*
G36*
X100203Y438055D02*
Y433737D01*
X97409Y430943D01*
X80645Y430689D01*
X78359Y432975D01*
Y439071D01*
X80137Y440849D01*
X97409D01*
X100203Y438055D01*
D02*
G37*
%LPC*%
G36*
X950656Y861314D02*
X948248D01*
X945922Y860691D01*
X943838Y859487D01*
X942135Y857785D01*
X940931Y855699D01*
X940308Y853374D01*
Y850966D01*
X940931Y848641D01*
X942135Y846555D01*
X943838Y844853D01*
X945922Y843649D01*
X948248Y843026D01*
X950656D01*
X952981Y843649D01*
X955067Y844853D01*
X956769Y846555D01*
X957973Y848641D01*
X958596Y850966D01*
Y853374D01*
X957973Y855699D01*
X956769Y857785D01*
X955067Y859487D01*
X952981Y860691D01*
X950656Y861314D01*
D02*
G37*
G36*
X965134Y820420D02*
X962726D01*
X960400Y819797D01*
X958316Y818593D01*
X956613Y816890D01*
X955409Y814806D01*
X954786Y812480D01*
Y810072D01*
X955409Y807747D01*
X956050Y806637D01*
X956562Y805628D01*
X955613Y805009D01*
X954505Y804369D01*
X952803Y802666D01*
X951599Y800582D01*
X950976Y798256D01*
Y795848D01*
X951599Y793522D01*
X952803Y791438D01*
X954505Y789735D01*
X956590Y788531D01*
X958916Y787908D01*
X961324D01*
X963650Y788531D01*
X965734Y789735D01*
X967437Y791438D01*
X968641Y793522D01*
X969264Y795848D01*
Y798256D01*
X968641Y800582D01*
X968000Y801691D01*
X967488Y802700D01*
X968437Y803319D01*
X969545Y803959D01*
X971247Y805661D01*
X972451Y807747D01*
X973074Y810072D01*
Y812480D01*
X972451Y814806D01*
X971247Y816890D01*
X969545Y818593D01*
X967459Y819797D01*
X965134Y820420D01*
D02*
G37*
G36*
X949335Y789730D02*
X946927D01*
X944602Y789107D01*
X942517Y787903D01*
X940814Y786201D01*
X939611Y784116D01*
X938987Y781790D01*
Y779382D01*
X939611Y777057D01*
X940814Y774972D01*
X942517Y773269D01*
X944602Y772066D01*
X946927Y771442D01*
X949335D01*
X951661Y772066D01*
X953746Y773269D01*
X955448Y774972D01*
X956652Y777057D01*
X957275Y779382D01*
Y781790D01*
X956652Y784116D01*
X955448Y786201D01*
X953746Y787903D01*
X951661Y789107D01*
X949335Y789730D01*
D02*
G37*
G36*
X993836Y755142D02*
X991428D01*
X989102Y754519D01*
X987018Y753315D01*
X985315Y751612D01*
X984111Y749528D01*
X983488Y747202D01*
Y744794D01*
X984111Y742468D01*
X985315Y740384D01*
X987018Y738681D01*
X989102Y737477D01*
X991428Y736854D01*
X993836D01*
X996161Y737477D01*
X998247Y738681D01*
X999949Y740384D01*
X1001153Y742468D01*
X1001776Y744794D01*
Y747202D01*
X1001153Y749528D01*
X999949Y751612D01*
X998247Y753315D01*
X996161Y754519D01*
X993836Y755142D01*
D02*
G37*
G36*
X1012038Y649986D02*
X1008786D01*
X1005596Y649352D01*
X1002592Y648107D01*
X999887Y646300D01*
X997588Y644000D01*
X995781Y641296D01*
X994537Y638292D01*
X993902Y635102D01*
Y631850D01*
X994537Y628660D01*
X995781Y625656D01*
X997588Y622952D01*
X999887Y620652D01*
X1002592Y618845D01*
X1005596Y617601D01*
X1008786Y616966D01*
X1012038D01*
X1015228Y617601D01*
X1018232Y618845D01*
X1020937Y620652D01*
X1023236Y622952D01*
X1025043Y625656D01*
X1026288Y628660D01*
X1026922Y631850D01*
Y635102D01*
X1026288Y638292D01*
X1025043Y641296D01*
X1023236Y644000D01*
X1020937Y646300D01*
X1018232Y648107D01*
X1015228Y649352D01*
X1012038Y649986D01*
D02*
G37*
G36*
X717486Y850743D02*
X715079D01*
X712753Y850120D01*
X710668Y848916D01*
X708965Y847214D01*
X707762Y845129D01*
X707138Y842803D01*
Y840396D01*
X707762Y838070D01*
X708965Y835985D01*
X710668Y834282D01*
X712753Y833079D01*
X715079Y832455D01*
X717486D01*
X719812Y833079D01*
X721897Y834282D01*
X723599Y835985D01*
X724803Y838070D01*
X725426Y840396D01*
Y842803D01*
X724803Y845129D01*
X723599Y847214D01*
X721897Y848916D01*
X719812Y850120D01*
X717486Y850743D01*
D02*
G37*
G36*
X775142Y833882D02*
X772734D01*
X770408Y833259D01*
X768324Y832055D01*
X766621Y830352D01*
X765417Y828268D01*
X764794Y825942D01*
Y823534D01*
X765417Y821208D01*
X766621Y819124D01*
X768324Y817421D01*
X770408Y816217D01*
X772734Y815594D01*
X775142D01*
X777467Y816217D01*
X779553Y817421D01*
X781255Y819124D01*
X782459Y821208D01*
X783082Y823534D01*
Y825942D01*
X782459Y828268D01*
X781255Y830352D01*
X779553Y832055D01*
X777467Y833259D01*
X775142Y833882D01*
D02*
G37*
G36*
X443738Y432178D02*
X394208D01*
X391730Y431686D01*
X389630Y430282D01*
X386582Y427234D01*
X385990Y426349D01*
X385345Y425502D01*
X385292Y425304D01*
X385178Y425134D01*
X384971Y424089D01*
X384698Y423060D01*
X384444Y418996D01*
X384472Y418793D01*
X384432Y418592D01*
Y418338D01*
X384745Y416760D01*
X384781Y416492D01*
X384808Y416447D01*
X384924Y415860D01*
X386328Y413760D01*
X389376Y410712D01*
X391476Y409308D01*
X393954Y408816D01*
X444246D01*
X446724Y409308D01*
X448824Y410712D01*
X450856Y412744D01*
X452260Y414844D01*
X452752Y417322D01*
Y423164D01*
X452260Y425642D01*
X450856Y427742D01*
X448316Y430282D01*
X446216Y431686D01*
X443738Y432178D01*
D02*
G37*
G36*
X405993Y367284D02*
X403251D01*
X400602Y366574D01*
X398228Y365203D01*
X396289Y363264D01*
X394918Y360890D01*
X394208Y358241D01*
Y355499D01*
X394918Y352850D01*
X396289Y350476D01*
X398228Y348537D01*
X400602Y347166D01*
X403251Y346456D01*
X405993D01*
X408642Y347166D01*
X411016Y348537D01*
X412955Y350476D01*
X414326Y352850D01*
X415036Y355499D01*
Y358241D01*
X414326Y360890D01*
X412955Y363264D01*
X411016Y365203D01*
X408642Y366574D01*
X405993Y367284D01*
D02*
G37*
G36*
X362392Y322834D02*
X359984D01*
X357659Y322211D01*
X355574Y321007D01*
X353871Y319305D01*
X352667Y317220D01*
X352044Y314894D01*
Y312486D01*
X352667Y310161D01*
X353871Y308076D01*
X355574Y306373D01*
X357659Y305169D01*
X359984Y304546D01*
X362392D01*
X364717Y305169D01*
X366802Y306373D01*
X368505Y308076D01*
X369709Y310161D01*
X370332Y312486D01*
Y314894D01*
X369709Y317220D01*
X368505Y319305D01*
X366802Y321007D01*
X364717Y322211D01*
X362392Y322834D01*
D02*
G37*
G36*
X303678Y331324D02*
X300334D01*
X297104Y330458D01*
X294208Y328787D01*
X291843Y326422D01*
X290172Y323526D01*
X289306Y320296D01*
Y316952D01*
X290172Y313722D01*
X291843Y310826D01*
X294208Y308461D01*
X297104Y306789D01*
X297218Y306759D01*
Y305489D01*
X297104Y305459D01*
X294208Y303787D01*
X291843Y301422D01*
X290172Y298526D01*
X289306Y295296D01*
Y291952D01*
X290172Y288722D01*
X291843Y285826D01*
X294208Y283461D01*
X297104Y281789D01*
X300334Y280924D01*
X303678D01*
X306908Y281789D01*
X309804Y283461D01*
X312169Y285826D01*
X313841Y288722D01*
X314706Y291952D01*
Y295296D01*
X313841Y298526D01*
X312169Y301422D01*
X309804Y303787D01*
X306908Y305459D01*
X306794Y305489D01*
Y306759D01*
X306908Y306789D01*
X309804Y308461D01*
X312169Y310826D01*
X313841Y313722D01*
X314706Y316952D01*
Y320296D01*
X313841Y323526D01*
X312169Y326422D01*
X309804Y328787D01*
X306908Y330458D01*
X303678Y331324D01*
D02*
G37*
%LPD*%
G36*
X446278Y423164D02*
Y417322D01*
X444246Y415290D01*
X393954D01*
X390906Y418338D01*
Y418592D01*
X391160Y422656D01*
X394208Y425704D01*
X443738D01*
X446278Y423164D01*
D02*
G37*
%LPC*%
G36*
X567955Y389508D02*
X564377D01*
X560869Y388810D01*
X557564Y387441D01*
X554590Y385454D01*
X552060Y382924D01*
X550073Y379950D01*
X548704Y376645D01*
X548006Y373137D01*
Y369559D01*
X548704Y366051D01*
X550073Y362746D01*
X552060Y359772D01*
X554590Y357242D01*
X557564Y355255D01*
X560869Y353886D01*
X564377Y353188D01*
X567955D01*
X571463Y353886D01*
X574768Y355255D01*
X577742Y357242D01*
X580272Y359772D01*
X582259Y362746D01*
X583628Y366051D01*
X584326Y369559D01*
Y373137D01*
X583628Y376645D01*
X582259Y379950D01*
X580272Y382924D01*
X577742Y385454D01*
X574768Y387441D01*
X571463Y388810D01*
X567955Y389508D01*
D02*
G37*
G36*
X315083Y154450D02*
X312341D01*
X309692Y153740D01*
X307318Y152369D01*
X305379Y150430D01*
X304008Y148056D01*
X303298Y145407D01*
Y142665D01*
X304008Y140016D01*
X305379Y137642D01*
X307318Y135703D01*
X309692Y134332D01*
X312341Y133622D01*
X315083D01*
X317732Y134332D01*
X320106Y135703D01*
X322045Y137642D01*
X323416Y140016D01*
X324126Y142665D01*
Y145407D01*
X323416Y148056D01*
X322045Y150430D01*
X320106Y152369D01*
X317732Y153740D01*
X315083Y154450D01*
D02*
G37*
G36*
X347446Y136779D02*
X344704D01*
X342055Y136069D01*
X339681Y134698D01*
X337742Y132759D01*
X336371Y130385D01*
X335661Y127736D01*
Y124994D01*
X336371Y122345D01*
X337742Y119971D01*
X339681Y118032D01*
X342055Y116661D01*
X344704Y115951D01*
X347446D01*
X350095Y116661D01*
X352469Y118032D01*
X354408Y119971D01*
X355779Y122345D01*
X356489Y124994D01*
Y127736D01*
X355779Y130385D01*
X354408Y132759D01*
X352469Y134698D01*
X350095Y136069D01*
X347446Y136779D01*
D02*
G37*
%LPD*%
G54D97*
X1207678Y503486D02*
D03*
X1132678Y542486D02*
D03*
X1298390Y201076D02*
D03*
X1259390Y126076D02*
D03*
X1299972Y262708D02*
D03*
X1299972Y457708D02*
D03*
X1374882Y52070D02*
D03*
X972056Y473888D02*
D03*
X1122056D02*
D03*
X972058Y373888D02*
D03*
X1122056D02*
D03*
X1365446Y201076D02*
D03*
X1326446Y126076D02*
D03*
G54D122*
X609712Y883666D02*
X641604D01*
X566166D02*
X609712D01*
X610616Y884570D01*
Y939800D01*
X577088Y973328D02*
X610616Y939800D01*
X483362Y973328D02*
X577088D01*
X473202Y963168D02*
X483362Y973328D01*
X473202Y943610D02*
Y963168D01*
Y943610D02*
X486506Y930306D01*
Y894954D02*
Y930306D01*
X714756Y784352D02*
X716280D01*
X656082Y843026D02*
X714756Y784352D01*
X757936Y778591D02*
Y860204D01*
Y778591D02*
X764540Y771987D01*
Y698246D02*
Y771987D01*
X754032Y864108D02*
X757936Y860204D01*
X656082Y843026D02*
Y869188D01*
X641604Y883666D02*
X656082Y869188D01*
X551434Y868934D02*
X566166Y883666D01*
X551434Y786638D02*
Y868934D01*
X77470Y290576D02*
X78740Y289306D01*
X77470Y163068D02*
Y290576D01*
X92710Y289814D02*
X94342D01*
X92202Y289306D02*
X92710Y289814D01*
X78740Y289306D02*
X92202D01*
X941030Y861274D02*
X953223D01*
X924052Y844296D02*
X941030Y861274D01*
X953223D02*
X959104Y855393D01*
Y852678D02*
Y855393D01*
X980186Y760984D02*
Y831596D01*
X959104Y852678D02*
X980186Y831596D01*
X629158Y518414D02*
X641604Y505968D01*
X629158Y518414D02*
Y696468D01*
X708754Y557370D02*
X779630D01*
X614426Y711200D02*
X629158Y696468D01*
X641604Y505968D02*
X657352D01*
X708754Y557370D01*
X676740Y866648D02*
X679280Y864108D01*
X754032D01*
X675894Y866648D02*
X676740D01*
X548437Y164897D02*
X549910Y166370D01*
X523494Y149606D02*
X538785Y164897D01*
X548437D01*
X77470Y163068D02*
X78740Y161798D01*
X446024Y149606D02*
X523494D01*
X444754Y148336D02*
X446024Y149606D01*
G54D125*
X1091946Y855726D02*
X1128014D01*
X715832Y456438D02*
X727548Y468154D01*
X665946Y363482D02*
Y402499D01*
X1250924Y855726D02*
X1263904Y868706D01*
X1128014Y855726D02*
X1250924Y855726D01*
X1263904Y868706D02*
X1298168D01*
X1365250Y801624D01*
X1405690D01*
X1450340Y846274D01*
X698246Y456438D02*
X715832D01*
X690372D02*
X698246D01*
X677926Y418592D02*
Y443992D01*
Y402499D02*
Y418592D01*
X665946Y402499D02*
X677926D01*
X665094D02*
X665946D01*
X677926D02*
X677926Y402499D01*
Y443992D02*
X690372Y456438D01*
X727548Y468154D02*
Y505460D01*
X1188720Y755650D02*
X1189442Y756372D01*
Y780170D01*
X665946Y313489D02*
Y330967D01*
Y296541D02*
Y313489D01*
Y277664D02*
Y296541D01*
Y277664D02*
X667258Y276352D01*
X621946Y286664D02*
Y363482D01*
Y286664D02*
X632258Y276352D01*
X665946Y330967D02*
Y363482D01*
X970805Y365223D02*
X972058Y366476D01*
Y373888D01*
X970805Y322517D02*
Y365223D01*
X968891Y320603D02*
X970805Y322517D01*
X926946Y291746D02*
Y364482D01*
X1303274Y603250D02*
X1357376Y549148D01*
X1150366Y603250D02*
X1303274D01*
X1125982Y627634D02*
X1150366Y603250D01*
G54D128*
X1194189Y156904D02*
D03*
G54D133*
X31496Y524764D02*
D03*
G54D136*
X911368Y37830D02*
D03*
X956368D02*
D03*
X1000368D02*
D03*
X1046368D02*
D03*
X785368Y36830D02*
D03*
X926946Y364482D02*
D03*
X880946D02*
D03*
X836946D02*
D03*
X791946D02*
D03*
X665946Y363482D02*
D03*
X621946D02*
D03*
G54D137*
X1070356Y245580D02*
D03*
Y195580D02*
D03*
X572516Y34182D02*
D03*
X759098Y262382D02*
D03*
X762092Y178562D02*
D03*
X837092D02*
D03*
X667258Y276352D02*
D03*
X673100Y74904D02*
D03*
X891432Y223266D02*
D03*
X727548Y505460D02*
D03*
X802548D02*
D03*
X1292894Y565058D02*
D03*
Y490058D02*
D03*
G54D138*
X1097046Y52070D02*
D03*
G54D139*
X572516Y84182D02*
D03*
G54D140*
X1118892Y320603D02*
D03*
X968891D02*
D03*
G54D141*
X809098Y262382D02*
D03*
X632258Y276352D02*
D03*
X941432Y223266D02*
D03*
X516166Y371348D02*
D03*
G54D142*
X1194054Y184404D02*
D03*
G54D143*
Y404404D02*
D03*
G54D144*
X1263904Y868706D02*
D03*
G54D146*
X1450340Y846274D02*
D03*
X1375340Y643274D02*
D03*
X1450340D02*
D03*
X1375340Y592874D02*
D03*
X1450340D02*
D03*
G54D147*
X444754Y21336D02*
D03*
Y46736D02*
D03*
Y72136D02*
D03*
Y97536D02*
D03*
Y122936D02*
D03*
G54D148*
Y148336D02*
D03*
G54D149*
X1448730Y952286D02*
D03*
X48730D02*
D03*
Y52286D02*
D03*
G54D150*
X127254Y958378D02*
D03*
G54D153*
X1440000Y450038D02*
D03*
Y399238D02*
D03*
Y500838D02*
D03*
X1439672Y207772D02*
D03*
Y156972D02*
D03*
Y258572D02*
D03*
G54D154*
X398780Y963412D02*
D03*
G54D157*
X240000Y44238D02*
D03*
G54D159*
X41148Y799084D02*
D03*
G54D160*
X118110Y65532D02*
D03*
X131318Y65024D02*
D03*
X591058Y869442D02*
D03*
X604012Y869696D02*
D03*
X15748Y539496D02*
D03*
X55372Y539242D02*
D03*
X95250Y436880D02*
D03*
X204978Y477520D02*
D03*
X204470Y459232D02*
D03*
X486506Y894954D02*
D03*
X83312Y436880D02*
D03*
X615696Y870204D02*
D03*
X325374Y936752D02*
D03*
X110299Y254825D02*
D03*
X122491D02*
D03*
X1358392Y264668D02*
D03*
X1358842Y246870D02*
D03*
X1295146Y534162D02*
D03*
Y330962D02*
D03*
X1305306Y310642D02*
D03*
X1295146Y290322D02*
D03*
Y168402D02*
D03*
X1305306Y148082D02*
D03*
X1295146Y127762D02*
D03*
X1284986Y635762D02*
D03*
X1274826Y574802D02*
D03*
Y534162D02*
D03*
Y371602D02*
D03*
Y330962D02*
D03*
X1284986Y310642D02*
D03*
X1274826Y290322D02*
D03*
Y168402D02*
D03*
X1284986Y148082D02*
D03*
X1274826Y87122D02*
D03*
X1254506Y371602D02*
D03*
X1264666Y351282D02*
D03*
X1254506Y330962D02*
D03*
X1264666Y310642D02*
D03*
X1254506Y290322D02*
D03*
X1264666Y270002D02*
D03*
X1254506Y249682D02*
D03*
X1264666Y229362D02*
D03*
X1254506Y209042D02*
D03*
X1264666Y188722D02*
D03*
X1254506Y168402D02*
D03*
X1264666Y148082D02*
D03*
Y66802D02*
D03*
X1234186Y371602D02*
D03*
X1244346Y351282D02*
D03*
X1234186Y330962D02*
D03*
X1244346Y310642D02*
D03*
X1234186Y290322D02*
D03*
X1244346Y270002D02*
D03*
X1234186Y249682D02*
D03*
X1244346Y229362D02*
D03*
X1234186Y168402D02*
D03*
Y127762D02*
D03*
X1244346Y107442D02*
D03*
X1234186Y87122D02*
D03*
X1244346Y66802D02*
D03*
X1234186Y46482D02*
D03*
X1213866Y371602D02*
D03*
X1224026Y351282D02*
D03*
Y310642D02*
D03*
Y270002D02*
D03*
Y229362D02*
D03*
Y188722D02*
D03*
Y148082D02*
D03*
Y107442D02*
D03*
X1213866Y87122D02*
D03*
X1193546Y534162D02*
D03*
X1203706Y351282D02*
D03*
X1193546Y330962D02*
D03*
X1203706Y310642D02*
D03*
X1193546Y290322D02*
D03*
X1203706Y270002D02*
D03*
X1193546Y249682D02*
D03*
X1203706Y229362D02*
D03*
X1193546Y87122D02*
D03*
X1203706Y66802D02*
D03*
X1193546Y46482D02*
D03*
X1173226Y534162D02*
D03*
X1183386Y351282D02*
D03*
Y310642D02*
D03*
Y270002D02*
D03*
Y229362D02*
D03*
X1173226Y87122D02*
D03*
X1183386Y66802D02*
D03*
X1173226Y46482D02*
D03*
X1163066Y554482D02*
D03*
X1152906Y87122D02*
D03*
X1163066Y66802D02*
D03*
X1152906Y46482D02*
D03*
X1132586Y87122D02*
D03*
X1142746Y66802D02*
D03*
X1132586Y46482D02*
D03*
X1112266Y696722D02*
D03*
X1122426Y107442D02*
D03*
X1112266Y87122D02*
D03*
X1122426Y66802D02*
D03*
X1102106Y107442D02*
D03*
X1091946Y87122D02*
D03*
X1061466Y676402D02*
D03*
X1041146D02*
D03*
X1020826D02*
D03*
X1000506D02*
D03*
X980186D02*
D03*
X959866D02*
D03*
X939546D02*
D03*
X791464Y590296D02*
D03*
X780542Y589788D02*
D03*
X621946Y317793D02*
D03*
Y343193D02*
D03*
X698246Y456438D02*
D03*
X723646D02*
D03*
X677926Y443992D02*
D03*
Y418592D02*
D03*
Y393192D02*
D03*
X1003300Y70866D02*
D03*
Y96266D02*
D03*
Y121666D02*
D03*
X1186703Y158071D02*
D03*
X1200927D02*
D03*
X1131324Y418671D02*
D03*
X1140968Y453390D02*
D03*
Y478790D02*
D03*
X1051560Y471678D02*
D03*
X1026160D02*
D03*
X1000760D02*
D03*
X1073404Y356362D02*
D03*
Y381762D02*
D03*
Y407162D02*
D03*
X932688Y418338D02*
D03*
X958088D02*
D03*
X983488D02*
D03*
X988695Y348105D02*
D03*
X788162Y82550D02*
D03*
Y107950D02*
D03*
Y133350D02*
D03*
X665946Y296541D02*
D03*
Y313489D02*
D03*
Y330967D02*
D03*
X934720Y290322D02*
D03*
X926946Y319564D02*
D03*
Y338715D02*
D03*
X1113436Y264198D02*
D03*
X1047242Y66802D02*
D03*
X790194Y411098D02*
D03*
Y474762D02*
D03*
Y441849D02*
D03*
X785348Y325354D02*
D03*
X766249Y306255D02*
D03*
X756920Y281432D02*
D03*
X1155044Y418428D02*
D03*
X1402059Y101382D02*
D03*
Y126782D02*
D03*
Y152182D02*
D03*
X1378294Y73554D02*
D03*
Y98954D02*
D03*
Y124354D02*
D03*
X207264Y927608D02*
D03*
X716280Y784352D02*
D03*
X833374Y284988D02*
D03*
Y310388D02*
D03*
Y335788D02*
D03*
X910056Y135203D02*
D03*
Y109803D02*
D03*
Y84403D02*
D03*
X957580Y156464D02*
D03*
X955056Y130361D02*
D03*
Y104961D02*
D03*
Y79561D02*
D03*
X1047242Y117602D02*
D03*
Y92202D02*
D03*
X518160Y171958D02*
D03*
X497840D02*
D03*
X508000Y151638D02*
D03*
X477520Y171958D02*
D03*
X487680Y151638D02*
D03*
X457200Y171958D02*
D03*
X467360Y151638D02*
D03*
X1358803Y300434D02*
D03*
X1358353Y318232D02*
D03*
X924052Y844296D02*
D03*
X767819Y557587D02*
D03*
X1166368Y627982D02*
D03*
X1013714Y789432D02*
D03*
X980186Y760984D02*
D03*
X231924Y145267D02*
D03*
X602869Y990805D02*
D03*
X630793Y991019D02*
D03*
X675894Y866648D02*
D03*
X675640Y853694D02*
D03*
X844668Y839126D02*
D03*
X940278Y561871D02*
D03*
X924306Y561594D02*
D03*
X778185Y557370D02*
D03*
X615442Y724154D02*
D03*
X614426Y711200D02*
D03*
X764286Y687070D02*
D03*
X764540Y698246D02*
D03*
X944118Y613664D02*
D03*
X824588Y758421D02*
D03*
X551434Y786638D02*
D03*
X97536Y800100D02*
D03*
X1031962Y711590D02*
D03*
X220472Y80010D02*
D03*
X277368Y927608D02*
D03*
X69342Y13970D02*
D03*
X12192Y57912D02*
D03*
X1462278Y912876D02*
D03*
X1247140Y634238D02*
D03*
X395224Y419862D02*
D03*
X731012Y991616D02*
D03*
X756412D02*
D03*
X781812D02*
D03*
X807212D02*
D03*
X1189442Y780170D02*
D03*
X1217425Y703716D02*
D03*
X9144Y949706D02*
D03*
X14224Y980694D02*
D03*
X10160Y920750D02*
D03*
X13208Y894842D02*
D03*
X42164Y539750D02*
D03*
X28956D02*
D03*
X274320Y47498D02*
D03*
X440944Y419862D02*
D03*
X425704D02*
D03*
X410464D02*
D03*
X25400Y202438D02*
D03*
Y227838D02*
D03*
Y253238D02*
D03*
Y100838D02*
D03*
Y126238D02*
D03*
Y151638D02*
D03*
Y177038D02*
D03*
X158750Y18288D02*
D03*
X184150D02*
D03*
X209550D02*
D03*
X234950D02*
D03*
X260350D02*
D03*
X285750D02*
D03*
X336550D02*
D03*
X88900D02*
D03*
X114300D02*
D03*
X139700D02*
D03*
X19050Y24638D02*
D03*
Y75438D02*
D03*
X146812Y991616D02*
D03*
X121412D02*
D03*
X96012D02*
D03*
X70612D02*
D03*
X248412D02*
D03*
X223012D02*
D03*
X197612D02*
D03*
X172212D02*
D03*
X324612D02*
D03*
X299212D02*
D03*
X272161Y992681D02*
D03*
X426212Y991616D02*
D03*
X400812D02*
D03*
X375412D02*
D03*
X350012D02*
D03*
X527812D02*
D03*
X502412D02*
D03*
X477012D02*
D03*
X451612D02*
D03*
X578612D02*
D03*
X553212D02*
D03*
X705612D02*
D03*
X680212D02*
D03*
X654812D02*
D03*
X908812D02*
D03*
X883412D02*
D03*
X858012D02*
D03*
X832612D02*
D03*
X1010412D02*
D03*
X985012D02*
D03*
X959612D02*
D03*
X934212D02*
D03*
X1112012D02*
D03*
X1086612D02*
D03*
X1061212D02*
D03*
X1035812D02*
D03*
X1213612D02*
D03*
X1188212D02*
D03*
X1162812D02*
D03*
X1137412D02*
D03*
X1315212D02*
D03*
X1289812D02*
D03*
X1264412D02*
D03*
X1239012D02*
D03*
X1340612D02*
D03*
X1366012D02*
D03*
X1391412D02*
D03*
X1481328Y988060D02*
D03*
X1484122Y959358D02*
D03*
Y933958D02*
D03*
Y908558D02*
D03*
X1404239Y969215D02*
D03*
Y943815D02*
D03*
Y918415D02*
D03*
X1470660Y890778D02*
D03*
X311150Y18288D02*
D03*
X1474470Y498348D02*
D03*
X1403350Y518668D02*
D03*
X1464310D02*
D03*
X1454150Y538988D02*
D03*
X1443990Y559308D02*
D03*
X1423670D02*
D03*
X1413510Y538988D02*
D03*
X1464310Y559308D02*
D03*
X1433830Y538988D02*
D03*
X1474470Y579628D02*
D03*
X1393190D02*
D03*
X1413510D02*
D03*
X1474470Y538988D02*
D03*
X1403350Y559308D02*
D03*
X1433830Y579628D02*
D03*
X1346974Y670096D02*
D03*
X1333500Y685038D02*
D03*
X1320800Y761238D02*
D03*
X1422400Y659638D02*
D03*
X1397000D02*
D03*
X1333512Y722420D02*
D03*
X1323860Y788968D02*
D03*
G54D161*
X294386Y534670D02*
D03*
X489458Y329692D02*
D03*
X140716Y47752D02*
D03*
X121666Y48514D02*
D03*
X292354Y517906D02*
D03*
X92710Y289814D02*
D03*
X300228Y480314D02*
D03*
X308864Y536448D02*
D03*
X308610Y518922D02*
D03*
X363982Y437134D02*
D03*
X379730D02*
D03*
X487649Y346871D02*
D03*
X472694Y330200D02*
D03*
X643636Y542798D02*
D03*
X469900Y310388D02*
D03*
X490728Y310134D02*
D03*
X1121918Y857758D02*
D03*
X1301202Y822080D02*
D03*
X1094486Y856742D02*
D03*
X377698Y572516D02*
D03*
X689864Y196088D02*
D03*
X711454Y195834D02*
D03*
X643128Y526542D02*
D03*
X354827Y150379D02*
D03*
X355854Y166624D02*
D03*
X1280882Y822080D02*
D03*
X379730Y454406D02*
D03*
X488188Y525526D02*
D03*
X487426Y542290D02*
D03*
X467868Y542544D02*
D03*
X468576Y524739D02*
D03*
X482600Y500634D02*
D03*
X462280Y499618D02*
D03*
X484378Y479044D02*
D03*
X570738Y185674D02*
D03*
X549910Y166370D02*
D03*
X550418Y185928D02*
D03*
X570230Y166370D02*
D03*
X1138682Y583946D02*
D03*
X1357376Y549148D02*
D03*
X944626Y626618D02*
D03*
X354584Y76708D02*
D03*
X341630Y65786D02*
D03*
X363982Y454406D02*
D03*
X1272286Y685546D02*
D03*
X78740Y161798D02*
D03*
X76200Y288798D02*
D03*
X1140206Y561594D02*
D03*
X1118616Y561848D02*
D03*
X1125982Y627634D02*
D03*
X1118616Y583946D02*
D03*
X1271721Y669233D02*
D03*
X1290066Y669290D02*
D03*
Y686562D02*
D03*
X1260562Y801760D02*
D03*
Y781440D02*
D03*
Y822080D02*
D03*
X1279612Y801760D02*
D03*
X1301202D02*
D03*
X1279906Y781558D02*
D03*
X1302472Y782710D02*
D03*
X377190Y590804D02*
D03*
X461264Y478536D02*
D03*
X319024Y587502D02*
D03*
X320294Y573532D02*
D03*
X298958Y495808D02*
D03*
G54D162*
X138756Y630520D02*
D03*
Y664420D02*
D03*
X173156Y664120D02*
D03*
Y630520D02*
D03*
X138756Y647770D02*
D03*
X155856D02*
D03*
Y664420D02*
D03*
Y630520D02*
D03*
X173156Y647770D02*
D03*
G54D165*
X324358Y956111D02*
D03*
M02*
