G04*
G04 #@! TF.GenerationSoftware,Altium Limited,Altium Designer,22.5.1 (42)*
G04*
G04 Layer_Color=255*
%FSLAX44Y44*%
%MOMM*%
G71*
G04*
G04 #@! TF.SameCoordinates,325B58FB-DF44-4075-A057-A786A272C4E4*
G04*
G04*
G04 #@! TF.FilePolarity,Positive*
G04*
G01*
G75*
G04:AMPARAMS|DCode=22|XSize=1.3mm|YSize=0.8mm|CornerRadius=0.1mm|HoleSize=0mm|Usage=FLASHONLY|Rotation=90.000|XOffset=0mm|YOffset=0mm|HoleType=Round|Shape=RoundedRectangle|*
%AMROUNDEDRECTD22*
21,1,1.3000,0.6000,0,0,90.0*
21,1,1.1000,0.8000,0,0,90.0*
1,1,0.2000,0.3000,0.5500*
1,1,0.2000,0.3000,-0.5500*
1,1,0.2000,-0.3000,-0.5500*
1,1,0.2000,-0.3000,0.5500*
%
%ADD22ROUNDEDRECTD22*%
%ADD23R,0.9000X2.4000*%
%ADD24R,0.8000X1.4000*%
%ADD25R,1.4000X0.8000*%
%ADD26R,2.4000X3.4000*%
%ADD27R,1.4478X4.1910*%
%ADD28C,1.0000*%
%ADD29R,2.7000X3.6000*%
%ADD30R,3.0000X1.8000*%
%ADD31R,2.0200X2.9500*%
%ADD32R,1.5000X3.0000*%
%ADD33R,1.5600X2.2200*%
%ADD34R,2.0000X3.2000*%
%ADD35R,1.9812X0.5588*%
%ADD36O,1.4000X0.6000*%
%ADD37R,1.0500X0.4000*%
%ADD38R,1.2000X0.6000*%
%ADD39R,2.4000X0.9000*%
%ADD40R,5.0000X5.0000*%
%ADD41R,1.0000X2.7000*%
%ADD42R,3.3000X2.7000*%
G04:AMPARAMS|DCode=43|XSize=1.4mm|YSize=1.8mm|CornerRadius=0.14mm|HoleSize=0mm|Usage=FLASHONLY|Rotation=90.000|XOffset=0mm|YOffset=0mm|HoleType=Round|Shape=RoundedRectangle|*
%AMROUNDEDRECTD43*
21,1,1.4000,1.5200,0,0,90.0*
21,1,1.1200,1.8000,0,0,90.0*
1,1,0.2800,0.7600,0.5600*
1,1,0.2800,0.7600,-0.5600*
1,1,0.2800,-0.7600,-0.5600*
1,1,0.2800,-0.7600,0.5600*
%
%ADD43ROUNDEDRECTD43*%
G04:AMPARAMS|DCode=44|XSize=1.4mm|YSize=1.8mm|CornerRadius=0.14mm|HoleSize=0mm|Usage=FLASHONLY|Rotation=90.000|XOffset=0mm|YOffset=0mm|HoleType=Round|Shape=RoundedRectangle|*
%AMROUNDEDRECTD44*
21,1,1.4000,1.5200,0,0,90.0*
21,1,1.1200,1.8000,0,0,90.0*
1,1,0.2800,0.7600,0.5600*
1,1,0.2800,0.7600,-0.5600*
1,1,0.2800,-0.7600,-0.5600*
1,1,0.2800,-0.7600,0.5600*
%
%ADD44ROUNDEDRECTD44*%
%ADD45R,1.7780X1.7780*%
%ADD46R,1.7780X1.7780*%
%ADD47R,1.1684X0.5334*%
%ADD48R,1.0160X1.0160*%
%ADD49R,1.0160X1.2700*%
%ADD50R,1.0000X0.9144*%
%ADD51R,1.2700X0.9144*%
%ADD52R,1.5000X1.1000*%
%ADD53R,1.5240X1.1000*%
%ADD54R,3.1500X2.3000*%
%ADD90C,1.5494*%
%ADD97C,2.0000*%
%ADD133C,1.5080*%
%ADD134R,1.5080X1.5080*%
%ADD135R,1.5080X1.5080*%
G04:AMPARAMS|DCode=136|XSize=2.6mm|YSize=3.5mm|CornerRadius=0.65mm|HoleSize=0mm|Usage=FLASHONLY|Rotation=0.000|XOffset=0mm|YOffset=0mm|HoleType=Round|Shape=RoundedRectangle|*
%AMROUNDEDRECTD136*
21,1,2.6000,2.2000,0,0,0.0*
21,1,1.3000,3.5000,0,0,0.0*
1,1,1.3000,0.6500,-1.1000*
1,1,1.3000,-0.6500,-1.1000*
1,1,1.3000,-0.6500,1.1000*
1,1,1.3000,0.6500,1.1000*
%
%ADD136ROUNDEDRECTD136*%
%ADD137C,1.6000*%
%ADD138O,1.6000X1.4000*%
%ADD139R,1.6000X1.6000*%
%ADD140C,3.0000*%
%ADD141R,1.6000X1.6000*%
%ADD142R,2.8000X2.8000*%
%ADD143C,2.8000*%
%ADD144R,2.0000X2.0000*%
%ADD145R,2.2000X2.2000*%
%ADD146C,2.2000*%
%ADD147O,2.0000X1.8000*%
%ADD148R,2.0000X1.8000*%
%ADD149C,5.0000*%
%ADD150R,1.8000X2.0000*%
%ADD151O,1.8000X2.0000*%
%ADD152O,3.3020X4.5720*%
%ADD153O,4.5720X3.3020*%
%ADD154R,1.3080X1.3080*%
%ADD155C,1.3080*%
%ADD156C,0.9000*%
%ADD157R,0.9000X0.9000*%
%ADD158O,2.0000X1.2000*%
%ADD159R,2.0000X1.2000*%
G54D22*
X545940Y885444D02*
D03*
X525940D02*
D03*
X563974Y909828D02*
D03*
X543974D02*
D03*
G54D23*
X181356Y572770D02*
D03*
X168656D02*
D03*
X206756D02*
D03*
X232156Y742770D02*
D03*
X143256D02*
D03*
X168656D02*
D03*
X79756Y572770D02*
D03*
X92456D02*
D03*
X105156D02*
D03*
X117856D02*
D03*
X130556D02*
D03*
X143256D02*
D03*
X194056D02*
D03*
X219456D02*
D03*
X232156D02*
D03*
X244856D02*
D03*
Y742770D02*
D03*
X219456D02*
D03*
X206756D02*
D03*
X194056D02*
D03*
X181356D02*
D03*
X155956D02*
D03*
X130556D02*
D03*
X117856D02*
D03*
X105156D02*
D03*
X92456D02*
D03*
X79756D02*
D03*
X155956Y572770D02*
D03*
G54D24*
X394114Y156210D02*
D03*
X619600Y758698D02*
D03*
X599600D02*
D03*
X84488Y522732D02*
D03*
X104488D02*
D03*
X783430Y758952D02*
D03*
X763430D02*
D03*
X690786Y577850D02*
D03*
X710786D02*
D03*
X78900Y822452D02*
D03*
X98900D02*
D03*
X763364Y855228D02*
D03*
X743364D02*
D03*
X402846Y877682D02*
D03*
X422846D02*
D03*
X1327564Y922274D02*
D03*
X1347564D02*
D03*
X488343Y855772D02*
D03*
X508343D02*
D03*
X414114Y133604D02*
D03*
X394114D02*
D03*
X414114Y156210D02*
D03*
X284480Y141478D02*
D03*
X304480D02*
D03*
X134620Y117348D02*
D03*
X154620D02*
D03*
X385126Y336962D02*
D03*
X405126D02*
D03*
X287180Y71628D02*
D03*
X307180D02*
D03*
X385126Y314452D02*
D03*
X405126D02*
D03*
X307020Y49238D02*
D03*
X287020D02*
D03*
X693674Y854710D02*
D03*
X713674D02*
D03*
X488343Y879206D02*
D03*
X508343D02*
D03*
X233840Y80518D02*
D03*
X253840D02*
D03*
X123604Y511556D02*
D03*
X143604D02*
D03*
X181930Y140208D02*
D03*
X201930D02*
D03*
X181930Y117348D02*
D03*
X201930D02*
D03*
X103726Y500634D02*
D03*
X83726D02*
D03*
Y457200D02*
D03*
X103726D02*
D03*
Y479044D02*
D03*
X83726D02*
D03*
X127160Y269748D02*
D03*
X147160D02*
D03*
X528988Y578104D02*
D03*
X548988D02*
D03*
X417670Y519938D02*
D03*
X397670D02*
D03*
X417924Y497332D02*
D03*
X397924D02*
D03*
X417924Y474472D02*
D03*
X397924D02*
D03*
X948530Y758952D02*
D03*
X928530D02*
D03*
X856394Y577342D02*
D03*
X876394D02*
D03*
G54D25*
X462026Y810420D02*
D03*
Y830420D02*
D03*
X644652Y577944D02*
D03*
Y557944D02*
D03*
X657860Y809338D02*
D03*
Y789338D02*
D03*
X1327150Y878238D02*
D03*
Y898238D02*
D03*
X457410Y922424D02*
D03*
Y902424D02*
D03*
X632968Y857664D02*
D03*
Y877664D02*
D03*
X507492Y830420D02*
D03*
Y810420D02*
D03*
X346202Y713646D02*
D03*
Y733646D02*
D03*
X370586Y733552D02*
D03*
Y713552D02*
D03*
X396494Y714060D02*
D03*
Y734060D02*
D03*
X423164Y733552D02*
D03*
Y713552D02*
D03*
X279654Y179164D02*
D03*
Y159164D02*
D03*
X255524Y179238D02*
D03*
Y159238D02*
D03*
X211074Y179238D02*
D03*
Y159238D02*
D03*
X233276D02*
D03*
Y179238D02*
D03*
X205994Y890938D02*
D03*
Y910938D02*
D03*
X230124D02*
D03*
Y890938D02*
D03*
X254254D02*
D03*
Y910938D02*
D03*
X278384D02*
D03*
Y890938D02*
D03*
X372110Y112108D02*
D03*
Y92108D02*
D03*
X99060Y161638D02*
D03*
Y141638D02*
D03*
X810514Y901540D02*
D03*
Y881540D02*
D03*
X680974Y809338D02*
D03*
Y789338D02*
D03*
X434550Y922424D02*
D03*
Y902424D02*
D03*
X484632Y830420D02*
D03*
Y810420D02*
D03*
X285750Y100998D02*
D03*
Y120998D02*
D03*
X308610Y100998D02*
D03*
Y120998D02*
D03*
X161290Y460342D02*
D03*
Y440342D02*
D03*
X185420D02*
D03*
Y460342D02*
D03*
X490220Y581500D02*
D03*
Y561500D02*
D03*
X402590Y434246D02*
D03*
Y454246D02*
D03*
X427990Y434246D02*
D03*
Y454246D02*
D03*
X536702Y472346D02*
D03*
Y492346D02*
D03*
X450850Y433992D02*
D03*
Y453992D02*
D03*
X511556Y472346D02*
D03*
Y492346D02*
D03*
X322834Y475902D02*
D03*
Y495902D02*
D03*
X348234Y475902D02*
D03*
Y495902D02*
D03*
X81534Y778924D02*
D03*
Y798924D02*
D03*
X819912Y578452D02*
D03*
Y558452D02*
D03*
G54D26*
X630638Y166878D02*
D03*
X688638D02*
D03*
X568750Y265430D02*
D03*
X510750D02*
D03*
G54D27*
X668274Y537718D02*
D03*
X702818D02*
D03*
X548132Y540004D02*
D03*
X513588D02*
D03*
X841756Y539496D02*
D03*
X876300D02*
D03*
G54D28*
X435610Y811022D02*
D03*
X636016Y809498D02*
D03*
X477012Y910844D02*
D03*
X287020Y497586D02*
D03*
G54D29*
X497996Y265430D02*
D03*
X580996D02*
D03*
X615246Y166116D02*
D03*
X698246D02*
D03*
G54D30*
X84836Y201968D02*
D03*
Y251968D02*
D03*
G54D31*
X1145432Y128778D02*
D03*
X1195432D02*
D03*
G54D32*
X927692Y618744D02*
D03*
X851492D02*
D03*
X876892D02*
D03*
X927692Y720344D02*
D03*
X851492D02*
D03*
X763778Y618744D02*
D03*
X687578D02*
D03*
X712978D02*
D03*
X763778Y720344D02*
D03*
X687578D02*
D03*
X523748D02*
D03*
X599948D02*
D03*
X549148Y618744D02*
D03*
X523748D02*
D03*
X599948D02*
D03*
G54D33*
X1152002Y129540D02*
D03*
X1191402D02*
D03*
G54D34*
X966978Y924814D02*
D03*
X1031978D02*
D03*
X967244Y966216D02*
D03*
X1032244D02*
D03*
X1094728Y634238D02*
D03*
X1029728D02*
D03*
X1029474Y588772D02*
D03*
X1094474D02*
D03*
G54D35*
X694690Y873252D02*
D03*
Y885952D02*
D03*
Y898652D02*
D03*
Y911352D02*
D03*
X741934D02*
D03*
Y898652D02*
D03*
Y885952D02*
D03*
Y873252D02*
D03*
G54D36*
X702870Y810006D02*
D03*
Y784606D02*
D03*
X772870Y810006D02*
D03*
Y784606D02*
D03*
X538532Y856234D02*
D03*
Y830834D02*
D03*
X608532Y856234D02*
D03*
Y830834D02*
D03*
X609040Y785622D02*
D03*
Y811022D02*
D03*
X539040Y785622D02*
D03*
Y811022D02*
D03*
G54D37*
X468788Y878594D02*
D03*
Y865594D02*
D03*
X444788D02*
D03*
Y872094D02*
D03*
Y878594D02*
D03*
G54D38*
X260650Y124308D02*
D03*
Y114808D02*
D03*
Y105308D02*
D03*
X234650D02*
D03*
Y114808D02*
D03*
Y124308D02*
D03*
X160320Y159868D02*
D03*
Y150368D02*
D03*
Y140868D02*
D03*
X134320D02*
D03*
Y150368D02*
D03*
Y159868D02*
D03*
G54D39*
X254856Y600620D02*
D03*
Y613320D02*
D03*
Y626020D02*
D03*
Y638720D02*
D03*
Y651420D02*
D03*
Y664120D02*
D03*
Y676820D02*
D03*
Y689520D02*
D03*
Y702220D02*
D03*
Y714920D02*
D03*
G54D40*
X155856Y647770D02*
D03*
G54D41*
X326249Y522947D02*
D03*
X349249D02*
D03*
X372249D02*
D03*
G54D42*
X349249Y581947D02*
D03*
G54D43*
X786130Y869936D02*
D03*
G54D44*
Y899936D02*
D03*
G54D45*
X784098Y927608D02*
D03*
X818388D02*
D03*
X851916Y965962D02*
D03*
X817626D02*
D03*
X138430Y189484D02*
D03*
X172720D02*
D03*
X128524Y484886D02*
D03*
X162814D02*
D03*
X510032Y447548D02*
D03*
X475742D02*
D03*
G54D46*
X962152Y563880D02*
D03*
Y529590D02*
D03*
X992124Y563880D02*
D03*
Y529590D02*
D03*
G54D47*
X1368552Y888492D02*
D03*
X1348232Y878992D02*
D03*
Y897992D02*
D03*
G54D48*
X393954Y113792D02*
D03*
X413766D02*
D03*
G54D49*
X403860Y92964D02*
D03*
G54D50*
X349250Y112649D02*
D03*
Y93599D02*
D03*
G54D51*
X328930Y103251D02*
D03*
G54D52*
X934085Y923364D02*
D03*
X877085D02*
D03*
G54D53*
X934085Y964364D02*
D03*
X877085D02*
D03*
G54D54*
X85090Y192068D02*
D03*
Y261068D02*
D03*
G54D90*
X302006Y293624D02*
D03*
Y318624D02*
D03*
Y419354D02*
D03*
Y394354D02*
D03*
X727710Y956111D02*
D03*
X702710D02*
D03*
X349358D02*
D03*
X324358D02*
D03*
G54D97*
X1207678Y503486D02*
D03*
X1132678Y542486D02*
D03*
X1298390Y201076D02*
D03*
X1259390Y126076D02*
D03*
X1299972Y262708D02*
D03*
X1299972Y457708D02*
D03*
X1374882Y52070D02*
D03*
X972056Y473888D02*
D03*
X1122056D02*
D03*
X972058Y373888D02*
D03*
X1122056D02*
D03*
X1263904Y903706D02*
D03*
X1365446Y201076D02*
D03*
X1326446Y126076D02*
D03*
G54D133*
X31496Y371818D02*
D03*
Y396818D02*
D03*
Y346818D02*
D03*
Y499764D02*
D03*
Y524764D02*
D03*
Y474764D02*
D03*
X518614Y951568D02*
D03*
X493614D02*
D03*
X543614D02*
D03*
G54D134*
X31496Y321818D02*
D03*
Y449764D02*
D03*
G54D135*
X568614Y951568D02*
D03*
G54D136*
X741368Y36830D02*
D03*
X911368Y37830D02*
D03*
X956368D02*
D03*
X1000368D02*
D03*
X1046368D02*
D03*
X785368Y36830D02*
D03*
X926946Y364482D02*
D03*
X880946D02*
D03*
X836946D02*
D03*
X791946D02*
D03*
X665946Y363482D02*
D03*
X621946D02*
D03*
G54D137*
X1070356Y245580D02*
D03*
Y195580D02*
D03*
X572516Y34182D02*
D03*
X759098Y262382D02*
D03*
X762092Y178562D02*
D03*
X837092D02*
D03*
X667258Y276352D02*
D03*
X673100Y74904D02*
D03*
X891432Y223266D02*
D03*
X727548Y505460D02*
D03*
X802548D02*
D03*
X566166Y371348D02*
D03*
X1292894Y565058D02*
D03*
Y490058D02*
D03*
G54D138*
X1097046Y52070D02*
D03*
G54D139*
X572516Y84182D02*
D03*
X673100Y39904D02*
D03*
G54D140*
X1118892Y320603D02*
D03*
X968891D02*
D03*
G54D141*
X809098Y262382D02*
D03*
X632258Y276352D02*
D03*
X941432Y223266D02*
D03*
X516166Y371348D02*
D03*
G54D142*
X1194054Y184404D02*
D03*
G54D143*
Y404404D02*
D03*
G54D144*
X1263904Y868706D02*
D03*
G54D145*
X1375340Y846274D02*
D03*
G54D146*
X1450340D02*
D03*
X1375340Y643274D02*
D03*
X1450340D02*
D03*
X1375340Y592874D02*
D03*
X1450340D02*
D03*
X1375340Y693674D02*
D03*
X1450340D02*
D03*
G54D147*
X444754Y21336D02*
D03*
Y46736D02*
D03*
Y72136D02*
D03*
Y97536D02*
D03*
Y122936D02*
D03*
G54D148*
Y148336D02*
D03*
G54D149*
X1448730Y952286D02*
D03*
Y52286D02*
D03*
X48730Y952286D02*
D03*
Y52286D02*
D03*
G54D150*
X127254Y958378D02*
D03*
X423164Y760730D02*
D03*
G54D151*
X152654Y958378D02*
D03*
X178054D02*
D03*
X203454D02*
D03*
X228854D02*
D03*
X254254D02*
D03*
X346964Y760730D02*
D03*
X372364D02*
D03*
X397764D02*
D03*
G54D152*
X1118870Y937514D02*
D03*
X1169670D02*
D03*
G54D153*
X1440000Y450038D02*
D03*
Y399238D02*
D03*
Y500838D02*
D03*
X1439672Y207772D02*
D03*
Y156972D02*
D03*
Y258572D02*
D03*
G54D154*
X398780Y963412D02*
D03*
G54D155*
X418780D02*
D03*
G54D156*
X252500Y44238D02*
D03*
G54D157*
X240000D02*
D03*
G54D158*
X41148Y819084D02*
D03*
Y839084D02*
D03*
G54D159*
Y799084D02*
D03*
M02*
