G04*
G04 #@! TF.GenerationSoftware,Altium Limited,Altium Designer,22.5.1 (42)*
G04*
G04 Layer_Color=16711935*
%FSLAX44Y44*%
%MOMM*%
G71*
G04*
G04 #@! TF.SameCoordinates,325B58FB-DF44-4075-A057-A786A272C4E4*
G04*
G04*
G04 #@! TF.FilePolarity,Positive*
G04*
G01*
G75*
%ADD10C,0.5080*%
%ADD11C,0.2000*%
%ADD18C,0.1270*%
%ADD19C,0.2030*%
%ADD20C,0.1000*%
%ADD192C,0.4000*%
%ADD193C,0.0000*%
%ADD195C,0.0254*%
%ADD196C,0.0500*%
G54D10*
X286766Y293624D02*
X285875Y296073D01*
X283618Y297376D01*
X281051Y296924D01*
X279376Y294927D01*
Y292321D01*
X281051Y290324D01*
X283618Y289872D01*
X285875Y291175D01*
X286766Y293624D01*
Y394354D02*
X285875Y396803D01*
X283618Y398106D01*
X281051Y397654D01*
X279376Y395657D01*
Y393051D01*
X281051Y391054D01*
X283618Y390602D01*
X285875Y391905D01*
X286766Y394354D01*
X706520Y975161D02*
X705629Y977610D01*
X703372Y978913D01*
X700805Y978461D01*
X699130Y976464D01*
Y973858D01*
X700805Y971861D01*
X703372Y971409D01*
X705629Y972712D01*
X706520Y975161D01*
X328168D02*
X327277Y977610D01*
X325020Y978913D01*
X322453Y978461D01*
X320778Y976464D01*
Y973858D01*
X322453Y971861D01*
X325020Y971409D01*
X327277Y972712D01*
X328168Y975161D01*
G54D11*
X32496Y289318D02*
X30496D01*
X32496D01*
Y417264D02*
X30496D01*
X32496D01*
X602114Y951568D02*
X600114D01*
X602114D01*
X421276Y959298D02*
X419276D01*
X421276D01*
X1079396Y837562D02*
X1193396D01*
X1079396Y789562D02*
Y837562D01*
Y789562D02*
X1193396D01*
Y837562D01*
G54D18*
X65496Y297318D02*
Y421318D01*
X7996Y297318D02*
X65496D01*
X7996D02*
Y421318D01*
X65496D01*
Y425264D02*
Y549264D01*
X7996Y425264D02*
X65496D01*
X7996D02*
Y549264D01*
X65496D01*
X469114Y985568D02*
X593114D01*
Y928068D02*
Y985568D01*
X469114Y928068D02*
X593114D01*
X469114D02*
Y985568D01*
X1349340Y869774D02*
X1476340D01*
X1349340Y579774D02*
Y869774D01*
Y579774D02*
X1476340D01*
Y869774D01*
X379280Y935912D02*
X438280D01*
Y980912D01*
X379280D02*
X438280D01*
X379280Y935912D02*
Y980912D01*
X267500Y32738D02*
Y64738D01*
X225000D02*
X267500D01*
X225000Y32738D02*
Y64738D01*
Y32738D02*
X267500D01*
G54D19*
X493567Y46637D02*
Y98636D01*
X467567Y46637D02*
X493567D01*
X467567D02*
Y98636D01*
X493567D01*
X518076Y327105D02*
Y353105D01*
Y327105D02*
X570075D01*
Y353105D01*
X518076D02*
X570075D01*
X232652Y100308D02*
X262400D01*
X232777Y129308D02*
X262400D01*
Y100308D02*
Y129308D01*
X232652Y100309D02*
Y129309D01*
X66306Y567770D02*
X259856D01*
X66306Y747770D02*
X259856D01*
X66306Y567770D02*
Y747770D01*
X259856Y567770D02*
Y747770D01*
X132322Y135868D02*
X162070D01*
X132447Y164868D02*
X162070D01*
Y135868D02*
Y164868D01*
X132322Y135869D02*
Y164869D01*
G54D20*
X761870Y785306D02*
X761200Y787806D01*
X759370Y789636D01*
X756870Y790306D01*
X754370Y789636D01*
X752540Y787806D01*
X751870Y785306D01*
X752540Y782806D01*
X754370Y780976D01*
X756870Y780306D01*
X759370Y780976D01*
X761200Y782806D01*
X761870Y785306D01*
X559532Y855534D02*
X558862Y858034D01*
X557032Y859864D01*
X554532Y860534D01*
X552032Y859864D01*
X550202Y858034D01*
X549532Y855534D01*
X550202Y853034D01*
X552032Y851204D01*
X554532Y850534D01*
X557032Y851204D01*
X558862Y853034D01*
X559532Y855534D01*
X598040Y786322D02*
X597370Y788822D01*
X595540Y790652D01*
X593040Y791322D01*
X590540Y790652D01*
X588710Y788822D01*
X588040Y786322D01*
X588710Y783822D01*
X590540Y781992D01*
X593040Y781322D01*
X595540Y781992D01*
X597370Y783822D01*
X598040Y786322D01*
X574050Y233080D02*
Y297780D01*
X505450Y233080D02*
X574050D01*
X505450Y297780D02*
X574050D01*
X505450Y233080D02*
Y297780D01*
X692414Y134782D02*
Y199482D01*
X623814Y134782D02*
X692414D01*
X623814Y199482D02*
X692414D01*
X623814Y134782D02*
Y199482D01*
X491942Y405054D02*
Y484454D01*
Y405054D02*
X550982D01*
Y484454D01*
X491942D02*
X550982D01*
X491942Y472954D02*
X503442Y484454D01*
X1139932Y142228D02*
X1200932D01*
Y115328D02*
Y142228D01*
X1139932Y115328D02*
X1200932D01*
X1139932D02*
Y142228D01*
X1148702Y139540D02*
X1194702D01*
Y119540D02*
Y139540D01*
X1148702Y119540D02*
X1194702D01*
X1148702D02*
Y139540D01*
X709870Y818306D02*
X765870D01*
X709870Y776306D02*
X765870D01*
X709870D02*
Y818306D01*
X765870Y776306D02*
Y818306D01*
X545532Y822534D02*
Y864534D01*
X601532Y822534D02*
Y864534D01*
X545532D02*
X601532D01*
X545532Y822534D02*
X601532D01*
X450039Y861094D02*
X463538D01*
X450039Y883094D02*
X463538D01*
Y861094D02*
Y883094D01*
X450039Y861094D02*
Y883094D01*
X602040Y777322D02*
Y819322D01*
X546040Y777322D02*
Y819322D01*
Y777322D02*
X602040D01*
X546040Y819322D02*
X602040D01*
X315749Y533947D02*
X382749D01*
X315749Y570947D02*
X382749D01*
X315749Y533947D02*
Y570947D01*
X382749Y533947D02*
Y570947D01*
X103110Y266268D02*
X114610Y254768D01*
X55570Y266268D02*
X114610D01*
X55570Y186868D02*
Y266268D01*
Y186868D02*
X114610D01*
Y266268D01*
G54D192*
X1377340Y846274D02*
X1375958Y848176D01*
X1373722Y847450D01*
Y845098D01*
X1375958Y844372D01*
X1377340Y846274D01*
G54D193*
X1130928Y774910D02*
X1130084Y777228D01*
X1127948Y778461D01*
X1125519Y778033D01*
X1123934Y776143D01*
Y773677D01*
X1125519Y771787D01*
X1127948Y771359D01*
X1130084Y772592D01*
X1130928Y774910D01*
X1355217Y900938D02*
X1353312Y902038D01*
Y899838D01*
X1355217Y900938D01*
G54D195*
X278602Y269211D02*
Y343125D01*
Y269211D02*
X336006D01*
Y343125D01*
X278602D02*
X336006D01*
X278602Y443855D02*
X336006D01*
Y369941D02*
Y443855D01*
X278602Y369941D02*
X336006D01*
X278602D02*
Y443855D01*
X752211Y922111D02*
Y979515D01*
X678297Y922111D02*
X752211D01*
X678297D02*
Y979515D01*
X752211D01*
X373859Y922111D02*
Y979515D01*
X299945Y922111D02*
X373859D01*
X299945D02*
Y979515D01*
X373859D01*
X1194054Y360335D02*
Y404404D01*
X1218057Y230287D02*
Y360335D01*
X1170051D02*
X1218057D01*
X1170051Y230287D02*
Y360335D01*
Y230287D02*
X1218057D01*
X1351407Y903478D02*
X1365377D01*
Y873506D02*
Y903478D01*
X1351407Y873506D02*
X1365377D01*
X1351407D02*
Y903478D01*
X1365377Y890905D02*
X1370838D01*
Y886079D02*
Y890905D01*
X1365377Y886079D02*
X1370838D01*
X1365377D02*
Y890905D01*
X1345946Y876579D02*
X1351407D01*
X1345946D02*
Y881405D01*
X1351407D01*
Y876579D02*
Y881405D01*
X1345946Y895579D02*
X1351407D01*
X1345946D02*
Y900405D01*
X1351407D01*
Y895579D02*
Y900405D01*
G54D196*
X541940Y892194D02*
X546940D01*
Y878694D02*
Y892194D01*
X541940Y878694D02*
Y892194D01*
Y878694D02*
X546940D01*
X524940Y892194D02*
X529940D01*
Y878694D02*
Y892194D01*
X524940Y878694D02*
X529940D01*
X524940D02*
Y892194D01*
X529940Y878704D02*
X541940D01*
X529940D02*
X541940Y878709D01*
X529940Y892179D02*
X541940Y892184D01*
X529940Y892179D02*
X541940Y892184D01*
X559974Y916578D02*
X564974D01*
Y903078D02*
Y916578D01*
X559974Y903078D02*
Y916578D01*
Y903078D02*
X564974D01*
X542974Y916578D02*
X547974D01*
Y903078D02*
Y916578D01*
X542974Y903078D02*
X547974D01*
X542974D02*
Y916578D01*
X547974Y903088D02*
X559974D01*
X547974D02*
X559974Y903093D01*
X547974Y916563D02*
X559974Y916568D01*
X547974Y916563D02*
X559974Y916568D01*
M02*
