G04*
G04 #@! TF.GenerationSoftware,Altium Limited,Altium Designer,22.5.1 (42)*
G04*
G04 Layer_Color=128*
%FSLAX44Y44*%
%MOMM*%
G71*
G04*
G04 #@! TF.SameCoordinates,325B58FB-DF44-4075-A057-A786A272C4E4*
G04*
G04*
G04 #@! TF.FilePolarity,Positive*
G04*
G01*
G75*
%ADD198C,0.0508*%
G54D198*
X296799Y293624D02*
X307213D01*
X302006Y288417D02*
Y298831D01*
X296799Y318624D02*
X307213D01*
X302006Y313417D02*
Y323831D01*
X296799Y419354D02*
X307213D01*
X302006Y414147D02*
Y424561D01*
X296799Y394354D02*
X307213D01*
X302006Y389147D02*
Y399561D01*
X26496Y371818D02*
X36496D01*
X31496Y366818D02*
Y376818D01*
X26496Y396818D02*
X36496D01*
X31496Y391818D02*
Y401818D01*
X26496Y346818D02*
X36496D01*
X31496Y341818D02*
Y351818D01*
X26496Y321818D02*
X36496D01*
X31496Y316818D02*
Y326818D01*
X26496Y499764D02*
X36496D01*
X31496Y494764D02*
Y504764D01*
X26496Y524764D02*
X36496D01*
X31496Y519764D02*
Y529764D01*
X26496Y474764D02*
X36496D01*
X31496Y469764D02*
Y479764D01*
X26496Y449764D02*
X36496D01*
X31496Y444764D02*
Y454764D01*
X722503Y956111D02*
X732917D01*
X727710Y950904D02*
Y961318D01*
X697503Y956111D02*
X707917D01*
X702710Y950904D02*
Y961318D01*
X513614Y951568D02*
X523614D01*
X518614Y946568D02*
Y956568D01*
X488614Y951568D02*
X498614D01*
X493614Y946568D02*
Y956568D01*
X538614Y951568D02*
X548614D01*
X543614Y946568D02*
Y956568D01*
X563614Y951568D02*
X573614D01*
X568614Y946568D02*
Y956568D01*
X344151Y956111D02*
X354565D01*
X349358Y950904D02*
Y961318D01*
X319151Y956111D02*
X329565D01*
X324358Y950904D02*
Y961318D01*
X1202678Y503486D02*
X1212678D01*
X1207678Y498486D02*
Y508486D01*
X1127678Y542486D02*
X1137678D01*
X1132678Y537486D02*
Y547486D01*
X731868Y36830D02*
X750868D01*
X741368Y27330D02*
Y46330D01*
X901868Y37830D02*
X920868D01*
X911368Y28330D02*
Y47330D01*
X946868Y37830D02*
X965868D01*
X956368Y28330D02*
Y47330D01*
X990868Y37830D02*
X1009868D01*
X1000368Y28330D02*
Y47330D01*
X1036868Y37830D02*
X1055868D01*
X1046368Y28330D02*
Y47330D01*
X775868Y36830D02*
X794868D01*
X785368Y27330D02*
Y46330D01*
X1066356Y245580D02*
X1074356D01*
X1070356Y241580D02*
Y249580D01*
X1066356Y195580D02*
X1074356D01*
X1070356Y191580D02*
Y199580D01*
X1293390Y201076D02*
X1303390D01*
X1298390Y196076D02*
Y206076D01*
X1254390Y126076D02*
X1264390D01*
X1259390Y121076D02*
Y131076D01*
X1294972Y262708D02*
X1304972D01*
X1299972Y257708D02*
Y267708D01*
X1294972Y457708D02*
X1304972D01*
X1299972Y452708D02*
Y462708D01*
X1368882Y52070D02*
X1380882D01*
X1374882Y46070D02*
Y58070D01*
X1092046Y52070D02*
X1102046D01*
X1097046Y47070D02*
Y57070D01*
X568516Y84182D02*
X576516D01*
X572516Y80182D02*
Y88182D01*
X568516Y34182D02*
X576516D01*
X572516Y30182D02*
Y38182D01*
X1113892Y320603D02*
X1123892D01*
X1118892Y315603D02*
Y325603D01*
X963891Y320603D02*
X973891D01*
X968891Y315603D02*
Y325603D01*
X966056Y473888D02*
X978056D01*
X972056Y467888D02*
Y479888D01*
X1116056Y473888D02*
X1128056D01*
X1122056Y467888D02*
Y479888D01*
X966058Y373888D02*
X978058D01*
X972058Y367888D02*
Y379888D01*
X1116056Y373888D02*
X1128056D01*
X1122056Y367888D02*
Y379888D01*
X755098Y262382D02*
X763098D01*
X759098Y258382D02*
Y266382D01*
X805098Y262382D02*
X813098D01*
X809098Y258382D02*
Y266382D01*
X917446Y364482D02*
X936446D01*
X926946Y354982D02*
Y373982D01*
X871446Y364482D02*
X890446D01*
X880946Y354982D02*
Y373982D01*
X827446Y364482D02*
X846446D01*
X836946Y354982D02*
Y373982D01*
X782446Y364482D02*
X801446D01*
X791946Y354982D02*
Y373982D01*
X656446Y363482D02*
X675446D01*
X665946Y353982D02*
Y372982D01*
X612446Y363482D02*
X631446D01*
X621946Y353982D02*
Y372982D01*
X758092Y178562D02*
X766092D01*
X762092Y174562D02*
Y182562D01*
X833092Y178562D02*
X841092D01*
X837092Y174562D02*
Y182562D01*
X663258Y276352D02*
X671258D01*
X667258Y272352D02*
Y280352D01*
X628258Y276352D02*
X636258D01*
X632258Y272352D02*
Y280352D01*
X1187054Y184404D02*
X1201054D01*
X1194054Y177404D02*
Y191404D01*
X1187054Y404404D02*
X1201054D01*
X1194054Y397404D02*
Y411404D01*
X1258904Y868706D02*
X1268904D01*
X1263904Y863706D02*
Y873706D01*
X1259904Y903706D02*
X1267904D01*
X1263904Y899706D02*
Y907706D01*
X1368840Y846274D02*
X1381840D01*
X1375340Y839774D02*
Y852774D01*
X1443840Y846274D02*
X1456840D01*
X1450340Y839774D02*
Y852774D01*
X1368840Y643274D02*
X1381840D01*
X1375340Y636774D02*
Y649774D01*
X1443840Y643274D02*
X1456840D01*
X1450340Y636774D02*
Y649774D01*
X1368840Y592874D02*
X1381840D01*
X1375340Y586374D02*
Y599374D01*
X1443840Y592874D02*
X1456840D01*
X1450340Y586374D02*
Y599374D01*
X1368840Y693674D02*
X1381840D01*
X1375340Y687174D02*
Y700174D01*
X1443840Y693674D02*
X1456840D01*
X1450340Y687174D02*
Y700174D01*
X439754Y21336D02*
X449754D01*
X444754Y16336D02*
Y26336D01*
X439754Y46736D02*
X449754D01*
X444754Y41736D02*
Y51736D01*
X439754Y72136D02*
X449754D01*
X444754Y67136D02*
Y77136D01*
X439754Y97536D02*
X449754D01*
X444754Y92536D02*
Y102536D01*
X439754Y122936D02*
X449754D01*
X444754Y117936D02*
Y127936D01*
X439754Y148336D02*
X449754D01*
X444754Y143336D02*
Y153336D01*
X669100Y39904D02*
X677100D01*
X673100Y35904D02*
Y43904D01*
X669100Y74904D02*
X677100D01*
X673100Y70904D02*
Y78904D01*
X887432Y223266D02*
X895432D01*
X891432Y219266D02*
Y227266D01*
X937432Y223266D02*
X945432D01*
X941432Y219266D02*
Y227266D01*
X723548Y505460D02*
X731548D01*
X727548Y501460D02*
Y509460D01*
X798548Y505460D02*
X806548D01*
X802548Y501460D02*
Y509460D01*
X562166Y371348D02*
X570166D01*
X566166Y367348D02*
Y375348D01*
X512166Y371348D02*
X520166D01*
X516166Y367348D02*
Y375348D01*
X1432730Y952286D02*
X1464730D01*
X1448730Y936286D02*
Y968286D01*
X1432730Y52286D02*
X1464730D01*
X1448730Y36286D02*
Y68286D01*
X32730Y952286D02*
X64730D01*
X48730Y936286D02*
Y968286D01*
X32730Y52286D02*
X64730D01*
X48730Y36286D02*
Y68286D01*
X1360446Y201076D02*
X1370446D01*
X1365446Y196076D02*
Y206076D01*
X1321446Y126076D02*
X1331446D01*
X1326446Y121076D02*
Y131076D01*
X122254Y958378D02*
X132254D01*
X127254Y953378D02*
Y963378D01*
X147654Y958378D02*
X157654D01*
X152654Y953378D02*
Y963378D01*
X173054Y958378D02*
X183054D01*
X178054Y953378D02*
Y963378D01*
X198454Y958378D02*
X208454D01*
X203454Y953378D02*
Y963378D01*
X223854Y958378D02*
X233854D01*
X228854Y953378D02*
Y963378D01*
X249254Y958378D02*
X259254D01*
X254254Y953378D02*
Y963378D01*
X1111370Y937514D02*
X1126370D01*
X1118870Y930014D02*
Y945014D01*
X1162170Y937514D02*
X1177170D01*
X1169670Y930014D02*
Y945014D01*
X1432500Y450038D02*
X1447500D01*
X1440000Y442538D02*
Y457538D01*
X1432500Y399238D02*
X1447500D01*
X1440000Y391738D02*
Y406738D01*
X1432500Y500838D02*
X1447500D01*
X1440000Y493338D02*
Y508338D01*
X394780Y963412D02*
X402780D01*
X398780Y959412D02*
Y967412D01*
X414780Y963412D02*
X422780D01*
X418780Y959412D02*
Y967412D01*
X341964Y760730D02*
X351964D01*
X346964Y755730D02*
Y765730D01*
X367364Y760730D02*
X377364D01*
X372364Y755730D02*
Y765730D01*
X392764Y760730D02*
X402764D01*
X397764Y755730D02*
Y765730D01*
X418164Y760730D02*
X428164D01*
X423164Y755730D02*
Y765730D01*
X250000Y44238D02*
X255000D01*
X252500Y41738D02*
Y46738D01*
X237500Y44238D02*
X242500D01*
X240000Y41738D02*
Y46738D01*
X36898Y819084D02*
X45398D01*
X41148Y814834D02*
Y823334D01*
X36898Y799084D02*
X45398D01*
X41148Y794834D02*
Y803334D01*
X36898Y839084D02*
X45398D01*
X41148Y834834D02*
Y843334D01*
X1432172Y207772D02*
X1447172D01*
X1439672Y200272D02*
Y215272D01*
X1432172Y156972D02*
X1447172D01*
X1439672Y149472D02*
Y164472D01*
X1432172Y258572D02*
X1447172D01*
X1439672Y251072D02*
Y266072D01*
X1288894Y565058D02*
X1296894D01*
X1292894Y561058D02*
Y569058D01*
X1288894Y490058D02*
X1296894D01*
X1292894Y486058D02*
Y494058D01*
X710438Y939292D02*
X714502D01*
X712470Y937260D02*
Y941324D01*
X577596Y916178D02*
X581660D01*
X579628Y914146D02*
Y918210D01*
X664622Y936378D02*
X668686D01*
X666654Y934346D02*
Y938410D01*
X570484Y932434D02*
X574548D01*
X572516Y930402D02*
Y934466D01*
X1374394Y905510D02*
X1378458D01*
X1376426Y903478D02*
Y907542D01*
X290830Y534670D02*
X297942D01*
X294386Y531114D02*
Y538226D01*
X273812Y535432D02*
X277876D01*
X275844Y533400D02*
Y537464D01*
X192532Y169164D02*
X196596D01*
X194564Y167132D02*
Y171196D01*
X192024Y155956D02*
X196088D01*
X194056Y153924D02*
Y157988D01*
X214376Y94488D02*
X218440D01*
X216408Y92456D02*
Y96520D01*
X485902Y329692D02*
X493014D01*
X489458Y326136D02*
Y333248D01*
X137160Y47752D02*
X144272D01*
X140716Y44196D02*
Y51308D01*
X118110Y48514D02*
X125222D01*
X121666Y44958D02*
Y52070D01*
X230886Y684022D02*
X234950D01*
X232918Y681990D02*
Y686054D01*
X230378Y670814D02*
X234442D01*
X232410Y668782D02*
Y672846D01*
X83058Y118618D02*
X87122D01*
X85090Y116586D02*
Y120650D01*
X70866Y118618D02*
X74930D01*
X72898Y116586D02*
Y120650D01*
X641858Y973582D02*
X645922D01*
X643890Y971550D02*
Y975614D01*
X628650Y973582D02*
X632714D01*
X630682Y971550D02*
Y975614D01*
X159766Y766318D02*
X163830D01*
X161798Y764286D02*
Y768350D01*
X146558Y766826D02*
X150622D01*
X148590Y764794D02*
Y768858D01*
X405384Y594360D02*
X409448D01*
X407416Y592328D02*
Y596392D01*
X418592Y593852D02*
X422656D01*
X420624Y591820D02*
Y595884D01*
X402844Y784860D02*
X406908D01*
X404876Y782828D02*
Y786892D01*
X416052Y784352D02*
X420116D01*
X418084Y782320D02*
Y786384D01*
X452628Y652780D02*
X456692D01*
X454660Y650748D02*
Y654812D01*
X465836Y652272D02*
X469900D01*
X467868Y650240D02*
Y654304D01*
X329946Y235458D02*
X334010D01*
X331978Y233426D02*
Y237490D01*
X343154Y234950D02*
X347218D01*
X345186Y232918D02*
Y236982D01*
X179324Y903986D02*
X183388D01*
X181356Y901954D02*
Y906018D01*
X166116Y904494D02*
X170180D01*
X168148Y902462D02*
Y906526D01*
X455168Y973582D02*
X459232D01*
X457200Y971550D02*
Y975614D01*
X441960Y973582D02*
X446024D01*
X443992Y971550D02*
Y975614D01*
X290576Y969518D02*
X294640D01*
X292608Y967486D02*
Y971550D01*
X277368Y970026D02*
X281432D01*
X279400Y967994D02*
Y972058D01*
X852424Y643382D02*
X856488D01*
X854456Y641350D02*
Y645414D01*
X839216Y643890D02*
X843280D01*
X841248Y641858D02*
Y645922D01*
X689356D02*
X693420D01*
X691388Y643890D02*
Y647954D01*
X676148Y646430D02*
X680212D01*
X678180Y644398D02*
Y648462D01*
X528574Y644398D02*
X532638D01*
X530606Y642366D02*
Y646430D01*
X515366Y644906D02*
X519430D01*
X517398Y642874D02*
Y646938D01*
X105918Y395732D02*
X109982D01*
X107950Y393700D02*
Y397764D01*
X92710Y396240D02*
X96774D01*
X94742Y394208D02*
Y398272D01*
X293116Y215900D02*
X297180D01*
X295148Y213868D02*
Y217932D01*
X279908Y216408D02*
X283972D01*
X281940Y214376D02*
Y218440D01*
X158496Y325374D02*
X162560D01*
X160528Y323342D02*
Y327406D01*
X145288Y325882D02*
X149352D01*
X147320Y323850D02*
Y327914D01*
X171704Y325374D02*
X175768D01*
X173736Y323342D02*
Y327406D01*
X184912Y324866D02*
X188976D01*
X186944Y322834D02*
Y326898D01*
X116078Y65532D02*
X120142D01*
X118110Y63500D02*
Y67564D01*
X129286Y65024D02*
X133350D01*
X131318Y62992D02*
Y67056D01*
X589026Y869442D02*
X593090D01*
X591058Y867410D02*
Y871474D01*
X601980Y869696D02*
X606044D01*
X604012Y867664D02*
Y871728D01*
X1287018Y924306D02*
X1291082D01*
X1289050Y922274D02*
Y926338D01*
X143002Y726186D02*
X147066D01*
X145034Y724154D02*
Y728218D01*
X197866Y716427D02*
X201930D01*
X199898Y714395D02*
Y718459D01*
X288798Y517906D02*
X295910D01*
X292354Y514350D02*
Y521462D01*
X13716Y539496D02*
X17780D01*
X15748Y537464D02*
Y541528D01*
X53340Y539242D02*
X57404D01*
X55372Y537210D02*
Y541274D01*
X211328Y597916D02*
X215392D01*
X213360Y595884D02*
Y599948D01*
X205994Y655320D02*
X210058D01*
X208026Y653288D02*
Y657352D01*
X93218Y436880D02*
X97282D01*
X95250Y434848D02*
Y438912D01*
X141224Y524510D02*
X145288D01*
X143256Y522478D02*
Y526542D01*
X202946Y477520D02*
X207010D01*
X204978Y475488D02*
Y479552D01*
X185420Y706628D02*
X189484D01*
X187452Y704596D02*
Y708660D01*
X202438Y459232D02*
X206502D01*
X204470Y457200D02*
Y461264D01*
X160274Y426212D02*
X164338D01*
X162306Y424180D02*
Y428244D01*
X455168Y939038D02*
X459232D01*
X457200Y937006D02*
Y941070D01*
X484474Y894954D02*
X488538D01*
X486506Y892922D02*
Y896986D01*
X5842Y326898D02*
X9906D01*
X7874Y324866D02*
Y328930D01*
X89154Y289814D02*
X96266D01*
X92710Y286258D02*
Y293370D01*
X81280Y436880D02*
X85344D01*
X83312Y434848D02*
Y438912D01*
X613664Y870204D02*
X617728D01*
X615696Y868172D02*
Y872236D01*
X925322Y867410D02*
X929386D01*
X927354Y865378D02*
Y869442D01*
X947420Y852170D02*
X951484D01*
X949452Y850138D02*
Y854202D01*
X1017524Y885190D02*
X1021588D01*
X1019556Y883158D02*
Y887222D01*
X760476Y913384D02*
X764540D01*
X762508Y911352D02*
Y915416D01*
X377952Y967994D02*
X382016D01*
X379984Y965962D02*
Y970026D01*
X323342Y936752D02*
X327406D01*
X325374Y934720D02*
Y938784D01*
X373047Y869300D02*
X377111D01*
X375079Y867268D02*
Y871332D01*
X359918Y869300D02*
X363982D01*
X361950Y867268D02*
Y871332D01*
X296672Y480314D02*
X303784D01*
X300228Y476758D02*
Y483870D01*
X267462Y588518D02*
X271526D01*
X269494Y586486D02*
Y590550D01*
X228346Y650240D02*
X232410D01*
X230378Y648208D02*
Y652272D01*
X305308Y536448D02*
X312420D01*
X308864Y532892D02*
Y540004D01*
X305054Y518922D02*
X312166D01*
X308610Y515366D02*
Y522478D01*
X360426Y437134D02*
X367538D01*
X363982Y433578D02*
Y440690D01*
X376174Y437134D02*
X383286D01*
X379730Y433578D02*
Y440690D01*
X247904Y787146D02*
X251968D01*
X249936Y785114D02*
Y789178D01*
X214122Y684375D02*
X218186D01*
X216154Y682343D02*
Y686407D01*
X162814Y715264D02*
X166878D01*
X164846Y713232D02*
Y717296D01*
X108267Y254825D02*
X112331D01*
X110299Y252793D02*
Y256857D01*
X120459Y254825D02*
X124523D01*
X122491Y252793D02*
Y256857D01*
X359156Y313690D02*
X363220D01*
X361188Y311658D02*
Y315722D01*
X1356360Y264668D02*
X1360424D01*
X1358392Y262636D02*
Y266700D01*
X1356810Y246870D02*
X1360874D01*
X1358842Y244838D02*
Y248902D01*
X1293114Y534162D02*
X1297178D01*
X1295146Y532130D02*
Y536194D01*
X1293114Y371602D02*
X1297178D01*
X1295146Y369570D02*
Y373634D01*
X1293114Y330962D02*
X1297178D01*
X1295146Y328930D02*
Y332994D01*
X1303274Y310642D02*
X1307338D01*
X1305306Y308610D02*
Y312674D01*
X1293114Y290322D02*
X1297178D01*
X1295146Y288290D02*
Y292354D01*
X1293114Y168402D02*
X1297178D01*
X1295146Y166370D02*
Y170434D01*
X1303274Y148082D02*
X1307338D01*
X1305306Y146050D02*
Y150114D01*
X1293114Y127762D02*
X1297178D01*
X1295146Y125730D02*
Y129794D01*
X1282954Y635762D02*
X1287018D01*
X1284986Y633730D02*
Y637794D01*
X1272794Y574802D02*
X1276858D01*
X1274826Y572770D02*
Y576834D01*
X1272794Y534162D02*
X1276858D01*
X1274826Y532130D02*
Y536194D01*
X1272794Y371602D02*
X1276858D01*
X1274826Y369570D02*
Y373634D01*
X1272794Y330962D02*
X1276858D01*
X1274826Y328930D02*
Y332994D01*
X1282954Y310642D02*
X1287018D01*
X1284986Y308610D02*
Y312674D01*
X1272794Y290322D02*
X1276858D01*
X1274826Y288290D02*
Y292354D01*
X1272794Y168402D02*
X1276858D01*
X1274826Y166370D02*
Y170434D01*
X1282954Y148082D02*
X1287018D01*
X1284986Y146050D02*
Y150114D01*
X1272794Y87122D02*
X1276858D01*
X1274826Y85090D02*
Y89154D01*
X1252474Y412242D02*
X1256538D01*
X1254506Y410210D02*
Y414274D01*
X1262634Y391922D02*
X1266698D01*
X1264666Y389890D02*
Y393954D01*
X1252474Y371602D02*
X1256538D01*
X1254506Y369570D02*
Y373634D01*
X1262634Y351282D02*
X1266698D01*
X1264666Y349250D02*
Y353314D01*
X1252474Y330962D02*
X1256538D01*
X1254506Y328930D02*
Y332994D01*
X1262634Y310642D02*
X1266698D01*
X1264666Y308610D02*
Y312674D01*
X1252474Y290322D02*
X1256538D01*
X1254506Y288290D02*
Y292354D01*
X1262634Y270002D02*
X1266698D01*
X1264666Y267970D02*
Y272034D01*
X1252474Y249682D02*
X1256538D01*
X1254506Y247650D02*
Y251714D01*
X1262634Y229362D02*
X1266698D01*
X1264666Y227330D02*
Y231394D01*
X1252474Y209042D02*
X1256538D01*
X1254506Y207010D02*
Y211074D01*
X1262634Y188722D02*
X1266698D01*
X1264666Y186690D02*
Y190754D01*
X1252474Y168402D02*
X1256538D01*
X1254506Y166370D02*
Y170434D01*
X1262634Y148082D02*
X1266698D01*
X1264666Y146050D02*
Y150114D01*
X1262634Y66802D02*
X1266698D01*
X1264666Y64770D02*
Y68834D01*
X1232154Y412242D02*
X1236218D01*
X1234186Y410210D02*
Y414274D01*
X1242314Y391922D02*
X1246378D01*
X1244346Y389890D02*
Y393954D01*
X1232154Y371602D02*
X1236218D01*
X1234186Y369570D02*
Y373634D01*
X1242314Y351282D02*
X1246378D01*
X1244346Y349250D02*
Y353314D01*
X1232154Y330962D02*
X1236218D01*
X1234186Y328930D02*
Y332994D01*
X1242314Y310642D02*
X1246378D01*
X1244346Y308610D02*
Y312674D01*
X1232154Y290322D02*
X1236218D01*
X1234186Y288290D02*
Y292354D01*
X1242314Y270002D02*
X1246378D01*
X1244346Y267970D02*
Y272034D01*
X1232154Y249682D02*
X1236218D01*
X1234186Y247650D02*
Y251714D01*
X1242314Y229362D02*
X1246378D01*
X1244346Y227330D02*
Y231394D01*
X1232154Y168402D02*
X1236218D01*
X1234186Y166370D02*
Y170434D01*
X1232154Y127762D02*
X1236218D01*
X1234186Y125730D02*
Y129794D01*
X1242314Y107442D02*
X1246378D01*
X1244346Y105410D02*
Y109474D01*
X1232154Y87122D02*
X1236218D01*
X1234186Y85090D02*
Y89154D01*
X1242314Y66802D02*
X1246378D01*
X1244346Y64770D02*
Y68834D01*
X1232154Y46482D02*
X1236218D01*
X1234186Y44450D02*
Y48514D01*
X1221994Y432562D02*
X1226058D01*
X1224026Y430530D02*
Y434594D01*
X1211834Y371602D02*
X1215898D01*
X1213866Y369570D02*
Y373634D01*
X1221994Y351282D02*
X1226058D01*
X1224026Y349250D02*
Y353314D01*
X1221994Y310642D02*
X1226058D01*
X1224026Y308610D02*
Y312674D01*
X1221994Y270002D02*
X1226058D01*
X1224026Y267970D02*
Y272034D01*
X1221994Y229362D02*
X1226058D01*
X1224026Y227330D02*
Y231394D01*
X1221994Y188722D02*
X1226058D01*
X1224026Y186690D02*
Y190754D01*
X1221994Y148082D02*
X1226058D01*
X1224026Y146050D02*
Y150114D01*
X1221994Y107442D02*
X1226058D01*
X1224026Y105410D02*
Y109474D01*
X1211834Y87122D02*
X1215898D01*
X1213866Y85090D02*
Y89154D01*
X1191514Y534162D02*
X1195578D01*
X1193546Y532130D02*
Y536194D01*
X1191514Y371602D02*
X1195578D01*
X1193546Y369570D02*
Y373634D01*
X1201674Y351282D02*
X1205738D01*
X1203706Y349250D02*
Y353314D01*
X1191514Y330962D02*
X1195578D01*
X1193546Y328930D02*
Y332994D01*
X1201674Y310642D02*
X1205738D01*
X1203706Y308610D02*
Y312674D01*
X1191514Y290322D02*
X1195578D01*
X1193546Y288290D02*
Y292354D01*
X1201674Y270002D02*
X1205738D01*
X1203706Y267970D02*
Y272034D01*
X1191514Y249682D02*
X1195578D01*
X1193546Y247650D02*
Y251714D01*
X1201674Y229362D02*
X1205738D01*
X1203706Y227330D02*
Y231394D01*
X1191514Y87122D02*
X1195578D01*
X1193546Y85090D02*
Y89154D01*
X1201674Y66802D02*
X1205738D01*
X1203706Y64770D02*
Y68834D01*
X1191514Y46482D02*
X1195578D01*
X1193546Y44450D02*
Y48514D01*
X1171194Y534162D02*
X1175258D01*
X1173226Y532130D02*
Y536194D01*
X1181354Y351282D02*
X1185418D01*
X1183386Y349250D02*
Y353314D01*
X1181354Y310642D02*
X1185418D01*
X1183386Y308610D02*
Y312674D01*
X1181354Y270002D02*
X1185418D01*
X1183386Y267970D02*
Y272034D01*
X1181354Y229362D02*
X1185418D01*
X1183386Y227330D02*
Y231394D01*
X1171194Y87122D02*
X1175258D01*
X1173226Y85090D02*
Y89154D01*
X1181354Y66802D02*
X1185418D01*
X1183386Y64770D02*
Y68834D01*
X1171194Y46482D02*
X1175258D01*
X1173226Y44450D02*
Y48514D01*
X1161034Y554482D02*
X1165098D01*
X1163066Y552450D02*
Y556514D01*
X1150874Y87122D02*
X1154938D01*
X1152906Y85090D02*
Y89154D01*
X1161034Y66802D02*
X1165098D01*
X1163066Y64770D02*
Y68834D01*
X1150874Y46482D02*
X1154938D01*
X1152906Y44450D02*
Y48514D01*
X1130554Y87122D02*
X1134618D01*
X1132586Y85090D02*
Y89154D01*
X1140714Y66802D02*
X1144778D01*
X1142746Y64770D02*
Y68834D01*
X1130554Y46482D02*
X1134618D01*
X1132586Y44450D02*
Y48514D01*
X1110234Y696722D02*
X1114298D01*
X1112266Y694690D02*
Y698754D01*
X1120394Y107442D02*
X1124458D01*
X1122426Y105410D02*
Y109474D01*
X1110234Y87122D02*
X1114298D01*
X1112266Y85090D02*
Y89154D01*
X1120394Y66802D02*
X1124458D01*
X1122426Y64770D02*
Y68834D01*
X1100074Y107442D02*
X1104138D01*
X1102106Y105410D02*
Y109474D01*
X1089914Y87122D02*
X1093978D01*
X1091946Y85090D02*
Y89154D01*
X1059434Y676402D02*
X1063498D01*
X1061466Y674370D02*
Y678434D01*
X1039114Y676402D02*
X1043178D01*
X1041146Y674370D02*
Y678434D01*
X1018794Y676402D02*
X1022858D01*
X1020826Y674370D02*
Y678434D01*
X998474Y676402D02*
X1002538D01*
X1000506Y674370D02*
Y678434D01*
X978154Y676402D02*
X982218D01*
X980186Y674370D02*
Y678434D01*
X957834Y676402D02*
X961898D01*
X959866Y674370D02*
Y678434D01*
X937514Y676402D02*
X941578D01*
X939546Y674370D02*
Y678434D01*
X440944Y830326D02*
X445008D01*
X442976Y828294D02*
Y832358D01*
X419608Y811022D02*
X423672D01*
X421640Y808990D02*
Y813054D01*
X484093Y346871D02*
X491205D01*
X487649Y343315D02*
Y350427D01*
X469138Y330200D02*
X476250D01*
X472694Y326644D02*
Y333756D01*
X778256Y535940D02*
X782320D01*
X780288Y533908D02*
Y537972D01*
X789432Y590296D02*
X793496D01*
X791464Y588264D02*
Y592328D01*
X778510Y589788D02*
X782574D01*
X780542Y587756D02*
Y591820D01*
X640080Y542798D02*
X647192D01*
X643636Y539242D02*
Y546354D01*
X466344Y310388D02*
X473456D01*
X469900Y306832D02*
Y313944D01*
X487172Y310134D02*
X494284D01*
X490728Y306578D02*
Y313690D01*
X963422Y265176D02*
X967486D01*
X965454Y263144D02*
Y267208D01*
X619914Y317793D02*
X623978D01*
X621946Y315761D02*
Y319825D01*
X619914Y343193D02*
X623978D01*
X621946Y341161D02*
Y345225D01*
X696214Y456438D02*
X700278D01*
X698246Y454406D02*
Y458470D01*
X721614Y456438D02*
X725678D01*
X723646Y454406D02*
Y458470D01*
X675894Y443992D02*
X679958D01*
X677926Y441960D02*
Y446024D01*
X675894Y418592D02*
X679958D01*
X677926Y416560D02*
Y420624D01*
X675894Y393192D02*
X679958D01*
X677926Y391160D02*
Y395224D01*
X1001268Y70866D02*
X1005332D01*
X1003300Y68834D02*
Y72898D01*
X1001268Y96266D02*
X1005332D01*
X1003300Y94234D02*
Y98298D01*
X1001268Y121666D02*
X1005332D01*
X1003300Y119634D02*
Y123698D01*
X1184671Y158071D02*
X1188735D01*
X1186703Y156039D02*
Y160103D01*
X1198895Y158071D02*
X1202959D01*
X1200927Y156039D02*
Y160103D01*
X1129292Y418671D02*
X1133356D01*
X1131324Y416640D02*
Y420704D01*
X1138936Y453390D02*
X1143000D01*
X1140968Y451358D02*
Y455422D01*
X1138936Y478790D02*
X1143000D01*
X1140968Y476758D02*
Y480822D01*
X1049528Y471678D02*
X1053592D01*
X1051560Y469646D02*
Y473710D01*
X1024128Y471678D02*
X1028192D01*
X1026160Y469646D02*
Y473710D01*
X998728Y471678D02*
X1002792D01*
X1000760Y469646D02*
Y473710D01*
X1071372Y356362D02*
X1075436D01*
X1073404Y354330D02*
Y358394D01*
X1071372Y381762D02*
X1075436D01*
X1073404Y379730D02*
Y383794D01*
X1071372Y407162D02*
X1075436D01*
X1073404Y405130D02*
Y409194D01*
X930656Y418338D02*
X934720D01*
X932688Y416306D02*
Y420370D01*
X956056Y418338D02*
X960120D01*
X958088Y416306D02*
Y420370D01*
X981456Y418338D02*
X985520D01*
X983488Y416306D02*
Y420370D01*
X986663Y348105D02*
X990726D01*
X988695Y346073D02*
Y350137D01*
X786130Y82550D02*
X790194D01*
X788162Y80518D02*
Y84582D01*
X786130Y107950D02*
X790194D01*
X788162Y105918D02*
Y109982D01*
X786130Y133350D02*
X790194D01*
X788162Y131318D02*
Y135382D01*
X663914Y296541D02*
X667978D01*
X665946Y294509D02*
Y298573D01*
X663914Y313489D02*
X667978D01*
X665946Y311457D02*
Y315521D01*
X663914Y330967D02*
X667978D01*
X665946Y328935D02*
Y332999D01*
X932688Y290322D02*
X936752D01*
X934720Y288290D02*
Y292354D01*
X924914Y319564D02*
X928978D01*
X926946Y317532D02*
Y321596D01*
X924914Y338715D02*
X928978D01*
X926946Y336683D02*
Y340747D01*
X1111404Y264198D02*
X1115468D01*
X1113436Y262166D02*
Y266230D01*
X1045210Y66802D02*
X1049274D01*
X1047242Y64770D02*
Y68834D01*
X788162Y411098D02*
X792226D01*
X790194Y409066D02*
Y413130D01*
X788162Y474762D02*
X792226D01*
X790194Y472730D02*
Y476794D01*
X788162Y441849D02*
X792226D01*
X790194Y439817D02*
Y443881D01*
X783316Y325354D02*
X787380D01*
X785348Y323322D02*
Y327386D01*
X764217Y306255D02*
X768281D01*
X766249Y304223D02*
Y308287D01*
X754888Y281432D02*
X758952D01*
X756920Y279400D02*
Y283464D01*
X311680Y144036D02*
X315744D01*
X313712Y142004D02*
Y146068D01*
X1153012Y418428D02*
X1157076D01*
X1155044Y416396D02*
Y420460D01*
X1400027Y101382D02*
X1404091D01*
X1402059Y99350D02*
Y103414D01*
X1400027Y126782D02*
X1404091D01*
X1402059Y124750D02*
Y128814D01*
X1400027Y152182D02*
X1404091D01*
X1402059Y150150D02*
Y154214D01*
X1376262Y73554D02*
X1380326D01*
X1378294Y71522D02*
Y75586D01*
X1376262Y98954D02*
X1380326D01*
X1378294Y96922D02*
Y100986D01*
X1376262Y124354D02*
X1380326D01*
X1378294Y122322D02*
Y126386D01*
X1347724Y972058D02*
X1351788D01*
X1349756Y970026D02*
Y974090D01*
X1322324Y972058D02*
X1326388D01*
X1324356Y970026D02*
Y974090D01*
X1296924Y972058D02*
X1300988D01*
X1298956Y970026D02*
Y974090D01*
X205232Y927608D02*
X209296D01*
X207264Y925576D02*
Y929640D01*
X714248Y784352D02*
X718312D01*
X716280Y782320D02*
Y786384D01*
X505048Y894556D02*
X509112D01*
X507080Y892524D02*
Y896588D01*
X319128Y72303D02*
X323192D01*
X321160Y70271D02*
Y74335D01*
X114442Y157694D02*
X118506D01*
X116474Y155662D02*
Y159726D01*
X386176Y869300D02*
X390240D01*
X388208Y867268D02*
Y871332D01*
X167894Y117602D02*
X171958D01*
X169926Y115570D02*
Y119634D01*
X337566Y457200D02*
X344678D01*
X341122Y453644D02*
Y460756D01*
X831342Y284988D02*
X835406D01*
X833374Y282956D02*
Y287020D01*
X831342Y310388D02*
X835406D01*
X833374Y308356D02*
Y312420D01*
X831342Y335788D02*
X835406D01*
X833374Y333756D02*
Y337820D01*
X908024Y135203D02*
X912088D01*
X910056Y133171D02*
Y137235D01*
X908024Y109803D02*
X912088D01*
X910056Y107771D02*
Y111835D01*
X908024Y84403D02*
X912088D01*
X910056Y82371D02*
Y86435D01*
X955548Y156464D02*
X959612D01*
X957580Y154432D02*
Y158496D01*
X953024Y130361D02*
X957088D01*
X955056Y128329D02*
Y132393D01*
X953024Y104961D02*
X957088D01*
X955056Y102929D02*
Y106993D01*
X953024Y79561D02*
X957088D01*
X955056Y77529D02*
Y81593D01*
X1045210Y117602D02*
X1049274D01*
X1047242Y115570D02*
Y119634D01*
X1045210Y92202D02*
X1049274D01*
X1047242Y90170D02*
Y94234D01*
X516128Y171958D02*
X520192D01*
X518160Y169926D02*
Y173990D01*
X495808Y171958D02*
X499872D01*
X497840Y169926D02*
Y173990D01*
X505968Y151638D02*
X510032D01*
X508000Y149606D02*
Y153670D01*
X475488Y171958D02*
X479552D01*
X477520Y169926D02*
Y173990D01*
X485648Y151638D02*
X489712D01*
X487680Y149606D02*
Y153670D01*
X455168Y171958D02*
X459232D01*
X457200Y169926D02*
Y173990D01*
X465328Y151638D02*
X469392D01*
X467360Y149606D02*
Y153670D01*
X1356771Y300434D02*
X1360835D01*
X1358803Y298402D02*
Y302466D01*
X1356321Y318232D02*
X1360385D01*
X1358353Y316200D02*
Y320264D01*
X922020Y844296D02*
X926084D01*
X924052Y842264D02*
Y846328D01*
X765787Y557587D02*
X769851D01*
X767819Y555555D02*
Y559619D01*
X848106Y599440D02*
X852170D01*
X850138Y597408D02*
Y601472D01*
X1118362Y857758D02*
X1125474D01*
X1121918Y854202D02*
Y861314D01*
X1297646Y822080D02*
X1304758D01*
X1301202Y818524D02*
Y825636D01*
X1090930Y856742D02*
X1098042D01*
X1094486Y853186D02*
Y860298D01*
X613918Y621792D02*
X617982D01*
X615950Y619760D02*
Y623824D01*
X374142Y572516D02*
X381254D01*
X377698Y568960D02*
Y576072D01*
X1033272Y517652D02*
X1040384D01*
X1036828Y514096D02*
Y521208D01*
X1164336Y627982D02*
X1168400D01*
X1166368Y625950D02*
Y630014D01*
X1026922Y689864D02*
X1030986D01*
X1028954Y687832D02*
Y691896D01*
X949198Y696468D02*
X953262D01*
X951230Y694436D02*
Y698500D01*
X950722Y709168D02*
X954786D01*
X952754Y707136D02*
Y711200D01*
X686308Y196088D02*
X693420D01*
X689864Y192532D02*
Y199644D01*
X707898Y195834D02*
X715010D01*
X711454Y192278D02*
Y199390D01*
X639572Y526542D02*
X646684D01*
X643128Y522986D02*
Y530098D01*
X651256Y821944D02*
X655320D01*
X653288Y819912D02*
Y823976D01*
X614172Y800608D02*
X618236D01*
X616204Y798576D02*
Y802640D01*
X351271Y150379D02*
X358383D01*
X354827Y146823D02*
Y153935D01*
X375920Y145796D02*
X379984D01*
X377952Y143764D02*
Y147828D01*
X352298Y166624D02*
X359410D01*
X355854Y163068D02*
Y170180D01*
X236982Y766826D02*
X241046D01*
X239014Y764794D02*
Y768858D01*
X234188Y807212D02*
X238252D01*
X236220Y805180D02*
Y809244D01*
X250952Y853948D02*
X255016D01*
X252984Y851916D02*
Y855980D01*
X1011682Y789432D02*
X1015746D01*
X1013714Y787400D02*
Y791464D01*
X978154Y760984D02*
X982218D01*
X980186Y758952D02*
Y763016D01*
X990600Y745998D02*
X994664D01*
X992632Y743966D02*
Y748030D01*
X566420Y453136D02*
X570484D01*
X568452Y451104D02*
Y455168D01*
X551942Y452882D02*
X556006D01*
X553974Y450850D02*
Y454914D01*
X820928Y836930D02*
X824992D01*
X822960Y834898D02*
Y838962D01*
X852092Y779237D02*
X856156D01*
X854124Y777205D02*
Y781269D01*
X870167Y705304D02*
X874231D01*
X872199Y703272D02*
Y707336D01*
X1304798Y908050D02*
X1308862D01*
X1306830Y906018D02*
Y910082D01*
X1305306Y892302D02*
X1309370D01*
X1307338Y890270D02*
Y894334D01*
X679196Y775208D02*
X683260D01*
X681228Y773176D02*
Y777240D01*
X657352Y775208D02*
X661416D01*
X659384Y773176D02*
Y777240D01*
X77978Y763016D02*
X82042D01*
X80010Y760984D02*
Y765048D01*
X132842Y92456D02*
X136906D01*
X134874Y90424D02*
Y94488D01*
X229891Y145267D02*
X233955D01*
X231924Y143235D02*
Y147298D01*
X875792Y906272D02*
X879856D01*
X877824Y904240D02*
Y908304D01*
X600837Y990805D02*
X604901D01*
X602869Y988773D02*
Y992837D01*
X628761Y991019D02*
X632825D01*
X630793Y988987D02*
Y993051D01*
X673862Y866648D02*
X677926D01*
X675894Y864616D02*
Y868680D01*
X673608Y853694D02*
X677672D01*
X675640Y851662D02*
Y855726D01*
X1277326Y822080D02*
X1284438D01*
X1280882Y818524D02*
Y825636D01*
X376174Y454406D02*
X383286D01*
X379730Y450850D02*
Y457962D01*
X443834Y852536D02*
X447898D01*
X445866Y850504D02*
Y854568D01*
X842636Y839126D02*
X846700D01*
X844668Y837094D02*
Y841158D01*
X484632Y525526D02*
X491744D01*
X488188Y521970D02*
Y529082D01*
X483870Y542290D02*
X490982D01*
X487426Y538734D02*
Y545846D01*
X464312Y542544D02*
X471424D01*
X467868Y538988D02*
Y546100D01*
X465020Y524739D02*
X472132D01*
X468576Y521184D02*
Y528296D01*
X479044Y500634D02*
X486156D01*
X482600Y497078D02*
Y504190D01*
X458724Y499618D02*
X465836D01*
X462280Y496062D02*
Y503174D01*
X480822Y479044D02*
X487934D01*
X484378Y475488D02*
Y482600D01*
X567182Y185674D02*
X574294D01*
X570738Y182118D02*
Y189230D01*
X546354Y166370D02*
X553466D01*
X549910Y162814D02*
Y169926D01*
X546862Y185928D02*
X553974D01*
X550418Y182372D02*
Y189484D01*
X566674Y166370D02*
X573786D01*
X570230Y162814D02*
Y169926D01*
X328676Y185928D02*
X332740D01*
X330708Y183896D02*
Y187960D01*
X344043Y126365D02*
X348107D01*
X346075Y124333D02*
Y128397D01*
X923798Y492760D02*
X930910D01*
X927354Y489204D02*
Y496316D01*
X1135126Y583946D02*
X1142238D01*
X1138682Y580390D02*
Y587502D01*
X1353820Y549148D02*
X1360932D01*
X1357376Y545592D02*
Y552704D01*
X1006856Y633476D02*
X1013968D01*
X1010412Y629920D02*
Y637032D01*
X938247Y561871D02*
X942310D01*
X940278Y559839D02*
Y563903D01*
X621274Y783992D02*
X625338D01*
X623306Y781960D02*
Y786024D01*
X922274Y561594D02*
X926338D01*
X924306Y559562D02*
Y563626D01*
X874522Y505714D02*
X878586D01*
X876554Y503682D02*
Y507746D01*
X776153Y557370D02*
X780217D01*
X778185Y555338D02*
Y559402D01*
X613410Y724154D02*
X617474D01*
X615442Y722122D02*
Y726186D01*
X636738Y759557D02*
X640802D01*
X638770Y757525D02*
Y761589D01*
X612394Y711200D02*
X616458D01*
X614426Y709168D02*
Y713232D01*
X762254Y687070D02*
X766318D01*
X764286Y685038D02*
Y689102D01*
X762508Y698246D02*
X766572D01*
X764540Y696214D02*
Y700278D01*
X782320Y739648D02*
X786384D01*
X784352Y737616D02*
Y741680D01*
X771906Y824738D02*
X775970D01*
X773938Y822706D02*
Y826770D01*
X714250Y841599D02*
X718314D01*
X716282Y839567D02*
Y843631D01*
X807466Y866140D02*
X811530D01*
X809498Y864108D02*
Y868172D01*
X942086Y613664D02*
X946150D01*
X944118Y611632D02*
Y615696D01*
X941070Y626618D02*
X948182D01*
X944626Y623062D02*
Y630174D01*
X822556Y758421D02*
X826620D01*
X824588Y756389D02*
Y760453D01*
X230124Y705104D02*
X234188D01*
X232156Y703072D02*
Y707136D01*
X549402Y786638D02*
X553466D01*
X551434Y784606D02*
Y788670D01*
X351028Y76708D02*
X358140D01*
X354584Y73152D02*
Y80264D01*
X338074Y65786D02*
X345186D01*
X341630Y62230D02*
Y69342D01*
X360426Y454406D02*
X367538D01*
X363982Y450850D02*
Y457962D01*
X402590Y356870D02*
X406654D01*
X404622Y354838D02*
Y358902D01*
X95504Y800100D02*
X99568D01*
X97536Y798068D02*
Y802132D01*
X320548Y457962D02*
X327660D01*
X324104Y454406D02*
Y461518D01*
X1029930Y711590D02*
X1033994D01*
X1031962Y709558D02*
Y713622D01*
X1268730Y685546D02*
X1275842D01*
X1272286Y681990D02*
Y689102D01*
X218440Y80010D02*
X222504D01*
X220472Y77978D02*
Y82042D01*
X75184Y161798D02*
X82296D01*
X78740Y158242D02*
Y165354D01*
X72644Y288798D02*
X79756D01*
X76200Y285242D02*
Y292354D01*
X275336Y927608D02*
X279400D01*
X277368Y925576D02*
Y929640D01*
X96012Y881126D02*
X100076D01*
X98044Y879094D02*
Y883158D01*
X847852Y589534D02*
X851916D01*
X849884Y587502D02*
Y591566D01*
X521970Y596138D02*
X526034D01*
X524002Y594106D02*
Y598170D01*
X688340Y593344D02*
X692404D01*
X690372Y591312D02*
Y595376D01*
X776986Y613918D02*
X781050D01*
X779018Y611886D02*
Y615950D01*
X1072896Y739648D02*
X1076960D01*
X1074928Y737616D02*
Y741680D01*
X946099Y780586D02*
X950163D01*
X948131Y778554D02*
Y782618D01*
X1136650Y561594D02*
X1143762D01*
X1140206Y558038D02*
Y565150D01*
X1043956Y797068D02*
X1048020D01*
X1045988Y795036D02*
Y799100D01*
X976376Y516382D02*
X980440D01*
X978408Y514350D02*
Y518414D01*
X958088Y797052D02*
X962152D01*
X960120Y795020D02*
Y799084D01*
X961898Y811276D02*
X965962D01*
X963930Y809244D02*
Y813308D01*
X1115060Y561848D02*
X1122172D01*
X1118616Y558292D02*
Y565404D01*
X67310Y13970D02*
X71374D01*
X69342Y11938D02*
Y16002D01*
X10160Y57912D02*
X14224D01*
X12192Y55880D02*
Y59944D01*
X1122426Y627634D02*
X1129538D01*
X1125982Y624078D02*
Y631190D01*
X1460246Y912876D02*
X1464310D01*
X1462278Y910844D02*
Y914908D01*
X1115060Y583946D02*
X1122172D01*
X1118616Y580390D02*
Y587502D01*
X1245108Y634238D02*
X1249172D01*
X1247140Y632206D02*
Y636270D01*
X1117346Y736346D02*
X1121410D01*
X1119378Y734314D02*
Y738378D01*
X1268165Y669233D02*
X1275277D01*
X1271721Y665677D02*
Y672789D01*
X1286510Y669290D02*
X1293622D01*
X1290066Y665734D02*
Y672846D01*
X1286510Y686562D02*
X1293622D01*
X1290066Y683006D02*
Y690118D01*
X1106638Y752230D02*
X1110702D01*
X1108670Y750198D02*
Y754262D01*
X393192Y419862D02*
X397256D01*
X395224Y417830D02*
Y421894D01*
X1257006Y801760D02*
X1264118D01*
X1260562Y798204D02*
Y805316D01*
X1257006Y781440D02*
X1264118D01*
X1260562Y777884D02*
Y784996D01*
X728980Y991616D02*
X733044D01*
X731012Y989584D02*
Y993648D01*
X754380Y991616D02*
X758444D01*
X756412Y989584D02*
Y993648D01*
X779780Y991616D02*
X783844D01*
X781812Y989584D02*
Y993648D01*
X805180Y991616D02*
X809244D01*
X807212Y989584D02*
Y993648D01*
X1187410Y780170D02*
X1191474D01*
X1189442Y778138D02*
Y782202D01*
X1257006Y822080D02*
X1264118D01*
X1260562Y818524D02*
Y825636D01*
X1276056Y801760D02*
X1283168D01*
X1279612Y798204D02*
Y805316D01*
X1297646Y801760D02*
X1304758D01*
X1301202Y798204D02*
Y805316D01*
X1276350Y781558D02*
X1283462D01*
X1279906Y778002D02*
Y785114D01*
X1298916Y782710D02*
X1306028D01*
X1302472Y779154D02*
Y786266D01*
X1215393Y703716D02*
X1219457D01*
X1217425Y701684D02*
Y705748D01*
X373634Y590804D02*
X380746D01*
X377190Y587248D02*
Y594360D01*
X7112Y949706D02*
X11176D01*
X9144Y947674D02*
Y951738D01*
X12192Y980694D02*
X16256D01*
X14224Y978662D02*
Y982726D01*
X8128Y920750D02*
X12192D01*
X10160Y918718D02*
Y922782D01*
X11176Y894842D02*
X15240D01*
X13208Y892810D02*
Y896874D01*
X40132Y539750D02*
X44196D01*
X42164Y537718D02*
Y541782D01*
X26924Y539750D02*
X30988D01*
X28956Y537718D02*
Y541782D01*
X272288Y47498D02*
X276352D01*
X274320Y45466D02*
Y49530D01*
X438912Y419862D02*
X442976D01*
X440944Y417830D02*
Y421894D01*
X457708Y478536D02*
X464820D01*
X461264Y474980D02*
Y482092D01*
X423672Y419862D02*
X427736D01*
X425704Y417830D02*
Y421894D01*
X408432Y419862D02*
X412496D01*
X410464Y417830D02*
Y421894D01*
X315468Y587502D02*
X322580D01*
X319024Y583946D02*
Y591058D01*
X316738Y573532D02*
X323850D01*
X320294Y569976D02*
Y577088D01*
X295402Y495808D02*
X302514D01*
X298958Y492252D02*
Y499364D01*
X23368Y202438D02*
X27432D01*
X25400Y200406D02*
Y204470D01*
X23368Y227838D02*
X27432D01*
X25400Y225806D02*
Y229870D01*
X23368Y253238D02*
X27432D01*
X25400Y251206D02*
Y255270D01*
X23368Y100838D02*
X27432D01*
X25400Y98806D02*
Y102870D01*
X23368Y126238D02*
X27432D01*
X25400Y124206D02*
Y128270D01*
X23368Y151638D02*
X27432D01*
X25400Y149606D02*
Y153670D01*
X23368Y177038D02*
X27432D01*
X25400Y175006D02*
Y179070D01*
X156718Y18288D02*
X160782D01*
X158750Y16256D02*
Y20320D01*
X182118Y18288D02*
X186182D01*
X184150Y16256D02*
Y20320D01*
X207518Y18288D02*
X211582D01*
X209550Y16256D02*
Y20320D01*
X232918Y18288D02*
X236982D01*
X234950Y16256D02*
Y20320D01*
X258318Y18288D02*
X262382D01*
X260350Y16256D02*
Y20320D01*
X283718Y18288D02*
X287782D01*
X285750Y16256D02*
Y20320D01*
X334518Y18288D02*
X338582D01*
X336550Y16256D02*
Y20320D01*
X86868Y18288D02*
X90932D01*
X88900Y16256D02*
Y20320D01*
X112268Y18288D02*
X116332D01*
X114300Y16256D02*
Y20320D01*
X137668Y18288D02*
X141732D01*
X139700Y16256D02*
Y20320D01*
X17018Y24638D02*
X21082D01*
X19050Y22606D02*
Y26670D01*
X17018Y75438D02*
X21082D01*
X19050Y73406D02*
Y77470D01*
X144780Y991616D02*
X148844D01*
X146812Y989584D02*
Y993648D01*
X119380Y991616D02*
X123444D01*
X121412Y989584D02*
Y993648D01*
X93980Y991616D02*
X98044D01*
X96012Y989584D02*
Y993648D01*
X68580Y991616D02*
X72644D01*
X70612Y989584D02*
Y993648D01*
X246380Y991616D02*
X250444D01*
X248412Y989584D02*
Y993648D01*
X220980Y991616D02*
X225044D01*
X223012Y989584D02*
Y993648D01*
X195580Y991616D02*
X199644D01*
X197612Y989584D02*
Y993648D01*
X170180Y991616D02*
X174244D01*
X172212Y989584D02*
Y993648D01*
X322580Y991616D02*
X326644D01*
X324612Y989584D02*
Y993648D01*
X297180Y991616D02*
X301244D01*
X299212Y989584D02*
Y993648D01*
X270129Y992681D02*
X274193D01*
X272161Y990649D02*
Y994713D01*
X424180Y991616D02*
X428244D01*
X426212Y989584D02*
Y993648D01*
X398780Y991616D02*
X402844D01*
X400812Y989584D02*
Y993648D01*
X373380Y991616D02*
X377444D01*
X375412Y989584D02*
Y993648D01*
X347980Y991616D02*
X352044D01*
X350012Y989584D02*
Y993648D01*
X525780Y991616D02*
X529844D01*
X527812Y989584D02*
Y993648D01*
X500380Y991616D02*
X504444D01*
X502412Y989584D02*
Y993648D01*
X474980Y991616D02*
X479044D01*
X477012Y989584D02*
Y993648D01*
X449580Y991616D02*
X453644D01*
X451612Y989584D02*
Y993648D01*
X576580Y991616D02*
X580644D01*
X578612Y989584D02*
Y993648D01*
X551180Y991616D02*
X555244D01*
X553212Y989584D02*
Y993648D01*
X703580Y991616D02*
X707644D01*
X705612Y989584D02*
Y993648D01*
X678180Y991616D02*
X682244D01*
X680212Y989584D02*
Y993648D01*
X652780Y991616D02*
X656844D01*
X654812Y989584D02*
Y993648D01*
X906780Y991616D02*
X910844D01*
X908812Y989584D02*
Y993648D01*
X881380Y991616D02*
X885444D01*
X883412Y989584D02*
Y993648D01*
X855980Y991616D02*
X860044D01*
X858012Y989584D02*
Y993648D01*
X830580Y991616D02*
X834644D01*
X832612Y989584D02*
Y993648D01*
X1008380Y991616D02*
X1012444D01*
X1010412Y989584D02*
Y993648D01*
X982980Y991616D02*
X987044D01*
X985012Y989584D02*
Y993648D01*
X957580Y991616D02*
X961644D01*
X959612Y989584D02*
Y993648D01*
X932180Y991616D02*
X936244D01*
X934212Y989584D02*
Y993648D01*
X1109980Y991616D02*
X1114044D01*
X1112012Y989584D02*
Y993648D01*
X1084580Y991616D02*
X1088644D01*
X1086612Y989584D02*
Y993648D01*
X1059180Y991616D02*
X1063244D01*
X1061212Y989584D02*
Y993648D01*
X1033780Y991616D02*
X1037844D01*
X1035812Y989584D02*
Y993648D01*
X1211580Y991616D02*
X1215644D01*
X1213612Y989584D02*
Y993648D01*
X1186180Y991616D02*
X1190244D01*
X1188212Y989584D02*
Y993648D01*
X1160780Y991616D02*
X1164844D01*
X1162812Y989584D02*
Y993648D01*
X1135380Y991616D02*
X1139444D01*
X1137412Y989584D02*
Y993648D01*
X1313180Y991616D02*
X1317244D01*
X1315212Y989584D02*
Y993648D01*
X1287780Y991616D02*
X1291844D01*
X1289812Y989584D02*
Y993648D01*
X1262380Y991616D02*
X1266444D01*
X1264412Y989584D02*
Y993648D01*
X1236980Y991616D02*
X1241044D01*
X1239012Y989584D02*
Y993648D01*
X1338580Y991616D02*
X1342644D01*
X1340612Y989584D02*
Y993648D01*
X1363980Y991616D02*
X1368044D01*
X1366012Y989584D02*
Y993648D01*
X1389380Y991616D02*
X1393444D01*
X1391412Y989584D02*
Y993648D01*
X1479296Y988060D02*
X1483360D01*
X1481328Y986028D02*
Y990092D01*
X1482090Y959358D02*
X1486154D01*
X1484122Y957326D02*
Y961390D01*
X1482090Y933958D02*
X1486154D01*
X1484122Y931926D02*
Y935990D01*
X1482090Y908558D02*
X1486154D01*
X1484122Y906526D02*
Y910590D01*
X1402207Y969215D02*
X1406271D01*
X1404239Y967183D02*
Y971247D01*
X1402207Y943815D02*
X1406271D01*
X1404239Y941783D02*
Y945847D01*
X1402207Y918415D02*
X1406271D01*
X1404239Y916383D02*
Y920447D01*
X1468628Y890778D02*
X1472692D01*
X1470660Y888746D02*
Y892810D01*
X272288Y76708D02*
X276352D01*
X274320Y74676D02*
Y78740D01*
X309118Y18288D02*
X313182D01*
X311150Y16256D02*
Y20320D01*
X1472438Y498348D02*
X1476502D01*
X1474470Y496316D02*
Y500380D01*
X1401318Y518668D02*
X1405382D01*
X1403350Y516636D02*
Y520700D01*
X1462278Y518668D02*
X1466342D01*
X1464310Y516636D02*
Y520700D01*
X1452118Y538988D02*
X1456182D01*
X1454150Y536956D02*
Y541020D01*
X1441958Y559308D02*
X1446022D01*
X1443990Y557276D02*
Y561340D01*
X1421638Y559308D02*
X1425702D01*
X1423670Y557276D02*
Y561340D01*
X1411478Y538988D02*
X1415542D01*
X1413510Y536956D02*
Y541020D01*
X1462278Y559308D02*
X1466342D01*
X1464310Y557276D02*
Y561340D01*
X1431798Y538988D02*
X1435862D01*
X1433830Y536956D02*
Y541020D01*
X1472438Y579628D02*
X1476502D01*
X1474470Y577596D02*
Y581660D01*
X1391158Y579628D02*
X1395222D01*
X1393190Y577596D02*
Y581660D01*
X1411478Y579628D02*
X1415542D01*
X1413510Y577596D02*
Y581660D01*
X1472438Y538988D02*
X1476502D01*
X1474470Y536956D02*
Y541020D01*
X1401318Y559308D02*
X1405382D01*
X1403350Y557276D02*
Y561340D01*
X1431798Y579628D02*
X1435862D01*
X1433830Y577596D02*
Y581660D01*
X1344942Y670096D02*
X1349006D01*
X1346974Y668064D02*
Y672128D01*
X1331468Y685038D02*
X1335532D01*
X1333500Y683006D02*
Y687070D01*
X1318768Y761238D02*
X1322832D01*
X1320800Y759206D02*
Y763270D01*
X1420368Y659638D02*
X1424432D01*
X1422400Y657606D02*
Y661670D01*
X1394968Y659638D02*
X1399032D01*
X1397000Y657606D02*
Y661670D01*
X1331480Y722420D02*
X1335544D01*
X1333512Y720388D02*
Y724452D01*
X1321828Y788968D02*
X1325892D01*
X1323860Y786936D02*
Y791000D01*
X137256Y630520D02*
X140256D01*
X138756Y629020D02*
Y632020D01*
X137256Y664420D02*
X140256D01*
X138756Y662920D02*
Y665920D01*
X171656Y664120D02*
X174656D01*
X173156Y662620D02*
Y665620D01*
X171656Y630520D02*
X174656D01*
X173156Y629020D02*
Y632020D01*
X137256Y647770D02*
X140256D01*
X138756Y646270D02*
Y649270D01*
X154356Y647770D02*
X157356D01*
X155856Y646270D02*
Y649270D01*
X154356Y664420D02*
X157356D01*
X155856Y662920D02*
Y665920D01*
X154356Y630520D02*
X157356D01*
X155856Y629020D02*
Y632020D01*
X171656Y647770D02*
X174656D01*
X173156Y646270D02*
Y649270D01*
M02*
