G04*
G04 #@! TF.GenerationSoftware,Altium Limited,Altium Designer,22.5.1 (42)*
G04*
G04 Layer_Color=16711935*
%FSLAX44Y44*%
%MOMM*%
G71*
G04*
G04 #@! TF.SameCoordinates,325B58FB-DF44-4075-A057-A786A272C4E4*
G04*
G04*
G04 #@! TF.FilePolarity,Negative*
G04*
G01*
G75*
%ADD57R,1.0032X1.6032*%
%ADD58R,1.6032X1.0032*%
%ADD63R,3.2032X2.0032*%
%ADD68R,2.1844X0.7620*%
G04:AMPARAMS|DCode=78|XSize=1.6032mm|YSize=2.0032mm|CornerRadius=0.2416mm|HoleSize=0mm|Usage=FLASHONLY|Rotation=90.000|XOffset=0mm|YOffset=0mm|HoleType=Round|Shape=RoundedRectangle|*
%AMROUNDEDRECTD78*
21,1,1.6032,1.5200,0,0,90.0*
21,1,1.1200,2.0032,0,0,90.0*
1,1,0.4832,0.7600,0.5600*
1,1,0.4832,0.7600,-0.5600*
1,1,0.4832,-0.7600,-0.5600*
1,1,0.4832,-0.7600,0.5600*
%
%ADD78ROUNDEDRECTD78*%
G04:AMPARAMS|DCode=79|XSize=1.6032mm|YSize=2.0032mm|CornerRadius=0.2416mm|HoleSize=0mm|Usage=FLASHONLY|Rotation=90.000|XOffset=0mm|YOffset=0mm|HoleType=Round|Shape=RoundedRectangle|*
%AMROUNDEDRECTD79*
21,1,1.6032,1.5200,0,0,90.0*
21,1,1.1200,2.0032,0,0,90.0*
1,1,0.4832,0.7600,0.5600*
1,1,0.4832,0.7600,-0.5600*
1,1,0.4832,-0.7600,-0.5600*
1,1,0.4832,-0.7600,0.5600*
%
%ADD79ROUNDEDRECTD79*%
%ADD80R,1.9812X1.9812*%
%ADD81R,1.9812X1.9812*%
%ADD87R,1.7032X1.3032*%
%ADD88R,1.7272X1.3032*%
%ADD89R,3.3532X2.5032*%
%ADD90C,1.5494*%
%ADD91C,1.7112*%
%ADD92R,1.7112X1.7112*%
%ADD93R,1.7112X1.7112*%
%ADD94C,2.2032*%
G04:AMPARAMS|DCode=95|XSize=2.8032mm|YSize=3.7032mm|CornerRadius=0.7516mm|HoleSize=0mm|Usage=FLASHONLY|Rotation=0.000|XOffset=0mm|YOffset=0mm|HoleType=Round|Shape=RoundedRectangle|*
%AMROUNDEDRECTD95*
21,1,2.8032,2.2000,0,0,0.0*
21,1,1.3000,3.7032,0,0,0.0*
1,1,1.5032,0.6500,-1.1000*
1,1,1.5032,-0.6500,-1.1000*
1,1,1.5032,-0.6500,1.1000*
1,1,1.5032,0.6500,1.1000*
%
%ADD95ROUNDEDRECTD95*%
%ADD96C,1.8032*%
%ADD97C,2.0000*%
%ADD98O,1.8032X1.6032*%
%ADD99R,1.8032X1.8032*%
%ADD100C,3.2032*%
%ADD101R,1.8032X1.8032*%
%ADD102R,3.0032X3.0032*%
%ADD103C,3.0032*%
%ADD104R,2.2032X2.2032*%
%ADD105R,2.4032X2.4032*%
%ADD106C,2.4032*%
%ADD107O,2.2032X2.0032*%
%ADD108R,2.2032X2.0032*%
%ADD109C,5.2032*%
%ADD110R,2.0032X2.2032*%
%ADD111O,2.0032X2.2032*%
%ADD112O,3.5052X4.7752*%
%ADD113O,4.7752X3.5052*%
%ADD114R,1.5112X1.5112*%
%ADD115C,1.5112*%
%ADD116C,1.0524*%
%ADD117R,1.0524X1.0524*%
%ADD118O,2.2032X1.4032*%
%ADD119R,2.2032X1.4032*%
%ADD120C,1.0160*%
%ADD121C,1.4732*%
%ADD181C,0.5012*%
%ADD182R,2.4632X2.3632*%
%ADD183R,2.3632X2.4632*%
%ADD184R,1.1132X1.4232*%
%ADD185R,1.4232X1.1132*%
G04:AMPARAMS|DCode=186|XSize=1.6032mm|YSize=2.0032mm|CornerRadius=0.2416mm|HoleSize=0mm|Usage=FLASHONLY|Rotation=180.000|XOffset=0mm|YOffset=0mm|HoleType=Round|Shape=RoundedRectangle|*
%AMROUNDEDRECTD186*
21,1,1.6032,1.5200,0,0,180.0*
21,1,1.1200,2.0032,0,0,180.0*
1,1,0.4832,-0.5600,0.7600*
1,1,0.4832,0.5600,0.7600*
1,1,0.4832,0.5600,-0.7600*
1,1,0.4832,-0.5600,-0.7600*
%
%ADD186ROUNDEDRECTD186*%
G04:AMPARAMS|DCode=187|XSize=1.6032mm|YSize=2.0032mm|CornerRadius=0.2416mm|HoleSize=0mm|Usage=FLASHONLY|Rotation=180.000|XOffset=0mm|YOffset=0mm|HoleType=Round|Shape=RoundedRectangle|*
%AMROUNDEDRECTD187*
21,1,1.6032,1.5200,0,0,180.0*
21,1,1.1200,2.0032,0,0,180.0*
1,1,0.4832,-0.5600,0.7600*
1,1,0.4832,0.5600,0.7600*
1,1,0.4832,0.5600,-0.7600*
1,1,0.4832,-0.5600,-0.7600*
%
%ADD187ROUNDEDRECTD187*%
%ADD188R,5.8032X2.3032*%
%ADD189O,2.2352X0.8128*%
%ADD190R,1.7032X0.8032*%
%ADD191R,3.7032X1.8032*%
G36*
X234988Y49250D02*
X245012D01*
Y39226D01*
X234988D01*
Y49250D01*
D02*
G37*
G54D57*
X413098Y21590D02*
D03*
X393098D02*
D03*
X413098Y42672D02*
D03*
X393098D02*
D03*
X413098Y63754D02*
D03*
X393098D02*
D03*
X413098Y85852D02*
D03*
X393098D02*
D03*
X1227382Y626500D02*
D03*
X1207382D02*
D03*
X1014796Y753364D02*
D03*
X1034796D02*
D03*
X1228692Y685038D02*
D03*
X1208692D02*
D03*
X1246432Y743340D02*
D03*
X1226432D02*
D03*
X1246592Y721750D02*
D03*
X1226592D02*
D03*
X1034890Y774954D02*
D03*
X1014890D02*
D03*
X1050450Y774700D02*
D03*
X1070450D02*
D03*
X947768Y838200D02*
D03*
X927768D02*
D03*
X824588Y822188D02*
D03*
X844588D02*
D03*
X1108322Y667140D02*
D03*
X1128322D02*
D03*
G54D58*
X477520Y127414D02*
D03*
Y147414D02*
D03*
X504698Y127414D02*
D03*
Y147414D02*
D03*
X529844Y127922D02*
D03*
Y147922D02*
D03*
X902970Y530512D02*
D03*
Y550512D02*
D03*
X1230082Y666980D02*
D03*
Y646980D02*
D03*
X794258Y557116D02*
D03*
Y537116D02*
D03*
X1184362Y627930D02*
D03*
Y647930D02*
D03*
X964692Y780288D02*
D03*
Y760288D02*
D03*
X838454Y779366D02*
D03*
Y759366D02*
D03*
X1207092Y646980D02*
D03*
Y666980D02*
D03*
X1184362Y666030D02*
D03*
Y686030D02*
D03*
Y740800D02*
D03*
Y760800D02*
D03*
Y723020D02*
D03*
Y703020D02*
D03*
X1206500Y723044D02*
D03*
Y743044D02*
D03*
X1047202Y711430D02*
D03*
Y691430D02*
D03*
X1068792Y711430D02*
D03*
Y691430D02*
D03*
G54D63*
X521462Y470154D02*
D03*
Y420154D02*
D03*
G54D68*
X829564Y557530D02*
D03*
Y544830D02*
D03*
Y532130D02*
D03*
Y519430D02*
D03*
X876808D02*
D03*
Y532130D02*
D03*
Y544830D02*
D03*
Y557530D02*
D03*
G54D78*
X925322Y538748D02*
D03*
G54D79*
Y508748D02*
D03*
G54D80*
X1437132Y895858D02*
D03*
X1402842D02*
D03*
X73914Y883666D02*
D03*
X39624D02*
D03*
X19050Y279908D02*
D03*
X53340D02*
D03*
X1216914Y598932D02*
D03*
X1251204D02*
D03*
X1216660Y567944D02*
D03*
X1250950D02*
D03*
X1251204Y537972D02*
D03*
X1216914D02*
D03*
G54D81*
X1103122Y208788D02*
D03*
Y243078D02*
D03*
X363728Y22098D02*
D03*
Y56388D02*
D03*
X1188212Y566420D02*
D03*
Y600710D02*
D03*
G54D87*
X956587Y561266D02*
D03*
X1013587D02*
D03*
G54D88*
X956587Y520266D02*
D03*
X1013587D02*
D03*
G54D89*
X521462Y479254D02*
D03*
Y410254D02*
D03*
G54D90*
X302006Y293624D02*
D03*
Y318624D02*
D03*
Y419354D02*
D03*
Y394354D02*
D03*
X727710Y956111D02*
D03*
X702710D02*
D03*
X349358D02*
D03*
X324358D02*
D03*
G54D91*
X31496Y371818D02*
D03*
Y396818D02*
D03*
Y346818D02*
D03*
Y499764D02*
D03*
Y524764D02*
D03*
Y474764D02*
D03*
X518614Y951568D02*
D03*
X493614D02*
D03*
X543614D02*
D03*
G54D92*
X31496Y321818D02*
D03*
Y449764D02*
D03*
G54D93*
X568614Y951568D02*
D03*
G54D94*
X1207678Y503486D02*
D03*
X1132678Y542486D02*
D03*
X1298390Y201076D02*
D03*
X1259390Y126076D02*
D03*
X1374882Y52070D02*
D03*
X972056Y473888D02*
D03*
X1122056D02*
D03*
X972058Y373888D02*
D03*
X1122056D02*
D03*
X1263904Y903706D02*
D03*
X1365446Y201076D02*
D03*
X1326446Y126076D02*
D03*
G54D95*
X741368Y36830D02*
D03*
X911368Y37830D02*
D03*
X956368D02*
D03*
X1000368D02*
D03*
X1046368D02*
D03*
X785368Y36830D02*
D03*
X926946Y364482D02*
D03*
X880946D02*
D03*
X836946D02*
D03*
X791946D02*
D03*
X665946Y363482D02*
D03*
X621946D02*
D03*
G54D96*
X1070356Y245580D02*
D03*
Y195580D02*
D03*
X572516Y34182D02*
D03*
X759098Y262382D02*
D03*
X762092Y178562D02*
D03*
X837092D02*
D03*
X667258Y276352D02*
D03*
X673100Y74904D02*
D03*
X891432Y223266D02*
D03*
X727548Y505460D02*
D03*
X802548D02*
D03*
X566166Y371348D02*
D03*
X1292894Y565058D02*
D03*
Y490058D02*
D03*
G54D97*
X1299972Y262708D02*
D03*
X1299972Y457708D02*
D03*
G54D98*
X1097046Y52070D02*
D03*
G54D99*
X572516Y84182D02*
D03*
X673100Y39904D02*
D03*
G54D100*
X1118892Y320603D02*
D03*
X968891D02*
D03*
G54D101*
X809098Y262382D02*
D03*
X632258Y276352D02*
D03*
X941432Y223266D02*
D03*
X516166Y371348D02*
D03*
G54D102*
X1194054Y184404D02*
D03*
G54D103*
Y404404D02*
D03*
G54D104*
X1263904Y868706D02*
D03*
G54D105*
X1375340Y846274D02*
D03*
G54D106*
X1450340D02*
D03*
X1375340Y643274D02*
D03*
X1450340D02*
D03*
X1375340Y592874D02*
D03*
X1450340D02*
D03*
X1375340Y693674D02*
D03*
X1450340D02*
D03*
G54D107*
X444754Y21336D02*
D03*
Y46736D02*
D03*
Y72136D02*
D03*
Y97536D02*
D03*
Y122936D02*
D03*
G54D108*
Y148336D02*
D03*
G54D109*
X1448730Y952286D02*
D03*
Y52286D02*
D03*
X48730Y952286D02*
D03*
Y52286D02*
D03*
G54D110*
X127254Y958378D02*
D03*
X423164Y760730D02*
D03*
G54D111*
X152654Y958378D02*
D03*
X178054D02*
D03*
X203454D02*
D03*
X228854D02*
D03*
X254254D02*
D03*
X346964Y760730D02*
D03*
X372364D02*
D03*
X397764D02*
D03*
G54D112*
X1118870Y937514D02*
D03*
X1169670D02*
D03*
G54D113*
X1440000Y450038D02*
D03*
Y399238D02*
D03*
Y500838D02*
D03*
X1439672Y207772D02*
D03*
Y156972D02*
D03*
Y258572D02*
D03*
G54D114*
X398780Y963412D02*
D03*
G54D115*
X418780D02*
D03*
G54D116*
X252500Y44238D02*
D03*
G54D117*
X240000D02*
D03*
G54D118*
X41148Y819084D02*
D03*
Y839084D02*
D03*
G54D119*
Y799084D02*
D03*
G54D120*
X712470Y939292D02*
D03*
X579628Y916178D02*
D03*
X666654Y936378D02*
D03*
X572516Y932434D02*
D03*
X1376426Y905510D02*
D03*
X275844Y535432D02*
D03*
X216408Y94488D02*
D03*
X232918Y684022D02*
D03*
X232410Y670814D02*
D03*
X407416Y594360D02*
D03*
X420624Y593852D02*
D03*
X404876Y784860D02*
D03*
X418084Y784352D02*
D03*
X854456Y643382D02*
D03*
X841248Y643890D02*
D03*
X118110Y65532D02*
D03*
X131318Y65024D02*
D03*
X591058Y869442D02*
D03*
X604012Y869696D02*
D03*
X1289050Y924306D02*
D03*
X145034Y726186D02*
D03*
X199898Y716427D02*
D03*
X213360Y597916D02*
D03*
X208026Y655320D02*
D03*
X143256Y524510D02*
D03*
X204978Y477520D02*
D03*
X187452Y706628D02*
D03*
X204470Y459232D02*
D03*
X162306Y426212D02*
D03*
X457200Y939038D02*
D03*
X486506Y894954D02*
D03*
X615696Y870204D02*
D03*
X927354Y867410D02*
D03*
X949452Y852170D02*
D03*
X1019556Y885190D02*
D03*
X762508Y913384D02*
D03*
X379984Y967994D02*
D03*
X325374Y936752D02*
D03*
X269494Y588518D02*
D03*
X230378Y650240D02*
D03*
X249936Y787146D02*
D03*
X216154Y684375D02*
D03*
X164846Y715264D02*
D03*
X110299Y254825D02*
D03*
X122491D02*
D03*
X361188Y313690D02*
D03*
X1358392Y264668D02*
D03*
X1358842Y246870D02*
D03*
X442976Y830326D02*
D03*
X421640Y811022D02*
D03*
X780288Y535940D02*
D03*
X791464Y590296D02*
D03*
X780542Y589788D02*
D03*
X313712Y144036D02*
D03*
X207264Y927608D02*
D03*
X716280Y784352D02*
D03*
X507080Y894556D02*
D03*
X321160Y72303D02*
D03*
X116474Y157694D02*
D03*
X169926Y117602D02*
D03*
X518160Y171958D02*
D03*
X497840D02*
D03*
X508000Y151638D02*
D03*
X477520Y171958D02*
D03*
X487680Y151638D02*
D03*
X457200Y171958D02*
D03*
X467360Y151638D02*
D03*
X1358803Y300434D02*
D03*
X1358353Y318232D02*
D03*
X924052Y844296D02*
D03*
X767819Y557587D02*
D03*
X850138Y599440D02*
D03*
X615950Y621792D02*
D03*
X1166368Y627982D02*
D03*
X1028954Y689864D02*
D03*
X951230Y696468D02*
D03*
X952754Y709168D02*
D03*
X653288Y821944D02*
D03*
X616204Y800608D02*
D03*
X377952Y145796D02*
D03*
X239014Y766826D02*
D03*
X236220Y807212D02*
D03*
X252984Y853948D02*
D03*
X1013714Y789432D02*
D03*
X980186Y760984D02*
D03*
X992632Y745998D02*
D03*
X568452Y453136D02*
D03*
X553974Y452882D02*
D03*
X822960Y836930D02*
D03*
X854124Y779237D02*
D03*
X872199Y705304D02*
D03*
X1306830Y908050D02*
D03*
X1307338Y892302D02*
D03*
X681228Y775208D02*
D03*
X659384D02*
D03*
X80010Y763016D02*
D03*
X134874Y92456D02*
D03*
X231924Y145267D02*
D03*
X877824Y906272D02*
D03*
X675894Y866648D02*
D03*
X675640Y853694D02*
D03*
X445866Y852536D02*
D03*
X844668Y839126D02*
D03*
X330708Y185928D02*
D03*
X346075Y126365D02*
D03*
X940278Y561871D02*
D03*
X623306Y783992D02*
D03*
X924306Y561594D02*
D03*
X876554Y505714D02*
D03*
X778185Y557370D02*
D03*
X615442Y724154D02*
D03*
X638770Y759557D02*
D03*
X614426Y711200D02*
D03*
X764286Y687070D02*
D03*
X764540Y698246D02*
D03*
X784352Y739648D02*
D03*
X773938Y824738D02*
D03*
X716282Y841599D02*
D03*
X809498Y866140D02*
D03*
X944118Y613664D02*
D03*
X824588Y758421D02*
D03*
X232156Y705104D02*
D03*
X551434Y786638D02*
D03*
X404622Y356870D02*
D03*
X97536Y800100D02*
D03*
X1031962Y711590D02*
D03*
X220472Y80010D02*
D03*
X277368Y927608D02*
D03*
X98044Y881126D02*
D03*
X849884Y589534D02*
D03*
X524002Y596138D02*
D03*
X690372Y593344D02*
D03*
X779018Y613918D02*
D03*
X1074928Y739648D02*
D03*
X948131Y780586D02*
D03*
X1045988Y797068D02*
D03*
X978408Y516382D02*
D03*
X960120Y797052D02*
D03*
X963930Y811276D02*
D03*
X1247140Y634238D02*
D03*
X1119378Y736346D02*
D03*
X1108670Y752230D02*
D03*
X1189442Y780170D02*
D03*
X1217425Y703716D02*
D03*
X274320Y47498D02*
D03*
Y76708D02*
D03*
G54D121*
X294386Y534670D02*
D03*
X489458Y329692D02*
D03*
X140716Y47752D02*
D03*
X121666Y48514D02*
D03*
X292354Y517906D02*
D03*
X92710Y289814D02*
D03*
X300228Y480314D02*
D03*
X308864Y536448D02*
D03*
X308610Y518922D02*
D03*
X363982Y437134D02*
D03*
X379730D02*
D03*
X487649Y346871D02*
D03*
X472694Y330200D02*
D03*
X643636Y542798D02*
D03*
X469900Y310388D02*
D03*
X490728Y310134D02*
D03*
X341122Y457200D02*
D03*
X377698Y572516D02*
D03*
X1036828Y517652D02*
D03*
X689864Y196088D02*
D03*
X711454Y195834D02*
D03*
X643128Y526542D02*
D03*
X354827Y150379D02*
D03*
X355854Y166624D02*
D03*
X379730Y454406D02*
D03*
X488188Y525526D02*
D03*
X487426Y542290D02*
D03*
X467868Y542544D02*
D03*
X468576Y524739D02*
D03*
X482600Y500634D02*
D03*
X462280Y499618D02*
D03*
X484378Y479044D02*
D03*
X570738Y185674D02*
D03*
X549910Y166370D02*
D03*
X550418Y185928D02*
D03*
X570230Y166370D02*
D03*
X927354Y492760D02*
D03*
X1138682Y583946D02*
D03*
X1010412Y633476D02*
D03*
X944626Y626618D02*
D03*
X354584Y76708D02*
D03*
X341630Y65786D02*
D03*
X363982Y454406D02*
D03*
X324104Y457962D02*
D03*
X78740Y161798D02*
D03*
X76200Y288798D02*
D03*
X1140206Y561594D02*
D03*
X1118616Y561848D02*
D03*
Y583946D02*
D03*
X377190Y590804D02*
D03*
X461264Y478536D02*
D03*
X319024Y587502D02*
D03*
X320294Y573532D02*
D03*
X298958Y495808D02*
D03*
G54D181*
X255006Y44238D02*
X253753Y46408D01*
X251247D01*
X249994Y44238D01*
X251247Y42068D01*
X253753D01*
X255006Y44238D01*
G54D182*
X480568Y47636D02*
D03*
Y96636D02*
D03*
G54D183*
X520076Y340106D02*
D03*
X569076D02*
D03*
G54D184*
X1395890Y816356D02*
D03*
X1428590D02*
D03*
G54D185*
X188976Y84422D02*
D03*
Y51722D02*
D03*
X158242Y85184D02*
D03*
Y52484D02*
D03*
G54D186*
X720330Y614172D02*
D03*
X556754Y613918D02*
D03*
X884414D02*
D03*
G54D187*
X750330Y614172D02*
D03*
X586754Y613918D02*
D03*
X914414D02*
D03*
G54D188*
X1183896Y813562D02*
D03*
X1088896D02*
D03*
G54D189*
X871220Y758698D02*
D03*
X927100Y733298D02*
D03*
Y758698D02*
D03*
Y745998D02*
D03*
Y720598D02*
D03*
X871220Y745998D02*
D03*
Y733298D02*
D03*
Y720598D02*
D03*
X871728Y780796D02*
D03*
Y793496D02*
D03*
Y806196D02*
D03*
X927608Y780796D02*
D03*
Y806196D02*
D03*
Y818896D02*
D03*
Y793496D02*
D03*
X871728Y818896D02*
D03*
G54D190*
X1091822Y776360D02*
D03*
Y763660D02*
D03*
Y750960D02*
D03*
Y738260D02*
D03*
Y725560D02*
D03*
Y712860D02*
D03*
Y700160D02*
D03*
Y687460D02*
D03*
X1144822D02*
D03*
Y700160D02*
D03*
Y712860D02*
D03*
Y725560D02*
D03*
Y738260D02*
D03*
Y750960D02*
D03*
Y763660D02*
D03*
Y776360D02*
D03*
G54D191*
X1277072Y704732D02*
D03*
Y759088D02*
D03*
M02*
