G04*
G04 #@! TF.GenerationSoftware,Altium Limited,Altium Designer,22.5.1 (42)*
G04*
G04 Layer_Color=128*
%FSLAX44Y44*%
%MOMM*%
G71*
G04*
G04 #@! TF.SameCoordinates,325B58FB-DF44-4075-A057-A786A272C4E4*
G04*
G04*
G04 #@! TF.FilePolarity,Positive*
G04*
G01*
G75*
%ADD24R,0.8000X1.4000*%
%ADD25R,1.4000X0.8000*%
%ADD30R,3.0000X1.8000*%
%ADD35R,1.9812X0.5588*%
G04:AMPARAMS|DCode=43|XSize=1.4mm|YSize=1.8mm|CornerRadius=0.14mm|HoleSize=0mm|Usage=FLASHONLY|Rotation=90.000|XOffset=0mm|YOffset=0mm|HoleType=Round|Shape=RoundedRectangle|*
%AMROUNDEDRECTD43*
21,1,1.4000,1.5200,0,0,90.0*
21,1,1.1200,1.8000,0,0,90.0*
1,1,0.2800,0.7600,0.5600*
1,1,0.2800,0.7600,-0.5600*
1,1,0.2800,-0.7600,-0.5600*
1,1,0.2800,-0.7600,0.5600*
%
%ADD43ROUNDEDRECTD43*%
G04:AMPARAMS|DCode=44|XSize=1.4mm|YSize=1.8mm|CornerRadius=0.14mm|HoleSize=0mm|Usage=FLASHONLY|Rotation=90.000|XOffset=0mm|YOffset=0mm|HoleType=Round|Shape=RoundedRectangle|*
%AMROUNDEDRECTD44*
21,1,1.4000,1.5200,0,0,90.0*
21,1,1.1200,1.8000,0,0,90.0*
1,1,0.2800,0.7600,0.5600*
1,1,0.2800,0.7600,-0.5600*
1,1,0.2800,-0.7600,-0.5600*
1,1,0.2800,-0.7600,0.5600*
%
%ADD44ROUNDEDRECTD44*%
%ADD45R,1.7780X1.7780*%
%ADD46R,1.7780X1.7780*%
%ADD52R,1.5000X1.1000*%
%ADD53R,1.5240X1.1000*%
%ADD54R,3.1500X2.3000*%
%ADD166R,2.2600X2.1600*%
%ADD167R,2.1600X2.2600*%
%ADD168R,0.9100X1.2200*%
%ADD169R,1.2200X0.9100*%
G04:AMPARAMS|DCode=170|XSize=1.4mm|YSize=1.8mm|CornerRadius=0.14mm|HoleSize=0mm|Usage=FLASHONLY|Rotation=180.000|XOffset=0mm|YOffset=0mm|HoleType=Round|Shape=RoundedRectangle|*
%AMROUNDEDRECTD170*
21,1,1.4000,1.5200,0,0,180.0*
21,1,1.1200,1.8000,0,0,180.0*
1,1,0.2800,-0.5600,0.7600*
1,1,0.2800,0.5600,0.7600*
1,1,0.2800,0.5600,-0.7600*
1,1,0.2800,-0.5600,-0.7600*
%
%ADD170ROUNDEDRECTD170*%
G04:AMPARAMS|DCode=171|XSize=1.4mm|YSize=1.8mm|CornerRadius=0.14mm|HoleSize=0mm|Usage=FLASHONLY|Rotation=180.000|XOffset=0mm|YOffset=0mm|HoleType=Round|Shape=RoundedRectangle|*
%AMROUNDEDRECTD171*
21,1,1.4000,1.5200,0,0,180.0*
21,1,1.1200,1.8000,0,0,180.0*
1,1,0.2800,-0.5600,0.7600*
1,1,0.2800,0.5600,0.7600*
1,1,0.2800,0.5600,-0.7600*
1,1,0.2800,-0.5600,-0.7600*
%
%ADD171ROUNDEDRECTD171*%
%ADD172R,5.6000X2.1000*%
%ADD173O,2.0320X0.6096*%
%ADD174R,1.5000X0.6000*%
%ADD175R,3.5000X1.6000*%
G54D24*
X413098Y21590D02*
D03*
X393098D02*
D03*
X413098Y42672D02*
D03*
X393098D02*
D03*
X413098Y63754D02*
D03*
X393098D02*
D03*
X413098Y85852D02*
D03*
X393098D02*
D03*
X1227382Y626500D02*
D03*
X1207382D02*
D03*
X1014796Y753364D02*
D03*
X1034796D02*
D03*
X1228692Y685038D02*
D03*
X1208692D02*
D03*
X1246432Y743340D02*
D03*
X1226432D02*
D03*
X1246592Y721750D02*
D03*
X1226592D02*
D03*
X1034890Y774954D02*
D03*
X1014890D02*
D03*
X1050450Y774700D02*
D03*
X1070450D02*
D03*
X947768Y838200D02*
D03*
X927768D02*
D03*
X824588Y822188D02*
D03*
X844588D02*
D03*
X1108322Y667140D02*
D03*
X1128322D02*
D03*
G54D25*
X477520Y127414D02*
D03*
Y147414D02*
D03*
X504698Y127414D02*
D03*
Y147414D02*
D03*
X529844Y127922D02*
D03*
Y147922D02*
D03*
X902970Y530512D02*
D03*
Y550512D02*
D03*
X1230082Y666980D02*
D03*
Y646980D02*
D03*
X794258Y557116D02*
D03*
Y537116D02*
D03*
X1184362Y627930D02*
D03*
Y647930D02*
D03*
X964692Y780288D02*
D03*
Y760288D02*
D03*
X838454Y779366D02*
D03*
Y759366D02*
D03*
X1207092Y646980D02*
D03*
Y666980D02*
D03*
X1184362Y666030D02*
D03*
Y686030D02*
D03*
Y740800D02*
D03*
Y760800D02*
D03*
Y723020D02*
D03*
Y703020D02*
D03*
X1206500Y723044D02*
D03*
Y743044D02*
D03*
X1047202Y711430D02*
D03*
Y691430D02*
D03*
X1068792Y711430D02*
D03*
Y691430D02*
D03*
G54D30*
X521462Y470154D02*
D03*
Y420154D02*
D03*
G54D35*
X829564Y557530D02*
D03*
Y544830D02*
D03*
Y532130D02*
D03*
Y519430D02*
D03*
X876808D02*
D03*
Y532130D02*
D03*
Y544830D02*
D03*
Y557530D02*
D03*
G54D43*
X925322Y538748D02*
D03*
G54D44*
Y508748D02*
D03*
G54D45*
X1437132Y895858D02*
D03*
X1402842D02*
D03*
X73914Y883666D02*
D03*
X39624D02*
D03*
X19050Y279908D02*
D03*
X53340D02*
D03*
X1216914Y598932D02*
D03*
X1251204D02*
D03*
X1216660Y567944D02*
D03*
X1250950D02*
D03*
X1251204Y537972D02*
D03*
X1216914D02*
D03*
G54D46*
X1103122Y208788D02*
D03*
Y243078D02*
D03*
X363728Y22098D02*
D03*
Y56388D02*
D03*
X1188212Y566420D02*
D03*
Y600710D02*
D03*
G54D52*
X956587Y561266D02*
D03*
X1013587D02*
D03*
G54D53*
X956587Y520266D02*
D03*
X1013587D02*
D03*
G54D54*
X521462Y479254D02*
D03*
Y410254D02*
D03*
G54D166*
X480568Y47636D02*
D03*
Y96636D02*
D03*
G54D167*
X520076Y340106D02*
D03*
X569076D02*
D03*
G54D168*
X1395890Y816356D02*
D03*
X1428590D02*
D03*
G54D169*
X188976Y84422D02*
D03*
Y51722D02*
D03*
X158242Y85184D02*
D03*
Y52484D02*
D03*
G54D170*
X720330Y614172D02*
D03*
X556754Y613918D02*
D03*
X884414D02*
D03*
G54D171*
X750330Y614172D02*
D03*
X586754Y613918D02*
D03*
X914414D02*
D03*
G54D172*
X1183896Y813562D02*
D03*
X1088896D02*
D03*
G54D173*
X871220Y758698D02*
D03*
X927100Y733298D02*
D03*
Y758698D02*
D03*
Y745998D02*
D03*
Y720598D02*
D03*
X871220Y745998D02*
D03*
Y733298D02*
D03*
Y720598D02*
D03*
X871728Y780796D02*
D03*
Y793496D02*
D03*
Y806196D02*
D03*
X927608Y780796D02*
D03*
Y806196D02*
D03*
Y818896D02*
D03*
Y793496D02*
D03*
X871728Y818896D02*
D03*
G54D174*
X1091822Y776360D02*
D03*
Y763660D02*
D03*
Y750960D02*
D03*
Y738260D02*
D03*
Y725560D02*
D03*
Y712860D02*
D03*
Y700160D02*
D03*
Y687460D02*
D03*
X1144822D02*
D03*
Y700160D02*
D03*
Y712860D02*
D03*
Y725560D02*
D03*
Y738260D02*
D03*
Y750960D02*
D03*
Y763660D02*
D03*
Y776360D02*
D03*
G54D175*
X1277072Y704732D02*
D03*
Y759088D02*
D03*
M02*
