G04*
G04 #@! TF.GenerationSoftware,Altium Limited,Altium Designer,22.5.1 (42)*
G04*
G04 Layer_Color=16711935*
%FSLAX44Y44*%
%MOMM*%
G71*
G04*
G04 #@! TF.SameCoordinates,325B58FB-DF44-4075-A057-A786A272C4E4*
G04*
G04*
G04 #@! TF.FilePolarity,Positive*
G04*
G01*
G75*
%ADD12C,0.2540*%
G54D12*
X529029Y58858D02*
X527828Y56609D01*
X526742Y54301D01*
X525776Y51941D01*
X524931Y49535D01*
X524211Y47089D01*
X523615Y44609D01*
X523147Y42102D01*
X522808Y39575D01*
X522597Y37033D01*
X522517Y34484D01*
X522566Y31935D01*
X522746Y29391D01*
X523055Y26860D01*
X523493Y24347D01*
X524058Y21860D01*
X524749Y19406D01*
X525565Y16990D01*
X526502Y14618D01*
X527560Y12298D01*
X528734Y10034D01*
X530022Y7833D01*
X531421Y5701D01*
X532926Y3642D01*
X534535Y1664D01*
X536242Y-231D01*
X538044Y-2035D01*
X539936Y-3746D01*
X541912Y-5358D01*
X543968Y-6867D01*
X546098Y-8269D01*
X548296Y-9561D01*
X550558Y-10739D01*
X552877Y-11800D01*
X555247Y-12741D01*
X557662Y-13561D01*
X560115Y-14256D01*
X562601Y-14825D01*
X565113Y-15267D01*
X567644Y-15580D01*
X570187Y-15764D01*
X572737Y-15818D01*
X575286Y-15741D01*
X577827Y-15535D01*
X580355Y-15200D01*
X582863Y-14736D01*
X585344Y-14145D01*
X587791Y-13428D01*
X590199Y-12587D01*
X592560Y-11624D01*
X594869Y-10543D01*
X597121Y-9345D01*
X599308Y-8034D01*
X601426Y-6613D01*
X603468Y-5086D01*
X605430Y-3457D01*
X607306Y-1730D01*
X609092Y91D01*
X610782Y2000D01*
X612374Y3993D01*
X613861Y6064D01*
X615241Y8209D01*
X616509Y10421D01*
X617664Y12695D01*
X618700Y15025D01*
X619617Y17405D01*
X620411Y19828D01*
X621081Y22288D01*
X621624Y24780D01*
X622040Y27296D01*
X622326Y29830D01*
X622483Y32375D01*
X622510Y34925D01*
X622407Y37473D01*
X622175Y40013D01*
X621813Y42537D01*
X621323Y45040D01*
X620706Y47514D01*
X619963Y49954D01*
X619098Y52352D01*
X618111Y54704D01*
X617005Y57002D01*
X615784Y59240D01*
X615885Y59300D02*
X617099Y61547D01*
X618197Y63854D01*
X619176Y66213D01*
X620032Y68620D01*
X620765Y71067D01*
X621372Y73548D01*
X621852Y76057D01*
X622202Y78587D01*
X622423Y81132D01*
X622514Y83685D01*
X622474Y86240D01*
X622303Y88788D01*
X622003Y91325D01*
X621574Y93843D01*
X621016Y96336D01*
X620332Y98797D01*
X619523Y101220D01*
X618592Y103599D01*
X617540Y105927D01*
X616371Y108198D01*
X615087Y110407D01*
X613692Y112547D01*
X612189Y114613D01*
X610583Y116599D01*
X608878Y118501D01*
X607078Y120313D01*
X605187Y122031D01*
X603212Y123651D01*
X601156Y125167D01*
X599025Y126576D01*
X596826Y127875D01*
X594562Y129059D01*
X592242Y130127D01*
X589869Y131074D01*
X587452Y131899D01*
X584995Y132600D01*
X582506Y133174D01*
X579991Y133620D01*
X577456Y133937D01*
X574908Y134125D01*
X572355Y134182D01*
X569801Y134108D01*
X567255Y133904D01*
X564722Y133571D01*
X562210Y133108D01*
X559725Y132518D01*
X557272Y131802D01*
X554860Y130961D01*
X552494Y129998D01*
X550180Y128916D01*
X547925Y127717D01*
X545733Y126404D01*
X543612Y124981D01*
X541566Y123452D01*
X539601Y121820D01*
X537721Y120089D01*
X535933Y118265D01*
X534240Y116353D01*
X532647Y114356D01*
X531158Y112280D01*
X529777Y110131D01*
X528507Y107914D01*
X527353Y105636D01*
X526316Y103301D01*
X525400Y100917D01*
X524606Y98488D01*
X523938Y96023D01*
X523397Y93526D01*
X522984Y91005D01*
X522700Y88467D01*
X522546Y85917D01*
X522523Y83363D01*
X522630Y80810D01*
X522867Y78267D01*
X523234Y75739D01*
X523730Y73233D01*
X524352Y70756D01*
X525101Y68313D01*
X525973Y65912D01*
X526967Y63559D01*
X528080Y61260D01*
X529308Y59021D01*
X784098Y215544D02*
X786496Y214717D01*
X788934Y214012D01*
X791403Y213432D01*
X793900Y212978D01*
X796415Y212651D01*
X798945Y212453D01*
X801481Y212382D01*
X804017Y212440D01*
X806547Y212628D01*
X809065Y212943D01*
X811563Y213385D01*
X814035Y213954D01*
X816476Y214647D01*
X818878Y215463D01*
X821236Y216400D01*
X823543Y217455D01*
X825794Y218626D01*
X827982Y219910D01*
X830102Y221303D01*
X832149Y222802D01*
X834118Y224402D01*
X836003Y226101D01*
X837798Y227893D01*
X839501Y229773D01*
X841107Y231738D01*
X842610Y233781D01*
X844008Y235898D01*
X845297Y238084D01*
X846473Y240332D01*
X847534Y242636D01*
X848476Y244992D01*
X849298Y247392D01*
X849997Y249831D01*
X850572Y252302D01*
X851020Y254799D01*
X851341Y257316D01*
X851534Y259846D01*
X851598Y262382D01*
X851534Y264918D01*
X851341Y267448D01*
X851020Y269965D01*
X850571Y272462D01*
X849997Y274933D01*
X849298Y277372D01*
X848476Y279772D01*
X847534Y282128D01*
X846473Y284432D01*
X845297Y286680D01*
X844008Y288866D01*
X842610Y290983D01*
X841107Y293026D01*
X839501Y294991D01*
X837798Y296871D01*
X836002Y298663D01*
X834118Y300362D01*
X832149Y301963D01*
X830102Y303461D01*
X827982Y304854D01*
X825794Y306138D01*
X823543Y307309D01*
X821236Y308364D01*
X818878Y309301D01*
X816476Y310117D01*
X814035Y310810D01*
X811563Y311379D01*
X809065Y311821D01*
X806547Y312136D01*
X804017Y312323D01*
X801481Y312382D01*
X798945Y312311D01*
X796415Y312113D01*
X793899Y311786D01*
X791403Y311332D01*
X788933Y310751D01*
X786496Y310047D01*
X784098Y309219D01*
Y309219D02*
X781700Y310047D01*
X779262Y310751D01*
X776793Y311332D01*
X774296Y311786D01*
X771781Y312113D01*
X769251Y312311D01*
X766715Y312382D01*
X764179Y312323D01*
X761649Y312136D01*
X759131Y311821D01*
X756633Y311379D01*
X754161Y310810D01*
X751720Y310117D01*
X749318Y309301D01*
X746960Y308364D01*
X744653Y307309D01*
X742402Y306138D01*
X740214Y304854D01*
X738094Y303461D01*
X736047Y301962D01*
X734078Y300362D01*
X732194Y298663D01*
X730397Y296871D01*
X728695Y294991D01*
X727089Y293026D01*
X725586Y290983D01*
X724188Y288866D01*
X722899Y286680D01*
X721723Y284432D01*
X720662Y282128D01*
X719720Y279772D01*
X718898Y277372D01*
X718199Y274933D01*
X717625Y272462D01*
X717176Y269965D01*
X716855Y267448D01*
X716662Y264918D01*
X716598Y262382D01*
X716662Y259846D01*
X716855Y257316D01*
X717176Y254799D01*
X717625Y252302D01*
X718199Y249831D01*
X718898Y247392D01*
X719720Y244992D01*
X720662Y242636D01*
X721723Y240332D01*
X722899Y238084D01*
X724188Y235898D01*
X725586Y233781D01*
X727089Y231738D01*
X728695Y229773D01*
X730397Y227892D01*
X732194Y226101D01*
X734078Y224402D01*
X736047Y222801D01*
X738094Y221303D01*
X740214Y219910D01*
X742402Y218626D01*
X744653Y217455D01*
X746960Y216400D01*
X749318Y215463D01*
X751720Y214647D01*
X754161Y213954D01*
X756633Y213385D01*
X759131Y212943D01*
X761649Y212628D01*
X764179Y212440D01*
X766715Y212382D01*
X769251Y212453D01*
X771781Y212651D01*
X774296Y212978D01*
X776793Y213432D01*
X779262Y214013D01*
X781700Y214717D01*
X784098Y215544D01*
X649758Y323190D02*
X647360Y324017D01*
X644922Y324722D01*
X642453Y325302D01*
X639957Y325756D01*
X637441Y326083D01*
X634911Y326282D01*
X632375Y326352D01*
X629839Y326293D01*
X627309Y326106D01*
X624791Y325791D01*
X622293Y325349D01*
X619821Y324780D01*
X617380Y324087D01*
X614978Y323271D01*
X612620Y322334D01*
X610313Y321279D01*
X608062Y320108D01*
X605874Y318824D01*
X603754Y317431D01*
X601707Y315932D01*
X599738Y314332D01*
X597854Y312633D01*
X596058Y310841D01*
X594355Y308961D01*
X592749Y306996D01*
X591246Y304953D01*
X589848Y302836D01*
X588559Y300650D01*
X587383Y298402D01*
X586322Y296098D01*
X585380Y293742D01*
X584558Y291342D01*
X583859Y288903D01*
X583284Y286432D01*
X582836Y283935D01*
X582515Y281418D01*
X582322Y278888D01*
X582258Y276352D01*
X582322Y273816D01*
X582515Y271286D01*
X582836Y268769D01*
X583285Y266272D01*
X583859Y263801D01*
X584558Y261362D01*
X585380Y258962D01*
X586322Y256606D01*
X587383Y254302D01*
X588559Y252054D01*
X589848Y249868D01*
X591246Y247751D01*
X592749Y245708D01*
X594355Y243743D01*
X596058Y241863D01*
X597854Y240071D01*
X599738Y238372D01*
X601707Y236772D01*
X603754Y235273D01*
X605874Y233880D01*
X608062Y232596D01*
X610313Y231425D01*
X612620Y230370D01*
X614978Y229433D01*
X617380Y228617D01*
X619821Y227924D01*
X622293Y227355D01*
X624791Y226913D01*
X627309Y226597D01*
X629839Y226411D01*
X632375Y226352D01*
X634911Y226423D01*
X637441Y226621D01*
X639957Y226948D01*
X642453Y227402D01*
X644922Y227983D01*
X647360Y228687D01*
X649758Y229515D01*
Y229515D02*
X652156Y228687D01*
X654594Y227983D01*
X657063Y227402D01*
X659559Y226948D01*
X662075Y226621D01*
X664605Y226423D01*
X667141Y226352D01*
X669677Y226411D01*
X672207Y226597D01*
X674725Y226913D01*
X677223Y227355D01*
X679695Y227924D01*
X682136Y228617D01*
X684538Y229433D01*
X686896Y230370D01*
X689203Y231425D01*
X691454Y232596D01*
X693642Y233880D01*
X695762Y235273D01*
X697809Y236772D01*
X699778Y238372D01*
X701663Y240071D01*
X703458Y241863D01*
X705161Y243743D01*
X706767Y245708D01*
X708270Y247751D01*
X709668Y249869D01*
X710957Y252054D01*
X712133Y254302D01*
X713194Y256606D01*
X714136Y258962D01*
X714958Y261362D01*
X715657Y263801D01*
X716232Y266272D01*
X716680Y268769D01*
X717001Y271286D01*
X717194Y273816D01*
X717258Y276352D01*
X717194Y278888D01*
X717001Y281418D01*
X716680Y283935D01*
X716231Y286432D01*
X715657Y288903D01*
X714958Y291342D01*
X714136Y293742D01*
X713194Y296098D01*
X712133Y298402D01*
X710957Y300650D01*
X709668Y302836D01*
X708270Y304953D01*
X706767Y306996D01*
X705161Y308961D01*
X703458Y310842D01*
X701662Y312633D01*
X699778Y314332D01*
X697809Y315933D01*
X695762Y317431D01*
X693642Y318824D01*
X691454Y320108D01*
X689203Y321279D01*
X686896Y322334D01*
X684538Y323271D01*
X682136Y324087D01*
X679695Y324780D01*
X677223Y325349D01*
X674725Y325791D01*
X672207Y326106D01*
X669677Y326293D01*
X667141Y326352D01*
X664605Y326282D01*
X662075Y326083D01*
X659559Y325756D01*
X657063Y325302D01*
X654594Y324721D01*
X652156Y324017D01*
X649758Y323190D01*
X916432Y176429D02*
X918830Y175601D01*
X921268Y174896D01*
X923737Y174316D01*
X926234Y173862D01*
X928749Y173535D01*
X931279Y173337D01*
X933815Y173266D01*
X936351Y173325D01*
X938881Y173512D01*
X941399Y173827D01*
X943897Y174269D01*
X946369Y174838D01*
X948810Y175531D01*
X951212Y176347D01*
X953570Y177284D01*
X955877Y178339D01*
X958128Y179510D01*
X960316Y180794D01*
X962436Y182187D01*
X964483Y183686D01*
X966452Y185286D01*
X968336Y186985D01*
X970133Y188777D01*
X971835Y190657D01*
X973441Y192622D01*
X974944Y194665D01*
X976342Y196782D01*
X977631Y198968D01*
X978807Y201216D01*
X979868Y203520D01*
X980810Y205876D01*
X981632Y208276D01*
X982331Y210715D01*
X982906Y213186D01*
X983354Y215683D01*
X983675Y218200D01*
X983868Y220730D01*
X983932Y223266D01*
X983868Y225802D01*
X983675Y228332D01*
X983354Y230849D01*
X982905Y233346D01*
X982331Y235817D01*
X981632Y238256D01*
X980810Y240656D01*
X979868Y243012D01*
X978807Y245316D01*
X977631Y247564D01*
X976342Y249750D01*
X974944Y251867D01*
X973441Y253910D01*
X971835Y255875D01*
X970133Y257756D01*
X968336Y259547D01*
X966452Y261246D01*
X964483Y262847D01*
X962436Y264345D01*
X960316Y265738D01*
X958128Y267022D01*
X955877Y268193D01*
X953570Y269248D01*
X951212Y270185D01*
X948810Y271001D01*
X946369Y271694D01*
X943897Y272263D01*
X941399Y272705D01*
X938881Y273020D01*
X936351Y273207D01*
X933815Y273266D01*
X931279Y273195D01*
X928749Y272997D01*
X926233Y272670D01*
X923737Y272216D01*
X921267Y271635D01*
X918830Y270931D01*
X916432Y270103D01*
Y270103D02*
X914034Y270931D01*
X911596Y271635D01*
X909127Y272216D01*
X906630Y272670D01*
X904115Y272997D01*
X901585Y273195D01*
X899049Y273266D01*
X896513Y273207D01*
X893983Y273020D01*
X891465Y272705D01*
X888967Y272263D01*
X886495Y271694D01*
X884054Y271001D01*
X881652Y270185D01*
X879294Y269248D01*
X876987Y268193D01*
X874736Y267022D01*
X872548Y265738D01*
X870428Y264345D01*
X868381Y262846D01*
X866412Y261246D01*
X864528Y259547D01*
X862731Y257755D01*
X861029Y255875D01*
X859423Y253910D01*
X857920Y251867D01*
X856522Y249750D01*
X855233Y247564D01*
X854057Y245316D01*
X852996Y243012D01*
X852054Y240656D01*
X851232Y238256D01*
X850533Y235817D01*
X849958Y233346D01*
X849510Y230849D01*
X849189Y228332D01*
X848996Y225802D01*
X848932Y223266D01*
X848996Y220730D01*
X849189Y218200D01*
X849510Y215683D01*
X849958Y213186D01*
X850533Y210715D01*
X851232Y208276D01*
X852054Y205876D01*
X852996Y203520D01*
X854057Y201216D01*
X855233Y198968D01*
X856522Y196782D01*
X857920Y194665D01*
X859423Y192622D01*
X861029Y190657D01*
X862731Y188776D01*
X864528Y186985D01*
X866412Y185286D01*
X868381Y183685D01*
X870428Y182187D01*
X872548Y180794D01*
X874736Y179510D01*
X876987Y178339D01*
X879294Y177284D01*
X881652Y176347D01*
X884054Y175531D01*
X886495Y174838D01*
X888967Y174269D01*
X891465Y173827D01*
X893983Y173512D01*
X896513Y173325D01*
X899049Y173266D01*
X901585Y173337D01*
X904115Y173535D01*
X906630Y173862D01*
X909127Y174316D01*
X911597Y174897D01*
X914034Y175601D01*
X916432Y176429D01*
X541049Y414717D02*
X538801Y415931D01*
X536494Y417029D01*
X534135Y418008D01*
X531728Y418864D01*
X529281Y419597D01*
X526800Y420204D01*
X524291Y420684D01*
X521760Y421034D01*
X519216Y421255D01*
X516663Y421345D01*
X514109Y421306D01*
X511560Y421135D01*
X509023Y420835D01*
X506505Y420406D01*
X504012Y419848D01*
X501551Y419164D01*
X499128Y418355D01*
X496749Y417424D01*
X494421Y416372D01*
X492150Y415203D01*
X489942Y413919D01*
X487802Y412524D01*
X485736Y411022D01*
X483749Y409416D01*
X481847Y407710D01*
X480035Y405910D01*
X478317Y404020D01*
X476698Y402044D01*
X475181Y399988D01*
X473772Y397858D01*
X472473Y395658D01*
X471289Y393395D01*
X470221Y391074D01*
X469274Y388701D01*
X468449Y386284D01*
X467748Y383827D01*
X467174Y381338D01*
X466728Y378823D01*
X466411Y376288D01*
X466223Y373741D01*
X466166Y371187D01*
X466240Y368633D01*
X466443Y366087D01*
X466777Y363554D01*
X467240Y361042D01*
X467830Y358557D01*
X468546Y356105D01*
X469387Y353693D01*
X470350Y351326D01*
X471432Y349012D01*
X472631Y346757D01*
X473944Y344566D01*
X475367Y342444D01*
X476896Y340398D01*
X478528Y338433D01*
X480258Y336554D01*
X482082Y334765D01*
X483995Y333072D01*
X485992Y331479D01*
X488068Y329990D01*
X490217Y328609D01*
X492433Y327339D01*
X494712Y326185D01*
X497047Y325148D01*
X499431Y324232D01*
X501860Y323438D01*
X504325Y322770D01*
X506822Y322229D01*
X509342Y321816D01*
X511881Y321532D01*
X514431Y321378D01*
X516985Y321355D01*
X519538Y321462D01*
X522081Y321699D01*
X524609Y322066D01*
X527115Y322561D01*
X529592Y323184D01*
X532035Y323933D01*
X534436Y324805D01*
X536789Y325799D01*
X539088Y326912D01*
X541328Y328140D01*
X541490Y327861D02*
X543739Y326660D01*
X546047Y325574D01*
X548407Y324608D01*
X550813Y323763D01*
X553259Y323042D01*
X555739Y322447D01*
X558246Y321979D01*
X560773Y321640D01*
X563315Y321429D01*
X565864Y321349D01*
X568413Y321399D01*
X570957Y321578D01*
X573488Y321887D01*
X576001Y322325D01*
X578487Y322890D01*
X580942Y323581D01*
X583358Y324397D01*
X585730Y325334D01*
X588050Y326392D01*
X590314Y327566D01*
X592515Y328854D01*
X594647Y330253D01*
X596706Y331758D01*
X598684Y333367D01*
X600578Y335074D01*
X602383Y336876D01*
X604094Y338767D01*
X605705Y340744D01*
X607214Y342799D01*
X608617Y344929D01*
X609908Y347128D01*
X611086Y349390D01*
X612147Y351709D01*
X613089Y354079D01*
X613909Y356493D01*
X614604Y358947D01*
X615173Y361433D01*
X615615Y363944D01*
X615928Y366475D01*
X616112Y369019D01*
X616166Y371568D01*
X616089Y374117D01*
X615883Y376659D01*
X615548Y379187D01*
X615084Y381695D01*
X614493Y384175D01*
X613776Y386623D01*
X612935Y389030D01*
X611973Y391392D01*
X610891Y393701D01*
X609693Y395952D01*
X608382Y398140D01*
X606961Y400257D01*
X605434Y402300D01*
X603805Y404262D01*
X602078Y406138D01*
X600257Y407924D01*
X598348Y409614D01*
X596355Y411205D01*
X594284Y412693D01*
X592140Y414072D01*
X589927Y415341D01*
X587653Y416495D01*
X585324Y417532D01*
X582944Y418449D01*
X580521Y419243D01*
X578060Y419913D01*
X575568Y420456D01*
X573052Y420872D01*
X570518Y421158D01*
X567973Y421315D01*
X565423Y421343D01*
X562875Y421240D01*
X560336Y421007D01*
X557811Y420645D01*
X555309Y420155D01*
X552834Y419538D01*
X550395Y418796D01*
X547996Y417930D01*
X545645Y416943D01*
X543347Y415837D01*
X541108Y414616D01*
M02*
