G04*
G04 #@! TF.GenerationSoftware,Altium Limited,Altium Designer,22.5.1 (42)*
G04*
G04 Layer_Color=255*
%FSLAX44Y44*%
%MOMM*%
G71*
G04*
G04 #@! TF.SameCoordinates,325B58FB-DF44-4075-A057-A786A272C4E4*
G04*
G04*
G04 #@! TF.FilePolarity,Positive*
G04*
G01*
G75*
%ADD24R,0.8000X1.4000*%
%ADD25R,1.4000X0.8000*%
%ADD30R,3.0000X1.8000*%
%ADD35R,1.9812X0.5588*%
G04:AMPARAMS|DCode=43|XSize=1.4mm|YSize=1.8mm|CornerRadius=0.14mm|HoleSize=0mm|Usage=FLASHONLY|Rotation=90.000|XOffset=0mm|YOffset=0mm|HoleType=Round|Shape=RoundedRectangle|*
%AMROUNDEDRECTD43*
21,1,1.4000,1.5200,0,0,90.0*
21,1,1.1200,1.8000,0,0,90.0*
1,1,0.2800,0.7600,0.5600*
1,1,0.2800,0.7600,-0.5600*
1,1,0.2800,-0.7600,-0.5600*
1,1,0.2800,-0.7600,0.5600*
%
%ADD43ROUNDEDRECTD43*%
G04:AMPARAMS|DCode=44|XSize=1.4mm|YSize=1.8mm|CornerRadius=0.14mm|HoleSize=0mm|Usage=FLASHONLY|Rotation=90.000|XOffset=0mm|YOffset=0mm|HoleType=Round|Shape=RoundedRectangle|*
%AMROUNDEDRECTD44*
21,1,1.4000,1.5200,0,0,90.0*
21,1,1.1200,1.8000,0,0,90.0*
1,1,0.2800,0.7600,0.5600*
1,1,0.2800,0.7600,-0.5600*
1,1,0.2800,-0.7600,-0.5600*
1,1,0.2800,-0.7600,0.5600*
%
%ADD44ROUNDEDRECTD44*%
%ADD45R,1.7780X1.7780*%
%ADD46R,1.7780X1.7780*%
%ADD52R,1.5000X1.1000*%
%ADD53R,1.5240X1.1000*%
%ADD54R,3.1500X2.3000*%
%ADD90C,1.5494*%
%ADD97C,2.0000*%
%ADD133C,1.5080*%
%ADD134R,1.5080X1.5080*%
%ADD135R,1.5080X1.5080*%
G04:AMPARAMS|DCode=136|XSize=2.6mm|YSize=3.5mm|CornerRadius=0.65mm|HoleSize=0mm|Usage=FLASHONLY|Rotation=0.000|XOffset=0mm|YOffset=0mm|HoleType=Round|Shape=RoundedRectangle|*
%AMROUNDEDRECTD136*
21,1,2.6000,2.2000,0,0,0.0*
21,1,1.3000,3.5000,0,0,0.0*
1,1,1.3000,0.6500,-1.1000*
1,1,1.3000,-0.6500,-1.1000*
1,1,1.3000,-0.6500,1.1000*
1,1,1.3000,0.6500,1.1000*
%
%ADD136ROUNDEDRECTD136*%
%ADD137C,1.6000*%
%ADD138O,1.6000X1.4000*%
%ADD139R,1.6000X1.6000*%
%ADD140C,3.0000*%
%ADD141R,1.6000X1.6000*%
%ADD142R,2.8000X2.8000*%
%ADD143C,2.8000*%
%ADD144R,2.0000X2.0000*%
%ADD145R,2.2000X2.2000*%
%ADD146C,2.2000*%
%ADD147O,2.0000X1.8000*%
%ADD148R,2.0000X1.8000*%
%ADD149C,5.0000*%
%ADD150R,1.8000X2.0000*%
%ADD151O,1.8000X2.0000*%
%ADD152O,3.3020X4.5720*%
%ADD153O,4.5720X3.3020*%
%ADD154R,1.3080X1.3080*%
%ADD155C,1.3080*%
%ADD156C,0.9000*%
%ADD157R,0.9000X0.9000*%
%ADD158O,2.0000X1.2000*%
%ADD159R,2.0000X1.2000*%
%ADD166R,2.2600X2.1600*%
%ADD167R,2.1600X2.2600*%
%ADD168R,0.9100X1.2200*%
%ADD169R,1.2200X0.9100*%
G04:AMPARAMS|DCode=170|XSize=1.4mm|YSize=1.8mm|CornerRadius=0.14mm|HoleSize=0mm|Usage=FLASHONLY|Rotation=180.000|XOffset=0mm|YOffset=0mm|HoleType=Round|Shape=RoundedRectangle|*
%AMROUNDEDRECTD170*
21,1,1.4000,1.5200,0,0,180.0*
21,1,1.1200,1.8000,0,0,180.0*
1,1,0.2800,-0.5600,0.7600*
1,1,0.2800,0.5600,0.7600*
1,1,0.2800,0.5600,-0.7600*
1,1,0.2800,-0.5600,-0.7600*
%
%ADD170ROUNDEDRECTD170*%
G04:AMPARAMS|DCode=171|XSize=1.4mm|YSize=1.8mm|CornerRadius=0.14mm|HoleSize=0mm|Usage=FLASHONLY|Rotation=180.000|XOffset=0mm|YOffset=0mm|HoleType=Round|Shape=RoundedRectangle|*
%AMROUNDEDRECTD171*
21,1,1.4000,1.5200,0,0,180.0*
21,1,1.1200,1.8000,0,0,180.0*
1,1,0.2800,-0.5600,0.7600*
1,1,0.2800,0.5600,0.7600*
1,1,0.2800,0.5600,-0.7600*
1,1,0.2800,-0.5600,-0.7600*
%
%ADD171ROUNDEDRECTD171*%
%ADD172R,5.6000X2.1000*%
%ADD173O,2.0320X0.6096*%
%ADD174R,1.5000X0.6000*%
%ADD175R,3.5000X1.6000*%
G54D24*
X413098Y21590D02*
D03*
X393098D02*
D03*
X413098Y42672D02*
D03*
X393098D02*
D03*
X413098Y63754D02*
D03*
X393098D02*
D03*
X413098Y85852D02*
D03*
X393098D02*
D03*
X1227382Y626500D02*
D03*
X1207382D02*
D03*
X1014796Y753364D02*
D03*
X1034796D02*
D03*
X1228692Y685038D02*
D03*
X1208692D02*
D03*
X1246432Y743340D02*
D03*
X1226432D02*
D03*
X1246592Y721750D02*
D03*
X1226592D02*
D03*
X1034890Y774954D02*
D03*
X1014890D02*
D03*
X1050450Y774700D02*
D03*
X1070450D02*
D03*
X947768Y838200D02*
D03*
X927768D02*
D03*
X824588Y822188D02*
D03*
X844588D02*
D03*
X1108322Y667140D02*
D03*
X1128322D02*
D03*
G54D25*
X477520Y127414D02*
D03*
Y147414D02*
D03*
X504698Y127414D02*
D03*
Y147414D02*
D03*
X529844Y127922D02*
D03*
Y147922D02*
D03*
X902970Y530512D02*
D03*
Y550512D02*
D03*
X1230082Y666980D02*
D03*
Y646980D02*
D03*
X794258Y557116D02*
D03*
Y537116D02*
D03*
X1184362Y627930D02*
D03*
Y647930D02*
D03*
X964692Y780288D02*
D03*
Y760288D02*
D03*
X838454Y779366D02*
D03*
Y759366D02*
D03*
X1207092Y646980D02*
D03*
Y666980D02*
D03*
X1184362Y666030D02*
D03*
Y686030D02*
D03*
Y740800D02*
D03*
Y760800D02*
D03*
Y723020D02*
D03*
Y703020D02*
D03*
X1206500Y723044D02*
D03*
Y743044D02*
D03*
X1047202Y711430D02*
D03*
Y691430D02*
D03*
X1068792Y711430D02*
D03*
Y691430D02*
D03*
G54D30*
X521462Y470154D02*
D03*
Y420154D02*
D03*
G54D35*
X829564Y557530D02*
D03*
Y544830D02*
D03*
Y532130D02*
D03*
Y519430D02*
D03*
X876808D02*
D03*
Y532130D02*
D03*
Y544830D02*
D03*
Y557530D02*
D03*
G54D43*
X925322Y538748D02*
D03*
G54D44*
Y508748D02*
D03*
G54D45*
X1437132Y895858D02*
D03*
X1402842D02*
D03*
X73914Y883666D02*
D03*
X39624D02*
D03*
X19050Y279908D02*
D03*
X53340D02*
D03*
X1216914Y598932D02*
D03*
X1251204D02*
D03*
X1216660Y567944D02*
D03*
X1250950D02*
D03*
X1251204Y537972D02*
D03*
X1216914D02*
D03*
G54D46*
X1103122Y208788D02*
D03*
Y243078D02*
D03*
X363728Y22098D02*
D03*
Y56388D02*
D03*
X1188212Y566420D02*
D03*
Y600710D02*
D03*
G54D52*
X956587Y561266D02*
D03*
X1013587D02*
D03*
G54D53*
X956587Y520266D02*
D03*
X1013587D02*
D03*
G54D54*
X521462Y479254D02*
D03*
Y410254D02*
D03*
G54D90*
X302006Y293624D02*
D03*
Y318624D02*
D03*
Y419354D02*
D03*
Y394354D02*
D03*
X727710Y956111D02*
D03*
X702710D02*
D03*
X349358D02*
D03*
X324358D02*
D03*
G54D97*
X1207678Y503486D02*
D03*
X1132678Y542486D02*
D03*
X1298390Y201076D02*
D03*
X1259390Y126076D02*
D03*
X1299972Y262708D02*
D03*
X1299972Y457708D02*
D03*
X1374882Y52070D02*
D03*
X972056Y473888D02*
D03*
X1122056D02*
D03*
X972058Y373888D02*
D03*
X1122056D02*
D03*
X1263904Y903706D02*
D03*
X1365446Y201076D02*
D03*
X1326446Y126076D02*
D03*
G54D133*
X31496Y371818D02*
D03*
Y396818D02*
D03*
Y346818D02*
D03*
Y499764D02*
D03*
Y524764D02*
D03*
Y474764D02*
D03*
X518614Y951568D02*
D03*
X493614D02*
D03*
X543614D02*
D03*
G54D134*
X31496Y321818D02*
D03*
Y449764D02*
D03*
G54D135*
X568614Y951568D02*
D03*
G54D136*
X741368Y36830D02*
D03*
X911368Y37830D02*
D03*
X956368D02*
D03*
X1000368D02*
D03*
X1046368D02*
D03*
X785368Y36830D02*
D03*
X926946Y364482D02*
D03*
X880946D02*
D03*
X836946D02*
D03*
X791946D02*
D03*
X665946Y363482D02*
D03*
X621946D02*
D03*
G54D137*
X1070356Y245580D02*
D03*
Y195580D02*
D03*
X572516Y34182D02*
D03*
X759098Y262382D02*
D03*
X762092Y178562D02*
D03*
X837092D02*
D03*
X667258Y276352D02*
D03*
X673100Y74904D02*
D03*
X891432Y223266D02*
D03*
X727548Y505460D02*
D03*
X802548D02*
D03*
X566166Y371348D02*
D03*
X1292894Y565058D02*
D03*
Y490058D02*
D03*
G54D138*
X1097046Y52070D02*
D03*
G54D139*
X572516Y84182D02*
D03*
X673100Y39904D02*
D03*
G54D140*
X1118892Y320603D02*
D03*
X968891D02*
D03*
G54D141*
X809098Y262382D02*
D03*
X632258Y276352D02*
D03*
X941432Y223266D02*
D03*
X516166Y371348D02*
D03*
G54D142*
X1194054Y184404D02*
D03*
G54D143*
Y404404D02*
D03*
G54D144*
X1263904Y868706D02*
D03*
G54D145*
X1375340Y846274D02*
D03*
G54D146*
X1450340D02*
D03*
X1375340Y643274D02*
D03*
X1450340D02*
D03*
X1375340Y592874D02*
D03*
X1450340D02*
D03*
X1375340Y693674D02*
D03*
X1450340D02*
D03*
G54D147*
X444754Y21336D02*
D03*
Y46736D02*
D03*
Y72136D02*
D03*
Y97536D02*
D03*
Y122936D02*
D03*
G54D148*
Y148336D02*
D03*
G54D149*
X1448730Y952286D02*
D03*
Y52286D02*
D03*
X48730Y952286D02*
D03*
Y52286D02*
D03*
G54D150*
X127254Y958378D02*
D03*
X423164Y760730D02*
D03*
G54D151*
X152654Y958378D02*
D03*
X178054D02*
D03*
X203454D02*
D03*
X228854D02*
D03*
X254254D02*
D03*
X346964Y760730D02*
D03*
X372364D02*
D03*
X397764D02*
D03*
G54D152*
X1118870Y937514D02*
D03*
X1169670D02*
D03*
G54D153*
X1440000Y450038D02*
D03*
Y399238D02*
D03*
Y500838D02*
D03*
X1439672Y207772D02*
D03*
Y156972D02*
D03*
Y258572D02*
D03*
G54D154*
X398780Y963412D02*
D03*
G54D155*
X418780D02*
D03*
G54D156*
X252500Y44238D02*
D03*
G54D157*
X240000D02*
D03*
G54D158*
X41148Y819084D02*
D03*
Y839084D02*
D03*
G54D159*
Y799084D02*
D03*
G54D166*
X480568Y47636D02*
D03*
Y96636D02*
D03*
G54D167*
X520076Y340106D02*
D03*
X569076D02*
D03*
G54D168*
X1395890Y816356D02*
D03*
X1428590D02*
D03*
G54D169*
X188976Y84422D02*
D03*
Y51722D02*
D03*
X158242Y85184D02*
D03*
Y52484D02*
D03*
G54D170*
X720330Y614172D02*
D03*
X556754Y613918D02*
D03*
X884414D02*
D03*
G54D171*
X750330Y614172D02*
D03*
X586754Y613918D02*
D03*
X914414D02*
D03*
G54D172*
X1183896Y813562D02*
D03*
X1088896D02*
D03*
G54D173*
X871220Y758698D02*
D03*
X927100Y733298D02*
D03*
Y758698D02*
D03*
Y745998D02*
D03*
Y720598D02*
D03*
X871220Y745998D02*
D03*
Y733298D02*
D03*
Y720598D02*
D03*
X871728Y780796D02*
D03*
Y793496D02*
D03*
Y806196D02*
D03*
X927608Y780796D02*
D03*
Y806196D02*
D03*
Y818896D02*
D03*
Y793496D02*
D03*
X871728Y818896D02*
D03*
G54D174*
X1091822Y776360D02*
D03*
Y763660D02*
D03*
Y750960D02*
D03*
Y738260D02*
D03*
Y725560D02*
D03*
Y712860D02*
D03*
Y700160D02*
D03*
Y687460D02*
D03*
X1144822D02*
D03*
Y700160D02*
D03*
Y712860D02*
D03*
Y725560D02*
D03*
Y738260D02*
D03*
Y750960D02*
D03*
Y763660D02*
D03*
Y776360D02*
D03*
G54D175*
X1277072Y704732D02*
D03*
Y759088D02*
D03*
M02*
