G04*
G04 #@! TF.GenerationSoftware,Altium Limited,Altium Designer,22.5.1 (42)*
G04*
G04 Layer_Color=32768*
%FSLAX44Y44*%
%MOMM*%
G71*
G04*
G04 #@! TF.SameCoordinates,325B58FB-DF44-4075-A057-A786A272C4E4*
G04*
G04*
G04 #@! TF.FilePolarity,Positive*
G04*
G01*
G75*
%ADD12C,0.2540*%
%ADD17C,0.1524*%
%ADD20C,0.1000*%
%ADD196C,0.0500*%
%ADD197C,0.0120*%
G54D12*
X864743Y909244D02*
Y978840D01*
Y909244D02*
X946023D01*
Y978840D01*
X864743D02*
X946023D01*
X944245Y505790D02*
X1025525D01*
Y575386D01*
X944245D02*
X1025525D01*
X944245Y505790D02*
Y575386D01*
G54D17*
X276062Y345665D02*
X338546D01*
X276062Y266671D02*
Y345665D01*
Y266671D02*
X338546D01*
Y345665D01*
Y367401D02*
Y446395D01*
X276062Y367401D02*
X338546D01*
X276062D02*
Y446395D01*
X338546D01*
X675757Y919571D02*
X754751D01*
X675757D02*
Y982055D01*
X754751D01*
Y919571D02*
Y982055D01*
X297405Y919571D02*
X376399D01*
X297405D02*
Y982055D01*
X376399D01*
Y919571D02*
Y982055D01*
G54D20*
X519940Y876944D02*
X551940D01*
X519940Y893944D02*
X551940D01*
Y876944D02*
Y893944D01*
X519940Y876944D02*
Y893944D01*
X537974Y901328D02*
X569974D01*
X537974Y918328D02*
X569974D01*
Y901328D02*
Y918328D01*
X537974Y901328D02*
Y918328D01*
X737870Y792306D02*
Y802306D01*
X732870Y797306D02*
X742870D01*
X568532Y843534D02*
X578532D01*
X573532Y838534D02*
Y848534D01*
X569040Y798322D02*
X579040D01*
X574040Y793322D02*
Y803322D01*
X310749Y504447D02*
X387749D01*
X310749Y600447D02*
X387749D01*
X310749Y504447D02*
Y600447D01*
X387749Y504447D02*
Y600447D01*
X349249Y547447D02*
Y557447D01*
X344249Y552447D02*
X354249D01*
G54D196*
X67996Y294818D02*
Y423818D01*
X5496Y294818D02*
X67996D01*
X5496D02*
Y423818D01*
X67996D01*
Y422764D02*
Y551764D01*
X5496Y422764D02*
X67996D01*
X5496D02*
Y551764D01*
X67996D01*
X466614Y988068D02*
X595614D01*
Y925568D02*
Y988068D01*
X466614Y925568D02*
X595614D01*
X466614D02*
Y988068D01*
X583250Y229310D02*
Y301550D01*
X496250Y229310D02*
X583250D01*
X496250Y301550D02*
X583250D01*
X496250Y229310D02*
Y301550D01*
X701614Y131012D02*
Y203252D01*
X614614Y131012D02*
X701614D01*
X614614Y203252D02*
X701614D01*
X614614Y131012D02*
Y203252D01*
X487862Y396254D02*
Y493254D01*
Y396254D02*
X555062D01*
Y493254D01*
X487862D02*
X555062D01*
X1132832Y146028D02*
X1208032D01*
Y111528D02*
Y146028D01*
X1132832Y111528D02*
X1208032D01*
X1132832D02*
Y146028D01*
X1118616Y18796D02*
X1353058D01*
X1118616D02*
Y42570D01*
X1118362Y85852D02*
X1352804D01*
Y61570D02*
Y85852D01*
Y61570D02*
X1384046D01*
X1118362D02*
Y85852D01*
X1353058Y18796D02*
Y42570D01*
X1384046D02*
Y61570D01*
X1353058Y42570D02*
X1384046D01*
X1087120D02*
X1118616D01*
X1087120Y61570D02*
X1118362D01*
X1087120Y42570D02*
Y61570D01*
X1142702Y142140D02*
X1200702D01*
Y116940D02*
Y142140D01*
X1142702Y116940D02*
X1200702D01*
X1142702D02*
Y142140D01*
X693370Y820806D02*
X782370D01*
X693370Y773806D02*
X782370D01*
X693370D02*
Y820806D01*
X782370Y773806D02*
Y820806D01*
X529032Y820034D02*
Y867034D01*
X618032Y820034D02*
Y867034D01*
X529032D02*
X618032D01*
X529032Y820034D02*
X618032D01*
X618540Y774822D02*
Y821822D01*
X529540Y774822D02*
Y821822D01*
Y774822D02*
X618540D01*
X529540Y821822D02*
X618540D01*
X1154822Y679410D02*
Y784410D01*
X1081822Y679410D02*
X1154822D01*
X1081822D02*
Y784410D01*
X1154822D01*
X376780Y933412D02*
Y983412D01*
X440780D01*
X376780Y933412D02*
X440780D01*
Y983412D01*
X51490Y275068D02*
X118690D01*
X51490Y178068D02*
Y275068D01*
Y178068D02*
X118690D01*
Y275068D01*
G54D197*
X269718Y30268D02*
Y66336D01*
X221966Y30268D02*
Y66336D01*
Y30268D02*
X269718D01*
X221966Y66336D02*
X269718D01*
X20320Y771586D02*
Y865820D01*
X70612Y771586D02*
Y865820D01*
X20320Y771586D02*
X70612D01*
X20320Y865820D02*
X70612D01*
M02*
