G04*
G04 #@! TF.GenerationSoftware,Altium Limited,Altium Designer,22.5.1 (42)*
G04*
G04 Layer_Color=32896*
%FSLAX44Y44*%
%MOMM*%
G71*
G04*
G04 #@! TF.SameCoordinates,325B58FB-DF44-4075-A057-A786A272C4E4*
G04*
G04*
G04 #@! TF.FilePolarity,Positive*
G04*
G01*
G75*
%ADD10C,0.5080*%
%ADD11C,0.2000*%
%ADD12C,0.2540*%
%ADD13C,0.2032*%
%ADD17C,0.1524*%
%ADD19C,0.2030*%
%ADD20C,0.1000*%
%ADD192C,0.4000*%
%ADD193C,0.0000*%
G36*
X946621Y760258D02*
X944158Y758778D01*
X946671Y757385D01*
X946621Y760258D01*
D02*
G37*
G36*
X947129Y820456D02*
X944666Y818976D01*
X947179Y817583D01*
X947129Y820456D01*
D02*
G37*
G36*
X461518Y106907D02*
X458135D01*
X456598Y105314D01*
X461518Y101846D01*
Y100140D01*
X455724Y104412D01*
X451763Y100324D01*
Y102086D01*
X456612Y106907D01*
X451763D01*
Y108204D01*
X461518D01*
Y106907D01*
D02*
G37*
G36*
X500888Y329184D02*
X499591D01*
Y332567D01*
X497998Y334104D01*
X494530Y329184D01*
X492825D01*
X497096Y334978D01*
X493008Y338939D01*
X494770D01*
X499591Y334090D01*
Y338939D01*
X500888D01*
Y329184D01*
D02*
G37*
G36*
X894066Y564666D02*
X894221Y564440D01*
X894404Y564215D01*
X894574Y564017D01*
X894743Y563848D01*
X894870Y563707D01*
X894926Y563665D01*
X894968Y563623D01*
X894982Y563609D01*
X894996Y563595D01*
X895292Y563355D01*
X895589Y563129D01*
X895870Y562932D01*
X896152Y562777D01*
X896392Y562636D01*
X896491Y562579D01*
X896575Y562537D01*
X896646Y562495D01*
X896702Y562481D01*
X896730Y562453D01*
X896744D01*
Y561297D01*
X896533Y561381D01*
X896321Y561480D01*
X896110Y561579D01*
X895913Y561677D01*
X895743Y561762D01*
X895603Y561832D01*
X895518Y561889D01*
X895504Y561903D01*
X895490D01*
X895236Y562058D01*
X895011Y562213D01*
X894813Y562354D01*
X894658Y562481D01*
X894517Y562579D01*
X894433Y562664D01*
X894362Y562720D01*
X894348Y562734D01*
Y555108D01*
X893150D01*
Y564906D01*
X893925D01*
X894066Y564666D01*
D02*
G37*
G36*
X1450410Y807439D02*
X1449113D01*
Y810822D01*
X1447520Y812358D01*
X1444052Y807439D01*
X1442347D01*
X1446618Y813233D01*
X1442530Y817194D01*
X1444292D01*
X1449113Y812345D01*
Y817194D01*
X1450410D01*
Y807439D01*
D02*
G37*
G36*
X193406Y103553D02*
X197303Y107574D01*
Y105841D01*
X192532Y101098D01*
X197303D01*
Y99822D01*
X187706D01*
Y101098D01*
X191034D01*
X192546Y102665D01*
X187706Y106077D01*
Y107755D01*
X193406Y103553D01*
D02*
G37*
G36*
X162672Y104315D02*
X166569Y108336D01*
Y106603D01*
X161798Y101860D01*
X166569D01*
Y100584D01*
X156972D01*
Y101860D01*
X160300D01*
X161812Y103427D01*
X156972Y106839D01*
Y108517D01*
X162672Y104315D01*
D02*
G37*
G36*
X975487Y557769D02*
X974308D01*
Y561416D01*
X975487D01*
Y557769D01*
D02*
G37*
G36*
X997862Y561222D02*
X997709Y561041D01*
X997584Y560889D01*
X997487Y560750D01*
X997418Y560653D01*
X997376Y560570D01*
X997348Y560515D01*
X997335Y560501D01*
X997279Y560362D01*
X997224Y560223D01*
X997196Y560085D01*
X997182Y559960D01*
X997168Y559863D01*
X997154Y559780D01*
Y559710D01*
X997168Y559502D01*
X997210Y559294D01*
X997265Y559072D01*
X997335Y558878D01*
X997404Y558698D01*
X997459Y558545D01*
X997487Y558490D01*
X997501Y558448D01*
X997515Y558434D01*
Y558420D01*
X997640Y558143D01*
X997737Y557921D01*
X997806Y557727D01*
X997862Y557561D01*
X997903Y557450D01*
X997931Y557366D01*
X997959Y557311D01*
Y557297D01*
X998000Y557020D01*
X998028Y556895D01*
Y556784D01*
X998042Y556687D01*
Y556534D01*
X998028Y556340D01*
X998014Y556160D01*
X997987Y555993D01*
X997959Y555855D01*
X997931Y555744D01*
X997903Y555647D01*
X997876Y555591D01*
Y555577D01*
X997792Y555411D01*
X997709Y555258D01*
X997612Y555120D01*
X997515Y554981D01*
X997432Y554870D01*
X997362Y554787D01*
X997307Y554731D01*
X997293Y554718D01*
X995906D01*
X996045Y554856D01*
X996170Y554995D01*
X996281Y555134D01*
X996378Y555258D01*
X996447Y555369D01*
X996516Y555453D01*
X996544Y555508D01*
X996558Y555536D01*
X996641Y555702D01*
X996697Y555869D01*
X996752Y556007D01*
X996780Y556146D01*
X996794Y556257D01*
X996808Y556340D01*
Y556409D01*
X996794Y556576D01*
X996780Y556729D01*
X996766Y556784D01*
Y556826D01*
X996752Y556853D01*
Y556867D01*
X996724Y556964D01*
X996683Y557061D01*
X996600Y557283D01*
X996572Y557394D01*
X996530Y557477D01*
X996516Y557533D01*
X996503Y557547D01*
X996378Y557824D01*
X996281Y558074D01*
X996211Y558296D01*
X996142Y558462D01*
X996100Y558601D01*
X996073Y558698D01*
X996045Y558767D01*
Y558781D01*
X995976Y559086D01*
X995948Y559225D01*
X995934Y559350D01*
X995920Y559447D01*
Y559599D01*
X995934Y559807D01*
X995948Y560001D01*
X996045Y560362D01*
X996170Y560667D01*
X996308Y560931D01*
X996378Y561041D01*
X996447Y561139D01*
X996516Y561222D01*
X996572Y561291D01*
X996627Y561347D01*
X996669Y561388D01*
X996683Y561402D01*
X996697Y561416D01*
X998042D01*
X997862Y561222D01*
D02*
G37*
G36*
Y525662D02*
X997709Y525481D01*
X997584Y525329D01*
X997487Y525190D01*
X997418Y525093D01*
X997376Y525010D01*
X997348Y524955D01*
X997335Y524941D01*
X997279Y524802D01*
X997224Y524663D01*
X997196Y524525D01*
X997182Y524400D01*
X997168Y524303D01*
X997154Y524220D01*
Y524150D01*
X997168Y523942D01*
X997210Y523734D01*
X997265Y523512D01*
X997335Y523318D01*
X997404Y523138D01*
X997459Y522985D01*
X997487Y522930D01*
X997501Y522888D01*
X997515Y522874D01*
Y522860D01*
X997640Y522583D01*
X997737Y522361D01*
X997806Y522167D01*
X997862Y522001D01*
X997903Y521890D01*
X997931Y521806D01*
X997959Y521751D01*
Y521737D01*
X998000Y521460D01*
X998028Y521335D01*
Y521224D01*
X998042Y521127D01*
Y520974D01*
X998028Y520780D01*
X998014Y520600D01*
X997987Y520434D01*
X997959Y520295D01*
X997931Y520184D01*
X997903Y520087D01*
X997876Y520031D01*
Y520017D01*
X997792Y519851D01*
X997709Y519698D01*
X997612Y519560D01*
X997515Y519421D01*
X997432Y519310D01*
X997362Y519227D01*
X997307Y519171D01*
X997293Y519158D01*
X995906D01*
X996045Y519296D01*
X996170Y519435D01*
X996281Y519574D01*
X996378Y519698D01*
X996447Y519809D01*
X996516Y519893D01*
X996544Y519948D01*
X996558Y519976D01*
X996641Y520142D01*
X996697Y520309D01*
X996752Y520447D01*
X996780Y520586D01*
X996794Y520697D01*
X996808Y520780D01*
Y520849D01*
X996794Y521016D01*
X996780Y521169D01*
X996766Y521224D01*
Y521266D01*
X996752Y521293D01*
Y521307D01*
X996724Y521404D01*
X996683Y521501D01*
X996600Y521723D01*
X996572Y521834D01*
X996530Y521917D01*
X996516Y521973D01*
X996503Y521987D01*
X996378Y522264D01*
X996281Y522514D01*
X996211Y522736D01*
X996142Y522902D01*
X996100Y523041D01*
X996073Y523138D01*
X996045Y523207D01*
Y523221D01*
X995976Y523526D01*
X995948Y523665D01*
X995934Y523790D01*
X995920Y523887D01*
Y524039D01*
X995934Y524247D01*
X995948Y524441D01*
X996045Y524802D01*
X996170Y525107D01*
X996308Y525371D01*
X996378Y525481D01*
X996447Y525579D01*
X996516Y525662D01*
X996572Y525731D01*
X996627Y525787D01*
X996669Y525828D01*
X996683Y525842D01*
X996697Y525856D01*
X998042D01*
X997862Y525662D01*
D02*
G37*
G54D10*
X303559Y260604D02*
X302006Y262157D01*
X300453Y260604D01*
X302006Y259051D01*
X303559Y260604D01*
Y361334D02*
X302006Y362887D01*
X300453Y361334D01*
X302006Y359781D01*
X303559Y361334D01*
X671243Y956111D02*
X669690Y957664D01*
X668137Y956111D01*
X669690Y954558D01*
X671243Y956111D01*
X292891D02*
X291338Y957664D01*
X289785Y956111D01*
X291338Y954558D01*
X292891Y956111D01*
G54D11*
X850138Y562864D02*
X851031Y560709D01*
X853186Y559816D01*
X855341Y560709D01*
X856234Y562864D01*
X502962Y478574D02*
X505968Y481580D01*
X536406Y481876D02*
X539962Y478320D01*
X535432Y481876D02*
X536406D01*
X505714Y481114D02*
X537210D01*
X491942Y405054D02*
Y490754D01*
X550982Y405054D02*
Y484454D01*
X856234Y562864D02*
X864870D01*
X850138D02*
X856234D01*
X841502D02*
X850138D01*
X841502Y514096D02*
X864870D01*
X815686Y562864D02*
X841502D01*
X815686Y514096D02*
Y562864D01*
Y514096D02*
X890686D01*
Y562864D01*
X864870D02*
X890686D01*
X913822Y548386D02*
X936822D01*
X913822Y499110D02*
X936822D01*
X913822D02*
Y515748D01*
X936822Y499110D02*
Y515748D01*
X913822Y531748D02*
Y548386D01*
X936822Y531748D02*
Y548386D01*
X759968Y602672D02*
Y625672D01*
X710692Y602672D02*
Y625672D01*
X727330D01*
X710692Y602672D02*
X727330D01*
X743330Y625672D02*
X759968D01*
X743330Y602672D02*
X759968D01*
X1079396Y837562D02*
X1193396D01*
X1079396Y789562D02*
X1193396D01*
Y826562D02*
Y837562D01*
Y789562D02*
Y800562D01*
X1079396Y789562D02*
Y800562D01*
Y826562D02*
Y837562D01*
X911860Y714248D02*
Y765048D01*
X886460Y714248D02*
X911860D01*
X886460D02*
Y765048D01*
X892810D01*
X905510D02*
X911860D01*
X1134072Y682410D02*
Y781410D01*
X1102572Y682410D02*
X1134072D01*
X1102572D02*
Y781410D01*
X1134072D01*
X906018Y825246D02*
X912368D01*
X886968D02*
X893318D01*
X886968Y774446D02*
Y825246D01*
Y774446D02*
X912368D01*
Y825246D01*
X596392Y602418D02*
Y625418D01*
X547116Y602418D02*
Y625418D01*
X563754D01*
X547116Y602418D02*
X563754D01*
X579754Y625418D02*
X596392D01*
X579754Y602418D02*
X596392D01*
X924052D02*
Y625418D01*
X874776Y602418D02*
Y625418D01*
X891414D01*
X874776Y602418D02*
X891414D01*
X907414Y625418D02*
X924052D01*
X907414Y602418D02*
X924052D01*
X565830Y416754D02*
X555834D01*
Y421752D01*
X557500Y423418D01*
X564164D01*
X565830Y421752D01*
Y416754D01*
X555834Y426750D02*
Y430083D01*
Y428416D01*
X565830D01*
X564164Y426750D01*
X854506Y578530D02*
Y570200D01*
X852840Y568534D01*
X849508D01*
X847841Y570200D01*
Y578530D01*
X844509Y568534D02*
X841177D01*
X842843D01*
Y578530D01*
X844509Y576864D01*
X836179D02*
X834512Y578530D01*
X831180D01*
X829514Y576864D01*
Y575198D01*
X831180Y573532D01*
X832846D01*
X831180D01*
X829514Y571866D01*
Y570200D01*
X831180Y568534D01*
X834512D01*
X836179Y570200D01*
X921176Y495421D02*
X911180D01*
Y490423D01*
X912846Y488756D01*
X916178D01*
X917844Y490423D01*
Y495421D01*
Y492089D02*
X921176Y488756D01*
X911180Y478760D02*
Y485424D01*
X916178D01*
X914512Y482092D01*
Y480426D01*
X916178Y478760D01*
X919510D01*
X921176Y480426D01*
Y483758D01*
X919510Y485424D01*
X921176Y470429D02*
X911180D01*
X916178Y475428D01*
Y468763D01*
X897606Y511982D02*
X895940Y513648D01*
Y516981D01*
X897606Y518647D01*
X904270D01*
X905936Y516981D01*
Y513648D01*
X904270Y511982D01*
X895940Y501986D02*
X897606Y505318D01*
X900938Y508650D01*
X904270D01*
X905936Y506984D01*
Y503652D01*
X904270Y501986D01*
X902604D01*
X900938Y503652D01*
Y508650D01*
X905936Y498653D02*
Y495321D01*
Y496987D01*
X895940D01*
X897606Y498653D01*
X1427429Y802050D02*
Y792054D01*
X1422430D01*
X1420764Y793720D01*
Y800384D01*
X1422430Y802050D01*
X1427429D01*
X1410767D02*
X1417432D01*
Y797052D01*
X1414100Y798718D01*
X1412433D01*
X1410767Y797052D01*
Y793720D01*
X1412433Y792054D01*
X1415766D01*
X1417432Y793720D01*
X1420428Y873536D02*
X1422095Y875202D01*
X1425427D01*
X1427093Y873536D01*
Y866872D01*
X1425427Y865206D01*
X1422095D01*
X1420428Y866872D01*
X1417096Y875202D02*
X1410432D01*
Y873536D01*
X1417096Y866872D01*
Y865206D01*
X1402101D02*
Y875202D01*
X1407099Y870204D01*
X1400435D01*
X343184Y45151D02*
X344850Y43485D01*
Y40153D01*
X343184Y38487D01*
X336520D01*
X334854Y40153D01*
Y43485D01*
X336520Y45151D01*
X344850Y48484D02*
Y55148D01*
X343184D01*
X336520Y48484D01*
X334854D01*
Y65145D02*
Y58481D01*
X341518Y65145D01*
X343184D01*
X344850Y63479D01*
Y60147D01*
X343184Y58481D01*
X78039Y864392D02*
X79705Y866058D01*
X83037D01*
X84703Y864392D01*
Y857728D01*
X83037Y856062D01*
X79705D01*
X78039Y857728D01*
X74706Y866058D02*
X68042D01*
Y864392D01*
X74706Y857728D01*
Y856062D01*
X64710Y864392D02*
X63043Y866058D01*
X59711D01*
X58045Y864392D01*
Y857728D01*
X59711Y856062D01*
X63043D01*
X64710Y857728D01*
Y864392D01*
X60005Y306100D02*
X61671Y307766D01*
X65003D01*
X66669Y306100D01*
Y299436D01*
X65003Y297770D01*
X61671D01*
X60005Y299436D01*
X50008Y307766D02*
X53340Y306100D01*
X56672Y302768D01*
Y299436D01*
X55006Y297770D01*
X51674D01*
X50008Y299436D01*
Y301102D01*
X51674Y302768D01*
X56672D01*
X46676Y299436D02*
X45009Y297770D01*
X41677D01*
X40011Y299436D01*
Y306100D01*
X41677Y307766D01*
X45009D01*
X46676Y306100D01*
Y304434D01*
X45009Y302768D01*
X40011D01*
X1219301Y849158D02*
Y847492D01*
X1215968Y844160D01*
X1212636Y847492D01*
Y849158D01*
X1215968Y844160D02*
Y839162D01*
X1209304D02*
X1205972D01*
X1207638D01*
Y849158D01*
X1209304Y847492D01*
X1174953Y782492D02*
Y774162D01*
X1173287Y772496D01*
X1169954D01*
X1168288Y774162D01*
Y782492D01*
X1164956Y774162D02*
X1163290Y772496D01*
X1159958D01*
X1158291Y774162D01*
Y780826D01*
X1159958Y782492D01*
X1163290D01*
X1164956Y780826D01*
Y779160D01*
X1163290Y777494D01*
X1158291D01*
X1259835Y620587D02*
Y628585D01*
X1255836D01*
X1254504Y627252D01*
Y624586D01*
X1255836Y623253D01*
X1259835D01*
X1257169D02*
X1254504Y620587D01*
X1251838Y627252D02*
X1250505Y628585D01*
X1247839D01*
X1246506Y627252D01*
Y625919D01*
X1247839Y624586D01*
X1249172D01*
X1247839D01*
X1246506Y623253D01*
Y621920D01*
X1247839Y620587D01*
X1250505D01*
X1251838Y621920D01*
X1243840Y628585D02*
X1238509D01*
Y627252D01*
X1243840Y621920D01*
Y620587D01*
X1258098Y649789D02*
Y656787D01*
X1254599D01*
X1253433Y655621D01*
Y653288D01*
X1254599Y652122D01*
X1258098D01*
X1255766D02*
X1253433Y649789D01*
X1251100Y655621D02*
X1249934Y656787D01*
X1247601D01*
X1246435Y655621D01*
Y654454D01*
X1247601Y653288D01*
X1248768D01*
X1247601D01*
X1246435Y652122D01*
Y650955D01*
X1247601Y649789D01*
X1249934D01*
X1251100Y650955D01*
X1244102Y649789D02*
X1241770D01*
X1242936D01*
Y656787D01*
X1244102Y655621D01*
X1288537Y602045D02*
Y610043D01*
X1284539D01*
X1283206Y608710D01*
Y606044D01*
X1284539Y604711D01*
X1288537D01*
X1285871D02*
X1283206Y602045D01*
X1275208D02*
X1280540D01*
X1275208Y607377D01*
Y608710D01*
X1276541Y610043D01*
X1279207D01*
X1280540Y608710D01*
X1272542D02*
X1271209Y610043D01*
X1268544D01*
X1267211Y608710D01*
Y607377D01*
X1268544Y606044D01*
X1267211Y604711D01*
Y603378D01*
X1268544Y602045D01*
X1271209D01*
X1272542Y603378D01*
Y604711D01*
X1271209Y606044D01*
X1272542Y607377D01*
Y608710D01*
X1271209Y606044D02*
X1268544D01*
X1170096Y594735D02*
X1160100D01*
Y589737D01*
X1161766Y588070D01*
X1165098D01*
X1166764Y589737D01*
Y594735D01*
Y591403D02*
X1170096Y588070D01*
Y578074D02*
Y584738D01*
X1163432Y578074D01*
X1161766D01*
X1160100Y579740D01*
Y583072D01*
X1161766Y584738D01*
X1160100Y574742D02*
Y568077D01*
X1161766D01*
X1168430Y574742D01*
X1170096D01*
X1278300Y581019D02*
X1268304D01*
Y576021D01*
X1269970Y574355D01*
X1273302D01*
X1274968Y576021D01*
Y581019D01*
Y577687D02*
X1278300Y574355D01*
Y564358D02*
Y571022D01*
X1271636Y564358D01*
X1269970D01*
X1268304Y566024D01*
Y569356D01*
X1269970Y571022D01*
X1268304Y554361D02*
X1269970Y557693D01*
X1273302Y561026D01*
X1276634D01*
X1278300Y559359D01*
Y556027D01*
X1276634Y554361D01*
X1274968D01*
X1273302Y556027D01*
Y561026D01*
X1268343Y511384D02*
Y521380D01*
X1263345D01*
X1261678Y519714D01*
Y516382D01*
X1263345Y514716D01*
X1268343D01*
X1265011D02*
X1261678Y511384D01*
X1251682D02*
X1258346D01*
X1251682Y518048D01*
Y519714D01*
X1253348Y521380D01*
X1256680D01*
X1258346Y519714D01*
X1241685Y521380D02*
X1248350D01*
Y516382D01*
X1245017Y518048D01*
X1243351D01*
X1241685Y516382D01*
Y513050D01*
X1243351Y511384D01*
X1246683D01*
X1248350Y513050D01*
X1265843Y680158D02*
Y690154D01*
X1260845D01*
X1259178Y688488D01*
Y685156D01*
X1260845Y683490D01*
X1265843D01*
X1262511D02*
X1259178Y680158D01*
X1249182D02*
X1255846D01*
X1249182Y686822D01*
Y688488D01*
X1250848Y690154D01*
X1254180D01*
X1255846Y688488D01*
X1240851Y680158D02*
Y690154D01*
X1245850Y685156D01*
X1239185D01*
X1248928Y758662D02*
Y768658D01*
X1243930D01*
X1242263Y766992D01*
Y763660D01*
X1243930Y761994D01*
X1248928D01*
X1245596D02*
X1242263Y758662D01*
X1238931D02*
X1235599D01*
X1237265D01*
Y768658D01*
X1238931Y766992D01*
X1230601D02*
X1228934Y768658D01*
X1225602D01*
X1223936Y766992D01*
Y765326D01*
X1225602Y763660D01*
X1223936Y761994D01*
Y760328D01*
X1225602Y758662D01*
X1228934D01*
X1230601Y760328D01*
Y761994D01*
X1228934Y763660D01*
X1230601Y765326D01*
Y766992D01*
X1228934Y763660D02*
X1225602D01*
X1310010Y768536D02*
X1300014D01*
Y763538D01*
X1301680Y761871D01*
X1305012D01*
X1306678Y763538D01*
Y768536D01*
Y765204D02*
X1310010Y761871D01*
Y758539D02*
Y755207D01*
Y756873D01*
X1300014D01*
X1301680Y758539D01*
X1300014Y743544D02*
Y750209D01*
X1305012D01*
X1303346Y746876D01*
Y745210D01*
X1305012Y743544D01*
X1308344D01*
X1310010Y745210D01*
Y748542D01*
X1308344Y750209D01*
X1250299Y702621D02*
Y709619D01*
X1246800D01*
X1245634Y708453D01*
Y706120D01*
X1246800Y704954D01*
X1250299D01*
X1247967D02*
X1245634Y702621D01*
X1243301D02*
X1240969D01*
X1242135D01*
Y709619D01*
X1243301Y708453D01*
X1237470D02*
X1236304Y709619D01*
X1233971D01*
X1232805Y708453D01*
Y707286D01*
X1233971Y706120D01*
X1235137D01*
X1233971D01*
X1232805Y704954D01*
Y703787D01*
X1233971Y702621D01*
X1236304D01*
X1237470Y703787D01*
X1140409Y221316D02*
Y231312D01*
X1135410D01*
X1133744Y229646D01*
Y226314D01*
X1135410Y224648D01*
X1140409D01*
X1137076D02*
X1133744Y221316D01*
X1123747Y231312D02*
X1130412D01*
Y226314D01*
X1127080Y227980D01*
X1125414D01*
X1123747Y226314D01*
Y222982D01*
X1125414Y221316D01*
X1128746D01*
X1130412Y222982D01*
X1015695Y586404D02*
Y576408D01*
X1010696D01*
X1009030Y578074D01*
Y584738D01*
X1010696Y586404D01*
X1015695D01*
X1000699Y576408D02*
Y586404D01*
X1005698Y581406D01*
X999033D01*
X480344Y192979D02*
X482010Y191313D01*
Y187981D01*
X480344Y186315D01*
X473680D01*
X472014Y187981D01*
Y191313D01*
X473680Y192979D01*
X482010Y202976D02*
X480344Y199644D01*
X477012Y196312D01*
X473680D01*
X472014Y197978D01*
Y201310D01*
X473680Y202976D01*
X475346D01*
X477012Y201310D01*
Y196312D01*
X482010Y212973D02*
Y206308D01*
X477012D01*
X478678Y209641D01*
Y211307D01*
X477012Y212973D01*
X473680D01*
X472014Y211307D01*
Y207975D01*
X473680Y206308D01*
X502442Y191455D02*
X504108Y189789D01*
Y186457D01*
X502442Y184791D01*
X495778D01*
X494112Y186457D01*
Y189789D01*
X495778Y191455D01*
X504108Y201452D02*
X502442Y198120D01*
X499110Y194788D01*
X495778D01*
X494112Y196454D01*
Y199786D01*
X495778Y201452D01*
X497444D01*
X499110Y199786D01*
Y194788D01*
X494112Y211449D02*
Y204785D01*
X500776Y211449D01*
X502442D01*
X504108Y209783D01*
Y206451D01*
X502442Y204785D01*
X777016Y530291D02*
X778682Y528625D01*
Y525293D01*
X777016Y523627D01*
X770352D01*
X768686Y525293D01*
Y528625D01*
X770352Y530291D01*
X778682Y540288D02*
Y533624D01*
X773684D01*
X775350Y536956D01*
Y538622D01*
X773684Y540288D01*
X770352D01*
X768686Y538622D01*
Y535290D01*
X770352Y533624D01*
Y543620D02*
X768686Y545287D01*
Y548619D01*
X770352Y550285D01*
X777016D01*
X778682Y548619D01*
Y545287D01*
X777016Y543620D01*
X775350D01*
X773684Y545287D01*
Y550285D01*
X1164289Y649063D02*
X1163123Y650229D01*
Y652562D01*
X1164289Y653728D01*
X1168955D01*
X1170121Y652562D01*
Y650229D01*
X1168955Y649063D01*
X1163123Y642065D02*
Y646731D01*
X1166622D01*
X1165456Y644398D01*
Y643232D01*
X1166622Y642065D01*
X1168955D01*
X1170121Y643232D01*
Y645564D01*
X1168955Y646731D01*
X1164289Y639733D02*
X1163123Y638567D01*
Y636234D01*
X1164289Y635068D01*
X1165456D01*
X1166622Y636234D01*
Y637400D01*
Y636234D01*
X1167788Y635068D01*
X1168955D01*
X1170121Y636234D01*
Y638567D01*
X1168955Y639733D01*
X981680Y779586D02*
X980014Y781253D01*
Y784585D01*
X981680Y786251D01*
X988344D01*
X990010Y784585D01*
Y781253D01*
X988344Y779586D01*
X980014Y769590D02*
Y776254D01*
X985012D01*
X983346Y772922D01*
Y771256D01*
X985012Y769590D01*
X988344D01*
X990010Y771256D01*
Y774588D01*
X988344Y776254D01*
X990010Y759593D02*
Y766257D01*
X983346Y759593D01*
X981680D01*
X980014Y761259D01*
Y764591D01*
X981680Y766257D01*
X855346Y782923D02*
X854013Y784256D01*
Y786921D01*
X855346Y788254D01*
X860678D01*
X862011Y786921D01*
Y784256D01*
X860678Y782923D01*
X854013Y774925D02*
Y780257D01*
X858012D01*
X856679Y777591D01*
Y776258D01*
X858012Y774925D01*
X860678D01*
X862011Y776258D01*
Y778924D01*
X860678Y780257D01*
X862011Y772260D02*
Y769594D01*
Y770927D01*
X854013D01*
X855346Y772260D01*
X1262187Y673638D02*
X1263853Y675304D01*
X1267185D01*
X1268851Y673638D01*
Y666974D01*
X1267185Y665308D01*
X1263853D01*
X1262187Y666974D01*
X1252190Y675304D02*
X1258854D01*
Y670306D01*
X1255522Y671972D01*
X1253856D01*
X1252190Y670306D01*
Y666974D01*
X1253856Y665308D01*
X1257188D01*
X1258854Y666974D01*
X1248857Y673638D02*
X1247191Y675304D01*
X1243859D01*
X1242193Y673638D01*
Y666974D01*
X1243859Y665308D01*
X1247191D01*
X1248857Y666974D01*
Y673638D01*
X1036635Y795558D02*
X1038301Y797224D01*
X1041633D01*
X1043299Y795558D01*
Y788894D01*
X1041633Y787228D01*
X1038301D01*
X1036635Y788894D01*
X1028304Y787228D02*
Y797224D01*
X1033302Y792226D01*
X1026638D01*
X1023306Y795558D02*
X1021639Y797224D01*
X1018307D01*
X1016641Y795558D01*
Y793892D01*
X1018307Y792226D01*
X1016641Y790560D01*
Y788894D01*
X1018307Y787228D01*
X1021639D01*
X1023306Y788894D01*
Y790560D01*
X1021639Y792226D01*
X1023306Y793892D01*
Y795558D01*
X1021639Y792226D02*
X1018307D01*
X1067368Y795050D02*
X1069035Y796716D01*
X1072367D01*
X1074033Y795050D01*
Y788386D01*
X1072367Y786720D01*
X1069035D01*
X1067368Y788386D01*
X1059038Y786720D02*
Y796716D01*
X1064036Y791718D01*
X1057372D01*
X1054040Y796716D02*
X1047375D01*
Y795050D01*
X1054040Y788386D01*
Y786720D01*
X1163250Y686505D02*
X1161584Y688171D01*
Y691503D01*
X1163250Y693169D01*
X1169914D01*
X1171580Y691503D01*
Y688171D01*
X1169914Y686505D01*
X1171580Y678174D02*
X1161584D01*
X1166582Y683172D01*
Y676508D01*
X1161584Y666511D02*
X1163250Y669843D01*
X1166582Y673176D01*
X1169914D01*
X1171580Y671509D01*
Y668177D01*
X1169914Y666511D01*
X1168248D01*
X1166582Y668177D01*
Y673176D01*
X529112Y192979D02*
X530778Y191313D01*
Y187981D01*
X529112Y186315D01*
X522448D01*
X520782Y187981D01*
Y191313D01*
X522448Y192979D01*
X520782Y201310D02*
X530778D01*
X525780Y196312D01*
Y202976D01*
X530778Y212973D02*
Y206308D01*
X525780D01*
X527446Y209641D01*
Y211307D01*
X525780Y212973D01*
X522448D01*
X520782Y211307D01*
Y207975D01*
X522448Y206308D01*
X955609Y859566D02*
X957275Y861232D01*
X960607D01*
X962273Y859566D01*
Y852902D01*
X960607Y851236D01*
X957275D01*
X955609Y852902D01*
X952276Y859566D02*
X950610Y861232D01*
X947278D01*
X945612Y859566D01*
Y857900D01*
X947278Y856234D01*
X948944D01*
X947278D01*
X945612Y854568D01*
Y852902D01*
X947278Y851236D01*
X950610D01*
X952276Y852902D01*
X942280Y861232D02*
X935615D01*
Y859566D01*
X942280Y852902D01*
Y851236D01*
X1084550Y671128D02*
X1082884Y672795D01*
Y676127D01*
X1084550Y677793D01*
X1091214D01*
X1092880Y676127D01*
Y672795D01*
X1091214Y671128D01*
X1084550Y667796D02*
X1082884Y666130D01*
Y662798D01*
X1084550Y661132D01*
X1086216D01*
X1087882Y662798D01*
Y664464D01*
Y662798D01*
X1089548Y661132D01*
X1091214D01*
X1092880Y662798D01*
Y666130D01*
X1091214Y667796D01*
X1082884Y651135D02*
Y657800D01*
X1087882D01*
X1086216Y654467D01*
Y652801D01*
X1087882Y651135D01*
X1091214D01*
X1092880Y652801D01*
Y656133D01*
X1091214Y657800D01*
X1161980Y757625D02*
X1160314Y759291D01*
Y762623D01*
X1161980Y764289D01*
X1168644D01*
X1170310Y762623D01*
Y759291D01*
X1168644Y757625D01*
X1161980Y754292D02*
X1160314Y752626D01*
Y749294D01*
X1161980Y747628D01*
X1163646D01*
X1165312Y749294D01*
Y750960D01*
Y749294D01*
X1166978Y747628D01*
X1168644D01*
X1170310Y749294D01*
Y752626D01*
X1168644Y754292D01*
X1161980Y744296D02*
X1160314Y742629D01*
Y739297D01*
X1161980Y737631D01*
X1163646D01*
X1165312Y739297D01*
Y740963D01*
Y739297D01*
X1166978Y737631D01*
X1168644D01*
X1170310Y739297D01*
Y742629D01*
X1168644Y744296D01*
X1161980Y717858D02*
X1160314Y719525D01*
Y722857D01*
X1161980Y724523D01*
X1168644D01*
X1170310Y722857D01*
Y719525D01*
X1168644Y717858D01*
X1161980Y714526D02*
X1160314Y712860D01*
Y709528D01*
X1161980Y707862D01*
X1163646D01*
X1165312Y709528D01*
Y711194D01*
Y709528D01*
X1166978Y707862D01*
X1168644D01*
X1170310Y709528D01*
Y712860D01*
X1168644Y714526D01*
X1170310Y704529D02*
Y701197D01*
Y702863D01*
X1160314D01*
X1161980Y704529D01*
X1202089Y755857D02*
X1200922Y754691D01*
X1198590D01*
X1197424Y755857D01*
Y760523D01*
X1198590Y761689D01*
X1200922D01*
X1202089Y760523D01*
X1204421Y755857D02*
X1205588Y754691D01*
X1207920D01*
X1209087Y755857D01*
Y757024D01*
X1207920Y758190D01*
X1206754D01*
X1207920D01*
X1209087Y759356D01*
Y760523D01*
X1207920Y761689D01*
X1205588D01*
X1204421Y760523D01*
X1211419Y755857D02*
X1212586Y754691D01*
X1214918D01*
X1216084Y755857D01*
Y760523D01*
X1214918Y761689D01*
X1212586D01*
X1211419Y760523D01*
Y755857D01*
X581587Y596676D02*
X583253Y598342D01*
X586585D01*
X588251Y596676D01*
Y590012D01*
X586585Y588346D01*
X583253D01*
X581587Y590012D01*
X571590Y588346D02*
X578254D01*
X571590Y595010D01*
Y596676D01*
X573256Y598342D01*
X576588D01*
X578254Y596676D01*
X561593Y598342D02*
X568258D01*
Y593344D01*
X564925Y595010D01*
X563259D01*
X561593Y593344D01*
Y590012D01*
X563259Y588346D01*
X566591D01*
X568258Y590012D01*
X863234Y620552D02*
X864900Y622218D01*
X868232D01*
X869899Y620552D01*
Y613888D01*
X868232Y612222D01*
X864900D01*
X863234Y613888D01*
X854903Y612222D02*
Y622218D01*
X859902Y617220D01*
X853237D01*
G54D12*
X861688Y528320D02*
X860142Y529379D01*
X859712Y527556D01*
X861568Y527812D01*
X963542Y812546D02*
X961996Y813605D01*
X961566Y811782D01*
X963422Y812038D01*
X962005Y757673D02*
X960459Y758732D01*
X960029Y756908D01*
X961885Y757165D01*
X1128285Y775093D02*
X1126739Y776152D01*
X1126309Y774328D01*
X1128165Y774585D01*
X892810Y765048D02*
X893293Y762618D01*
X894670Y760558D01*
X896730Y759181D01*
X899160Y758698D01*
X901590Y759181D01*
X903650Y760558D01*
X905027Y762618D01*
X905510Y765048D01*
X893318Y825246D02*
X893801Y822816D01*
X895178Y820756D01*
X897238Y819379D01*
X899668Y818896D01*
X902098Y819379D01*
X904158Y820756D01*
X905535Y822816D01*
X906018Y825246D01*
X331216Y146558D02*
X337058Y140716D01*
Y81534D02*
Y140716D01*
Y81534D02*
X371602D01*
X385598Y67538D01*
Y16942D02*
Y67538D01*
X967867Y567766D02*
X1002157D01*
X967867Y513766D02*
X1002157D01*
X967867D02*
Y567766D01*
X1002157Y513766D02*
Y567766D01*
X536702Y503526D02*
Y493522D01*
Y496857D01*
X530032Y503526D01*
X535035Y498524D01*
X530032Y493522D01*
X487931Y410218D02*
X472696D01*
Y417835D01*
X475235Y420374D01*
X485392D01*
X487931Y417835D01*
Y410218D01*
X472696Y425453D02*
Y430531D01*
Y427992D01*
X487931D01*
X485392Y425453D01*
X470157Y438149D02*
Y448306D01*
X472696Y453384D02*
Y458462D01*
Y455923D01*
X487931D01*
X485392Y453384D01*
X330956Y81791D02*
Y97025D01*
X323338D01*
X320799Y94486D01*
Y89408D01*
X323338Y86869D01*
X330956D01*
X325877D02*
X320799Y81791D01*
X315721D02*
X310642D01*
X313182D01*
Y97025D01*
X315721Y94486D01*
X303025D02*
X300486Y97025D01*
X295407D01*
X292868Y94486D01*
Y84330D01*
X295407Y81791D01*
X300486D01*
X303025Y84330D01*
Y94486D01*
X328926Y104650D02*
Y119886D01*
X321308D01*
X318769Y117346D01*
Y112268D01*
X321308Y109729D01*
X328926D01*
X323848D02*
X318769Y104650D01*
X313691Y107190D02*
X311152Y104650D01*
X306073D01*
X303534Y107190D01*
Y117346D01*
X306073Y119886D01*
X311152D01*
X313691Y117346D01*
Y114807D01*
X311152Y112268D01*
X303534D01*
X325624Y127510D02*
Y142746D01*
X318006D01*
X315467Y140206D01*
Y135128D01*
X318006Y132589D01*
X325624D01*
X320546D02*
X315467Y127510D01*
X310389Y140206D02*
X307850Y142746D01*
X302771D01*
X300232Y140206D01*
Y137667D01*
X302771Y135128D01*
X300232Y132589D01*
Y130050D01*
X302771Y127510D01*
X307850D01*
X310389Y130050D01*
Y132589D01*
X307850Y135128D01*
X310389Y137667D01*
Y140206D01*
X307850Y135128D02*
X302771D01*
X404872Y100841D02*
Y116075D01*
X397254D01*
X394715Y113536D01*
Y108458D01*
X397254Y105919D01*
X404872D01*
X399794D02*
X394715Y100841D01*
X382019D02*
Y116075D01*
X389637Y108458D01*
X379480D01*
X534158Y65276D02*
Y50040D01*
X526540D01*
X524001Y52580D01*
Y62736D01*
X526540Y65276D01*
X534158D01*
X508766D02*
X513844Y62736D01*
X518923Y57658D01*
Y52580D01*
X516384Y50040D01*
X511305D01*
X508766Y52580D01*
Y55119D01*
X511305Y57658D01*
X518923D01*
X559304Y320291D02*
Y305056D01*
X551686D01*
X549147Y307596D01*
Y317752D01*
X551686Y320291D01*
X559304D01*
X533912Y305056D02*
X544069D01*
X533912Y315213D01*
Y317752D01*
X536451Y320291D01*
X541530D01*
X544069Y317752D01*
X201879Y136824D02*
Y126828D01*
X196880D01*
X195214Y128494D01*
Y135158D01*
X196880Y136824D01*
X201879D01*
X191882Y128494D02*
X190216Y126828D01*
X186884D01*
X185217Y128494D01*
Y135158D01*
X186884Y136824D01*
X190216D01*
X191882Y135158D01*
Y133492D01*
X190216Y131826D01*
X185217D01*
X165811Y137332D02*
Y127336D01*
X160812D01*
X159146Y129002D01*
Y135666D01*
X160812Y137332D01*
X165811D01*
X155814Y135666D02*
X154148Y137332D01*
X150815D01*
X149149Y135666D01*
Y134000D01*
X150815Y132334D01*
X149149Y130668D01*
Y129002D01*
X150815Y127336D01*
X154148D01*
X155814Y129002D01*
Y130668D01*
X154148Y132334D01*
X155814Y134000D01*
Y135666D01*
X154148Y132334D02*
X150815D01*
X699576Y615980D02*
X701243Y617646D01*
X704575D01*
X706241Y615980D01*
Y609316D01*
X704575Y607649D01*
X701243D01*
X699576Y609316D01*
X696244Y615980D02*
X694578Y617646D01*
X691246D01*
X689580Y615980D01*
Y614314D01*
X691246Y612648D01*
X689580Y610982D01*
Y609316D01*
X691246Y607649D01*
X694578D01*
X696244Y609316D01*
Y610982D01*
X694578Y612648D01*
X696244Y614314D01*
Y615980D01*
X694578Y612648D02*
X691246D01*
X681249Y607649D02*
Y617646D01*
X686247Y612648D01*
X679583D01*
G54D13*
X502962Y408470D02*
X539750D01*
X502962D02*
Y478574D01*
X539962Y408470D02*
Y478320D01*
X506264Y481876D02*
X535432D01*
X505968Y481580D02*
X506264Y481876D01*
X1090422Y196088D02*
X1115822D01*
X1090422Y255778D02*
X1115822D01*
Y196088D02*
Y215138D01*
X1090422Y196088D02*
Y215138D01*
Y236728D02*
Y255778D01*
X1115822Y236728D02*
Y255778D01*
X487270Y119914D02*
Y132834D01*
X467770Y119914D02*
Y132834D01*
Y119914D02*
X487270D01*
X467770Y141994D02*
Y154914D01*
X487270Y141994D02*
Y154914D01*
X467770D02*
X487270D01*
X494948D02*
X514448D01*
Y141994D02*
Y154914D01*
X494948Y141994D02*
Y154914D01*
Y119914D02*
X514448D01*
X494948D02*
Y132834D01*
X514448Y119914D02*
Y132834D01*
X520094Y155422D02*
X539594D01*
Y142502D02*
Y155422D01*
X520094Y142502D02*
Y155422D01*
Y120422D02*
X539594D01*
X520094D02*
Y133342D01*
X539594Y120422D02*
Y133342D01*
X385598Y11840D02*
Y31340D01*
X398518D01*
X385598Y11840D02*
X398518D01*
X420598D02*
Y31340D01*
X407678Y11840D02*
X420598D01*
X407678Y31340D02*
X420598D01*
X385598Y32922D02*
Y52422D01*
X398518D01*
X385598Y32922D02*
X398518D01*
X420598D02*
Y52422D01*
X407678Y32922D02*
X420598D01*
X407678Y52422D02*
X420598D01*
X385598Y54004D02*
Y73504D01*
X398518D01*
X385598Y54004D02*
X398518D01*
X420598D02*
Y73504D01*
X407678Y54004D02*
X420598D01*
X407678Y73504D02*
X420598D01*
X385598Y76102D02*
Y95602D01*
X398518D01*
X385598Y76102D02*
X398518D01*
X420598D02*
Y95602D01*
X407678Y76102D02*
X420598D01*
X407678Y95602D02*
X420598D01*
X893220Y558012D02*
X912720D01*
Y545092D02*
Y558012D01*
X893220Y545092D02*
Y558012D01*
Y523012D02*
X912720D01*
X893220D02*
Y535932D01*
X912720Y523012D02*
Y535932D01*
X1430782Y883158D02*
X1449832D01*
X1430782Y908558D02*
X1449832D01*
X1390142D02*
X1409192D01*
X1390142Y883158D02*
X1409192D01*
X1449832D02*
Y908558D01*
X1390142Y883158D02*
Y908558D01*
X351028Y9398D02*
Y28448D01*
X376428Y9398D02*
Y28448D01*
Y50038D02*
Y69088D01*
X351028Y50038D02*
Y69088D01*
Y9398D02*
X376428D01*
X351028Y69088D02*
X376428D01*
X86614Y870966D02*
Y896366D01*
X26924Y870966D02*
Y896366D01*
X67564D02*
X86614D01*
X67564Y870966D02*
X86614D01*
X26924D02*
X45974D01*
X26924Y896366D02*
X45974D01*
X6350Y292608D02*
X25400D01*
X6350Y267208D02*
X25400D01*
X46990D02*
X66040D01*
X46990Y292608D02*
X66040D01*
X6350Y267208D02*
Y292608D01*
X66040Y267208D02*
Y292608D01*
X1199882Y616750D02*
X1212802D01*
X1199882Y636250D02*
X1212802D01*
X1199882Y616750D02*
Y636250D01*
X1221962D02*
X1234882D01*
X1221962Y616750D02*
X1234882D01*
Y636250D01*
X1239832Y639480D02*
Y652400D01*
X1220332Y639480D02*
Y652400D01*
Y639480D02*
X1239832D01*
X1220332Y661560D02*
Y674480D01*
X1239832Y661560D02*
Y674480D01*
X1220332D02*
X1239832D01*
X1042296Y743614D02*
Y763114D01*
X1029376Y743614D02*
X1042296D01*
X1029376Y763114D02*
X1042296D01*
X1007296Y743614D02*
Y763114D01*
X1020216D01*
X1007296Y743614D02*
X1020216D01*
X1204214Y611632D02*
X1223264D01*
X1204214Y586232D02*
X1223264D01*
X1244854D02*
X1263904D01*
X1244854Y611632D02*
X1263904D01*
X1204214Y586232D02*
Y611632D01*
X1263904Y586232D02*
Y611632D01*
X1175512Y553720D02*
Y572770D01*
X1200912Y553720D02*
Y572770D01*
Y594360D02*
Y613410D01*
X1175512Y594360D02*
Y613410D01*
Y553720D02*
X1200912D01*
X1175512Y613410D02*
X1200912D01*
X1203960Y555244D02*
Y580644D01*
X1263650Y555244D02*
Y580644D01*
X1203960Y555244D02*
X1223010D01*
X1203960Y580644D02*
X1223010D01*
X1244600D02*
X1263650D01*
X1244600Y555244D02*
X1263650D01*
X1263904Y525272D02*
Y550672D01*
X1204214Y525272D02*
Y550672D01*
X1244854D02*
X1263904D01*
X1244854Y525272D02*
X1263904D01*
X1204214D02*
X1223264D01*
X1204214Y550672D02*
X1223264D01*
X1201192Y675288D02*
Y694788D01*
X1214112D01*
X1201192Y675288D02*
X1214112D01*
X1236192D02*
Y694788D01*
X1223272Y675288D02*
X1236192D01*
X1223272Y694788D02*
X1236192D01*
X1218932Y733590D02*
X1231852D01*
X1218932Y753090D02*
X1231852D01*
X1218932Y733590D02*
Y753090D01*
X1241012D02*
X1253932D01*
X1241012Y733590D02*
X1253932D01*
Y753090D01*
X1257836Y694758D02*
Y713876D01*
Y694758D02*
X1258022Y694572D01*
X1296306D01*
X1296322Y749944D02*
Y769248D01*
X1257822Y750198D02*
Y769248D01*
X1296322D01*
X1296306Y694572D02*
Y713622D01*
X1219092Y712000D02*
X1232012D01*
X1219092Y731500D02*
X1232012D01*
X1219092Y712000D02*
Y731500D01*
X1241172D02*
X1254092D01*
X1241172Y712000D02*
X1254092D01*
Y731500D01*
X784508Y529616D02*
X804008D01*
X784508D02*
Y542536D01*
X804008Y529616D02*
Y542536D01*
X784508Y564616D02*
X804008D01*
Y551696D02*
Y564616D01*
X784508Y551696D02*
Y564616D01*
X1174612Y642510D02*
Y655430D01*
X1194112Y642510D02*
Y655430D01*
X1174612D02*
X1194112D01*
Y620430D02*
Y633350D01*
X1174612Y620430D02*
Y633350D01*
Y620430D02*
X1194112D01*
X954942Y752788D02*
X974442D01*
X954942D02*
Y765708D01*
X974442Y752788D02*
Y765708D01*
X954942Y787788D02*
X974442D01*
Y774868D02*
Y787788D01*
X954942Y774868D02*
Y787788D01*
X828704Y751866D02*
X848204D01*
X828704D02*
Y764786D01*
X848204Y751866D02*
Y764786D01*
X828704Y786866D02*
X848204D01*
Y773946D02*
Y786866D01*
X828704Y773946D02*
Y786866D01*
X1197342Y674480D02*
X1216842D01*
Y661560D02*
Y674480D01*
X1197342Y661560D02*
Y674480D01*
Y639480D02*
X1216842D01*
X1197342D02*
Y652400D01*
X1216842Y639480D02*
Y652400D01*
X1007390Y765204D02*
X1020310D01*
X1007390Y784704D02*
X1020310D01*
X1007390Y765204D02*
Y784704D01*
X1029470D02*
X1042390D01*
X1029470Y765204D02*
X1042390D01*
Y784704D01*
X1065030Y784450D02*
X1077950D01*
X1065030Y764950D02*
X1077950D01*
Y784450D01*
X1042950Y764950D02*
X1055870D01*
X1042950Y784450D02*
X1055870D01*
X1042950Y764950D02*
Y784450D01*
X1174612Y680610D02*
Y693530D01*
X1194112Y680610D02*
Y693530D01*
X1174612D02*
X1194112D01*
Y658530D02*
Y671450D01*
X1174612Y658530D02*
Y671450D01*
Y658530D02*
X1194112D01*
X920268Y828450D02*
Y847950D01*
X933188D01*
X920268Y828450D02*
X933188D01*
X955268D02*
Y847950D01*
X942348Y828450D02*
X955268D01*
X942348Y847950D02*
X955268D01*
X852088Y812438D02*
Y831938D01*
X839168Y812438D02*
X852088D01*
X839168Y831938D02*
X852088D01*
X817088Y812438D02*
Y831938D01*
X830008D01*
X817088Y812438D02*
X830008D01*
X1122902Y676890D02*
X1135822D01*
X1122902Y657390D02*
X1135822D01*
Y676890D01*
X1100822Y657390D02*
X1113742D01*
X1100822Y676890D02*
X1113742D01*
X1100822Y657390D02*
Y676890D01*
X1174612Y768300D02*
X1194112D01*
Y755380D02*
Y768300D01*
X1174612Y755380D02*
Y768300D01*
Y733300D02*
X1194112D01*
X1174612D02*
Y746220D01*
X1194112Y733300D02*
Y746220D01*
Y695520D02*
Y708440D01*
X1174612Y695520D02*
Y708440D01*
Y695520D02*
X1194112D01*
X1174612Y717600D02*
Y730520D01*
X1194112Y717600D02*
Y730520D01*
X1174612D02*
X1194112D01*
X1196750Y750544D02*
X1216250D01*
Y737624D02*
Y750544D01*
X1196750Y737624D02*
Y750544D01*
Y715544D02*
X1216250D01*
X1196750D02*
Y728464D01*
X1216250Y715544D02*
Y728464D01*
X1056952Y683930D02*
Y696850D01*
X1037452Y683930D02*
Y696850D01*
Y683930D02*
X1056952D01*
X1037452Y706010D02*
Y718930D01*
X1056952Y706010D02*
Y718930D01*
X1037452D02*
X1056952D01*
X1078542Y683930D02*
Y696850D01*
X1059042Y683930D02*
Y696850D01*
Y683930D02*
X1078542D01*
X1059042Y706010D02*
Y718930D01*
X1078542Y706010D02*
Y718930D01*
X1059042D02*
X1078542D01*
G54D17*
X514095Y439266D02*
X521715Y446886D01*
X529335Y439266D01*
X521715Y446886D02*
Y459207D01*
Y430314D02*
Y439012D01*
X514095Y439266D02*
X529335D01*
X516127Y446886D02*
X526795D01*
X946621Y760258D02*
X946671Y757385D01*
X944158Y758778D02*
X946671Y757385D01*
X944158Y758778D02*
X946621Y760258D01*
X944666Y818976D02*
X947129Y820456D01*
X944666Y818976D02*
X947179Y817583D01*
X947129Y820456D02*
X947179Y817583D01*
G54D19*
X494568Y34636D02*
Y110636D01*
X466568Y34636D02*
X494568D01*
X466568Y112386D02*
X494568D01*
X466568Y34636D02*
Y110636D01*
Y109886D02*
X494568D01*
X466568D02*
Y112386D01*
X494568Y109886D02*
Y112386D01*
X504326Y354106D02*
X506826D01*
X504326Y326106D02*
X506826D01*
Y354106D01*
X506076Y326106D02*
X582076D01*
X504326D02*
Y354106D01*
X582076Y326106D02*
Y354106D01*
X506076D02*
X582076D01*
X1438840Y807356D02*
Y825356D01*
X1388590Y807356D02*
X1438840D01*
X1388590D02*
Y825356D01*
X1438840D01*
X1435840Y808356D02*
Y824356D01*
X180976Y91672D02*
X196976D01*
X179976Y44422D02*
Y94672D01*
Y44422D02*
X197976D01*
Y94672D01*
X179976D02*
X197976D01*
X150242Y92434D02*
X166242D01*
X149242Y45184D02*
Y95434D01*
Y45184D02*
X167242D01*
Y95434D01*
X149242D02*
X167242D01*
G54D20*
X974424Y522316D02*
Y519650D01*
X973091Y520983D02*
X975757D01*
X940473Y771865D02*
Y767700D01*
X939640Y766867D01*
X937974D01*
X937141Y767700D01*
Y771865D01*
X935475Y766867D02*
X933809D01*
X934642D01*
Y771865D01*
X935475Y771032D01*
X931310D02*
X930476Y771865D01*
X928810D01*
X927977Y771032D01*
Y767700D01*
X928810Y766867D01*
X930476D01*
X931310Y767700D01*
Y771032D01*
X960221Y824697D02*
Y820532D01*
X959388Y819699D01*
X957722D01*
X956889Y820532D01*
Y824697D01*
X955223D02*
X951891D01*
Y823864D01*
X955223Y820532D01*
Y819699D01*
X1046680Y746835D02*
X1051678D01*
Y749335D01*
X1050845Y750168D01*
X1049179D01*
X1048346Y749335D01*
Y746835D01*
Y748502D02*
X1046680Y750168D01*
Y755166D02*
Y751834D01*
X1050012Y755166D01*
X1050845D01*
X1051678Y754333D01*
Y752667D01*
X1050845Y751834D01*
X1047513Y756832D02*
X1046680Y757665D01*
Y759331D01*
X1047513Y760164D01*
X1050845D01*
X1051678Y759331D01*
Y757665D01*
X1050845Y756832D01*
X1050012D01*
X1049179Y757665D01*
Y760164D01*
X844834Y842152D02*
X845667Y842985D01*
X847333D01*
X848167Y842152D01*
Y838820D01*
X847333Y837987D01*
X845667D01*
X844834Y838820D01*
X843168Y842152D02*
X842335Y842985D01*
X840669D01*
X839836Y842152D01*
Y841319D01*
X840669Y840486D01*
X841502D01*
X840669D01*
X839836Y839653D01*
Y838820D01*
X840669Y837987D01*
X842335D01*
X843168Y838820D01*
X834837Y842985D02*
X836504Y842152D01*
X838170Y840486D01*
Y838820D01*
X837337Y837987D01*
X835671D01*
X834837Y838820D01*
Y839653D01*
X835671Y840486D01*
X838170D01*
X1053114Y726582D02*
X1053947Y727415D01*
X1055613D01*
X1056447Y726582D01*
Y723250D01*
X1055613Y722417D01*
X1053947D01*
X1053114Y723250D01*
X1048116Y722417D02*
X1051448D01*
X1048116Y725749D01*
Y726582D01*
X1048949Y727415D01*
X1050615D01*
X1051448Y726582D01*
X1046450Y723250D02*
X1045617Y722417D01*
X1043951D01*
X1043118Y723250D01*
Y726582D01*
X1043951Y727415D01*
X1045617D01*
X1046450Y726582D01*
Y725749D01*
X1045617Y724916D01*
X1043118D01*
X1074664Y725956D02*
X1075497Y726789D01*
X1077163D01*
X1077997Y725956D01*
Y722624D01*
X1077163Y721791D01*
X1075497D01*
X1074664Y722624D01*
X1069666Y721791D02*
X1072998D01*
X1069666Y725123D01*
Y725956D01*
X1070499Y726789D01*
X1072165D01*
X1072998Y725956D01*
X1068000D02*
X1067167Y726789D01*
X1065501D01*
X1064668Y725956D01*
Y725123D01*
X1065501Y724290D01*
X1064668Y723457D01*
Y722624D01*
X1065501Y721791D01*
X1067167D01*
X1068000Y722624D01*
Y723457D01*
X1067167Y724290D01*
X1068000Y725123D01*
Y725956D01*
X1067167Y724290D02*
X1065501D01*
G54D192*
X1218705Y828662D02*
X1216817Y829752D01*
Y827572D01*
X1218705Y828662D01*
G54D193*
X1146322Y784910D02*
X1144940Y786812D01*
X1142704Y786086D01*
Y783734D01*
X1144940Y783008D01*
X1146322Y784910D01*
M02*
